<svg width="50" height="50" viewBox="0 0 50 50" fill="none" xmlns="http://www.w3.org/2000/svg">
<g clip-path="url(#clip0_1530_800)">
<path d="M3.73485 23.9847C5.23485 20.7802 9.09848 19.515 12.3106 18.515C12.4545 18.4696 12.5909 18.4317 12.7348 18.3711C12.8485 21.4923 13.4545 24.5756 14.7727 27.4847C15.9621 30.1135 17.7348 32.5226 19.9242 34.5756C15.6288 36.5226 8.38636 37.4772 5.03788 33.2347C3.0303 30.6741 2.34848 26.9393 3.73485 23.9847Z" fill="white"/>
<path d="M21.0455 35.7346C22.3636 38.2498 25.3939 44.4316 25.3712 45.5073C25.3258 47.1967 24.0758 48.5452 22.3636 48.477C19.9394 48.3861 19.0151 45.9695 17.9545 44.1967C16.9545 42.5301 15.3788 39.6286 14.3712 37.6286C16.4773 37.4013 18.6515 36.818 20.553 35.9543L21.0455 35.7346Z" fill="white"/>
<path d="M28.7727 20.9848C29.2576 22.1666 29.8106 23.3181 30.4015 24.4166C32.2424 27.8636 34.3712 30.6363 36.5379 32.5151C32.3939 31.9166 27.75 31.9848 21.5379 34.0075L20.9621 33.4696C18.9015 31.5378 17.2348 29.2575 16.1515 26.8636C15 24.3257 14.3636 21.4545 14.2424 18.3181L14.2197 17.803C18.4697 15.9772 23.1439 12.1515 26.0076 8.30298C25.9394 10.8333 26.3712 13.803 27.3485 17.0378C27.7424 18.3409 28.2197 19.6742 28.7727 20.9848Z" fill="white"/>
<path d="M28.8106 16.606C28.803 16.5757 28.7955 16.553 28.7879 16.5227C30.3864 16.106 32.0909 15.7651 33.8939 15.5075C34.5455 15.409 35.2576 15.3257 35.9318 15.3257C36.3939 15.3257 36.8409 15.3636 37.25 15.4696C38.4167 15.7499 38.9545 16.4696 38.9621 17.0605C38.9773 17.7348 38.5227 18.5302 37.6136 19.4166C36.1591 20.8863 34.1667 22.1514 31.5379 23.2878C31.053 22.3636 30.5909 21.4014 30.1818 20.3939C29.6364 19.1211 29.1818 17.856 28.8106 16.606Z" fill="white"/>
<path d="M32.2576 24.6287C35 23.4317 37.1136 22.0681 38.6742 20.4923C39.9091 19.2953 40.5 18.159 40.4697 17.0302C40.447 15.6135 39.2955 14.3938 37.6061 13.9923C36.3561 13.6817 34.9167 13.8181 33.6742 14.0075C31.8182 14.2726 30.0455 14.6211 28.3864 15.0529C26.7197 8.37868 27.5379 2.83323 30.7348 1.71959C34.7273 0.318074 40.8864 6.37868 44.4924 15.1741C48.0455 23.8711 47.7803 32.0605 43.8939 33.5378C40.6515 34.765 35.8864 30.9696 32.2576 24.6287Z" fill="white"/>
</g>
<defs>
<clipPath id="clip0_1530_800">
<rect width="50" height="50" fill="white"/>
</clipPath>
</defs>
</svg>
