<svg width="162" height="164" viewBox="0 0 162 164" fill="none" xmlns="http://www.w3.org/2000/svg">
<g clip-path="url(#clip0_482_771)">
<path d="M90.7498 0.698396L86.8387 10.015L86.713 10.001L84.2966 0.195551L81.8801 0L85.2185 12.5013L87.9282 12.7108L93.1662 0.879979L90.7498 0.698396Z" fill="#272525"/>
<path d="M97.1739 4.86594L95.1797 13.7949L97.279 14.2638L99.2732 5.3348L97.1739 4.86594Z" fill="#272525"/>
<path d="M99.0324 1.57849C98.874 1.54085 98.7097 1.53502 98.5491 1.5614C98.3884 1.58777 98.2346 1.6458 98.0966 1.73212C97.9577 1.80537 97.8368 1.90853 97.7426 2.03413C97.6484 2.15972 97.5833 2.30462 97.5518 2.45843C97.5184 2.61188 97.5172 2.77061 97.5485 2.92451C97.5798 3.07842 97.6428 3.22416 97.7334 3.3524C97.9241 3.61894 98.2085 3.80354 98.5296 3.86921C98.6847 3.90934 98.8464 3.91768 99.0048 3.89367C99.1632 3.86967 99.3152 3.81381 99.4514 3.72952C99.5891 3.65474 99.7091 3.55115 99.8031 3.4258C99.8971 3.30046 99.963 3.15632 99.9962 3.0032C100.032 2.84993 100.035 2.69064 100.003 2.53631C99.9721 2.38198 99.9077 2.23626 99.8146 2.10923C99.6308 1.83935 99.3511 1.64961 99.0324 1.57849Z" fill="#272525"/>
<path d="M108.336 17.823L107.246 12.585L111.367 9.1908L109.23 8.42257L106.324 10.9787L105.724 7.16545L103.573 6.39722L104.578 11.6212L100.43 14.9875L102.581 15.7697L105.486 13.3113L106.199 17.0547L108.336 17.823Z" fill="#272525"/>
<path d="M113.406 20.5887C113.77 20.8057 114.174 20.9481 114.593 21.0077C114.934 21.0789 115.286 21.0789 115.627 21.0077C115.921 20.943 116.2 20.8247 116.451 20.6585L115.85 21.762L117.666 22.7677L120.614 17.404C120.884 16.9554 121.037 16.4465 121.06 15.9234C121.064 15.4825 120.964 15.0469 120.767 14.6523C120.558 14.2638 120.284 13.9142 119.957 13.6187C119.626 13.3257 119.266 13.0682 118.882 12.8505C118.366 12.5591 117.803 12.3606 117.219 12.2638C116.694 12.1713 116.154 12.1999 115.641 12.3476C115.109 12.5052 114.628 12.7988 114.244 13.1997L115.864 14.4149C116.127 14.1867 116.454 14.0453 116.8 14.0098C117.247 13.9656 117.695 14.0739 118.071 14.3171C118.446 14.4913 118.74 14.8007 118.895 15.1831C118.947 15.3678 118.96 15.561 118.933 15.7508C118.907 15.9407 118.842 16.1231 118.742 16.2866V16.2866C118.706 16.3666 118.649 16.4357 118.578 16.4872C118.507 16.5386 118.424 16.5706 118.337 16.5799C118.081 16.579 117.828 16.5218 117.596 16.4123C117.275 16.3006 116.87 16.1329 116.367 15.9234C115.972 15.7444 115.56 15.6041 115.138 15.5044C114.747 15.3976 114.342 15.3505 113.937 15.3647C113.555 15.3776 113.183 15.4934 112.861 15.6999C112.492 15.9439 112.193 16.2812 111.995 16.6777C111.719 17.1356 111.588 17.6663 111.618 18.2002C111.634 18.7072 111.81 19.1962 112.121 19.597C112.472 20.0172 112.911 20.3557 113.406 20.5887ZM113.881 17.6694C113.99 17.4456 114.18 17.271 114.412 17.1805C114.65 17.1165 114.9 17.1165 115.138 17.1805C115.43 17.2189 115.717 17.294 115.99 17.404L116.465 17.5856L117.038 17.7951C117.212 17.8513 117.389 17.8979 117.569 17.9348C117.693 17.9596 117.821 17.9596 117.946 17.9348L117.429 18.8706C117.268 19.1612 117.032 19.4026 116.744 19.569C116.446 19.734 116.108 19.816 115.767 19.8065C115.373 19.7943 114.989 19.6838 114.649 19.4852C114.299 19.311 114.011 19.033 113.825 18.6891C113.747 18.5285 113.711 18.3505 113.72 18.172C113.73 17.9935 113.785 17.8205 113.881 17.6694V17.6694Z" fill="#272525"/>
<path d="M122.499 26.1061L125.809 21.9158C126.048 21.603 126.359 21.3535 126.717 21.1894C127.024 21.0541 127.362 21.0058 127.695 21.0497C128.039 21.1115 128.361 21.2606 128.631 21.4828C128.828 21.6229 128.992 21.8041 129.113 22.0138C129.234 22.2236 129.307 22.457 129.329 22.698C129.339 22.9533 129.299 23.2082 129.21 23.4478C129.121 23.6875 128.986 23.9074 128.812 24.0948L125.432 28.4108L127.122 29.8076L130.726 25.2401C131.143 24.7491 131.435 24.1645 131.578 23.536C131.706 23.0007 131.662 22.4385 131.452 21.9297C131.241 21.3749 130.878 20.8908 130.405 20.5329C129.945 20.1453 129.381 19.9023 128.784 19.8345C128.252 19.8032 127.722 19.9295 127.262 20.1977L127.178 20.1279L128.156 18.8987L126.494 17.5857L120.823 24.7792L122.499 26.1061Z" fill="#272525"/>
<path d="M134.525 37.4342L136.369 39.9205C136.999 40.8268 137.85 41.5575 138.841 42.0436C139.744 42.4605 140.753 42.5921 141.732 42.4208C142.849 42.2065 143.898 41.7275 144.791 41.024C145.709 40.3707 146.464 39.5153 146.998 38.5237C147.442 37.6389 147.612 36.6421 147.487 35.6603C147.321 34.5858 146.883 33.5715 146.216 32.713L144.289 30.115L143.702 29.3188L133.924 36.5822L134.553 37.4202L134.525 37.4342ZM145.099 37.5599C144.696 38.2438 144.148 38.8305 143.492 39.278C142.863 39.7766 142.135 40.1339 141.355 40.3256C140.721 40.4698 140.057 40.396 139.47 40.1161C138.815 39.7973 138.252 39.3165 137.835 38.7193L136.76 37.2526L143.478 32.28L144.596 33.7886C145.045 34.3571 145.342 35.0298 145.462 35.7441C145.542 36.3728 145.415 37.0105 145.099 37.5599V37.5599Z" fill="#272525"/>
<path d="M149.579 43.3604L141.533 47.7161L142.557 49.6077L150.603 45.252L149.579 43.3604Z" fill="#272525"/>
<path d="M151.971 44.3762C152.115 44.4204 152.266 44.4347 152.416 44.4182C152.566 44.4017 152.71 44.3547 152.841 44.2801C152.972 44.2055 153.086 44.1049 153.177 43.9845C153.267 43.8641 153.332 43.7264 153.367 43.58C153.412 43.4267 153.425 43.2661 153.405 43.1077C153.386 42.9493 153.335 42.7964 153.256 42.6581C153.182 42.5121 153.08 42.3824 152.955 42.2768C152.83 42.1712 152.686 42.0919 152.529 42.0436C152.386 41.9992 152.236 41.9843 152.087 41.9999C151.938 42.0156 151.794 42.0614 151.663 42.1346C151.532 42.2078 151.418 42.3068 151.327 42.4256C151.235 42.5445 151.169 42.6806 151.133 42.8258C151.057 43.1457 151.096 43.482 151.244 43.7756C151.402 44.0606 151.661 44.2752 151.971 44.3762V44.3762Z" fill="#272525"/>
<path d="M148.465 51.0389C147.65 51.3242 146.917 51.8036 146.328 52.4357C145.854 52.9329 145.538 53.5602 145.42 54.2376C145.317 54.8965 145.39 55.5709 145.63 56.1931C145.785 56.6172 146.022 57.0065 146.328 57.3385C146.574 57.5804 146.863 57.7745 147.18 57.9112C147.435 58.0152 147.703 58.0811 147.977 58.1067V58.2185L146.37 58.8331C146.131 58.9664 145.862 59.0364 145.588 59.0364C145.314 59.0364 145.045 58.9664 144.806 58.8331C144.353 58.5334 144.014 58.0909 143.842 57.576C143.704 57.2385 143.628 56.8788 143.618 56.5144C143.625 56.241 143.682 55.9711 143.786 55.7182C143.877 55.5184 144 55.3345 144.149 55.1735L143.018 53.5392C142.462 53.9897 142.086 54.6237 141.956 55.3271C141.789 56.2722 141.911 57.2457 142.306 58.1207C142.561 58.8301 142.95 59.4843 143.451 60.0483C143.881 60.5666 144.469 60.9293 145.125 61.0807C145.781 61.2321 146.469 61.1639 147.083 60.8863L155.757 57.562L155.016 55.6065L153.62 56.1373V56.0395C153.81 55.8218 153.974 55.5828 154.108 55.3271C154.283 55.0183 154.388 54.675 154.416 54.3214C154.467 53.8455 154.395 53.3646 154.206 52.9246C153.968 52.2887 153.551 51.7356 153.005 51.3323C152.434 50.9134 151.756 50.6662 151.049 50.6199C150.168 50.5641 149.284 50.7073 148.465 51.0389ZM151.943 53.0922C152.31 53.323 152.587 53.6733 152.726 54.084C152.888 54.4729 152.922 54.9034 152.823 55.3132C152.702 55.7178 152.464 56.0774 152.139 56.3468C151.75 56.685 151.299 56.9457 150.812 57.115C150.153 57.4225 149.409 57.4964 148.703 57.3245C148.408 57.2416 148.137 57.0874 147.916 56.8755C147.694 56.6636 147.528 56.4005 147.432 56.1093C147.27 55.7201 147.236 55.2899 147.334 54.8801C147.444 54.4735 147.673 54.1089 147.99 53.8325C148.367 53.5127 148.798 53.2621 149.262 53.0922C149.726 52.8959 150.224 52.7915 150.728 52.7849C151.163 52.7686 151.594 52.8751 151.971 53.0922H151.943Z" fill="#272525"/>
<path d="M157.09 62.2697L148.192 64.3977L148.693 66.4897L157.591 64.3617L157.09 62.2697Z" fill="#272525"/>
<path d="M159.123 63.8475C159.255 63.9361 159.404 63.9957 159.56 64.0222C159.717 64.0487 159.877 64.0415 160.031 64.0011C160.182 63.9669 160.324 63.9006 160.447 63.8066C160.569 63.7126 160.671 63.5931 160.743 63.4564C160.907 63.1736 160.957 62.8389 160.883 62.5205C160.807 62.2002 160.612 61.9206 160.338 61.7383C160.209 61.6491 160.063 61.5892 159.908 61.5627C159.754 61.5361 159.595 61.5436 159.444 61.5847C159.29 61.6161 159.145 61.6813 159.02 61.7755C158.894 61.8697 158.791 61.9906 158.718 62.1294C158.636 62.2691 158.582 62.4239 158.56 62.5846C158.539 62.7454 158.55 62.9088 158.592 63.0653C158.663 63.384 158.853 63.6637 159.123 63.8475V63.8475Z" fill="#272525"/>
<path d="M156.943 69.9376L151.901 70.622C151.56 70.6493 151.229 70.7495 150.93 70.9158C150.631 71.082 150.372 71.3105 150.169 71.5858C149.769 72.1956 149.624 72.9375 149.764 73.653C149.8 73.8889 149.851 74.1222 149.917 74.3514C149.989 74.5793 150.073 74.8032 150.169 75.0219L151.789 74.4352C151.748 74.3356 151.716 74.2329 151.691 74.1279C151.663 74.0267 151.64 73.9242 151.622 73.8207C151.568 73.5499 151.623 73.2687 151.775 73.0384C151.983 72.8381 152.255 72.7191 152.543 72.7032L157.223 72.0747L157.474 73.8626L159.122 73.653L158.955 71.8791L161.106 71.5997L160.826 69.4627L158.661 69.756L158.494 68.4709L156.846 68.6944L156.943 69.9376Z" fill="#272525"/>
<path d="M150.309 83.5562V85.6374L156.427 85.7352C156.952 85.7544 157.473 85.6491 157.95 85.4279C158.342 85.2247 158.678 84.9271 158.927 84.5619C159.177 84.2025 159.356 83.7999 159.458 83.3746C159.57 82.9459 159.626 82.5046 159.626 82.0616C159.645 81.4694 159.56 80.8783 159.374 80.3156C159.215 79.791 158.932 79.312 158.55 78.9188C158.16 78.5353 157.68 78.2565 157.153 78.1087L156.846 80.1201C157.169 80.2439 157.447 80.4632 157.642 80.7486C157.884 81.1267 157.996 81.5725 157.964 82.0197C157.984 82.4332 157.844 82.8385 157.572 83.1511C157.439 83.2866 157.277 83.3907 157.098 83.4559C156.919 83.5211 156.728 83.5458 156.539 83.5282V83.5282C156.451 83.5346 156.363 83.5173 156.285 83.4779C156.206 83.4386 156.139 83.3788 156.092 83.3048C155.972 83.075 155.901 82.823 155.882 82.5645C155.882 82.2432 155.799 81.7962 155.757 81.2515C155.715 80.819 155.645 80.3897 155.547 79.9664C155.456 79.5735 155.305 79.1967 155.1 78.849C154.909 78.5184 154.635 78.2439 154.304 78.0528C153.915 77.8388 153.476 77.7327 153.033 77.7455C152.499 77.715 151.968 77.8464 151.51 78.1227C151.094 78.3787 150.763 78.7532 150.561 79.1982C150.345 79.6918 150.231 80.2239 150.225 80.7626C150.207 81.1893 150.268 81.6158 150.407 82.0197C150.628 82.6181 151.06 83.1149 151.622 83.4165V83.4863L150.309 83.5562ZM152.069 80.2877C152.17 80.1437 152.307 80.029 152.466 79.9554C152.626 79.8817 152.802 79.8518 152.977 79.8687C153.22 79.8608 153.458 79.9401 153.648 80.0921C153.832 80.2596 153.971 80.471 154.053 80.7067C154.157 80.986 154.227 81.2768 154.262 81.5727C154.262 81.7124 154.262 81.88 154.262 82.0756C154.262 82.2711 154.262 82.4667 154.346 82.6762C154.376 82.8557 154.418 83.033 154.472 83.207C154.494 83.3316 154.542 83.4504 154.611 83.5562H153.536C153.204 83.554 152.879 83.4571 152.6 83.2768C152.318 83.0899 152.088 82.8354 151.929 82.5365C151.752 82.1819 151.67 81.7871 151.692 81.3912C151.683 80.9818 151.817 80.5821 152.069 80.2598V80.2877Z" fill="#272525"/>
<path d="M150.929 92.7269L150.649 94.8564L162.721 96.4417L163.001 94.3121L150.929 92.7269Z" fill="#272525"/>
<path d="M147.195 102.608L149.667 104.592L148.075 108.88L144.904 108.796L144.08 111.003L157 111.213L157.95 108.656L148.019 100.387L147.195 102.608ZM155.114 109.103L149.932 108.95L151.12 105.765L155.156 109.006L155.114 109.103Z" fill="#272525"/>
<path d="M146.957 115.389C146.241 114.919 145.421 114.631 144.568 114.551C143.887 114.493 143.202 114.633 142.599 114.956C142.015 115.286 141.532 115.769 141.202 116.353C140.953 116.73 140.795 117.161 140.741 117.61C140.699 117.951 140.722 118.298 140.811 118.63C140.89 118.895 141.002 119.148 141.146 119.384V119.496L139.666 118.616C139.416 118.497 139.199 118.319 139.034 118.098C138.868 117.876 138.759 117.618 138.716 117.345C138.675 116.808 138.813 116.273 139.107 115.822C139.285 115.501 139.522 115.217 139.805 114.984C140.021 114.817 140.268 114.693 140.532 114.621C140.749 114.588 140.971 114.588 141.188 114.621L141.761 112.721C141.065 112.563 140.336 112.662 139.708 113.001C138.86 113.457 138.169 114.158 137.724 115.012C137.327 115.653 137.057 116.364 136.928 117.107C136.795 117.765 136.879 118.448 137.166 119.055C137.453 119.661 137.928 120.159 138.52 120.474L146.524 125.209L147.599 123.393L146.3 122.625V122.527C146.584 122.559 146.869 122.559 147.152 122.527C147.501 122.47 147.834 122.341 148.13 122.15C148.512 121.891 148.827 121.546 149.052 121.144C149.401 120.563 149.576 119.894 149.555 119.216C149.527 118.507 149.3 117.819 148.898 117.233C148.405 116.475 147.74 115.843 146.957 115.389V115.389ZM147.222 120.613C147.02 120.985 146.701 121.279 146.314 121.451C145.92 121.61 145.488 121.649 145.071 121.563C144.578 121.457 144.105 121.268 143.674 121.004C143.028 120.672 142.509 120.137 142.194 119.482C142.083 119.195 142.041 118.886 142.073 118.58C142.104 118.274 142.208 117.98 142.375 117.722C142.583 117.354 142.9 117.061 143.283 116.884C143.665 116.717 144.089 116.668 144.499 116.744C144.994 116.836 145.468 117.021 145.895 117.289C146.332 117.539 146.72 117.865 147.041 118.253C147.319 118.577 147.498 118.975 147.558 119.398C147.596 119.83 147.477 120.262 147.222 120.613V120.613Z" fill="#272525"/>
<path d="M140.14 126.075C139.495 125.506 138.724 125.099 137.891 124.887C137.152 124.699 136.373 124.738 135.656 124.999C134.886 125.279 134.205 125.762 133.687 126.396C133.262 126.881 132.931 127.439 132.709 128.044C132.524 128.563 132.467 129.119 132.541 129.664C132.62 130.171 132.821 130.65 133.128 131.061L134.609 129.664C134.475 129.434 134.399 129.176 134.385 128.91C134.36 128.653 134.398 128.394 134.497 128.156C134.606 127.892 134.757 127.646 134.944 127.43C135.219 127.098 135.575 126.843 135.977 126.689C136.374 126.57 136.796 126.57 137.193 126.689C137.613 126.805 138.004 127.01 138.338 127.29L134.231 132.137L134.748 132.57C135.279 133.037 135.89 133.406 136.55 133.659C137.091 133.854 137.667 133.93 138.24 133.883C138.767 133.827 139.276 133.66 139.735 133.394C140.21 133.124 140.632 132.769 140.978 132.346C141.514 131.751 141.868 131.014 141.998 130.223C142.11 129.469 142.003 128.698 141.69 128.002C141.329 127.249 140.798 126.589 140.14 126.075V126.075ZM139.693 131.368C139.432 131.687 139.082 131.921 138.687 132.039C138.313 132.15 137.916 132.15 137.542 132.039C137.246 131.923 136.965 131.773 136.704 131.592L139.497 128.365C139.729 128.594 139.922 128.858 140.07 129.148C140.238 129.504 140.306 129.901 140.266 130.293C140.177 130.697 139.978 131.069 139.693 131.368V131.368Z" fill="#272525"/>
<path d="M127.206 133.338L130.67 137.43C130.934 137.72 131.121 138.07 131.215 138.45C131.284 138.781 131.26 139.124 131.145 139.442C131.015 139.765 130.803 140.049 130.531 140.266C130.357 140.435 130.148 140.563 129.918 140.64C129.688 140.718 129.444 140.742 129.204 140.713C128.687 140.626 128.223 140.347 127.905 139.931L124.371 135.74L122.723 137.137L126.48 141.579C126.884 142.083 127.4 142.485 127.989 142.752C128.489 142.972 129.042 143.04 129.581 142.948C130.146 142.827 130.671 142.563 131.103 142.18C131.568 141.823 131.918 141.337 132.109 140.783C132.263 140.273 132.263 139.729 132.109 139.218L132.179 139.149L133.199 140.336L134.805 138.939L128.896 131.955L127.206 133.338Z" fill="#272525"/>
<path d="M120.669 141.132C120.03 140.712 119.283 140.484 118.518 140.475C117.697 140.482 116.893 140.719 116.2 141.16C115.597 141.504 115.081 141.982 114.691 142.557C114.361 143.062 114.169 143.644 114.132 144.247C114.106 144.862 114.241 145.473 114.524 146.021L116.297 144.959C116.116 144.55 116.094 144.088 116.236 143.664C116.378 143.24 116.674 142.885 117.066 142.668C117.426 142.449 117.847 142.351 118.267 142.389C118.703 142.438 119.116 142.613 119.454 142.892C119.885 143.228 120.245 143.646 120.516 144.121C120.8 144.583 120.994 145.095 121.088 145.63C121.153 146.058 121.105 146.496 120.949 146.901C120.781 147.285 120.492 147.604 120.125 147.809C119.861 147.976 119.557 148.073 119.245 148.088C118.966 148.1 118.689 148.048 118.435 147.934C118.173 147.812 117.94 147.636 117.75 147.417L115.976 148.465C116.319 148.974 116.794 149.381 117.35 149.642C117.906 149.902 118.522 150.007 119.133 149.946C119.812 149.866 120.466 149.637 121.047 149.275C121.759 148.882 122.341 148.29 122.723 147.571C123.089 146.897 123.244 146.128 123.17 145.364C123.092 144.517 122.82 143.7 122.373 142.976C121.95 142.242 121.368 141.612 120.669 141.132V141.132Z" fill="#272525"/>
<path d="M107.734 144.875C107.705 144.676 107.723 144.472 107.786 144.281C107.849 144.089 107.956 143.915 108.098 143.772C108.402 143.544 108.766 143.408 109.145 143.381H109.257L109.103 141.635C108.897 141.641 108.691 141.664 108.489 141.705C108.221 141.765 107.959 141.849 107.706 141.956C107.237 142.131 106.808 142.402 106.449 142.752C106.146 143.068 105.921 143.451 105.793 143.87C105.659 144.322 105.602 144.795 105.625 145.266L106.03 156.147L108.167 155.295L107.567 148.088H107.651L112.176 153.675L114.257 152.893L107.72 145.434L107.734 144.875Z" fill="#272525"/>
<path d="M92.3704 149.862C92.1993 149.886 92.0351 149.946 91.8884 150.038C91.7417 150.129 91.6157 150.25 91.5184 150.393C91.3352 150.681 91.2639 151.026 91.3179 151.363C91.372 151.7 91.5476 152.006 91.8117 152.223C91.9538 152.324 92.1148 152.396 92.2851 152.434C92.4553 152.473 92.6316 152.477 92.8034 152.446C92.975 152.421 93.1397 152.361 93.2879 152.271C93.4362 152.181 93.5648 152.062 93.6664 151.922C93.7679 151.781 93.8403 151.621 93.8792 151.452C93.9181 151.283 93.9228 151.108 93.8929 150.937C93.8602 150.764 93.7909 150.6 93.6898 150.455C93.5886 150.311 93.4579 150.189 93.3063 150.099C93.0364 149.903 92.7013 149.818 92.3704 149.862V149.862Z" fill="#272525"/>
<path d="M75.3144 150.7L70.272 162.601L72.6885 162.74L76.4459 153.368L76.5716 153.382L79.1417 163.145L81.5581 163.299L78.0242 150.868L75.3144 150.7Z" fill="#272525"/>
<path d="M64.8675 159.709C64.5519 159.639 64.2212 159.694 63.9456 159.863C63.8077 159.939 63.6885 160.045 63.5967 160.173C63.5049 160.301 63.4428 160.448 63.4148 160.603C63.3806 160.757 63.3804 160.917 63.4142 161.072C63.4479 161.226 63.5149 161.371 63.6103 161.497C63.7941 161.762 64.0754 161.943 64.3925 162C64.5509 162.038 64.7152 162.043 64.8759 162.017C65.0365 161.991 65.1904 161.933 65.3284 161.846C65.4639 161.767 65.5812 161.66 65.6727 161.533C65.7641 161.405 65.8277 161.26 65.8592 161.106C65.8942 160.954 65.8947 160.796 65.8609 160.644C65.8271 160.492 65.7597 160.349 65.6636 160.226C65.477 159.955 65.1908 159.769 64.8675 159.709V159.709Z" fill="#272525"/>
<path d="M65.9446 149.275L64.0956 158.235L66.2023 158.67L68.0513 149.709L65.9446 149.275Z" fill="#272525"/>
<path d="M60.6204 147.878L57.7569 150.379L56.9747 146.635L54.8237 145.909L56.0109 151.133L51.9323 154.583L54.0973 155.323L56.9608 152.711L57.6173 156.525L59.7823 157.251L58.6928 152.041L62.7854 148.605L60.6204 147.878Z" fill="#272525"/>
<path d="M49.7393 143.241C49.367 143.034 48.9599 142.897 48.5381 142.836C48.1966 142.772 47.846 142.772 47.5045 142.836C47.21 142.913 46.9311 143.041 46.6803 143.213V143.213L47.281 142.11L45.4512 141.132L42.5738 146.552C42.3172 147.004 42.1735 147.512 42.1548 148.032C42.1595 148.475 42.2696 148.911 42.476 149.303C42.6902 149.688 42.969 150.033 43.3001 150.323C43.6362 150.607 44.0014 150.856 44.3896 151.063C44.9123 151.347 45.4789 151.54 46.0658 151.636C46.5943 151.722 47.1358 151.679 47.6441 151.51C48.1803 151.355 48.6635 151.056 49.0409 150.644L47.4067 149.457C47.1467 149.692 46.8192 149.838 46.4708 149.876C46.0281 149.923 45.5819 149.825 45.1998 149.597C44.825 149.419 44.5273 149.111 44.3617 148.731C44.3101 148.549 44.2959 148.359 44.3199 148.172C44.3439 147.984 44.4057 147.804 44.5014 147.641C44.5386 147.559 44.5971 147.489 44.6708 147.437C44.7445 147.386 44.8307 147.355 44.9204 147.348C45.1754 147.344 45.4283 147.396 45.6607 147.501C45.968 147.613 46.387 147.767 46.8899 147.976C47.2929 148.14 47.7087 148.271 48.133 148.367C48.5248 148.47 48.9298 148.512 49.3342 148.493C49.7164 148.469 50.0864 148.349 50.4098 148.144C50.7976 147.849 51.1091 147.466 51.3181 147.026C51.5272 146.586 51.6276 146.103 51.611 145.616C51.567 145.131 51.3825 144.67 51.0802 144.289C50.7149 143.846 50.2573 143.489 49.7393 143.241V143.241ZM49.3063 146.175C49.1983 146.394 49.0149 146.568 48.7895 146.663C48.5579 146.75 48.3085 146.779 48.0632 146.747C47.7671 146.712 47.4763 146.642 47.1972 146.538L46.7223 146.356L46.1635 146.175C45.986 146.113 45.8038 146.067 45.6188 146.035C45.4944 146.009 45.366 146.009 45.2417 146.035L45.7445 145.085C45.9001 144.785 46.1375 144.535 46.4292 144.365C46.7209 144.194 47.055 144.11 47.3927 144.121C47.7849 144.116 48.1711 144.217 48.5101 144.415C48.8599 144.588 49.1513 144.86 49.3482 145.197C49.4191 145.351 49.4522 145.521 49.4449 145.691C49.4377 145.861 49.3901 146.026 49.3063 146.175V146.175Z" fill="#272525"/>
<path d="M40.535 137.85L37.2805 142.04C37.0471 142.356 36.7402 142.61 36.3865 142.78C36.0879 142.927 35.7522 142.98 35.4228 142.934C35.0765 142.874 34.7503 142.731 34.4729 142.515C34.2699 142.378 34.0995 142.199 33.9739 141.988C33.8484 141.778 33.7707 141.543 33.7466 141.3C33.7329 140.79 33.9069 140.293 34.2355 139.903L37.5738 135.545L35.8558 134.246L32.3219 138.925C31.9189 139.427 31.6369 140.015 31.4978 140.643C31.3849 141.177 31.4385 141.733 31.6514 142.236C31.8877 142.764 32.2585 143.222 32.727 143.562C33.1861 143.946 33.7514 144.18 34.3472 144.233C34.8811 144.263 35.4115 144.131 35.8697 143.856H35.9535L35.0037 145.099L36.6799 146.384L42.267 139.121L40.535 137.85Z" fill="#272525"/>
<path d="M27.6569 125.837L26.4836 124.301C25.8341 123.406 24.9693 122.69 23.9694 122.219C23.0574 121.816 22.0441 121.699 21.0641 121.884C19.9641 122.111 18.9314 122.589 18.047 123.281C17.1304 123.941 16.3875 124.813 15.882 125.823C15.4462 126.71 15.2903 127.709 15.435 128.687C15.6125 129.76 16.0702 130.767 16.762 131.606L18.7175 134.176L19.3181 134.958L28.9978 127.541L27.6011 125.795L27.6569 125.837ZM17.7816 126.801C18.1842 126.114 18.7267 125.519 19.374 125.055C19.9907 124.548 20.7103 124.181 21.4831 123.979C22.1126 123.822 22.7768 123.881 23.3688 124.147C24.0305 124.467 24.6018 124.947 25.031 125.544L26.1344 126.941L19.4997 132.025L18.3543 130.544C17.8935 129.985 17.5855 129.316 17.4604 128.603C17.3764 127.983 17.4887 127.353 17.7816 126.801V126.801Z" fill="#272525"/>
<path d="M20.1067 114.623L12.1306 119.105L13.1842 120.98L21.1604 116.499L20.1067 114.623Z" fill="#272525"/>
<path d="M10.8956 120.054C10.7467 120.005 10.5892 119.986 10.4329 120.001C10.2765 120.015 10.1249 120.062 9.9877 120.138C9.85219 120.216 9.73397 120.32 9.64029 120.445C9.54661 120.57 9.47943 120.713 9.44293 120.865C9.36402 121.183 9.40973 121.519 9.57073 121.805C9.73172 122.091 9.99581 122.304 10.3089 122.401C10.4573 122.454 10.6154 122.473 10.7721 122.459C10.9288 122.444 11.0806 122.396 11.2169 122.317C11.3535 122.241 11.4725 122.137 11.5663 122.012C11.6602 121.887 11.7267 121.743 11.7616 121.591C11.8344 121.273 11.7845 120.938 11.6219 120.655C11.468 120.367 11.2072 120.152 10.8956 120.054V120.054Z" fill="#272525"/>
<path d="M11.635 113.783C12.5131 113.816 13.3873 113.649 14.1911 113.294C14.996 113.004 15.7194 112.525 16.3003 111.897C16.7625 111.389 17.0681 110.759 17.1803 110.081C17.2777 109.419 17.1907 108.742 16.9289 108.126C16.7749 107.702 16.532 107.316 16.2165 106.994C15.9703 106.749 15.6752 106.559 15.3505 106.436C15.0959 106.335 14.8274 106.274 14.5543 106.254V106.128L16.1467 105.486C16.3899 105.357 16.6608 105.29 16.9359 105.29C17.2109 105.29 17.4818 105.357 17.7251 105.486C18.1805 105.78 18.5246 106.217 18.7028 106.729C18.8521 107.059 18.933 107.415 18.9403 107.777C18.9448 108.05 18.8925 108.321 18.7866 108.573C18.6953 108.777 18.5728 108.965 18.4235 109.132L19.5828 110.752C20.1312 110.292 20.5017 109.654 20.6304 108.95C20.7747 107.999 20.6337 107.027 20.2253 106.156C19.9547 105.452 19.557 104.803 19.052 104.243C18.6074 103.74 18.0137 103.393 17.3577 103.253C16.7017 103.112 16.018 103.185 15.4064 103.46L6.70435 107.022L7.48655 108.978L8.88334 108.419V108.517C8.71062 108.744 8.55202 108.982 8.40843 109.229C8.24642 109.547 8.14686 109.893 8.11512 110.249C8.08914 110.705 8.17546 111.161 8.36653 111.576C8.61117 112.208 9.03314 112.756 9.58173 113.154C10.1879 113.564 10.9031 113.783 11.635 113.783V113.783ZM9.76332 109.09C9.87339 108.683 10.1019 108.318 10.4198 108.042C10.8115 107.707 11.255 107.438 11.7328 107.246C12.3957 106.937 13.1413 106.854 13.8559 107.008C14.1496 107.09 14.4189 107.242 14.6404 107.451C14.8619 107.661 15.029 107.921 15.127 108.21C15.3037 108.594 15.3479 109.026 15.2527 109.439C15.1481 109.841 14.9299 110.205 14.6242 110.486C14.2534 110.821 13.822 111.082 13.3531 111.255C12.8884 111.454 12.3915 111.567 11.8864 111.59C11.4614 111.613 11.039 111.511 10.6712 111.297C10.297 111.073 10.011 110.728 9.86111 110.319C9.71052 109.947 9.67641 109.537 9.76332 109.145V109.09Z" fill="#272525"/>
<path d="M3.31006 100.709C3.17725 100.623 3.02814 100.564 2.87199 100.538C2.71584 100.512 2.55596 100.517 2.40216 100.555C2.25194 100.596 2.11203 100.668 1.99166 100.767C1.87129 100.865 1.77319 100.989 1.70376 101.128C1.62181 101.265 1.56841 101.418 1.54681 101.576C1.52521 101.734 1.53581 101.896 1.57801 102.05C1.66584 102.368 1.86385 102.646 2.13676 102.832C2.26668 102.919 2.41393 102.976 2.56832 103C2.7227 103.024 2.88048 103.015 3.03069 102.972C3.18404 102.939 3.32786 102.871 3.45129 102.774C3.57471 102.678 3.6745 102.554 3.74307 102.413C3.82307 102.272 3.87418 102.117 3.89337 101.956C3.91256 101.796 3.89942 101.633 3.85479 101.477C3.78099 101.159 3.58537 100.884 3.31006 100.709V100.709Z" fill="#272525"/>
<path d="M13.6714 97.8813L4.80829 100.15L5.34178 102.234L14.2049 99.9652L13.6714 97.8813Z" fill="#272525"/>
<path d="M5.40584 94.5908L10.4203 93.8365C10.7617 93.8067 11.0925 93.7025 11.3893 93.5312C11.6861 93.3598 11.9418 93.1256 12.1384 92.8448C12.532 92.2273 12.6674 91.4799 12.5155 90.7636C12.4776 90.528 12.4263 90.2949 12.3618 90.0652C12.2879 89.8408 12.1992 89.6215 12.0964 89.4087L10.4901 90.0233L10.5879 90.3166C10.5879 90.4284 10.5879 90.5401 10.6577 90.6239C10.6896 90.7569 10.6937 90.895 10.6697 91.0296C10.6456 91.1642 10.5941 91.2924 10.5181 91.4061C10.3201 91.614 10.0504 91.7388 9.76382 91.7553L5.08456 92.4677L4.81917 90.6798L3.15698 90.9173L3.43636 92.7051L1.2713 93.0264L1.59258 95.1635L3.74365 94.8422L3.93918 96.1133L5.58743 95.8619L5.40584 94.5908Z" fill="#272525"/>
<path d="M5.57287 80.9721C5.66268 80.9646 5.75283 80.9814 5.83392 81.0208C5.91501 81.0601 5.98404 81.1205 6.03379 81.1956C6.15988 81.4187 6.23613 81.6665 6.25728 81.9219C6.25728 82.2432 6.36903 82.6762 6.43887 83.2209C6.49302 83.6546 6.57702 84.0839 6.69029 84.506C6.79124 84.8959 6.9514 85.2681 7.16519 85.6094C7.3678 85.9333 7.65204 86.1983 7.98934 86.3777C8.38476 86.5837 8.82968 86.6756 9.27436 86.6431C9.80759 86.6557 10.3326 86.5099 10.7829 86.224C11.1864 85.9462 11.5015 85.5584 11.6908 85.1066C11.8956 84.6065 11.9908 84.0683 11.9702 83.5282C11.9821 83.1029 11.9061 82.6797 11.7467 82.2851C11.5077 81.6845 11.0618 81.1891 10.4896 80.8883V80.8184H11.7467V78.7512L5.62875 78.849C5.10441 78.8353 4.5852 78.9555 4.12019 79.1982C3.73415 79.4125 3.4077 79.7198 3.17038 80.0921C2.93667 80.46 2.77106 80.8668 2.6815 81.2934C2.58502 81.7241 2.5428 82.1651 2.55579 82.6063C2.55159 83.2021 2.65571 83.7938 2.86309 84.3523C3.04581 84.8554 3.34217 85.3095 3.72909 85.6793C4.11861 86.0515 4.60106 86.312 5.12589 86.4336L5.3773 84.4361C5.04714 84.3186 4.75999 84.1045 4.5532 83.8215C4.29541 83.4547 4.16762 83.0122 4.19006 82.5644C4.15301 82.1518 4.27827 81.7409 4.53926 81.4191C4.67109 81.2769 4.83105 81.1638 5.009 81.0868C5.18696 81.0099 5.37899 80.9708 5.57287 80.9721ZM8.50614 80.9721C8.83463 80.9578 9.16006 81.0403 9.44197 81.2095C9.73463 81.386 9.97554 81.6366 10.1404 81.9359C10.3307 82.2822 10.427 82.6722 10.4197 83.0673C10.4463 83.4555 10.3484 83.842 10.1404 84.1707C10.0423 84.3157 9.90848 84.433 9.75191 84.5113C9.59534 84.5896 9.42128 84.6262 9.24644 84.6177C8.99955 84.6413 8.75335 84.566 8.56198 84.4082C8.37338 84.2527 8.2289 84.0504 8.14296 83.8215C8.02909 83.5435 7.94934 83.2527 7.90549 82.9555C7.90549 82.8159 7.90551 82.6483 7.83567 82.4527C7.76583 82.2572 7.76585 82.0616 7.72394 81.866C7.68733 81.6821 7.64069 81.5002 7.58425 81.3213C7.55578 81.2005 7.50353 81.0865 7.43059 80.9861L8.50614 80.9721Z" fill="#272525"/>
<path d="M0.240778 71.4385L0.00137329 73.5762L12.1196 74.9333L12.359 72.7956L0.240778 71.4385Z" fill="#272525"/>
<path d="M14.6247 61.7522L12.1244 59.7967L13.6469 55.4807H16.8176L17.5998 53.2598H4.67951L3.77161 55.8299L13.8425 63.9312L14.6247 61.7522ZM6.59315 55.3829L11.7752 55.4527L10.6578 58.6514L6.56519 55.4667L6.59315 55.3829Z" fill="#272525"/>
<path d="M14.652 48.9995C15.3747 49.4594 16.2001 49.7329 17.0544 49.7957C17.7391 49.8457 18.4234 49.6952 19.0239 49.3627C19.6014 49.0242 20.0823 48.5433 20.4207 47.9659C20.6546 47.582 20.8067 47.1541 20.8677 46.7088C20.9027 46.3657 20.8695 46.0192 20.7699 45.6891C20.693 45.4212 20.5752 45.1668 20.4207 44.9348V44.8231L21.9292 45.6891C22.1767 45.8034 22.3926 45.9764 22.5581 46.1931C22.7236 46.4097 22.8338 46.6634 22.879 46.9322C22.9356 47.4708 22.8076 48.0125 22.5159 48.4687C22.3513 48.7944 22.1177 49.0804 21.8314 49.3068C21.6261 49.4855 21.3824 49.6145 21.1191 49.6839C20.9015 49.7162 20.6803 49.7162 20.4626 49.6839L19.9178 51.5975C20.6171 51.7388 21.3438 51.63 21.9711 51.2902C22.8068 50.8125 23.4824 50.0981 23.9127 49.2369C24.2977 48.5928 24.5583 47.8821 24.6809 47.1418C24.7854 46.4976 24.6979 45.8369 24.4295 45.2421C24.1261 44.6385 23.6363 44.1487 23.0327 43.8453L14.9453 39.2219L13.9117 41.0517L15.2246 41.806V41.9038C14.9389 41.8951 14.6531 41.9185 14.3726 41.9736C14.0228 42.0416 13.6903 42.1794 13.3949 42.3787C13.0176 42.64 12.7106 42.9902 12.5009 43.3983C12.1546 43.9799 11.9847 44.6496 12.012 45.3259C12.0554 46.0349 12.2974 46.7174 12.7104 47.2954C13.2186 48.0045 13.8829 48.5875 14.652 48.9995ZM14.3028 43.7755C14.5001 43.4017 14.8139 43.1026 15.1967 42.9234C15.5866 42.7676 16.0124 42.724 16.4259 42.7977C16.9187 42.8924 17.3913 43.072 17.8227 43.3285C18.4746 43.6561 19.0036 44.1851 19.3312 44.8371C19.4501 45.1185 19.4982 45.4248 19.4714 45.7291C19.4446 46.0335 19.3437 46.3267 19.1775 46.583C18.981 46.9608 18.6674 47.2646 18.2836 47.4491C17.9062 47.6143 17.4892 47.6676 17.0824 47.6027C16.5884 47.5198 16.1145 47.3445 15.6856 47.0859C15.2436 46.8379 14.8469 46.5167 14.5123 46.1361C14.2363 45.8138 14.0529 45.4228 13.9815 45.0047C13.9466 44.5704 14.0598 44.1371 14.3028 43.7755V43.7755Z" fill="#272525"/>
<path d="M21.3144 38.1743C21.9673 38.7329 22.7424 39.1301 23.5772 39.3336C24.3213 39.5006 25.0979 39.4472 25.8121 39.18C26.5766 38.8967 27.2517 38.4145 27.7676 37.7832C28.1808 37.2926 28.4983 36.7287 28.7035 36.121C28.8843 35.5963 28.937 35.036 28.8571 34.4868C28.7679 33.9784 28.5571 33.4992 28.2425 33.09L26.8457 34.4868C26.9766 34.7139 27.0575 34.9662 27.0832 35.2271C27.1 35.4881 27.062 35.7498 26.9715 35.9953C26.8726 36.2618 26.7258 36.5079 26.5385 36.7216C26.2763 37.064 25.9229 37.3254 25.5188 37.4759C25.1226 37.5959 24.6997 37.5959 24.3036 37.4759C23.8805 37.3632 23.4856 37.1634 23.1442 36.8893L27.181 31.9725L26.6642 31.5535C26.1289 31.0916 25.5134 30.7318 24.8483 30.4919C24.3252 30.3054 23.7675 30.2362 23.2148 30.2893C22.662 30.3424 22.1277 30.5165 21.6497 30.7992C21.1851 31.0842 20.7738 31.4482 20.4344 31.8747C19.9102 32.4801 19.5666 33.2207 19.4427 34.0119C19.3437 34.7658 19.4649 35.5323 19.7919 36.2188C20.1466 36.9764 20.6669 37.6446 21.3144 38.1743ZM21.6776 32.8804C21.9258 32.5514 22.2737 32.3114 22.6693 32.196C23.0419 32.0773 23.4421 32.0773 23.8147 32.196C24.1184 32.2978 24.4054 32.4437 24.6667 32.629L21.9849 35.8975C21.7441 35.6706 21.5413 35.4065 21.3843 35.1153C21.2187 34.7623 21.1465 34.3728 21.1747 33.9839C21.2307 33.5748 21.4056 33.1911 21.6776 32.8804V32.8804Z" fill="#272525"/>
<path d="M34.1099 30.7155L30.59 26.6788C30.3176 26.3938 30.1249 26.0421 30.0313 25.6591C29.9333 25.3406 29.9333 24.9999 30.0313 24.6814C30.156 24.351 30.3627 24.0578 30.6319 23.8293C30.8066 23.6611 31.0157 23.5327 31.2448 23.4532C31.4739 23.3736 31.7175 23.3446 31.9588 23.3684C32.4751 23.4461 32.941 23.7217 33.2579 24.1366L36.8756 28.2571L38.4959 26.8604L34.6407 22.4605C34.2342 21.9603 33.7115 21.567 33.1182 21.3151C32.6178 21.0948 32.0611 21.0362 31.5258 21.1475C30.9628 21.2707 30.4424 21.5405 30.0173 21.9297C29.5514 22.3092 29.2106 22.8203 29.0396 23.3963C28.9023 23.9127 28.9267 24.4587 29.1094 24.9607H29.0256L28.0059 23.7735L26.4136 25.1702L32.4338 32.0564L34.1099 30.7155Z" fill="#272525"/>
<path d="M40.5486 22.8097C41.1906 23.2209 41.9372 23.4391 42.6996 23.4383C43.526 23.4224 44.3306 23.1704 45.0183 22.7119C45.6127 22.3664 46.1194 21.8884 46.4989 21.3151C46.8187 20.8019 47.0015 20.2151 47.0297 19.611C47.0462 18.9934 46.9018 18.3821 46.6107 17.8371L44.8647 18.9266C45.0171 19.351 45.0171 19.8152 44.8647 20.2396C44.7298 20.6566 44.4465 21.0095 44.0685 21.2313C43.7155 21.4575 43.2996 21.5652 42.8812 21.5386C42.4433 21.4996 42.0262 21.3347 41.68 21.0637C41.2458 20.7269 40.8806 20.3096 40.6044 19.8345C40.3012 19.3842 40.0966 18.8749 40.0038 18.34C39.918 17.9097 39.9568 17.4639 40.1156 17.0549C40.2899 16.6788 40.5718 16.3629 40.9257 16.147C41.1849 15.9775 41.4829 15.8766 41.7917 15.8537C42.0739 15.828 42.3579 15.8761 42.6158 15.9933C42.8754 16.1195 43.1079 16.2951 43.3003 16.5102L45.0602 15.4207C44.7049 14.9178 44.2231 14.5179 43.6634 14.2613C43.1082 14.0099 42.494 13.918 41.8895 13.9959C41.2127 14.0865 40.5641 14.3249 39.9898 14.6943C39.2888 15.1056 38.7176 15.7058 38.3416 16.4264C37.9922 17.1063 37.8467 17.8727 37.9226 18.6333C38.0169 19.4806 38.3087 20.2939 38.7746 21.0078C39.2139 21.7412 39.8221 22.359 40.5486 22.8097V22.8097Z" fill="#272525"/>
<path d="M52.0168 20.3934H51.9191L52.0867 22.1394L52.7013 22.0555C52.9711 21.9965 53.2334 21.9076 53.4835 21.7902C53.9501 21.6104 54.3737 21.3343 54.7266 20.98C55.0248 20.6572 55.2446 20.2701 55.3691 19.8486C55.4939 19.3942 55.5411 18.922 55.5088 18.4518L54.9222 7.5708L52.799 8.46477L53.5254 15.6582H53.4416L48.8322 10.0711L46.723 10.9511L53.3857 18.2982V18.815C53.4208 19.0145 53.4088 19.2194 53.3506 19.4134C53.2924 19.6075 53.1896 19.7852 53.0505 19.9324C52.7576 20.1825 52.3986 20.3426 52.0168 20.3934V20.3934Z" fill="#272525"/>
<path d="M68.1639 11.0627C67.9929 11.0926 67.8296 11.1562 67.6833 11.2497C67.5371 11.3432 67.4109 11.4648 67.3119 11.6074C67.1238 11.8963 67.0491 12.2446 67.1023 12.5852C67.1323 12.7561 67.1959 12.9195 67.2894 13.0657C67.3829 13.212 67.5045 13.3383 67.6471 13.4372C67.9398 13.6288 68.2937 13.7035 68.6388 13.6467C68.8098 13.6168 68.9731 13.5532 69.1194 13.4597C69.2656 13.3662 69.3919 13.2446 69.4909 13.102C69.5935 12.9607 69.6652 12.7993 69.7013 12.6285C69.7374 12.4576 69.7371 12.281 69.7004 12.1103C69.6702 11.9413 69.6064 11.78 69.5128 11.6361C69.4193 11.4921 69.2978 11.3684 69.1556 11.2722C69.0143 11.1695 68.853 11.0979 68.6821 11.0618C68.5112 11.0257 68.3347 11.026 68.1639 11.0627V11.0627Z" fill="#272525"/>
</g>
<defs>
<clipPath id="clip0_482_771">
<rect width="162" height="163.299" fill="white"/>
</clipPath>
</defs>
</svg>
