<svg width="31" height="31" viewBox="0 0 31 31" fill="none" xmlns="http://www.w3.org/2000/svg">
<g clip-path="url(#clip0_1404_203)">
<path fill-rule="evenodd" clip-rule="evenodd" d="M1.24598 15.7388C1.24604 16.1293 1.56263 16.4459 1.95313 16.446L29.9531 16.446C30.3436 16.4459 30.6602 16.1293 30.6603 15.7388C30.6602 15.3483 30.3436 15.0317 29.9531 15.0316L1.95318 15.0316C1.56261 15.0317 1.24601 15.3483 1.24598 15.7388Z" fill="#FF6B00"/>
<path fill-rule="evenodd" clip-rule="evenodd" d="M16.9528 28.7385C17.2289 29.0146 17.6767 29.0146 17.9528 28.7385L30.4528 16.2385C30.7289 15.9624 30.7289 15.5146 30.4528 15.2385L17.9528 2.73853C17.6767 2.46243 17.2289 2.46243 16.9528 2.73853C16.6767 3.01463 16.6767 3.46243 16.9528 3.73853L28.9528 15.7385L16.9528 27.7385C16.6767 28.0146 16.6767 28.4624 16.9528 28.7385Z" fill="#FF6B00"/>
</g>
<defs>
<clipPath id="clip0_1404_203">
<rect width="30" height="30" fill="white" transform="matrix(1 0 0 -1 0.953125 30.7388)"/>
</clipPath>
</defs>
</svg>
