<svg width="100" height="69" viewBox="0 0 100 69" fill="none" xmlns="http://www.w3.org/2000/svg">
<g clip-path="url(#clip0_350_730)">
<path d="M29.2911 68.5927L9.63678 34.5563L29.2911 0.490723H68.5999L88.2835 34.5563L68.5999 68.5927H29.2911Z" fill="url(#paint0_linear_350_730)"/>
<path d="M31.2534 65.1951L13.5615 34.5565L31.2534 3.88867H66.6371L84.3289 34.5565L66.6371 65.1951H31.2534Z" fill="url(#paint1_linear_350_730)"/>
<path d="M32.6306 62.7927L16.3447 34.556L32.6306 6.29004H65.261L81.5468 34.556L65.261 62.7927H32.6306Z" fill="url(#paint2_linear_350_730)"/>
<path d="M90.8026 55.4409L91.9743 68.6806C79.3919 60.8013 64.8458 56.6226 50 56.6226C35.1542 56.6226 20.6081 60.8013 8.02579 68.6806L9.16815 55.4409L0 54.0057C15.0566 44.81 32.3574 39.9446 50 39.9446C67.6426 39.9446 84.9434 44.81 100 54.0057L90.8026 55.4409Z" fill="url(#paint3_linear_350_730)"/>
<path d="M37.6981 34.5274C37.6919 34.1898 37.5816 33.8624 37.3824 33.5898C37.1832 33.3172 36.9048 33.1127 36.585 33.0042C36.8525 32.9029 37.0827 32.7225 37.2449 32.487C37.4072 32.2515 37.4937 31.9721 37.4931 31.6861C37.4931 30.3094 36.4679 29.6943 35.1498 29.6943H31.8984V36.5192H35.1498C36.5557 36.5192 37.6981 36.1384 37.6981 34.5274ZM33.158 30.866H35.1498C35.2752 30.8497 35.4027 30.859 35.5245 30.8933C35.6463 30.9276 35.7598 30.9862 35.8583 31.0656C35.9569 31.1449 36.0383 31.2434 36.0978 31.3551C36.1572 31.4668 36.1934 31.5894 36.2042 31.7154C36.2042 32.0962 35.9406 32.4477 35.1498 32.4477H33.158V30.866ZM33.158 33.5607H35.1498C35.677 33.5607 36.4093 33.883 36.4093 34.4981C36.4093 35.1132 35.677 35.3182 35.1498 35.3182H33.158V33.5607Z" fill="url(#paint4_linear_350_730)"/>
<path d="M40.0114 34.2343H41.2416L43.2335 36.519H45.8696L46.4262 35.2302H49.9997L50.5855 36.519H51.9915L48.7988 29.6942H47.3928L44.4637 36.3433L42.4719 34.1171C42.9765 34.0444 43.435 33.7836 43.7555 33.3871C44.076 32.9906 44.2348 32.4875 44.2 31.9789C44.2007 31.6661 44.1371 31.3565 44.0132 31.0693C43.8894 30.7821 43.7079 30.5234 43.4799 30.3092C43.252 30.0951 42.9825 29.93 42.6882 29.8242C42.3939 29.7184 42.081 29.6741 41.7689 29.6942H38.5176V36.519H40.0114V34.2343ZM48.3301 31.1294L49.6189 34.0585H47.0706L48.3301 31.1294ZM40.0114 30.8951H41.9739C42.1332 30.869 42.2962 30.8778 42.4517 30.921C42.6073 30.9642 42.7515 31.0407 42.8745 31.1452C42.9975 31.2497 43.0963 31.3797 43.1641 31.5261C43.2319 31.6726 43.2669 31.8321 43.2669 31.9935C43.2669 32.1549 43.2319 32.3144 43.1641 32.4608C43.0963 32.6073 42.9975 32.7373 42.8745 32.8418C42.7515 32.9463 42.6073 33.0228 42.4517 33.066C42.2962 33.1092 42.1332 33.118 41.9739 33.0919H40.0114V30.8951Z" fill="url(#paint5_linear_350_730)"/>
<path d="M53.9539 31.9205L57.5274 36.5192H58.3182V29.6943H57.0587V33.9416L53.7195 29.6943H52.665V36.5192H53.9539V31.9205Z" fill="url(#paint6_linear_350_730)"/>
<path d="M65.495 33.2089C65.5162 32.7584 65.4426 32.3085 65.279 31.8883C65.1153 31.468 64.8653 31.0868 64.545 30.7693C64.2247 30.4518 63.8414 30.2051 63.4197 30.0451C62.9981 29.885 62.5475 29.8153 62.0972 29.8404H59.4025V36.6652H62.0972C62.5554 36.6915 63.0139 36.6197 63.442 36.4545C63.8701 36.2893 64.2579 36.0345 64.5796 35.7073C64.9013 35.3801 65.1494 34.9879 65.3073 34.557C65.4651 34.1261 65.5292 33.6665 65.495 33.2089V33.2089ZM60.6913 31.0707H62.0972C62.6324 31.1328 63.1262 31.3894 63.4845 31.7917C63.8429 32.1941 64.0408 32.7141 64.0408 33.2528C64.0408 33.7916 63.8429 34.3116 63.4845 34.714C63.1262 35.1163 62.6324 35.3729 62.0972 35.435H60.6913V31.0707Z" fill="url(#paint7_linear_350_730)"/>
<path d="M34.3874 52.3654L29.8472 53.5663L29.525 55.4117L27.7676 55.8803L29.32 46.1557L31.1068 45.6577L37.3458 53.3027L35.559 53.8007L34.3874 52.3654ZM30.726 47.8546L30.0816 51.9846L33.3329 51.1059L30.726 47.8546Z" fill="#774320"/>
<path d="M46.1043 52.3946H44.669L43.263 49.6999L42.0621 46.9465L41.3884 49.8756L40.5975 52.8047H39.1623L34.9736 44.1638L36.8775 43.9881L39.6309 50.2271L41.1541 43.5487H42.2671L45.1963 49.817L46.6022 43.1386L48.5061 42.9629L46.1043 52.3946Z" fill="#774320"/>
<path d="M56.532 51.1351L51.7282 50.7836L50.8202 52.3946H49.0042L53.7493 43.6073L55.5947 43.7538L58.9045 53.0683L57.0592 52.8926L56.532 51.1351ZM54.5987 45.5405L52.6362 49.2312L55.9754 49.4948L54.5987 45.5405Z" fill="#774320"/>
<path d="M67.2525 54.8844L65.29 54.445L63.3568 50.9594L61.775 50.6079L61.1307 53.537L59.4611 53.1855L61.3943 44.3982L65.5829 45.3355C65.9962 45.3819 66.3948 45.5159 66.7523 45.7284C67.1098 45.9408 67.418 46.227 67.6563 46.5679C67.8946 46.9087 68.0576 47.2963 68.1344 47.7051C68.2113 48.1138 68.2002 48.5342 68.1019 48.9383C68 49.6222 67.6392 50.2407 67.094 50.666C66.5488 51.0913 65.8609 51.2907 65.1728 51.223L67.1939 54.7965L67.2525 54.8844ZM62.7124 46.3021L62.0972 49.2312L64.6163 49.7878C65.0047 49.8693 65.4096 49.7932 65.742 49.5763C66.0743 49.3593 66.3069 49.0192 66.3884 48.6307C66.47 48.2423 66.3939 47.8374 66.1769 47.5051C65.96 47.1727 65.6198 46.9402 65.2314 46.8586L62.7124 46.3021Z" fill="#774320"/>
<path d="M76.6847 53.3317C76.5349 53.936 76.2559 54.5006 75.8668 54.9867C75.4777 55.4727 74.9879 55.8686 74.431 56.147C73.8741 56.4255 73.2635 56.5798 72.6412 56.5994C72.019 56.6191 71.3998 56.5035 70.8265 56.2608L67.4873 55.0891L70.4164 46.5947L73.7556 47.7371C74.3277 47.8925 74.8615 48.1644 75.3237 48.5357C75.7858 48.9071 76.1663 49.3698 76.4412 49.895C76.7162 50.4202 76.8798 50.9966 76.9217 51.5879C76.9636 52.1793 76.8829 52.7729 76.6847 53.3317V53.3317ZM69.7134 54.0054L71.4416 54.6205C72.122 54.7328 72.8203 54.6015 73.4134 54.2496C74.0065 53.8978 74.4565 53.3479 74.684 52.6968C74.9115 52.0458 74.902 51.3353 74.6571 50.6906C74.4123 50.0459 73.9478 49.5082 73.3455 49.1723L71.588 48.5572L69.7134 54.0054Z" fill="#774320"/>
<path d="M47.686 16.0443V13.1152C47.686 12.5587 47.686 12.2658 47.3638 12.2658C46.4257 12.5584 45.5143 12.9308 44.6397 13.3788H44.3175C44.2683 13.3615 44.2254 13.33 44.1941 13.2883C44.1628 13.2466 44.1446 13.1966 44.1418 13.1445C44.1506 13.0717 44.1764 13.0019 44.2171 12.9409C44.2578 12.8798 44.3123 12.8292 44.3761 12.793C44.3761 12.793 48.9455 9.86389 49.7657 9.21948C49.9707 9.21948 50.1757 8.89728 50.3515 8.89728C50.5272 8.89728 50.6444 9.16092 50.6444 9.39524C50.6444 9.62957 50.6444 11.885 50.6444 15.4585V19.7936C50.6444 22.0197 50.6444 24.0115 50.6444 25.0367C50.6444 26.0619 50.8494 26.1205 51.5817 26.2962L53.1341 26.4427C53.1637 26.4424 53.1931 26.4485 53.22 26.4606C53.247 26.4727 53.2711 26.4904 53.2906 26.5127C53.3101 26.5349 53.3245 26.5612 53.3329 26.5895C53.3413 26.6179 53.3434 26.6478 53.3392 26.677C53.3392 26.8235 53.3392 26.882 52.9584 26.882C51.2009 26.882 49.7071 26.882 49.0627 26.882C48.4183 26.882 46.5729 26.882 45.0791 26.882C44.8155 26.882 44.669 26.8821 44.669 26.677C44.669 26.472 44.669 26.4427 44.8741 26.4427C45.492 26.4196 46.1081 26.3609 46.7194 26.267C47.4809 26.0912 47.5981 25.769 47.6567 25.0367C47.7153 24.3045 47.6567 22.1076 47.6567 19.7936L47.686 16.0443Z" fill="url(#paint8_linear_350_730)"/>
<path style="mix-blend-mode:multiply" d="M16.8717 50.7836L18.3949 52.5997L20.7967 52.3946L19.5079 54.4157L20.4745 56.6126L18.1605 56.0267L16.3445 57.6378L16.198 55.2359L14.1183 54.0057L16.3445 53.1269L16.8717 50.7836Z" fill="url(#paint9_linear_350_730)"/>
<path style="mix-blend-mode:multiply" d="M84.0949 50.7836L82.5425 52.5997L80.1406 52.3946L81.4294 54.4157L80.4628 56.6126L82.8061 56.0267L84.5929 57.6378L84.7686 55.2359L86.819 54.0057L84.5929 53.1269L84.0949 50.7836Z" fill="url(#paint10_linear_350_730)"/>
<path d="M56.5612 17.7139C59.959 17.7139 61.2771 21.4339 63.6497 20.7895C63.9169 20.7182 64.1654 20.5896 64.3778 20.4125C64.5903 20.2355 64.7616 20.0143 64.8799 19.7643C64.9775 19.5611 65.0073 19.332 64.9652 19.1106C64.923 18.8892 64.811 18.6872 64.6456 18.5341C64.5026 18.4248 64.3276 18.3656 64.1476 18.3656C63.9677 18.3656 63.7927 18.4248 63.6497 18.5341C63.3861 18.7391 63.2982 19.0906 63.4739 19.2664C63.5121 19.3053 63.5577 19.3363 63.608 19.3574C63.6583 19.3786 63.7123 19.3894 63.7668 19.3894C63.8214 19.3894 63.8754 19.3786 63.9257 19.3574C63.976 19.3363 64.0216 19.3053 64.0598 19.2664C64.0598 19.2664 64.2355 19.2664 64.0598 19.2664C64.0103 19.3275 63.9478 19.3769 63.8769 19.4107C63.8059 19.4446 63.7283 19.4622 63.6497 19.4622C63.5711 19.4622 63.4934 19.4446 63.4225 19.4107C63.3515 19.3769 63.289 19.3275 63.2396 19.2664C63.1733 19.193 63.124 19.106 63.0952 19.0115C63.0663 18.917 63.0586 18.8173 63.0726 18.7194C63.0865 18.6216 63.1218 18.5281 63.176 18.4454C63.2302 18.3627 63.3019 18.293 63.386 18.2412C63.5613 18.0906 63.7848 18.0079 64.0158 18.0079C64.2469 18.0079 64.4703 18.0906 64.6456 18.2412C64.8173 18.4277 64.9287 18.6616 64.9653 18.9125C65.0019 19.1633 64.9619 19.4194 64.8506 19.6472C64.6867 19.9568 64.4482 20.2206 64.1567 20.415C63.8652 20.6093 63.5299 20.728 63.181 20.7602C60.5448 21.1703 59.7246 17.8311 56.4733 17.8311C56.0519 17.7363 55.6112 17.779 55.2159 17.953C54.8205 18.127 54.4913 18.423 54.2765 18.7977C54.6573 18.124 55.3895 17.7139 56.5612 17.7139Z" fill="url(#paint11_linear_350_730)"/>
<path d="M61.8048 21.1704C58.4363 21.1704 57.1182 17.4212 54.7456 18.2413C54.478 18.3108 54.2279 18.4353 54.011 18.6067C53.7942 18.7782 53.6154 18.9929 53.4861 19.2372C53.3984 19.4494 53.3766 19.683 53.4236 19.9076C53.4707 20.1323 53.5843 20.3376 53.7497 20.4968C53.8905 20.6109 54.0663 20.6732 54.2476 20.6732C54.4289 20.6732 54.6047 20.6109 54.7456 20.4968C54.8057 20.4607 54.8581 20.413 54.8996 20.3565C54.9411 20.3 54.9709 20.2357 54.9873 20.1675C55.0036 20.0993 55.0062 20.0286 54.9949 19.9593C54.9836 19.8901 54.9586 19.8239 54.9213 19.7645C54.8408 19.6924 54.7365 19.6526 54.6284 19.6526C54.5204 19.6526 54.4161 19.6924 54.3355 19.7645C54.3355 19.7645 54.1305 19.7645 54.3355 19.7645C54.3877 19.7028 54.4528 19.6532 54.5262 19.6192C54.5995 19.5852 54.6794 19.5676 54.7602 19.5676C54.8411 19.5676 54.9209 19.5852 54.9943 19.6192C55.0676 19.6532 55.1327 19.7028 55.1849 19.7645C55.255 19.8302 55.3108 19.9096 55.349 19.9978C55.3872 20.0859 55.4068 20.181 55.4068 20.2771C55.4068 20.3731 55.3872 20.4682 55.349 20.5563C55.3108 20.6445 55.255 20.7239 55.1849 20.7897C55.0125 20.9461 54.788 21.0327 54.5552 21.0327C54.3223 21.0327 54.0979 20.9461 53.9254 20.7897C53.7514 20.611 53.6358 20.3837 53.594 20.1378C53.5521 19.8919 53.586 19.6392 53.6911 19.413C53.8647 19.1086 54.1052 18.8476 54.3944 18.6497C54.6837 18.4518 55.0141 18.3222 55.3607 18.2706C57.9969 17.8898 58.8463 21.1997 62.0976 21.1997C62.519 21.2945 62.9597 21.2518 63.3551 21.0778C63.7504 20.9039 64.0796 20.6078 64.2945 20.2331C63.7086 20.7604 63.0057 21.1704 61.8048 21.1704Z" fill="url(#paint12_linear_350_730)"/>
<path d="M40.8319 21.1703C37.4341 21.1703 36.116 17.421 33.7434 18.2411C33.4797 18.3109 33.2337 18.4358 33.0217 18.6074C32.8097 18.7791 32.6364 18.9937 32.5132 19.2371C32.4133 19.4446 32.3822 19.6786 32.4244 19.9051C32.4665 20.1316 32.5797 20.3388 32.7475 20.4966C32.8884 20.6107 33.0642 20.673 33.2455 20.673C33.4268 20.673 33.6026 20.6107 33.7434 20.4966C33.8036 20.4605 33.8559 20.4128 33.8974 20.3563C33.9389 20.2998 33.9688 20.2355 33.9851 20.1673C34.0015 20.0991 34.0041 20.0284 33.9927 19.9592C33.9814 19.89 33.9564 19.8237 33.9192 19.7643C33.8386 19.6922 33.7344 19.6524 33.6263 19.6524C33.5182 19.6524 33.4139 19.6922 33.3334 19.7643C33.3334 19.7643 33.1576 19.7643 33.3334 19.7643C33.3828 19.7031 33.4452 19.6538 33.5162 19.6199C33.5872 19.586 33.6648 19.5684 33.7434 19.5684C33.8221 19.5684 33.8997 19.586 33.9707 19.6199C34.0416 19.6538 34.1041 19.7031 34.1535 19.7643C34.2198 19.8376 34.269 19.9246 34.2979 20.0191C34.3268 20.1137 34.3345 20.2134 34.3205 20.3112C34.3066 20.409 34.2712 20.5026 34.2171 20.5853C34.1629 20.6679 34.0912 20.7376 34.007 20.7895C33.8346 20.9459 33.6101 21.0326 33.3773 21.0326C33.1445 21.0326 32.92 20.9459 32.7475 20.7895C32.5746 20.6097 32.462 20.3806 32.4252 20.1339C32.3885 19.8872 32.4295 19.6351 32.5425 19.4128C32.7126 19.1055 32.9522 18.8423 33.242 18.6439C33.5319 18.4456 33.8641 18.3177 34.2121 18.2704C36.8483 17.8897 37.6684 21.1996 40.9198 21.1996C41.3412 21.2943 41.7818 21.2516 42.1772 21.0777C42.5725 20.9037 42.9018 20.6077 43.1166 20.2329C42.7358 20.7602 42.0035 21.1703 40.8319 21.1703Z" fill="url(#paint13_linear_350_730)"/>
<path d="M35.5884 17.7139C38.9569 17.7139 40.275 21.4339 42.6476 20.7894C42.9185 20.7184 43.1711 20.5901 43.3884 20.4133C43.6056 20.2364 43.7825 20.0151 43.9071 19.7643C43.9924 19.5565 44.0128 19.3279 43.9658 19.1083C43.9187 18.8888 43.8064 18.6886 43.6435 18.534C43.5005 18.4247 43.3255 18.3656 43.1455 18.3656C42.9656 18.3656 42.7906 18.4247 42.6476 18.534C42.5318 18.6119 42.4496 18.7303 42.417 18.8659C42.3845 19.0015 42.404 19.1444 42.4718 19.2663C42.51 19.3053 42.5556 19.3362 42.6059 19.3574C42.6561 19.3785 42.7102 19.3894 42.7647 19.3894C42.8193 19.3894 42.8733 19.3785 42.9236 19.3574C42.9739 19.3362 43.0194 19.3053 43.0576 19.2663C43.0576 19.2663 43.2627 19.2663 43.2041 19.2663C43.1518 19.328 43.0868 19.3776 43.0135 19.4116C42.9401 19.4456 42.8602 19.4632 42.7794 19.4632C42.6986 19.4632 42.6186 19.4456 42.5453 19.4116C42.4719 19.3776 42.4069 19.328 42.3547 19.2663C42.2846 19.2006 42.2288 19.1212 42.1906 19.033C42.1524 18.9448 42.1328 18.8498 42.1328 18.7537C42.1328 18.6576 42.1524 18.5626 42.1906 18.4744C42.2288 18.3863 42.2846 18.3069 42.3547 18.2411C42.53 18.0906 42.7534 18.0078 42.9844 18.0078C43.2155 18.0078 43.4389 18.0906 43.6142 18.2411C43.7907 18.4244 43.9075 18.6568 43.9494 18.9078C43.9912 19.1587 43.956 19.4165 43.8485 19.6471C43.6786 19.9519 43.4386 20.2118 43.1482 20.4054C42.8579 20.5989 42.5256 20.7206 42.1789 20.7602C39.5427 21.1702 38.6933 17.831 35.442 17.831C35.0206 17.7363 34.5799 17.779 34.1845 17.9529C33.7892 18.1269 33.4599 18.4229 33.2451 18.7976C33.6845 18.124 34.3875 17.7139 35.5884 17.7139Z" fill="url(#paint14_linear_350_730)"/>
</g>
<defs>
<linearGradient id="paint0_linear_350_730" x1="22.0855" y1="7.69635" x2="75.8055" y2="61.387" gradientUnits="userSpaceOnUse">
<stop stop-color="#B07515"/>
<stop offset="0.09" stop-color="#E1BA60"/>
<stop offset="0.14" stop-color="#F5D77F"/>
<stop offset="0.26" stop-color="#FFFFD7"/>
<stop offset="0.36" stop-color="#F5D77F"/>
<stop offset="0.49" stop-color="#B07515"/>
<stop offset="0.57" stop-color="#E1BA60"/>
<stop offset="0.61" stop-color="#F5D77F"/>
<stop offset="0.74" stop-color="#FFFFD7"/>
<stop offset="0.84" stop-color="#F5D77F"/>
<stop offset="1" stop-color="#B07515"/>
</linearGradient>
<linearGradient id="paint1_linear_350_730" x1="24.78" y1="10.362" x2="73.1104" y2="58.7217" gradientUnits="userSpaceOnUse">
<stop stop-color="#B07515"/>
<stop offset="0.36" stop-color="#F5D77F"/>
<stop offset="0.72" stop-color="#B07515"/>
<stop offset="0.95" stop-color="#F5D77F"/>
</linearGradient>
<linearGradient id="paint2_linear_350_730" x1="16.3447" y1="34.556" x2="81.5468" y2="34.556" gradientUnits="userSpaceOnUse">
<stop stop-color="#0F1115"/>
<stop offset="0.29" stop-color="#484749"/>
<stop offset="0.39" stop-color="#38383A"/>
<stop offset="0.62" stop-color="#191B1E"/>
<stop offset="0.84" stop-color="#535253"/>
<stop offset="0.88" stop-color="#474648"/>
<stop offset="0.95" stop-color="#26272A"/>
<stop offset="1" stop-color="#0F1115"/>
</linearGradient>
<linearGradient id="paint3_linear_350_730" x1="76.655" y1="30.6607" x2="23.3451" y2="83.9998" gradientUnits="userSpaceOnUse">
<stop stop-color="#B07515"/>
<stop offset="0.36" stop-color="#F5D77F"/>
<stop offset="0.72" stop-color="#B07515"/>
<stop offset="0.95" stop-color="#F5D77F"/>
</linearGradient>
<linearGradient id="paint4_linear_350_730" x1="31.3126" y1="30.3095" x2="37.0537" y2="36.0213" gradientUnits="userSpaceOnUse">
<stop stop-color="#B07515"/>
<stop offset="0.36" stop-color="#F5D77F"/>
<stop offset="0.72" stop-color="#B07515"/>
<stop offset="0.95" stop-color="#F5D77F"/>
</linearGradient>
<linearGradient id="paint5_linear_350_730" x1="39.4842" y1="28.8154" x2="49.5603" y2="38.9208" gradientUnits="userSpaceOnUse">
<stop stop-color="#B07515"/>
<stop offset="0.36" stop-color="#F5D77F"/>
<stop offset="0.72" stop-color="#B07515"/>
<stop offset="0.95" stop-color="#F5D77F"/>
</linearGradient>
<linearGradient id="paint6_linear_350_730" x1="52.3721" y1="29.9872" x2="58.6111" y2="36.2263" gradientUnits="userSpaceOnUse">
<stop stop-color="#B07515"/>
<stop offset="0.36" stop-color="#F5D77F"/>
<stop offset="0.72" stop-color="#B07515"/>
<stop offset="0.95" stop-color="#F5D77F"/>
</linearGradient>
<linearGradient id="paint7_linear_350_730" x1="58.7581" y1="30.3677" x2="64.2941" y2="35.8744" gradientUnits="userSpaceOnUse">
<stop stop-color="#B07515"/>
<stop offset="0.36" stop-color="#F5D77F"/>
<stop offset="0.72" stop-color="#B07515"/>
<stop offset="0.95" stop-color="#F5D77F"/>
</linearGradient>
<linearGradient id="paint8_linear_350_730" x1="43.4388" y1="13.701" x2="54.8623" y2="25.1246" gradientUnits="userSpaceOnUse">
<stop stop-color="#B07515"/>
<stop offset="0.36" stop-color="#F5D77F"/>
<stop offset="0.72" stop-color="#B07515"/>
<stop offset="0.95" stop-color="#F5D77F"/>
</linearGradient>
<linearGradient id="paint9_linear_350_730" x1="14.8782" y1="52.8061" x2="20.6589" y2="56.3353" gradientUnits="userSpaceOnUse">
<stop stop-color="#AC6127"/>
<stop offset="0.13" stop-color="#C78A45"/>
<stop offset="0.26" stop-color="#DDAC5F"/>
<stop offset="0.37" stop-color="#EBC16E"/>
<stop offset="0.44" stop-color="#F0C974"/>
<stop offset="0.97" stop-color="#FFF38B"/>
</linearGradient>
<linearGradient id="paint10_linear_350_730" x1="85.9977" y1="51.2016" x2="80.1851" y2="54.7083" gradientUnits="userSpaceOnUse">
<stop stop-color="#AC6127"/>
<stop offset="0.13" stop-color="#C78A45"/>
<stop offset="0.26" stop-color="#DDAC5F"/>
<stop offset="0.37" stop-color="#EBC16E"/>
<stop offset="0.44" stop-color="#F0C974"/>
<stop offset="0.97" stop-color="#FFF38B"/>
</linearGradient>
<linearGradient id="paint11_linear_350_730" x1="57.0006" y1="16.0443" x2="62.9174" y2="21.9612" gradientUnits="userSpaceOnUse">
<stop stop-color="#B07515"/>
<stop offset="0.36" stop-color="#F5D77F"/>
<stop offset="0.72" stop-color="#B07515"/>
<stop offset="0.95" stop-color="#F5D77F"/>
</linearGradient>
<linearGradient id="paint12_linear_350_730" x1="55.4486" y1="16.8939" x2="61.3947" y2="22.84" gradientUnits="userSpaceOnUse">
<stop stop-color="#B07515"/>
<stop offset="0.36" stop-color="#F5D77F"/>
<stop offset="0.72" stop-color="#B07515"/>
<stop offset="0.95" stop-color="#F5D77F"/>
</linearGradient>
<linearGradient id="paint13_linear_350_730" x1="34.4757" y1="16.8937" x2="40.3925" y2="22.8398" gradientUnits="userSpaceOnUse">
<stop stop-color="#B07515"/>
<stop offset="0.36" stop-color="#F5D77F"/>
<stop offset="0.72" stop-color="#B07515"/>
<stop offset="0.95" stop-color="#F5D77F"/>
</linearGradient>
<linearGradient id="paint14_linear_350_730" x1="35.9985" y1="16.0443" x2="41.9446" y2="21.9611" gradientUnits="userSpaceOnUse">
<stop stop-color="#B07515"/>
<stop offset="0.36" stop-color="#F5D77F"/>
<stop offset="0.72" stop-color="#B07515"/>
<stop offset="0.95" stop-color="#F5D77F"/>
</linearGradient>
<clipPath id="clip0_350_730">
<rect width="100" height="68.1898" fill="white" transform="translate(0 0.490723)"/>
</clipPath>
</defs>
</svg>
