<svg width="100" height="72" viewBox="0 0 100 72" fill="none" xmlns="http://www.w3.org/2000/svg">
<path d="M64.7484 15.1273C64.7731 13.6575 64.5081 12.1974 63.9684 10.8301C63.4476 9.52915 62.694 8.33399 61.7447 7.30319C61.8134 6.91296 61.7966 6.51247 61.6954 6.12938C61.5942 5.74629 61.411 5.38972 61.1585 5.08435C60.1892 3.80905 58.9795 2.73598 57.5977 1.92567C56.3808 1.15772 54.9188 0.877436 53.504 1.14085C53.1093 0.870183 52.6697 0.671696 52.2057 0.554638C51.8367 0.476579 51.4555 0.476579 51.0866 0.554638C50.6699 0.641842 50.2581 0.743567 49.8415 0.845304L48.9598 1.01488H48.8193C48.1168 1.01488 47.3998 1.01488 46.6973 1.01488C46.3388 1.01488 45.9997 1.05364 45.6412 1.10208C45.2225 1.16627 44.8083 1.25688 44.401 1.37338H44.4834C44.2993 1.37338 44.12 1.40729 43.9408 1.43151C43.04 1.55173 42.1578 1.78447 41.315 2.12429C39.4837 3.0593 37.4877 4.22684 36.6012 5.56396C36.0731 6.46021 35.5693 7.21597 35.1478 7.98627C35.1285 8.00767 35.1107 8.03034 35.0945 8.0541C34.9799 8.15427 34.8745 8.26452 34.7796 8.38353V8.38353C34.6632 8.5228 34.567 8.67774 34.4937 8.84378C34.582 8.68599 34.6824 8.53535 34.7941 8.39323L34.8862 8.47073C34.7941 8.64514 34.7118 8.82926 34.6294 9.01336C33.9463 9.92899 33.4279 11.2903 33.0016 11.5858C33.3068 12.1575 33.4861 11.2467 33.7671 10.4813C33.6459 10.8834 33.5539 11.3436 33.4425 11.8038C33.331 12.2641 33.2826 12.7728 33.2051 13.2088C33.2051 13.2621 33.2051 13.3105 33.2051 13.359C33.1809 12.9617 33.0597 12.6613 33.3601 12.2689C33.2584 12.017 33.1324 12.0752 32.9677 12.3416C32.8369 13.2427 32.5075 14.948 32.8611 15.0497C32.8074 15.2183 32.7359 15.3807 32.6479 15.5342L32.9532 15.9847C32.9271 16.0492 32.906 16.1157 32.8902 16.1834C32.9344 16.128 32.9749 16.0697 33.0113 16.009C33.1276 17.1717 33.2681 18.4313 33.8252 19.1822C33.9184 19.2349 34.0156 19.2802 34.1159 19.3178C34.048 19.6715 33.893 19.2064 33.6992 19.1386C33.9172 19.9283 34.1837 20.4902 34.5373 20.592C34.4114 20.1657 34.2709 19.749 34.174 19.3227C34.2611 19.3476 34.3534 19.3476 34.4405 19.3227C34.765 19.6763 35.046 19.9476 35.046 20.0978C35.172 20.6453 35.2592 21.1394 35.3416 21.6142C35.4094 22.0066 35.4724 22.3796 35.5402 22.743H35.4433C35.1825 22.2595 34.9465 21.7631 34.736 21.2557C34.7551 21.6023 34.7988 21.9472 34.8668 22.2876L35.1962 22.4814C35.2214 22.5223 35.2374 22.5681 35.2433 22.6158C35.2491 22.6634 35.2446 22.7118 35.2301 22.7575C35.2301 22.7575 35.2301 22.7575 35.2301 22.7866C35.2035 22.8143 35.1724 22.8372 35.1381 22.8544L35.1817 22.9029C35.1676 22.9437 35.1578 22.9859 35.1526 23.0288H35.2689L35.5596 23.3631C35.5935 23.3631 35.608 23.3631 35.6177 23.3195C35.5962 23.9718 35.8035 24.6111 36.2039 25.1265H36.2523C36.4845 25.6112 36.7758 26.0652 37.1195 26.4782C37.3746 26.6788 37.6734 26.8165 37.9916 26.8803L38.0642 26.9433C38.2612 27.0138 38.4728 27.0338 38.6795 27.0014C38.774 27.0198 38.8718 27.0097 38.9605 26.9723C38.7855 26.4161 38.5203 25.8924 38.1757 25.4221C38.2144 25.456 38.2532 25.4996 38.2968 25.5335L38.2435 25.4463L38.1708 25.4124C37.8767 24.9857 37.6313 24.5275 37.4393 24.0462C37.4748 23.7374 37.4942 23.4269 37.4974 23.116C37.5313 22.5734 38.258 23.1596 38.4663 23.2565C38.4223 22.669 38.2764 22.0936 38.0352 21.5561C38.4855 22.1638 38.9968 22.7238 39.5612 23.2275L39.3578 23.4019C39.9052 23.7846 39.7598 24.177 40.4429 24.5355C40.4914 24.1479 40.1862 23.896 39.9585 23.5666C41.6003 24.8985 43.5856 25.7383 45.6848 25.9889L48.9452 26.3668C49.4761 26.4244 50.0104 26.4438 50.544 26.4249C50.0141 26.7003 49.4506 26.9055 48.8677 27.0353C48.8915 27.6475 49.0807 28.2419 49.4152 28.7552C49.8221 29.2978 50.6021 29.758 52.0652 29.7628C52.5111 29.7528 52.9545 29.6943 53.3878 29.5884C54.1104 29.6279 54.8353 29.5856 55.5485 29.4625C55.718 29.3171 55.9118 29.167 56.1201 29.0168C56.3284 28.8666 56.5319 28.6873 56.7548 28.5323C57.2102 28.2126 57.6753 27.8444 58.1307 27.4762C58.3051 27.3405 58.4698 27.2001 58.6151 27.0596L58.9252 26.9723C59.0947 26.7301 59.3806 26.4249 59.6519 26.11C59.9328 25.829 60.1945 25.5577 60.4028 25.3203C61.9467 24.0415 63.1375 22.3887 63.8618 20.5193C64.0314 20.0688 64.167 19.6037 64.3075 19.1434C64.448 18.6832 64.5062 18.2084 64.5934 17.7433C64.6806 17.2783 64.6854 16.8035 64.729 16.3384C64.7726 15.8733 64.7484 15.5633 64.7484 15.1273ZM35.4821 22.9755H35.5257C35.5257 23.0337 35.5257 23.087 35.5257 23.1403C35.514 23.0846 35.4995 23.0296 35.4821 22.9755V22.9755Z" fill="#C3D8CC"/>
<path d="M48.2239 30.2569C47.972 30.2569 47.5796 30.1649 47.7055 29.9953L47.3276 30.1649L48.4564 30.3296C48.2675 30.1213 47.9187 29.9566 47.972 29.6804L47.4875 29.5884C47.7862 29.7445 48.0398 29.9747 48.2239 30.2569V30.2569Z" fill="#C3D8CC"/>
<path d="M48.4273 29.8014C48.6453 29.6028 48.3401 29.4865 47.9428 29.3896C47.5068 29.5108 48.5629 29.3509 48.2141 29.7045C48.3158 29.7142 48.3982 29.7288 48.4273 29.8014Z" fill="#C3D8CC"/>
<path d="M48.2141 29.7052C48.1274 29.6963 48.0415 29.6801 47.9574 29.6567C47.9569 29.6648 47.9569 29.6729 47.9574 29.681L48.1899 29.7294L48.2141 29.7052Z" fill="#C3D8CC"/>
<path d="M45.4912 29.5298C45.5225 29.6209 45.5888 29.6958 45.6753 29.7381C45.6898 29.68 45.5978 29.6073 45.4912 29.5298Z" fill="#C3D8CC"/>
<path d="M45.1177 28.7891C45.4132 28.9586 45.5682 29.0846 45.4616 29.2735L45.2097 29.196C45.1467 29.3026 45.3357 29.4286 45.4907 29.5448C45.4423 29.2832 45.9655 29.133 45.1177 28.7891Z" fill="#C3D8CC"/>
<path d="M46.6539 28.5273L46.4746 28.5758L47.584 29.1523C47.5356 28.6921 47.0463 28.9827 46.6539 28.5273Z" fill="#C3D8CC"/>
<path d="M33.932 21.8666L33.9756 21.7697L33.8545 21.6631C33.8787 21.7164 33.8981 21.7842 33.932 21.8666Z" fill="#C3D8CC"/>
<path d="M33.5396 20.437C33.564 20.7928 33.6077 21.1469 33.6704 21.498C33.7359 21.548 33.7975 21.6031 33.8545 21.6627C33.6316 21.0135 33.9513 21.1249 33.5396 20.437Z" fill="#C3D8CC"/>
<path d="M33.9751 21.7695C34.2281 22.0442 34.4094 22.377 34.5032 22.7385C34.6272 23.2038 34.8691 23.6293 35.2056 23.9738C34.8732 23.1537 34.4881 22.3559 34.0526 21.5854L33.9751 21.7695Z" fill="#C3D8CC"/>
<path d="M0 59.1353V36.1621H5.59553V59.1353H0Z" fill="#454545"/>
<path d="M11.375 56.8153C9.6794 55.11 8.83321 52.8411 8.83643 50.0086C8.83966 47.1761 9.68586 44.9153 11.375 43.2261C13.0609 41.5337 15.2475 40.6891 17.9346 40.6924C19.9484 40.6278 21.9304 41.2065 23.5931 42.3444C25.1698 43.4841 26.2663 45.1695 26.6695 47.0728H20.6186C20.4088 46.5694 20.0497 46.1425 19.5897 45.8496C19.1297 45.5568 18.5909 45.4122 18.0461 45.4353C17.5336 45.4016 17.021 45.4996 16.5571 45.7201C16.0932 45.9406 15.6935 46.2762 15.3961 46.6949C14.8265 47.7091 14.5274 48.8527 14.5274 50.0158C14.5274 51.179 14.8265 52.3227 15.3961 53.3368C15.6766 53.746 16.0571 54.0765 16.5014 54.297C16.9458 54.5174 17.4392 54.6205 17.9346 54.5964C18.5029 54.6278 19.069 54.5039 19.5721 54.2379C20.034 53.9182 20.3966 53.475 20.6186 52.959H26.6695C26.2268 54.8399 25.1252 56.5001 23.5641 57.6389C21.9273 58.8161 19.9501 59.4252 17.9346 59.3732C15.2507 59.3668 13.0642 58.5141 11.375 56.8153Z" fill="#454545"/>
<path d="M30.9426 56.7818C29.0951 55.0571 28.173 52.7963 28.1763 49.9993C28.1795 47.2024 29.0951 44.9415 30.9232 43.2168C32.8116 41.5829 35.2254 40.6836 37.7226 40.6836C40.2198 40.6836 42.6336 41.5829 44.522 43.2168C46.3436 44.9092 47.2544 47.1701 47.2544 49.9993C47.2544 52.8286 46.3484 55.0894 44.5366 56.7818C43.6324 57.6385 42.5675 58.3077 41.4035 58.7509C40.2394 59.1941 38.9991 59.4025 37.7541 59.364C35.2325 59.4313 32.7858 58.5038 30.9426 56.7818V56.7818ZM40.4477 53.3905C41.1905 52.6057 41.5603 51.4753 41.5571 49.9993C41.5571 48.5169 41.1792 47.3832 40.4138 46.6081C40.0655 46.2372 39.6442 45.9425 39.1765 45.7424C38.7088 45.5423 38.2047 45.4412 37.696 45.4454C37.19 45.4406 36.6886 45.5416 36.224 45.7418C35.7593 45.942 35.3415 46.2371 34.9975 46.6081C34.2466 47.3784 33.8687 48.512 33.8687 49.9993C33.8687 51.4866 34.2563 52.6154 35.0314 53.3905C35.3812 53.7644 35.8044 54.062 36.2746 54.2646C36.7448 54.4672 37.2518 54.5704 37.7638 54.5678C38.2676 54.5757 38.7674 54.4765 39.23 54.2769C39.6927 54.0773 40.1077 53.7818 40.4477 53.4099V53.3905Z" fill="#454545"/>
<path d="M56.1204 40.8762V43.5601C57.2799 41.6417 59.1241 40.6824 61.653 40.6824C62.6013 40.6467 63.5462 40.8151 64.4238 41.1762C65.3014 41.5373 66.0912 42.0826 66.7398 42.7753C68.0317 44.1705 68.6777 46.068 68.6777 48.4677V59.1259H63.1258V49.2235C63.1572 48.7289 63.0908 48.233 62.9303 47.7642C62.7699 47.2953 62.5186 46.8627 62.1907 46.4911C61.4822 45.8645 60.569 45.5186 59.6231 45.5186C58.6772 45.5186 57.764 45.8645 57.0555 46.4911C56.7265 46.862 56.4745 47.2945 56.314 47.7635C56.1535 48.2326 56.0877 48.7288 56.1204 49.2235V59.1356H50.5249V40.8762H56.1204Z" fill="#454545"/>
<path d="M78.2017 38.8173C77.5802 39.423 76.7466 39.7621 75.8787 39.7621C75.0108 39.7621 74.1773 39.423 73.5557 38.8173C72.9467 38.1906 72.606 37.3512 72.606 36.4773C72.606 35.6034 72.9467 34.764 73.5557 34.1374C74.1831 33.5561 75.0118 33.2412 75.8669 33.259C76.722 33.2769 77.5367 33.6261 78.1393 34.2331C78.7419 34.8401 79.0852 35.6574 79.0969 36.5126C79.1085 37.3678 78.7876 38.1941 78.2017 38.8173V38.8173ZM73.1003 59.1356V40.8762H78.6862V59.1356H73.1003Z" fill="#454545"/>
<path d="M84.5005 56.8152C82.8081 55.1099 81.9619 52.841 81.9619 50.0085C81.9619 47.176 82.8081 44.9152 84.5005 43.226C86.1929 41.5336 88.3794 40.6891 91.0601 40.6923C93.0753 40.6284 95.0587 41.2069 96.7235 42.3443C98.2971 43.487 99.3928 45.171 99.7998 47.0727H93.7053C93.4964 46.5697 93.1382 46.1429 92.679 45.85C92.2198 45.5572 91.6818 45.4124 91.1376 45.4352C90.6249 45.4001 90.1119 45.4975 89.6477 45.7181C89.1836 45.9387 88.7841 46.275 88.4876 46.6948C87.9181 47.709 87.6189 48.8526 87.6189 50.0157C87.6189 51.1789 87.9181 52.3226 88.4876 53.3368C88.765 53.7479 89.1442 54.08 89.5883 54.3008C90.0324 54.5215 90.5261 54.6234 91.0213 54.5963C91.5896 54.6282 92.1558 54.5043 92.6588 54.2378C93.1207 53.9181 93.4833 53.4749 93.7053 52.9589H99.761C99.3147 54.8395 98.2118 56.499 96.6508 57.6388C95.0149 58.8179 93.0371 59.4272 91.0213 59.3731C88.3471 59.3667 86.1735 58.514 84.5005 56.8152Z" fill="#454545"/>
<path d="M23.5498 67.2212V71.872H22.4162V69.2462L21.3358 71.872H20.4928L19.4173 69.2462V71.872H18.2837V67.2212H19.582L20.9192 70.4235L22.2514 67.2212H23.5498Z" fill="#454545"/>
<path d="M30.3904 67.2065V68.0689H28.7093V69.0669H30.1918V69.9292H28.7093V71.0096H30.3904V71.8719H27.5757V67.2065H30.3904Z" fill="#454545"/>
<path d="M37.4249 67.2065H38.5585V71.8719H37.4249L35.5306 68.936V71.8719H34.397V67.2065H35.5306L37.4249 70.1424V67.2065Z" fill="#454545"/>
<path d="M44.1636 68.0492C44.0372 68.0393 43.912 68.0793 43.8147 68.1607C43.7684 68.2005 43.7321 68.2506 43.7085 68.3069C43.685 68.3633 43.6749 68.4243 43.6791 68.4852C43.6752 68.5474 43.6844 68.6097 43.7061 68.6681C43.7278 68.7266 43.7615 68.7798 43.8051 68.8244C43.8953 68.9162 44.0068 68.9844 44.1296 69.023C44.2653 69.0715 44.4155 69.115 44.5802 69.1586C44.7442 69.2001 44.9059 69.2503 45.0647 69.3088C45.2219 69.3644 45.3716 69.4393 45.5104 69.5317C45.6508 69.6252 45.7643 69.7538 45.8398 69.9047C45.9278 70.0856 45.971 70.285 45.9658 70.4861C45.9655 70.6796 45.9219 70.8706 45.838 71.045C45.7542 71.2193 45.6323 71.3727 45.4813 71.4938C45.127 71.7868 44.6761 71.9371 44.2169 71.9152C43.7646 71.9371 43.3185 71.8038 42.9524 71.5374C42.7923 71.4104 42.6647 71.2469 42.5805 71.0607C42.4962 70.8745 42.4576 70.6708 42.4679 70.4667H43.6694C43.6727 70.5774 43.7073 70.685 43.7692 70.7768C43.8312 70.8687 43.9179 70.9412 44.0193 70.9858C44.1207 71.0304 44.2326 71.0454 44.3422 71.029C44.4518 71.0125 44.5545 70.9654 44.6383 70.893C44.684 70.8514 44.7202 70.8004 44.7444 70.7436C44.7686 70.6867 44.7804 70.6254 44.7788 70.5636C44.7815 70.443 44.7362 70.3262 44.6529 70.239C44.559 70.1493 44.4465 70.0815 44.3234 70.0404C44.1756 69.9876 44.0253 69.9423 43.8729 69.9047C43.7079 69.8646 43.546 69.8128 43.3884 69.7497C43.2309 69.6912 43.0799 69.6165 42.9379 69.5268C42.7987 69.4354 42.6866 69.3082 42.6133 69.1586C42.5242 68.9799 42.4809 68.7818 42.4873 68.5821C42.4813 68.3835 42.5219 68.1861 42.6061 68.0061C42.6902 67.826 42.8155 67.6682 42.9718 67.5454C43.325 67.2741 43.7621 67.1353 44.2072 67.153C44.639 67.1332 45.0656 67.2539 45.4232 67.4969C45.5837 67.6247 45.7114 67.789 45.7957 67.976C45.8799 68.1631 45.9183 68.3675 45.9076 68.5724H44.6771C44.6699 68.4278 44.6115 68.2904 44.5124 68.1849C44.4673 68.1386 44.4129 68.1025 44.3527 68.0791C44.2925 68.0557 44.228 68.0455 44.1636 68.0492V68.0492Z" fill="#454545"/>
<path d="M55.0639 67.2212H56.2799L54.9816 71.872H53.6832L52.8693 68.9217L52.0409 71.872H50.7474L49.4248 67.2212H50.6408L51.445 70.564L52.2734 67.2212H53.5621L54.3566 70.5107L55.0639 67.2212Z" fill="#454545"/>
<path d="M62.6995 67.2065V68.0689H61.0136V69.0669H62.5009V69.9292H61.0136V71.0096H62.6995V71.8719H59.8848V67.2065H62.6995Z" fill="#454545"/>
<path d="M69.6368 71.8719L69.3752 71.0871H67.7087L67.4519 71.8719H66.2456L67.8589 67.2065H69.2396L70.848 71.8719H69.6368ZM67.9945 70.2247H69.0942L68.542 68.5727L67.9945 70.2247Z" fill="#454545"/>
<path d="M75.5711 70.0598V71.8718H74.4375V67.2209H76.2639C76.7201 67.1938 77.1693 67.343 77.5187 67.6375C77.6619 67.7631 77.7763 67.9182 77.8541 68.0921C77.9319 68.2661 77.9711 68.4547 77.9692 68.6452C77.9676 68.925 77.8833 69.198 77.727 69.4301C77.5365 69.7064 77.2497 69.9016 76.9228 69.9775L78.0661 71.8718H76.7484L75.7019 70.0598H75.5711ZM75.5711 68.0833V69.1927H76.2639C76.3382 69.1978 76.4127 69.1868 76.4823 69.1605C76.552 69.1343 76.6151 69.0933 76.6675 69.0404C76.7199 68.9876 76.7603 68.9241 76.786 68.8542C76.8116 68.7843 76.8219 68.7097 76.8162 68.6355C76.8194 68.5611 76.8078 68.4868 76.782 68.417C76.7562 68.3471 76.7168 68.2831 76.666 68.2286C76.6137 68.1759 76.5508 68.1349 76.4815 68.1082C76.4122 68.0815 76.3381 68.0697 76.2639 68.0736L75.5711 68.0833Z" fill="#454545"/>
</svg>
