<svg width="70" height="72" viewBox="0 0 70 72" fill="none" xmlns="http://www.w3.org/2000/svg">
<path d="M60.8157 70.6678C60.7678 70.6398 60.8836 70.5879 61.0912 70.52C60.7198 70.6278 60.5441 70.6957 60.8157 70.6678Z" fill="#C3D8CC"/>
<path d="M61.0989 70.5201L61.4224 70.4282C61.2906 70.4602 61.1868 70.4961 61.0989 70.5201Z" fill="#C3D8CC"/>
<path d="M61.159 69.8933L61.3587 69.8254C61.3346 69.818 61.3118 69.8072 61.2908 69.7935C61.2149 69.8334 61.171 69.8653 61.159 69.8933Z" fill="#C3D8CC"/>
<path d="M69.5765 8.43172C69.5765 7.93655 69.5765 7.44538 69.5765 6.9542C69.5965 6.36659 69.5778 5.77831 69.5206 5.19315C69.4659 4.65605 69.3411 4.12843 69.1492 3.62378C68.9555 3.12866 68.6949 2.66244 68.3745 2.23811C67.7407 1.40255 66.8859 0.760773 65.9067 0.385215C64.9531 0.0501439 63.9368 -0.0685279 62.9317 0.0377993L61.4541 0.17357L60.9111 0.225485L60.5117 0.273403L58.9863 0.449109C57.6166 0.644781 56.5903 0.401189 55.4123 0.30535C50.1092 0.820486 43.3405 1.13596 37.3586 1.73096H37.6541C34.4594 1.99851 32.0634 1.77489 28.9607 2.04244C28.9607 2.14626 28.5014 2.1862 28.2698 2.25408C27.6988 1.79885 10.0284 4.47835 8.91029 4.25073C8.44307 4.31063 7.92794 4.34657 7.42878 4.41845C6.03753 4.4812 4.72182 5.06913 3.74695 6.06369C3.26026 6.56403 2.87513 7.15393 2.61286 7.80078C2.35466 8.45951 2.20236 9.15497 2.16161 9.86132L2.1097 10.5522C2.1097 10.7758 2.07775 11.0513 2.06178 11.1591L1.96994 12.0377L1.79024 13.7827C1.6731 14.9408 1.55862 16.0816 1.44681 17.205C1.23516 19.4532 1.08342 21.5976 1.04748 23.6302C1.25113 24.8602 1.42285 26.2458 1.65845 27.2841C1.42285 28.2784 1.83017 28.4821 1.74232 29.6801C0.680101 32.711 1.05147 34.512 1.43882 32.9426C1.5107 35.4584 1.36295 37.9782 1.34697 40.2104C1.39889 41.2487 1.45081 42.2789 1.50272 43.3252C1.58623 43.9528 1.46732 44.5907 1.16329 45.1461C1.24714 47.4223 1.01953 46.7434 0.863788 49.1394C0.504391 49.7065 1.26311 55.1294 1.14731 55.7923L1.10739 55.3929C1.03245 56.6179 0.872324 57.8361 0.628184 59.0388C0.524359 59.6059 0.424525 60.1729 0.340666 60.7639C0.300733 61.0594 0.26479 61.3589 0.236836 61.6744L0.216875 61.91C0.216875 62.0218 0.216875 62.1336 0.216875 62.2494C0.216875 62.529 0.19292 62.8125 0.184934 63.104C0.115636 63.8942 0.133034 64.6896 0.236836 65.476C0.397018 66.6101 0.908352 67.6656 1.69904 68.4943C2.48974 69.3229 3.52009 69.8831 4.64544 70.0963C5.45439 70.2394 6.27666 70.293 7.09734 70.256H8.98218H11.8733C15.7149 70.236 19.4846 70.2041 22.9507 70.256C23.0186 69.8966 21.4213 70.3359 21.3534 69.8567C25.4386 69.9166 29.5557 70.3678 33.6767 70.4277C34.3512 70.5113 35.0186 70.6448 35.6734 70.827C36.9912 70.9588 36.4721 70.6514 37.4145 70.6993L37.5463 71.0267C38.9559 70.7592 39.6068 71.3861 40.9326 71.2543C41.0005 71.1226 41.4877 71.1026 41.9589 71.1146C41.9828 71.462 43.4084 71.0906 43.3405 71.4061V71.3821C43.618 71.3689 43.8962 71.3823 44.1711 71.4221C44.7142 71.3023 49.7618 70.3519 50.3208 70.2241L50.5764 70.284C51.3311 70.284 51.6546 70.0164 51.2153 69.9525L52.1498 69.9725L52.042 69.9964H52.9684C53.1401 70.0244 53.3318 70.1881 53.0682 70.3399C53.606 70.2075 54.162 70.1657 54.7135 70.2161C53.2479 70.0004 51.431 69.6969 49.9015 69.3495C50.5325 69.2297 51.6666 69.4134 52.3494 69.3775C53.5992 69.6428 54.8632 69.8361 56.1351 69.9565C56.4226 69.9365 56.6183 69.5572 57.2692 69.7209C57.5846 69.9885 57.9999 69.7209 58.539 69.9046C57.9268 70.0058 57.3039 70.0273 56.6861 69.9685C56.794 70.284 58.2156 70.1841 58.7108 70.272C58.9464 70.1722 60.1563 70.272 60.9191 70.1881C60.7034 70.3838 61.0309 70.4078 61.4142 70.4437L61.6219 70.3918L61.4222 70.4437C61.6131 70.4553 61.802 70.4888 61.9853 70.5435C62.5004 70.5795 62.8279 70.4597 62.6202 70.3519C62.6561 70.28 62.5763 70.232 62.4405 70.1921C63.6385 69.9086 65.0641 69.6131 64.7686 69.6051C64.6049 69.5771 64.5969 69.5292 64.6328 69.4773C64.6688 69.4254 64.7327 69.4254 64.7167 69.3855C64.7886 69.3136 64.8405 69.2497 64.6129 69.2177L64.4092 69.2976C62.149 69.2178 66.4058 67.4966 63.7822 67.3968C64.9124 67.7961 63.4029 67.7961 62.2169 67.844C62.1011 67.7083 61.574 67.5126 60.7234 67.4128C59.9846 67.4447 60.2881 67.5565 60.1484 67.6564C59.749 67.5685 58.9503 67.4926 59.0582 67.285C58.4831 67.5326 58.1397 67.1293 57.4608 67.2131C56.8539 67.3289 57.5008 67.3209 57.0615 67.4407C56.151 67.4128 54.8692 67.3768 54.1424 67.3329C53.9627 67.2051 53.5354 67.0174 53.4316 66.8178H53.9947C53.9308 66.8937 53.9947 66.9456 54.5417 66.9176C54.5007 66.8918 54.4654 66.8578 54.4379 66.8178H64.7686L65.112 53.0888C65.2957 54.8179 65.5114 56.3354 65.9107 56.9783C65.9107 60.4405 66.2661 61.8301 66.3779 65.2284C66.7772 64.3619 66.7413 68.5349 67.0727 66.8737C67.6478 64.6374 67.2085 64.5017 67.6757 62.6009L67.5479 62.6568C68.3466 53.7557 68.8737 44.8387 69.273 35.8058C69.1093 29.7679 69.5326 23.2349 69.5925 16.9654C69.6005 14.1501 69.6005 11.255 69.5765 8.43172ZM63.351 68.8983C63.6425 68.8983 63.5626 68.9941 63.311 69.1139C63.2945 69.0993 63.282 69.0807 63.2748 69.0598C63.2675 69.0389 63.2659 69.0165 63.2699 68.9948C63.2739 68.9731 63.2835 68.9528 63.2977 68.9358C63.3119 68.9189 63.3303 68.906 63.351 68.8983V68.8983ZM61.5779 69.7369L61.3583 69.8088C61.9102 69.897 62.4708 69.9171 63.0275 69.8687C63.0275 69.7409 62.8518 69.7249 62.8638 69.665C63.0619 69.6128 63.2634 69.5741 63.4668 69.5492L63.6824 69.5292L63.8142 69.5572C63.9726 69.5276 64.1326 69.5076 64.2934 69.4973C64.3986 69.4989 64.5021 69.5234 64.5969 69.5692C64.4183 69.5979 64.2363 69.5979 64.0578 69.5692C64.4571 69.5692 63.4188 69.8647 62.4006 70.1362C61.9653 70.0324 61.0788 70.0284 61.1586 69.8647L61.0229 69.9166L60.7034 69.8447C60.9915 69.7877 61.2842 69.7569 61.5779 69.7529V69.7369Z" fill="#C3D8CC"/>
<path d="M16.9849 24.5728H17.1087C23.3463 38.8688 23.7656 39.6834 23.7656 39.6834C24.6521 41.6561 25.4907 41.6801 25.9819 41.728V41.9276H17.3563V41.744C19.329 41.744 17.8475 38.8608 17.8475 38.8608L17.0488 37.1596H12.2169C11.7218 38.2937 12.165 41.744 15.1241 41.744V41.9436H8.03595V41.744C8.77471 41.696 10.1085 41.5004 12.0053 37.1596L16.9849 24.5728ZM14.4931 31.3614L12.2968 36.9121H16.957L14.4931 31.3614Z" fill="white"/>
<path d="M32.2711 41.7441V41.9438H26.1055V41.7441C27.0439 41.4766 27.0678 40.4383 27.0678 39.1565V26.3779C27.0678 25.5153 26.7723 25.1799 25.762 24.8006V24.5729L31.2648 23.5347V39.1405C31.2648 40.4982 31.3846 41.4846 32.2711 41.7441Z" fill="white"/>
<path d="M39.0997 41.7443V41.944H32.938V41.7443C33.8725 41.4768 33.8964 40.4146 33.8964 39.1567V33.1268C33.8964 32.2642 33.6249 31.9288 32.6146 31.5494V31.3618L38.0894 30.3275V39.1527C38.0894 40.4984 38.2132 41.4848 39.0997 41.7443ZM33.3813 27.3685C33.3791 27.0606 33.4382 26.7553 33.5551 26.4704C33.6719 26.1856 33.8442 25.9268 34.0619 25.709C34.2797 25.4913 34.5385 25.319 34.8233 25.2022C35.1082 25.0853 35.4134 25.0263 35.7213 25.0284C36.1853 25.0276 36.639 25.1645 37.0251 25.4218C37.4112 25.679 37.7123 26.0451 37.8902 26.4736C38.0681 26.902 38.1149 27.3737 38.0246 27.8288C37.9342 28.2838 37.7109 28.7019 37.3828 29.0299C37.0548 29.358 36.6368 29.5813 36.1817 29.6717C35.7266 29.762 35.2549 29.7152 34.8265 29.5373C34.398 29.3594 34.0319 29.0583 33.7747 28.6722C33.5174 28.2862 33.3805 27.8324 33.3813 27.3685V27.3685Z" fill="white"/>
<path d="M48.1487 40.8177C48.1487 40.8177 47.2103 42.1474 44.3511 42.1474C41.3681 42.1474 39.9584 41.3128 39.9584 41.3128V38.0823H40.1821C40.6732 40.3744 42.7218 41.9278 44.3471 41.9278C46.0961 41.9278 46.4915 39.8792 44.6186 38.6493L42.1268 37.1438C39.8107 35.6144 39.1957 33.1745 40.6972 31.4973C40.6972 31.4973 41.6117 30.2993 44.423 30.2993C47.2342 30.2993 48.4362 31.0061 48.4362 31.0061V33.5219H48.2126C47.7693 31.3016 45.8486 30.5389 44.419 30.5389C42.8216 30.5389 42.0509 32.1362 44.1953 33.494L46.6832 35.0474C48.9354 36.4051 49.5024 39.1924 48.1487 40.8177Z" fill="white"/>
<path d="M62.4724 40.3505C62.125 41.4327 60.8432 42.1475 59.2778 42.1475C59.2778 42.1475 56.5424 42.1475 56.3187 39.9312C55.9993 41.2131 54.7414 42.1475 52.9923 42.1475C52.0539 42.1475 49.9095 41.7282 49.9095 39.6357C49.9095 37.1679 51.9061 36.7007 56.2988 35.6664V34.089C56.2988 31.5214 54.8452 30.1437 53.144 31.0302C53.144 31.0302 52.601 31.3496 53.4396 31.6451C53.6445 31.7313 53.8292 31.8592 53.9819 32.0208C54.1345 32.1824 54.2517 32.3741 54.3261 32.5836C54.4168 32.796 54.4645 33.0244 54.4662 33.2554C54.468 33.4865 54.4239 33.7155 54.3365 33.9294C54.249 34.1432 54.12 34.3376 53.9569 34.5012C53.7938 34.6648 53.5997 34.7943 53.3861 34.8824C53.1725 34.9704 52.9436 35.0151 52.7126 35.014C52.4815 35.0128 52.2531 34.9658 52.0403 34.8757C51.8276 34.7855 51.6349 34.6541 51.4734 34.4889C51.3119 34.3237 51.1848 34.128 51.0995 33.9133C50.9769 33.6119 50.9397 33.2826 50.9918 32.9614C51.0439 32.6402 51.1834 32.3396 51.395 32.0924C51.8641 31.5768 52.4229 31.1506 53.0442 30.8345C53.7624 30.4712 54.5598 30.2928 55.3643 30.3154C58.5909 30.3154 60.3919 32.336 60.3919 35.2471V38.9209C60.3919 38.9209 60.3919 40.694 61.5899 40.646C61.5899 40.646 62.2088 40.6461 62.3326 40.2268L62.4724 40.3505ZM56.3068 35.91C54.2862 36.3572 54.3101 37.8587 54.3101 39.0168C54.3101 39.0168 54.2861 40.646 55.2725 40.646C55.6718 40.646 56.0352 40.2986 56.3068 39.7076V35.91Z" fill="white"/>
<path d="M16.8651 45.6694H18.2068C18.4746 45.6559 18.7388 45.7364 18.9535 45.8971C19.0648 45.9841 19.1483 46.1018 19.1938 46.2355C19.2393 46.3693 19.2448 46.5135 19.2097 46.6504C19.1745 46.7872 19.1002 46.9109 18.9958 47.0062C18.8915 47.1015 18.7616 47.1643 18.6221 47.1869C18.8141 47.2076 18.991 47.3004 19.1173 47.4465C19.2393 47.5853 19.3048 47.7648 19.301 47.9496C19.3058 48.0616 19.2841 48.1732 19.2376 48.2752C19.1911 48.3772 19.1211 48.4668 19.0334 48.5366C18.8132 48.6912 18.5473 48.7672 18.2787 48.7523H16.8651V45.6694ZM17.6158 46.2405V46.9074H18.107C18.2013 46.9109 18.294 46.8828 18.3705 46.8275C18.4041 46.7952 18.4301 46.7559 18.4466 46.7124C18.4632 46.6689 18.4699 46.6223 18.4664 46.5759C18.4696 46.5301 18.4627 46.4842 18.4461 46.4414C18.4296 46.3986 18.4038 46.36 18.3705 46.3283C18.296 46.2685 18.2025 46.2373 18.107 46.2405H17.6158ZM17.6158 48.1812H18.1828C18.2294 48.1836 18.276 48.1768 18.3199 48.161C18.3637 48.1452 18.404 48.1209 18.4384 48.0894C18.473 48.0569 18.4999 48.0171 18.5172 47.9729C18.5344 47.9286 18.5416 47.8811 18.5382 47.8338C18.5406 47.7869 18.5333 47.74 18.5168 47.6961C18.5003 47.6521 18.475 47.612 18.4424 47.5782C18.41 47.5446 18.3708 47.5183 18.3274 47.5011C18.284 47.4839 18.2375 47.4761 18.1908 47.4784H17.6158V48.1812Z" fill="white"/>
<path d="M22.1157 48.3372C21.8212 48.0339 21.6566 47.6278 21.6566 47.2051C21.6566 46.7823 21.8212 46.3763 22.1157 46.073C22.419 45.7862 22.8205 45.6265 23.2378 45.6265C23.6552 45.6265 24.0567 45.7862 24.3599 46.073C24.6534 46.3768 24.8175 46.7827 24.8175 47.2051C24.8175 47.6275 24.6534 48.0334 24.3599 48.3372C24.0578 48.6245 23.6568 48.7848 23.2398 48.7848C22.8228 48.7848 22.4218 48.6245 22.1197 48.3372H22.1157ZM23.8288 47.85C23.9713 47.6644 24.0485 47.437 24.0485 47.2031C24.0485 46.9691 23.9713 46.7417 23.8288 46.5562C23.7525 46.476 23.6599 46.4132 23.5573 46.3719C23.4546 46.3306 23.3444 46.3117 23.2338 46.3166C23.1239 46.3115 23.0141 46.3303 22.9121 46.3716C22.81 46.413 22.7182 46.4759 22.6428 46.5562C22.4977 46.7406 22.4188 46.9684 22.4188 47.2031C22.4188 47.4377 22.4977 47.6656 22.6428 47.85C22.7182 47.9302 22.81 47.9932 22.9121 48.0345C23.0141 48.0759 23.1239 48.0947 23.2338 48.0896C23.3444 48.0945 23.4546 48.0756 23.5573 48.0343C23.6599 47.9929 23.7525 47.9301 23.8288 47.85V47.85Z" fill="white"/>
<path d="M27.2952 47.5108V45.6699H28.046V47.5108C28.0355 47.6653 28.084 47.818 28.1818 47.9381C28.2338 47.99 28.2964 48.0301 28.3653 48.0556C28.4342 48.0811 28.5078 48.0914 28.5811 48.0859C28.6543 48.0906 28.7277 48.0799 28.7965 48.0545C28.8653 48.029 28.9279 47.9894 28.9804 47.9381C29.0811 47.8195 29.1313 47.6661 29.1202 47.5108V45.6699H29.8709V47.5108C29.8783 47.7597 29.8131 48.0053 29.6832 48.2177C29.5648 48.403 29.3977 48.5523 29.2001 48.6489C29.0011 48.7408 28.7842 48.7872 28.5651 48.7847C28.231 48.7938 27.9063 48.6736 27.6586 48.4493C27.5336 48.3286 27.4364 48.1821 27.3736 48.0201C27.3109 47.858 27.2841 47.6843 27.2952 47.5108V47.5108Z" fill="white"/>
<path d="M32.3192 46.241V45.6699H34.7511V46.241H33.9085V48.7528H33.1577V46.241H32.3192Z" fill="white"/>
<path d="M37.2112 48.7528V45.6699H37.962V48.7528H37.2112Z" fill="white"/>
<path d="M42.0469 48.7846C41.8394 48.789 41.6332 48.7517 41.4405 48.6749C41.2477 48.598 41.0723 48.4833 40.9248 48.3374C40.6303 48.0341 40.4656 47.628 40.4656 47.2053C40.4656 46.7826 40.6303 46.3765 40.9248 46.0732C41.0728 45.9268 41.2488 45.8118 41.4423 45.7349C41.6358 45.6581 41.8428 45.621 42.0509 45.6259C42.259 45.6215 42.4659 45.6594 42.6591 45.7372C42.8522 45.8149 43.0276 45.931 43.1746 46.0784C43.3216 46.2258 43.4373 46.4015 43.5146 46.5948C43.5918 46.7882 43.6292 46.9951 43.6243 47.2033C43.6277 47.449 43.5744 47.6923 43.4685 47.9141C43.3697 48.1233 43.2234 48.3065 43.0412 48.4492L43.6682 49.2478H42.7617L42.3863 48.7367C42.2751 48.7641 42.1614 48.7802 42.0469 48.7846V48.7846ZM41.4519 46.5564C41.3094 46.7419 41.2322 46.9693 41.2322 47.2033C41.2322 47.4372 41.3094 47.6646 41.4519 47.8502C41.5282 47.9303 41.6208 47.9931 41.7234 48.0345C41.8261 48.0758 41.9364 48.0947 42.0469 48.0898C42.1569 48.0949 42.2666 48.0761 42.3686 48.0347C42.4707 47.9934 42.5625 47.9304 42.6379 47.8502C42.783 47.6658 42.8619 47.4379 42.8619 47.2033C42.8619 46.9686 42.783 46.7408 42.6379 46.5564C42.5625 46.4761 42.4707 46.4132 42.3686 46.3718C42.2666 46.3305 42.1569 46.3117 42.0469 46.3168C41.9337 46.3096 41.8204 46.3273 41.7148 46.3687C41.6092 46.4101 41.514 46.4741 41.4359 46.5564H41.4519Z" fill="white"/>
<path d="M46.1156 47.5108V45.6699H46.8663V47.5108C46.8558 47.6653 46.9043 47.818 47.0021 47.9381C47.0541 47.99 47.1167 48.0301 47.1856 48.0556C47.2545 48.0811 47.3281 48.0914 47.4014 48.0859C47.4746 48.0906 47.548 48.0799 47.6168 48.0545C47.6856 48.029 47.7482 47.9894 47.8007 47.9381C47.9028 47.8201 47.9545 47.6666 47.9445 47.5108V45.6699H48.6952V47.5108C48.7014 47.7601 48.6348 48.0057 48.5035 48.2177C48.3866 48.4043 48.219 48.5539 48.0204 48.6489C47.8214 48.7408 47.6045 48.7872 47.3854 48.7847C47.0515 48.793 46.7271 48.6729 46.4789 48.4493C46.3539 48.3286 46.2567 48.1821 46.1939 48.0201C46.1312 47.858 46.1044 47.6843 46.1156 47.5108V47.5108Z" fill="white"/>
<path d="M53.2287 45.6616V46.2327H52.1146V46.8955H53.0969V47.4666H52.1146V48.1814H53.2287V48.7524H51.3519V45.6616H53.2287Z" fill="white"/>
</svg>
