<svg width="76" height="72" viewBox="0 0 76 72" fill="none" xmlns="http://www.w3.org/2000/svg">
<path d="M64.0454 9.05337L62.5704 7.57437C67.7529 3.85894 61.8409 2.39191 60.5492 0C58.2774 2.34675 55.4824 4.12261 52.3928 5.18246L50.1644 7.40693C37.1085 20.4628 25.5477 33.4628 12.1211 45.51C21.0389 38.0233 29.0757 30.6961 36.9292 22.1251C37.1086 22.4241 37.2321 22.9025 37.7265 22.8028C31.2245 33.0003 20.4728 37.836 13.2333 47.296L11.7663 45.8289C8.66082 48.6195 5.45965 51.3223 2.11098 53.9813C0.863202 55.2291 0.488477 56.9991 0.460571 58.7651C11.8939 52.4505 21.3419 42.4842 31.2564 33.9332C27.3615 37.828 23.2833 42.6517 18.6431 45.809C12.3284 50.6486 7.69608 56.0264 1.56483 59.9292C1.22199 60.1285 0.871179 60.3279 0.520367 60.5192C0.588137 61.3165 0.691788 62.0381 0.783478 62.6959C1.52098 65.6538 3.54613 68.7992 7.62433 68.4205L9.29069 66.7501C10.2435 67.2604 10.8853 68.1733 11.5231 69.0583C15.5096 65.8691 19.4284 62.5603 23.3671 59.2993C28.0751 54.9939 32.9108 50.9277 38.2487 47.6308C33.0941 51.3183 28.2067 55.2849 23.3671 59.2993C19.5958 62.7437 15.9083 66.3515 12.1171 69.8835C12.8706 70.8801 13.6918 71.6376 15.0193 71.3665C17.2438 71.3665 20.0304 66.3555 22.6296 64.4977C30.2279 59.8535 36.5385 52.8053 43.7581 47.7903C48.9405 44.0788 53.0347 39.2552 57.1168 34.4315C62.5026 27.5707 70.671 22.3683 74.1911 15.8822C77.1929 9.93836 70.3481 6.4462 64.0454 9.05337Z" fill="#C3D8CC"/>
<path d="M21.7251 33.7866L12.9547 21.2809V28.5483C12.9547 30.41 13.0704 33.5753 16.4708 33.5753V33.7866H9.05594V33.5753C12.2691 33.5753 12.7355 30.3861 12.7355 28.5483V21.0058L11.6432 19.4431C10.2439 17.6053 9.33898 17.6292 8.73303 17.5814V17.394H16.1599L24.0731 28.8273V22.6084C24.0731 20.4437 23.3316 17.5814 20.7444 17.5814V17.394H27.8005V17.5814C24.9143 17.5814 24.2844 20.4437 24.2844 22.6084V33.7706L21.7251 33.7866Z" fill="#101010"/>
<path d="M42.4189 29.222V33.7866H28.8209V33.5753C29.8016 33.5753 30.1724 32.18 30.1724 30.5974V20.6072C30.1724 19.1641 29.8455 17.5814 28.8209 17.5814V17.394H42.1159V22.1779H41.9086C41.9086 17.6372 35.5302 17.6133 35.5302 17.6133H34.693V25.4109H36.5787C36.6026 25.4109 39.0702 25.4827 39.3254 22.6642H39.5367V28.3689H39.3254C39.0702 25.5783 36.6026 25.6222 36.5787 25.6222H34.693V33.5952H35.5302C35.5302 33.5952 42.1877 33.8503 42.1877 29.2419L42.4189 29.222Z" fill="#101010"/>
<path d="M70.332 17.3938V17.5812C69.3992 17.5812 67.98 18.3027 66.2818 22.4009L62.2075 33.7863H61.3624C59.1937 28.7314 57.7984 25.4745 56.8656 23.3536L53.1422 33.7863H52.3051C46.4369 20.0727 46.1339 19.4668 46.1339 19.4668C45.3366 17.6051 45.0177 17.629 44.4117 17.5812V17.3938H51.6752V17.5812C50.1842 17.5812 51.3722 20.28 51.3722 20.28L54.8883 28.2531L56.75 23.0706C55.3308 19.7658 55.1913 19.4628 55.1913 19.4628C54.394 17.6011 54.0751 17.625 53.4691 17.5772V17.3898H60.7325V17.5772C59.2416 17.5772 60.4295 20.276 60.4295 20.276L63.9297 28.277L66.0266 22.3889C66.6086 20.7345 66.0944 17.5692 63.7184 17.5692V17.3818L70.332 17.3938Z" fill="#101010"/>
<path d="M28.4862 37.5772V37.7646C27.5573 37.7646 26.1341 38.4862 24.4359 42.5843L20.3617 53.9698H19.5245C17.3598 48.9149 15.9606 45.6579 15.0317 43.5371L11.3043 53.9698H10.4671C4.59899 40.2562 4.29603 39.6502 4.29603 39.6502C3.49873 37.7885 3.1798 37.8124 2.57385 37.7646V37.5772H9.83727V37.7646C8.34632 37.7646 9.5343 40.4635 9.5343 40.4635L13.0504 48.4365L14.9121 43.254C13.4929 39.9492 13.3534 39.6462 13.3534 39.6462C12.5561 37.7845 12.2372 37.8084 11.6312 37.7606V37.5732H18.8946V37.7606C17.4037 37.7606 18.5917 40.4595 18.5917 40.4595L22.0838 48.4684L24.1807 42.5803C24.7628 40.9259 24.2485 37.7606 21.8765 37.7606V37.5732L28.4862 37.5772Z" fill="#101010"/>
<path d="M35.5858 37.5771H35.7014C41.5935 51.0834 41.9881 51.8489 41.9881 51.8489C42.8253 53.7106 43.6186 53.7345 44.085 53.7823V53.9697H35.9366V53.7903C37.7983 53.7903 36.399 51.0675 36.399 51.0675L35.6536 49.4729H31.093C30.6266 50.5213 31.0651 53.7903 33.8556 53.7903V53.9776H27.1344V53.7903C27.832 53.7424 29.0878 53.5591 30.8817 49.4609L35.5858 37.5771ZM33.2338 44.0034L31.1608 49.2417H35.5459L33.2338 44.0034Z" fill="#101010"/>
<path d="M60.4973 37.5771V37.7645C59.4927 37.7645 58.0057 38.4861 56.1879 42.5842L51.6034 53.9697H50.9257C44.6868 40.2561 44.3599 39.6501 44.3599 39.6501C43.5227 37.7884 43.1639 37.8123 42.5221 37.7645V37.5771H50.2759V37.7645C48.6813 37.7645 49.949 40.4634 49.949 40.4634L53.5368 48.4962L55.9287 42.5842C56.6264 40.862 56.2078 37.7645 53.4132 37.7645V37.5771H60.4973Z" fill="#101010"/>
<path d="M75.2793 49.4051V53.9697H61.6813V53.7584C62.658 53.7584 63.0327 52.3631 63.0327 50.7805V40.7903C63.0327 39.3472 62.7058 37.7645 61.6813 37.7645V37.5771H74.9763V42.361H74.765C74.765 37.8243 68.4105 37.8004 68.4105 37.8004H67.5694V45.598H69.459C69.4789 45.598 71.9465 45.6698 72.2057 42.8513H72.413V48.556H72.2057C71.9465 45.7654 69.4789 45.8093 69.459 45.8093H67.5694V53.7823H68.4105C68.4105 53.7823 75.068 54.0374 75.068 49.429L75.2793 49.4051Z" fill="#101010"/>
</svg>
