<svg width="117" height="72" viewBox="0 0 117 72" fill="none" xmlns="http://www.w3.org/2000/svg">
<path d="M88.6168 58.1757C86.1859 58.1757 83.755 59.6192 81.9197 56.7858C81.3079 56.7858 82.51 51.1083 81.9197 48.2642H79.4673C78.8341 44.0141 80.0415 39.7479 79.4083 35.4924C79.4083 35.3743 79.3653 35.2777 79.3439 35.1704L88.6437 35.0148H79.2902C78.5389 31.4891 76.269 33.9737 75.6626 31.2584C73.7844 28.4304 76.87 26.9976 78.7267 26.9654C78.0935 24.1266 79.961 26.9654 79.9503 24.1212C79.9234 18.4437 79.902 12.7662 77.3852 8.51606C76.7519 7.09936 77.353 2.83852 77.3369 -0.000244141C69.8241 0.0373199 61.6351 0.0534179 54.2618 5.78462C48.155 10.1367 40.5671 4.14253 34.53 8.9239C33.6177 9.64835 32.3835 8.60192 31.1975 8.26385C30.9271 8.14724 30.6272 8.11714 30.339 8.17766C30.0508 8.23819 29.7883 8.38638 29.5876 8.60192C29.0886 9.09562 28.6324 10.083 28.3266 11.8646L30.2745 11.8271C28.5627 16.1201 26.2337 11.8861 23.5881 13.4906C23.792 16.324 23.8779 17.7407 23.1534 19.2218C24.8599 19.0716 27.1138 17.569 28.4875 18.9642L28.5841 23.2143C27.9402 23.9441 27.0816 23.6114 26.1639 23.2948C25.2463 22.9782 24.2482 22.6884 23.5184 23.4612C23.6364 24.8779 23.8779 27.7113 23.996 29.1226C24.114 30.5339 23.4271 30.593 22.7241 30.6788C23.4325 30.5876 24.8116 30.4749 25.4771 30.4374C25.5575 31.7253 25.7024 34.1938 25.7883 35.6641C24.3946 35.7392 23.0062 35.8915 21.6294 36.1203L25.8151 36.0505V36.1042C25.8956 37.5262 25.3053 37.5584 24.7419 37.6067C24.9565 40.4401 24.7419 43.3111 25.3429 44.6795C25.8312 44.6366 26.341 44.6044 26.8669 44.5775C25.8366 45.3395 25.3 47.529 25.2087 50.0404C25.1631 52.5319 25.3211 55.023 25.681 57.4888C25.7346 56.0507 26.2176 60.2793 26.282 58.8465C26.2098 59.9758 26.2098 61.1086 26.282 62.238C26.341 63.3917 26.4591 64.5455 26.604 65.5973C26.6952 66.1339 26.7113 66.6383 26.765 67.1106C26.8157 67.5489 26.9128 67.9806 27.0547 68.3985C27.1191 68.7527 27.2157 69.2517 27.3821 70.1425C27.2318 70.6792 28.6324 70.9475 31.4873 71.1621C34.3422 71.3768 36.9233 71.4465 39.6548 71.4143C45.1016 71.3194 50.5382 70.9037 55.9361 70.1694C66.6687 68.8815 77.4013 66.7135 88.0051 65.2538C89.2286 63.8532 88.6222 61.0198 88.6168 58.1757Z" fill="#C3D8CC"/>
<path d="M13.6765 34.7302C13.8541 34.8622 14.0491 34.9687 14.2561 35.0468C15.6447 35.8432 16.939 36.7936 18.1144 37.8802C19.8879 39.466 21.1426 41.5492 21.7152 43.8583C22.102 45.7358 21.7564 47.6901 20.7493 49.3212C20.4253 50.0129 20.0141 50.6603 19.5258 51.2477C19.2843 51.5793 19.0052 51.8819 18.694 52.1492C17.5206 53.2418 16.144 54.0933 14.6424 54.6553C13.9699 55.001 13.2087 55.1356 12.4584 55.0416C11.8756 55.0164 11.2969 55.1499 10.7841 55.428C10.2864 55.6606 9.7715 55.8544 9.24395 56.0076C8.04779 56.3193 6.80053 56.3832 5.57877 56.1954C3.84546 55.9378 2.17118 55.428 1.08182 54.2689C0.115892 53.2386 -0.141688 51.8916 0.437871 50.0939C0.908298 48.9222 1.53464 47.8193 2.29997 46.8151C3.03164 45.7257 3.897 44.7324 4.87579 43.8583C5.06041 43.6945 5.21322 43.498 5.32656 43.2787C5.86319 42.3128 6.09931 42.1196 7.06524 42.2484C7.44624 42.1196 7.70383 41.5401 8.21899 41.7118C7.96141 41.8406 7.76822 41.9694 7.38721 42.1625C7.59716 42.2189 7.81044 42.2619 8.0258 42.2913C8.01516 42.5933 8.03675 42.8955 8.0902 43.1929C8.11536 43.3078 8.11083 43.4272 8.07703 43.5399C8.04323 43.6526 7.98127 43.7547 7.89701 43.8368C7.51064 44.3466 7.19403 44.8618 6.74326 45.4467C6.10803 46.1755 5.68484 47.0646 5.51974 48.0172C5.42005 48.5923 5.35553 49.1729 5.32656 49.7558C5.30378 49.8528 5.30082 49.9535 5.31785 50.0516C5.33488 50.1498 5.37155 50.2436 5.42566 50.3272C5.47978 50.4109 5.55022 50.4828 5.63278 50.5386C5.71534 50.5944 5.8083 50.633 5.90612 50.652C6.48221 50.859 7.10412 50.9035 7.70382 50.7808C8.9182 50.61 10.1063 50.2873 11.2402 49.8202C12.3993 49.2836 13.6175 48.8543 14.7766 48.2747C15.6888 47.8684 16.5338 47.3255 17.2827 46.6648C17.8622 46.2141 18.0554 45.6989 17.8622 45.3126C17.4114 43.8368 16.8319 42.5489 15.6137 41.583C13.5166 39.9664 11.3033 38.5064 8.99173 37.2148C7.61013 36.4034 6.29806 35.4791 5.06898 34.4512C3.72014 33.3705 2.62165 32.0102 1.8492 30.464C0.373474 28.0224 1.72041 24.6792 3.78107 22.1731C5.64317 19.8602 8.14923 18.3147 10.7197 16.9034C11.4924 16.5814 12.2652 16.3668 12.9735 16.0663C16.8909 14.6496 20.5561 14.5208 24.0925 14.7784C25.1657 14.9072 26.2122 15.1003 27.3122 15.2291C28.4151 15.2867 29.4816 15.6429 30.3979 16.2595C30.572 16.3571 30.7024 16.5176 30.7622 16.7081C30.822 16.8986 30.8069 17.1047 30.7198 17.2844C30.6664 17.4283 30.6444 17.5821 30.6554 17.7352C30.6221 18.0626 30.5575 18.3861 30.4623 18.7011C29.9356 19.723 29.6078 20.8357 29.4963 21.9799C29.36 22.5552 29.12 23.1007 28.788 23.5898C28.5304 24.1264 28.1494 24.4914 27.8918 24.9421C27.6518 25.3754 27.2948 25.7324 26.8615 25.9724C26.2215 26.3031 25.5556 26.5813 24.8706 26.8042C24.7157 26.8997 24.5374 26.9502 24.3554 26.9502C24.1735 26.9502 23.9951 26.8997 23.8403 26.8042C22.8682 26.439 21.8525 26.2027 20.819 26.1012C18.715 25.7548 16.5869 25.5754 14.4546 25.5646C13.7823 25.6089 13.1157 25.7167 12.4637 25.8866C11.691 26.0154 10.9826 26.2032 10.2796 26.332C5.64854 27.4911 8.34778 30.8343 10.6606 32.5032C11.7086 33.1859 12.7156 33.9296 13.6765 34.7302V34.7302Z" fill="#101010"/>
<path d="M36.4995 42.1199C36.4712 42.1007 36.4386 42.0887 36.4045 42.085C36.3705 42.0813 36.3361 42.0861 36.3043 42.0988C36.2725 42.1115 36.2443 42.1318 36.2222 42.1579C36.2001 42.1841 36.1848 42.2152 36.1775 42.2487C36.1131 42.2487 36.1131 42.3131 36.1131 42.3775C35.8555 43.0214 35.5336 43.4078 34.954 43.279C34.632 43.601 34.5032 43.9229 34.2456 44.1752C34.078 44.2506 33.9318 44.3666 33.8203 44.5128C33.7088 44.659 33.6355 44.8307 33.6071 45.0123C33.6071 45.1411 33.5427 45.2055 33.4783 45.3343C33.1563 45.7851 32.8343 46.107 32.5767 46.4934C32.3176 47.0554 31.9185 47.5414 31.4176 47.9047C31.1356 48.1662 30.8965 48.4704 30.7093 48.8063C30.691 48.8774 30.6504 48.9408 30.5934 48.9872C30.5364 49.0336 30.466 49.0604 30.3926 49.0638C30.0319 49.1834 29.702 49.3813 29.4267 49.6434C28.7592 50.0466 28.0157 50.3079 27.2426 50.4108C26.5558 50.445 25.8709 50.3124 25.2464 50.0244C24.2214 49.4502 23.835 48.3555 23.7062 46.9442C23.6854 46.6169 23.7292 46.2886 23.835 45.9782C23.991 43.9581 24.3341 41.9569 24.86 40.0002C25.182 38.9269 25.5684 37.9449 25.9333 36.979C26.7704 35.2403 27.4788 33.3782 28.3105 31.6449C28.3359 31.4785 28.3963 31.3194 28.4876 31.178C28.9445 29.6852 29.594 28.2583 30.4195 26.9333C30.6569 26.5184 30.8701 26.0902 31.0581 25.6507C31.2121 25.6011 31.3765 25.5928 31.5347 25.6267C31.6929 25.6606 31.8395 25.7355 31.9596 25.8439C32.668 26.2947 33.3763 26.8045 34.1437 27.2553C34.2725 27.3196 34.4657 27.4484 34.4657 27.5772C34.9985 28.5144 35.4302 29.5056 35.7536 30.5341C35.8824 31.178 35.9468 31.7576 36.0755 32.3962C36.2226 33.1208 36.1323 33.8734 35.818 34.5427C35.5604 35.0793 35.4316 35.6159 35.174 36.1526C35.1096 36.4745 34.9808 36.7965 34.9164 37.1185C34.5508 38.4322 34.1009 39.721 33.5695 40.9769C33.5355 41.0102 33.513 41.0534 33.5051 41.1003C33.5051 41.1003 33.5051 41.1647 33.3763 41.2935C33.3067 41.8082 33.1545 42.3083 32.9255 42.7746C33.0543 42.7102 33.1831 42.7102 33.2475 42.6458C33.8861 41.9374 34.5945 41.1003 35.2384 40.3329C36.3975 39.045 37.4225 37.7624 38.5172 36.4745C38.958 36.0123 39.3651 35.5192 39.7354 34.9988C40.9584 33.3854 42.2679 31.8395 43.6581 30.3677C43.8542 30.1414 44.0955 29.9586 44.3665 29.8311C44.8691 29.5985 45.4262 29.5094 45.9764 29.5735C46.184 29.6525 46.3792 29.7609 46.5559 29.8955C47.0925 30.4321 47.5218 30.9687 48.037 31.441C48.3719 31.7545 48.615 32.1534 48.74 32.5947C48.8849 33.0357 48.9926 33.488 49.062 33.947C49.2008 34.6062 49.1787 35.2891 48.9976 35.9379C48.6048 37.3564 48.1337 38.752 47.5862 40.1183C47.4574 40.6978 47.1999 41.272 47.0496 41.9804C47.2148 41.9237 47.3677 41.8363 47.5004 41.7228C48.8216 40.9472 50.0145 39.9715 51.0368 38.8303C52.0246 37.8657 53.1255 37.0243 54.3156 36.3243C54.5143 36.2387 54.6892 36.1061 54.8254 35.9379C54.8858 35.8694 54.9601 35.8145 55.0434 35.7769C55.1267 35.7393 55.217 35.7199 55.3083 35.7199C55.3997 35.7199 55.49 35.7393 55.5733 35.7769C55.6565 35.8145 55.7309 35.8694 55.7913 35.9379C56.1133 36.1955 56.2421 36.6463 56.6928 36.8394C57.0148 36.9682 57.2295 37.2902 57.4656 37.6122C57.4007 38.1469 57.4007 38.6874 57.4656 39.2221C57.4443 39.7098 57.3352 40.1897 57.1436 40.6388C56.7572 40.832 57.0148 41.3418 56.7572 41.6637C56.6928 42.4365 56.564 43.2092 56.4353 43.9176C56.3709 44.6012 56.3709 45.2893 56.4353 45.9729C56.4353 46.4236 56.564 46.6168 56.886 46.7456C57.8466 46.9388 61.1791 44.5562 61.8337 43.7244C62.9842 42.3998 63.9965 40.9614 64.855 39.4314C64.9034 39.1218 65.0372 38.8319 65.2413 38.5942C65.3701 38.7874 65.4345 38.7874 65.3701 38.8518C65.1769 39.8177 65.4989 39.2382 65.3701 40.3329C65.3701 40.0753 65.0481 41.4062 64.8335 41.2935C64.7047 41.2935 64.7047 41.4867 64.5759 41.6154C64.1794 42.3109 63.8211 43.0275 63.5027 43.762C63.4714 43.9725 63.3843 44.1707 63.2504 44.3361C62.7343 44.7146 62.2595 45.1463 61.8337 45.6241C61.8337 45.8173 61.6406 45.8816 61.5118 45.946C61.1898 46.6544 58.4905 48.5809 57.7554 48.5809C57.4387 48.5809 55.8933 48.4521 55.5713 48.1945C54.9273 47.6149 53.9024 46.912 53.516 46.0104C53.206 45.1463 53.1835 44.2053 53.4516 43.3273C53.7529 41.7304 54.1818 40.1602 54.7341 38.6318C54.8078 38.4263 54.8511 38.2112 54.8629 37.9932C54.9273 37.8644 54.8629 37.8 54.8629 37.6068C54.4819 37.6712 54.2243 38.1435 53.9024 38.1864C53.5831 38.2933 53.2798 38.4432 53.0008 38.6318C53.0079 39.0815 52.8472 39.5177 52.5501 39.8553C52.3203 40.1447 52.1054 40.4456 51.9061 40.7568C51.5841 40.5637 51.2675 40.7568 50.9455 41.0144C50.4089 41.4598 49.9796 41.8462 49.4 42.297C49.2713 42.4258 49.0781 42.4901 48.9493 42.7477C48.3433 43.4318 47.6526 44.0359 46.894 44.5454C46.8296 44.6742 46.7008 44.6742 46.572 44.8674C46.1856 45.6402 45.4183 46.0265 44.8387 46.6705C44.6446 46.9429 44.4293 47.1994 44.1947 47.4379C43.7468 47.8232 43.2251 48.1133 42.6614 48.2904C42.0977 48.4675 41.5038 48.528 40.9159 48.4682C40.3766 48.3675 39.8942 48.069 39.5636 47.6311C39.3237 47.37 39.1482 47.0564 39.0513 46.7153C38.9544 46.3742 38.9387 46.0152 39.0055 45.667C39.0084 44.9641 39.1393 44.2676 39.3919 43.6117C40.4242 40.4927 41.9184 37.546 43.8245 34.87C44.2752 34.0329 44.8548 33.2601 45.3056 32.3586C45.4461 32.2467 45.5509 32.0962 45.6071 31.9255C45.6634 31.7549 45.6686 31.5716 45.6222 31.398C45.4344 31.2048 45.1768 31.2048 44.9192 31.4624C44.7578 31.6729 44.5618 31.8543 44.3396 31.9991C43.6957 32.6376 43.0517 33.2816 42.4131 33.7968C42.0204 34.2147 41.6946 34.6907 41.4472 35.2081C41.1556 35.9381 40.7418 36.6132 40.2237 37.2044C39.6632 37.7201 39.1677 38.3021 38.748 38.9377C38.3616 39.4743 38.104 40.0109 37.782 40.5476C37.6135 40.9181 37.4199 41.2767 37.2025 41.6208C37.0737 41.814 36.8805 42.0716 36.7517 42.2648C36.6927 42.2487 36.5639 42.1199 36.4995 42.1199Z" fill="#101010"/>
<path d="M65.1016 33.5716L65.166 33.5072C65.3096 33.3193 65.4929 33.1654 65.7027 33.0564C66.4056 32.9276 68.0155 31.7739 68.6595 32.1602C68.8473 32.4124 69.4913 32.7344 69.7327 32.992C69.8718 33.1982 69.9566 33.4361 69.9791 33.6838C70.0016 33.9315 69.9612 34.1808 69.8615 34.4087C69.4752 35.2405 69.0244 36.0186 68.5146 37.0435C68.3858 37.4299 68.257 37.7519 68.1926 38.0041C67.935 38.5837 67.656 39.3564 67.3555 39.936C67.0979 40.7087 68.257 38.2617 68.1282 38.9056C68.1068 39.0972 68.0406 39.281 67.935 39.4423C67.3984 40.7302 67.3984 40.4726 67.3555 41.6264C67.3555 42.2703 67.0979 45.5491 67.1623 46.1287C67.2446 46.494 67.431 46.8276 67.6989 47.0892C68.0052 47.2949 68.3284 47.4745 68.6648 47.6259C68.9815 47.8834 69.3034 47.7547 69.6898 47.6903C75.0239 45.7638 73.0974 45.0554 76.183 41.7873C76.7626 40.9556 77.4709 40.1775 77.7929 39.1525C77.7929 39.0881 77.7929 39.0881 77.9861 38.7661C78.3081 39.4101 77.6051 40.3116 78.5227 40.5048C77.1758 42.9465 76.2099 46.4829 74.0258 47.7654C73.3818 48.6025 69.0083 52.4609 66.1803 51.3662C65.2841 51.6881 64.447 50.7866 63.4971 50.4002C62.778 50.0762 62.1414 49.5937 61.635 48.9889C61.271 48.1766 61.0531 47.3064 60.9911 46.4185C60.888 46.0411 60.8446 45.6501 60.8623 45.2593C61.0555 44.4866 60.9267 43.0109 61.1842 42.4957C61.2854 42.1602 61.3502 41.8147 61.3774 41.4654C61.5062 41.401 61.3774 41.0844 61.8282 41.02C61.8926 41.02 61.957 40.7624 62.0214 40.698C62.3434 40.2472 62.4078 39.8608 62.7297 39.4101C62.7297 39.4101 61.3774 40.7624 62.1502 39.4745C62.6868 38.1919 63.8191 36.7913 64.2055 35.8737C64.2242 35.7582 64.2681 35.6482 64.3343 35.5517C64.5274 35.1707 64.7206 34.9131 64.5918 34.4785C64.5417 34.1644 64.6106 33.8429 64.785 33.5769C64.8353 33.5978 64.8894 33.6081 64.9439 33.6072C64.9984 33.6062 65.052 33.5941 65.1016 33.5716V33.5716ZM71.0046 26.5632C70.86 26.7332 70.7506 26.9302 70.6826 27.1427C70.6854 27.2025 70.6753 27.2622 70.6531 27.3177C70.6309 27.3732 70.597 27.4234 70.5538 27.4647C70.3606 27.6579 70.1674 27.9155 69.9098 28.2375C69.6453 28.5044 69.3103 28.6905 68.9439 28.7741C68.8151 28.7097 68.6273 28.8385 68.4985 28.9673C68.3719 29.067 68.2184 29.1265 68.0576 29.138C67.8969 29.1494 67.7364 29.1124 67.597 29.0317C67.44 28.9242 67.249 28.8783 67.0603 28.9029C66.8224 28.9135 66.5841 28.8918 66.352 28.8385C66.4164 28.7741 66.4808 28.6453 66.5452 28.5809C66.5886 28.3605 66.6533 28.1449 66.7384 27.937C66.8633 27.645 67.0142 27.3649 67.1891 27.0998C67.1891 26.971 67.3823 26.8422 67.3823 26.7778C67.3823 26.3915 67.7043 26.0749 67.9189 25.7046L68.3053 25.125C68.4341 24.9962 68.5629 24.8674 68.6863 24.8674C68.734 24.8356 68.79 24.8186 68.8473 24.8186C68.9046 24.8186 68.9606 24.8356 69.0083 24.8674C69.0083 24.9962 69.1371 24.9962 69.2659 24.9318C69.3947 24.8674 69.4591 24.803 69.5235 24.8674C69.7927 24.9825 70.0733 25.0688 70.3606 25.125C70.8032 25.3216 71.1663 25.662 71.3909 26.091C71.2085 26.2412 71.1441 26.4344 71.0153 26.5632H71.0046Z" fill="#101010"/>
<path d="M95.7594 42.0559C95.4375 42.6999 94.3481 44.1112 94.3481 44.8196C94.2331 44.9424 94.1033 45.0505 93.9618 45.1415C93.7319 45.3597 93.5493 45.6227 93.4251 45.9143C93.2896 46.1595 93.1391 46.3961 92.9744 46.6226C92.228 48.0929 91.2269 49.4192 90.0175 50.54C89.6312 50.862 86.2236 54.1408 85.9713 54.4628C84.1039 56.0083 81.5978 55.2999 79.7357 55.3643C79.2706 55.3916 78.8059 55.3031 78.3834 55.1067C77.8038 54.7848 76.5213 54.2696 76.1349 53.69C75.5554 52.2787 74.0796 51.3128 73.9509 49.3219C73.8865 48.7853 73.6289 48.4847 73.5645 47.9696C73.6289 45.9143 73.9509 43.859 74.2031 41.734C74.5894 40.2582 74.9114 38.6483 75.169 37.1726C75.813 34.409 76.0061 34.087 77.2243 31.5809C77.8683 29.9067 78.4478 29.7779 79.0918 28.1089C79.5312 27.223 80.024 26.3646 80.5675 25.5385C81.0291 24.5551 81.5674 23.6095 82.1774 22.7105C83.298 20.7276 84.6333 18.8741 86.1592 17.1832C87.1251 16.2172 88.1554 15.1869 89.116 14.3498C89.634 13.8796 90.2202 13.4906 90.8547 13.196C91.0349 13.0837 91.23 12.997 91.4342 12.9384C91.8582 12.8713 92.2919 12.9 92.7033 13.0226C93.1147 13.1452 93.4934 13.3585 93.8115 13.6468C94.4555 14.2264 94.6486 15.1225 94.4554 16.3299C94.3267 17.0973 94.2623 17.8701 94.0691 18.5784C93.96 19.1901 93.7419 19.7772 93.4251 20.3117C92.9833 21.4185 92.4237 22.4745 91.7562 23.4617C91.3054 24.2989 90.7903 25.136 90.3395 25.9732C89.5668 27.1269 88.9282 28.3504 88.1554 29.4398C86.8031 31.2429 85.6494 33.1962 84.4259 34.9724C82.435 38.3747 82.6281 38.9542 81.9198 42.3618C81.6622 43.7141 81.791 44.4815 81.7266 45.8338C81.791 46.2202 81.9842 48.7262 82.0486 48.9838C82.2097 49.7014 82.4698 50.3931 82.8213 51.0391C82.9501 51.2967 83.8463 51.4899 84.1683 51.6187C84.619 51.9406 88.0266 49.6278 88.4613 49.3058C89.4843 48.6149 90.4133 47.7942 91.2249 46.8641C92.1855 45.9626 92.6363 44.9323 93.4734 43.7141C94.6325 42.1686 95.0135 40.8861 96.2371 39.2118C97.1762 39.0991 96.6395 40.4514 95.7594 42.0559ZM85.4776 30.4862C87.0169 28.1197 88.4319 25.6748 89.717 23.1612C90.4254 21.8089 91.0049 20.4781 91.7133 19.1097C92.0176 18.168 92.2315 17.1995 92.3519 16.2172C92.4807 15.8953 92.4806 15.6806 92.1587 15.8309C91.904 15.8866 91.6642 15.9964 91.4557 16.1529C90.5469 16.5256 89.7801 17.1778 89.2662 18.015C88.8208 18.5516 88.4989 19.0882 87.9837 19.6248C87.4469 20.2867 87.0523 21.0521 86.8246 21.8733C86.5026 22.5173 86.1806 23.2847 85.864 23.9286C85.3666 25.3129 84.786 26.6659 84.1253 27.9801C83.8678 28.6241 83.6746 29.3271 83.417 29.971C82.6496 32.1605 82.9716 31.0443 82.2632 33.2498C82.0701 33.7865 82.1988 35.2407 83.0306 34.3231C83.9965 32.9279 84.6405 31.9673 85.4776 30.4862Z" fill="#101010"/>
<path d="M98.9736 39.1638C98.9612 39.2347 98.931 39.3014 98.886 39.3577C98.841 39.414 98.7826 39.458 98.7161 39.4857C98.6601 39.5197 98.6133 39.5667 98.5796 39.6228C98.546 39.6789 98.5265 39.7424 98.5229 39.8077C98.4585 40.0653 98.3941 40.1297 98.2009 40.1941C98.0077 40.2585 98.0721 40.3229 98.0077 40.7307C98.1365 40.7307 98.2009 40.7307 98.2653 40.7951V40.8381H97.8145C97.8661 40.6641 97.8878 40.4826 97.8789 40.3014H97.7501L97.5569 41.6484C97.6857 41.7128 97.7501 41.7772 97.8145 41.7772C97.8681 42.2042 97.8896 42.6347 97.8789 43.0651C97.888 43.4629 97.9755 43.8549 98.1365 44.2188C98.3297 44.4764 98.8449 45.8931 99.038 46.1507C99.9396 47.0468 101.029 48.206 102.059 48.2704C102.902 48.2265 103.739 48.1189 104.565 47.9484C106.18 47.4402 107.685 46.6338 109.003 45.5711C110.077 44.734 111.123 43.7734 112.223 42.888L112.416 42.6948C112.803 42.244 113.189 41.8576 113.575 41.4069C114.288 40.7207 114.933 39.9677 115.502 39.1584C115.654 38.8133 115.929 38.5376 116.275 38.3857C116.164 38.9428 115.984 39.4837 115.738 39.9955C115.672 40.1964 115.562 40.3799 115.416 40.5322C115.041 40.9394 114.718 41.3919 114.455 41.8791C114.262 42.1367 114.005 42.4157 113.811 42.6519C113.718 42.7753 113.632 42.9043 113.554 43.0382C113.747 42.9738 113.876 42.9094 114.09 42.845C114.026 43.2314 113.704 43.2958 113.64 43.6178C113.704 43.6822 113.704 43.7466 113.833 43.811C113.653 44.0937 113.436 44.3517 113.189 44.5784C112.8 44.903 112.44 45.2622 112.116 45.6516C111.542 46.2602 110.917 46.8185 110.248 47.3205C109.964 47.5763 109.663 47.8129 109.347 48.0289C109.094 48.2221 108.837 48.3509 108.579 48.5655C108.18 48.7553 107.792 48.9704 107.42 49.2095C106.791 49.6086 106.095 49.8904 105.365 50.0412L104.785 50.2344C104.035 50.4772 103.259 50.6286 102.472 50.6852C101.571 50.814 97.777 50.111 96.9452 49.789C94.6913 48.8875 94.262 47.7928 93.2156 46.8966C92.8081 46.5271 92.4984 46.0625 92.3141 45.5443C92.0305 44.6775 91.8786 43.773 91.8633 42.8611C91.8906 40.8784 92.3522 38.9258 93.2156 37.1407C93.4088 36.7543 93.4088 36.7543 93.3444 36.1747C93.1932 36.2407 93.0576 36.338 92.9467 36.46C92.8357 36.5821 92.7518 36.7263 92.7005 36.8831C92.4976 37.4631 92.2388 38.0221 91.9277 38.552C91.9705 38.0538 92.1246 37.5715 92.3785 37.1407C92.8769 35.9944 93.4805 34.8967 94.1816 33.8619C94.8642 32.7928 95.6613 31.8013 96.5588 30.9051C97.4115 29.9676 98.384 29.1466 99.4512 28.4634C99.6722 28.3691 99.8872 28.2616 100.095 28.1414C100.412 28.0126 100.734 27.9482 100.927 28.2702C101.12 28.4634 101.378 28.399 101.507 28.5278C101.635 28.6566 101.764 28.9142 101.893 29.0644C102.537 29.381 104.979 30.025 105.558 30.4114C105.758 30.5863 105.913 30.8073 106.009 31.0553C106.258 31.6456 106.604 32.1898 107.034 32.6652C107.157 32.8394 107.245 33.0364 107.291 33.2448C107.452 34.0073 107.452 34.7951 107.291 35.5576C107.135 36.4468 106.809 37.2975 106.331 38.0637C106.057 38.4935 105.82 38.9459 105.622 39.416C105.46 39.8695 105.244 40.3019 104.979 40.7039C104.861 40.9349 104.698 41.1394 104.499 41.3046C104.299 41.4699 104.068 41.5924 103.819 41.6645C103.443 41.853 103.018 41.9205 102.601 41.8576C102.408 41.7932 102.215 41.8576 102.065 41.6001C102.065 41.583 102.058 41.5666 102.046 41.5545C102.034 41.5425 102.017 41.5357 102 41.5357C101.464 41.6001 101.163 41.0259 100.777 40.8327C100.707 40.7383 100.662 40.6273 100.648 40.5107C100.777 40.2531 100.648 40.1243 100.584 39.9311C100.326 39.3945 100.074 38.8579 99.7517 38.3213C99.6874 38.1334 99.4942 38.0637 99.301 38.2569C99.2312 38.5198 98.9736 38.7774 98.9736 39.1638ZM92.8829 44.9486C92.9473 45.1418 93.0117 45.2706 93.0761 45.4853C93.1405 45.6999 93.2693 45.8072 93.1405 46.0648C93.0761 46.0004 93.0117 46.0004 93.0117 45.936C92.7063 45.1976 92.5111 44.4183 92.4321 43.6232C92.3677 43.5588 92.4321 43.4944 92.4321 43.43C92.3896 42.48 92.4763 41.5286 92.6897 40.6019C92.7631 40.4168 92.8066 40.2212 92.8185 40.0224V39.5716C92.6585 39.8577 92.529 40.1599 92.4321 40.4731C92.3677 40.7951 92.3033 41.0527 92.2389 41.3693C91.9814 43.0436 92.0458 44.5891 92.7756 45.936C92.9327 46.1879 93.1123 46.4249 93.3122 46.6444C93.4382 46.7671 93.5933 46.8558 93.763 46.902C93.763 46.9663 93.8274 46.902 93.9562 46.902C93.7531 46.6165 93.5736 46.315 93.4195 46.0004C93.2263 45.614 93.2263 45.2277 93.0332 44.9272C92.9821 44.9167 92.929 44.9243 92.8829 44.9486ZM92.8829 40.8381C92.6167 41.8012 92.5727 42.8122 92.7541 43.7949C92.7541 43.8593 92.8185 43.8593 92.8829 43.9237C92.9473 43.2153 93.0117 42.5714 93.0761 41.9274C93.186 41.5033 93.1635 41.0558 93.0117 40.6449C92.9312 40.7093 92.8829 40.7737 92.8829 40.8381V40.8381ZM100.981 35.6971C100.816 35.9237 100.665 36.1603 100.53 36.4055C100.272 36.8563 100.337 37.1782 100.659 37.3714C100.878 37.4848 101.074 37.6376 101.238 37.8222C101.625 38.2676 102.14 38.2032 102.655 38.1442C103.113 37.94 103.478 37.5727 103.68 37.1138C104.131 36.0406 104.388 35.8259 104.753 34.7366C105.783 32.2896 103.723 32.8691 102.762 33.6633C102.084 34.2651 101.48 34.9461 100.965 35.6918L100.981 35.6971Z" fill="#101010"/>
</svg>
