<svg width="140" height="72" viewBox="0 0 140 72" fill="none" xmlns="http://www.w3.org/2000/svg">
<path d="M96.5339 38.2849C96.0942 39.0369 95.7108 39.8204 95.3868 40.6289L95.2272 40.9282C95.2671 40.8384 95.312 40.7486 95.3469 40.6639C95.3247 40.7216 95.2962 40.7768 95.2621 40.8284L95.2223 40.9332C94.7235 41.8608 94.2248 42.8383 93.776 43.4816C93.4269 43.8357 93.2174 44.0751 92.8583 44.4791C92.2947 45.1174 93.2174 43.3869 93.4318 42.933C92.9331 43.4966 92.3596 44.3444 91.6564 45.3269L91.4569 45.5763C92.3827 44.2052 93.1855 42.7549 93.8557 41.2424L93.9156 41.3421C94.2248 40.6539 94.4442 40.2599 94.6088 39.821C94.8516 39.2726 95.0647 38.7116 95.2472 38.1403V38.0904C94.9773 38.4989 94.7595 38.9396 94.5989 39.4021L94.4243 39.836C97.0451 33.0035 96.902 25.4189 94.0253 18.6901C93.5865 17.6638 93.0868 16.6646 92.5291 15.6977C93.1685 16.6196 93.7579 17.5752 94.2946 18.5604C94.4616 18.0385 94.4772 17.4799 94.3395 16.9495C94.2155 16.3447 94.0283 15.7547 93.7809 15.189C93.6064 14.825 93.3969 14.411 93.1426 13.9522C93.0179 13.7178 92.8832 13.4535 92.7386 13.2141C92.5955 12.9359 92.4287 12.6706 92.2399 12.4211C91.8029 11.7782 91.3301 11.1605 90.8235 10.5708L90.5891 10.2417L89.4969 8.92506L88.9134 8.23183C88.6989 8.01239 88.4695 7.79793 88.2451 7.57351C86.7054 6.37326 85.084 5.28174 83.3925 4.30687L82.3103 3.71339L81.8714 3.39919L80.1059 2.67605L79.2382 2.29702C78.8142 2.12745 78.4053 2.01273 78.0412 1.88307C71.2381 -0.727323 63.6914 -0.620173 56.9651 2.1823C56.328 2.42596 55.7067 2.70913 55.1049 3.03014C54.5064 3.35431 53.8681 3.60866 53.2995 3.99267L51.5789 5.09984L51.15 5.38412L50.751 5.70329L49.9581 6.34166C48.9143 7.18246 47.9326 8.09751 47.0206 9.07966C46.5668 9.57839 46.1728 10.0771 45.7588 10.5758C45.4895 10.9 45.2302 11.2292 44.9908 11.5733C44.8514 11.7543 44.7216 11.9424 44.6018 12.1368C44.3125 12.4062 43.9335 12.7802 43.4796 13.2839C42.9483 13.9199 42.4806 14.6064 42.0832 15.3337C40.5968 17.8908 39.5277 20.6687 38.9163 23.5626L38.7867 24.1062L38.7118 24.6548C38.6653 25.0205 38.6204 25.3796 38.5772 25.7321C38.5323 26.0862 38.4924 26.4353 38.4525 26.7794C38.4274 27.1112 38.4191 27.4441 38.4276 27.7768C38.4276 28.4401 38.4276 29.0635 38.4276 29.647C38.4276 30.2305 38.5772 30.7692 38.657 31.2479C38.657 31.6868 38.6271 32.1407 38.6271 32.5895C38.6271 33.0384 38.7118 33.4722 38.7667 33.8862C38.834 34.5868 38.9659 35.2796 39.1607 35.9559C39.5616 37.3621 40.0429 38.7442 40.602 40.0953L40.6319 40.1851C41.7401 43.3326 43.4321 46.2428 45.6192 48.7631L45.4047 48.4439L45.689 48.7831C45.8247 48.9694 45.9713 49.1475 46.1279 49.3167C47.2904 50.6813 48.5851 51.9275 49.993 53.0372L51.2198 53.9C51.6204 54.2044 52.0402 54.4826 52.4766 54.7328L53.7733 55.4959L54.4117 55.8749C54.6311 55.9896 54.8555 56.0894 55.075 56.1941C56.6436 56.9825 58.2878 57.6107 59.9824 58.0693C60.8602 58.2439 61.6881 58.4184 62.476 58.568L64.82 58.8872C65.0395 58.9221 65.2639 58.9421 65.4883 58.9571H65.5432L65.7128 58.982H65.8574C66.007 58.982 66.1566 59.0169 66.3162 59.0268H66.381C66.7152 59.0568 67.0643 59.0817 67.4234 59.0967C67.0394 59.0967 66.7002 59.0468 66.391 59.0219L66.4259 58.977C66.6404 58.977 66.8548 58.977 67.0643 59.0069C67.3985 59.0069 67.7276 59.0318 68.0618 59.0368C68.1615 59.0368 68.2563 59.0368 68.361 59.0368L70.3858 59.0069C70.9761 58.9959 71.5653 58.9543 72.1513 58.8822C72.5205 58.8411 72.892 58.8245 73.2634 58.8324C74.1462 58.4932 72.3957 58.7925 70.8496 58.987C71.6576 58.8872 72.5353 58.7276 73.438 58.588C74.3407 58.4484 75.2234 58.1441 76.0962 57.9446L76.4104 57.8698L75.9117 58.0294C75.4073 58.2087 74.8859 58.3357 74.3556 58.4084C73.9467 58.578 74.1113 58.588 74.6549 58.5032C76.3505 58.1491 79.3977 57.0968 79.5374 56.8873C79.8516 56.7876 80.1309 56.6729 80.3902 56.5981L81.1233 56.0993L81.4724 55.9697L81.1682 56.0545C83.1631 55.057 85.2129 53.8302 86.4148 52.6282C86.5395 52.4786 86.6243 52.3689 86.6891 52.2841C87.2277 51.9649 86.4647 52.5534 86.325 52.7529C86.6342 52.5185 86.9335 52.3041 87.1928 52.0846L87.8561 51.4463C88.1558 51.1755 88.425 50.8728 88.659 50.5436L87.5868 51.5061L87.0532 52.0048L86.734 52.2442C86.8237 52.1096 86.8487 52.0497 86.8337 52.0248C86.9584 51.9051 87.0731 51.7804 87.1828 51.6607C87.48 51.3078 87.7998 50.9746 88.1404 50.6633C89.4114 49.566 90.6124 48.39 91.7362 47.1423C91.7362 47.1922 91.6913 47.237 91.6713 47.2819L91.3621 47.6859C90.7537 48.4589 89.9358 49.2918 89.6216 49.6558L90.9632 48.3891C91.0901 48.2124 91.205 48.0275 91.3073 47.8355C91.3936 47.7098 91.4959 47.5958 91.6115 47.4964C91.6115 47.4964 91.6414 47.4964 91.6713 47.4714C91.674 47.476 91.6754 47.4811 91.6754 47.4864C91.6754 47.4917 91.674 47.4968 91.6713 47.5013L91.7362 47.4066L91.8708 47.2919V47.1971L92.3696 46.5089C92.3696 46.474 92.3696 46.464 92.3696 46.459C92.574 46.2546 92.7785 46.0451 93.0029 45.8007C93.4774 45.1841 93.917 44.5414 94.3196 43.8756C94.3196 43.8756 94.3196 43.8108 94.3545 43.7709C94.8553 42.9886 95.3067 42.1758 95.706 41.3371C95.9311 40.815 96.0983 40.2698 96.2047 39.7113C96.2047 39.6614 96.2347 39.6215 96.2546 39.5717C96.3504 39.246 96.4155 38.912 96.4491 38.5742C96.4865 38.4807 96.5149 38.3838 96.5339 38.2849V38.2849ZM91.9506 47.0276V46.9777L92.0304 46.8879L92.1252 46.7882L91.9506 47.0276Z" fill="#C3D8CC"/>
<path d="M95.8958 19.3937L95.7063 18.85L95.6763 18.8052C95.7362 18.9747 95.811 19.1692 95.8858 19.3987C95.8908 19.4036 95.8908 19.3937 95.8958 19.3937Z" fill="#C3D8CC"/>
<path d="M95.6763 18.8049C95.6063 18.6449 95.5544 18.4776 95.5217 18.3061C95.2723 17.9072 95.5217 18.6353 95.8159 19.5529C96.2398 20.4706 95.2524 18.1665 95.6763 18.8049Z" fill="#C3D8CC"/>
<path d="M95.8403 18.5506C96.0648 19.1192 96.384 20.0468 96.2144 19.8274L96.6034 20.6154L95.6558 17.9971C95.7606 18.5207 96.0249 19.3835 95.8952 19.3935L96.2842 20.5106C96.0944 19.8675 95.9461 19.2128 95.8403 18.5506V18.5506Z" fill="#C3D8CC"/>
<path d="M97.4762 24.6201C97.4475 24.7851 97.4475 24.9538 97.4762 25.1188C97.4998 24.9534 97.4998 24.7855 97.4762 24.6201V24.6201Z" fill="#C3D8CC"/>
<path d="M97.4665 25.1139C97.3917 25.3233 97.1224 24.1962 97.3169 26.1512C97.2869 25.6026 97.257 25.049 97.3717 25.2884L97.4415 25.8619C97.5114 26.0315 97.4864 25.5328 97.4665 25.1139Z" fill="#C3D8CC"/>
<path d="M96.2339 21.1093C96.1841 20.8799 96.1093 20.6605 96.0494 20.436C95.9846 20.5857 96.1242 20.8898 96.209 21.3138C96.3335 21.7957 96.4252 22.2856 96.4833 22.78L96.613 23.174L96.3636 21.8025L96.2339 21.1093Z" fill="#C3D8CC"/>
<path d="M90.135 49.7959L90.0303 49.8607L89.8707 50.0851L90.135 49.7959Z" fill="#C3D8CC"/>
<path d="M89.0734 50.7887C88.7479 51.0421 88.4427 51.3205 88.1607 51.6215C88.6594 51.2275 89.1582 50.8435 89.622 50.4296L89.8713 50.0854C89.6379 50.3544 89.3695 50.5909 89.0734 50.7887V50.7887Z" fill="#C3D8CC"/>
<path d="M89.8511 49.9705L90.0307 49.8608C90.4521 49.3163 90.9103 48.8014 91.4022 48.3197C91.9561 47.6571 92.4755 46.9662 92.9582 46.25C92.4146 46.9083 91.8809 47.5866 91.3822 48.2449C90.8835 48.9032 90.31 49.4718 89.8511 49.9705Z" fill="#C3D8CC"/>
<path d="M4.29967 26.8394V26.999C4.17201 26.9937 4.04479 27.0168 3.92717 27.0667C3.80955 27.1166 3.70447 27.192 3.61954 27.2874C3.5346 27.3828 3.47191 27.4959 3.43601 27.6186C3.40011 27.7412 3.39189 27.8702 3.41194 27.9964V32.4351C3.41194 34.9586 2.06039 35.9261 0.319847 36.1705L0.274963 36.0059C1.1976 35.6767 2.0604 34.8189 2.0604 32.5148V29.318C2.0604 27.3231 2.06039 27.0289 1.22752 27.0289V26.8693L4.29967 26.8394Z" fill="#101010"/>
<path d="M17.935 34.3657H15.1871V34.2061C15.8903 34.2061 15.5611 33.3284 15.4314 33.0291L15.0923 32.1763H12.4191C12.2695 32.6052 11.701 34.2709 13.2969 34.2061V34.3657H10.8033V34.2061C11.1424 34.2061 11.4117 34.2061 12.3942 31.7125L14.2245 26.835H14.3642C16.3291 31.5479 17.0473 33.3782 17.0473 33.3782C17.4014 34.236 17.6458 34.1812 17.935 34.2011V34.3657ZM15.0275 32.0167L13.7009 28.6802L12.469 32.0167H15.0275Z" fill="#101010"/>
<path d="M34.3178 34.2055V34.3651H31.3255V34.2055C31.7744 34.2055 32.0935 33.8963 32.0935 33.0933V27.2982L29.3905 34.4648H29.2309L26.2385 27.9814V31.682C26.2385 32.3004 26.3233 34.2055 27.6599 34.2055V34.3651H24.5279V34.2055C25.9842 34.2055 26.0789 32.2904 26.0789 31.682V27.7271C25.9711 27.5031 25.8007 27.315 25.5882 27.1858C25.3758 27.0566 25.1305 26.9917 24.882 26.999V26.8394H27.3008L29.974 32.5797L32.0985 26.8394H34.238V26.999C33.7792 26.999 33.4152 27.2533 33.4152 27.9366V33.0933C33.4201 33.8963 33.864 34.2055 34.3178 34.2055Z" fill="#101010"/>
<path d="M44.3073 26.8394V26.999C43.8485 26.999 43.4745 27.2333 43.4745 27.8966V33.1482C43.4745 33.8764 43.8585 34.2055 44.3073 34.2055V34.3651H41.315V34.2055C41.7738 34.2055 42.1479 33.8764 42.1479 33.1482V27.8966C42.1479 27.2333 41.7838 26.999 41.315 26.999V26.8394H44.3073Z" fill="#101010"/>
<path d="M57.0053 32.0909V34.3651H51.3199V34.2055C51.7687 34.2055 51.9184 33.7367 51.9184 33.0086V28.141C51.9184 27.4777 51.7887 26.999 51.3199 26.999V26.8394H56.8807V28.8343H56.7211C56.5365 27.0289 54.1626 27.0189 53.7287 27.0189H53.23V30.51H53.7636C53.9132 30.51 55.2947 30.51 55.3795 29.4177H55.5391V31.7717H55.3795C55.2947 30.6696 53.8833 30.6696 53.7636 30.6696H53.23V34.2304H53.6689C54.1377 34.2304 56.5016 34.2554 56.8457 32.1159L57.0053 32.0909Z" fill="#101010"/>
<path d="M72.0763 33.1284C72.0846 33.4675 71.9607 33.7965 71.7308 34.046C71.5009 34.2954 71.1831 34.4456 70.8444 34.465C70.8444 34.465 69.7871 34.5597 69.3482 33.9264L68.7498 33.0536C68.3408 34.2705 66.1514 35.1781 65.0792 33.6919C64.0069 32.2058 65.4133 31.0537 66.2562 30.56L66.7898 30.2408L66.2262 29.383C65.2288 27.9915 65.8921 26.655 67.089 26.4505C67.3631 26.3767 67.652 26.3785 67.9251 26.4558C68.1982 26.5331 68.4453 26.6829 68.6401 26.8893C69.059 27.3881 69.5278 28.6449 67.9019 29.8019L69.2535 31.7968C69.3466 31.5166 69.5072 31.2636 69.7212 31.0601C69.9351 30.8566 70.1958 30.7088 70.4803 30.6298C70.6023 30.5976 70.7297 30.5925 70.8538 30.615C70.9779 30.6374 71.0956 30.6867 71.1985 30.7594C71.2622 30.8099 71.3148 30.8731 71.3529 30.9449C71.391 31.0167 71.4138 31.0956 71.4199 31.1767C71.426 31.2577 71.4153 31.3392 71.3883 31.4159C71.3614 31.4925 71.3188 31.5628 71.2633 31.6223C71.1568 31.7485 71.0045 31.8272 70.8399 31.8412C70.6754 31.8553 70.512 31.8034 70.3856 31.6971C70.3242 31.6464 70.2743 31.5833 70.239 31.512C70.2038 31.4406 70.184 31.3627 70.1811 31.2831C70.1811 31.0587 69.6026 31.2283 69.3383 31.9215L70.1811 33.1434C70.2807 33.2892 70.4126 33.4101 70.5666 33.4966C70.7206 33.5831 70.8925 33.6329 71.0688 33.6421C71.4429 33.6421 71.8169 33.5224 71.9017 33.1434L72.0763 33.1284ZM68.6401 32.889L66.8995 30.3954L66.3609 30.7395C66.1732 30.8865 66.0184 31.0711 65.9065 31.2816C65.7945 31.4921 65.728 31.7236 65.711 31.9614C65.6941 32.1992 65.7272 32.4379 65.8082 32.6621C65.8892 32.8863 66.0164 33.091 66.1814 33.2631C66.3427 33.453 66.5499 33.5986 66.7833 33.686C67.0168 33.7733 67.2687 33.7994 67.5151 33.7619C67.7615 33.7244 67.9942 33.6246 68.1911 33.4718C68.388 33.319 68.5425 33.1184 68.6401 32.889V32.889ZM67.0491 28.5252L67.8172 29.6623C69.2186 28.7396 68.9742 27.6075 68.5004 27.019C68.3581 26.8657 68.1756 26.7555 67.9737 26.7008C67.7718 26.6461 67.5586 26.6493 67.3583 26.7098C66.7798 26.8894 66.5354 27.7571 67.0491 28.5252Z" fill="#101010"/>
<path d="M86.2304 34.3657H83.4824V34.2061C84.1856 34.2061 83.8565 33.3284 83.7268 33.0291L83.3827 32.1763H80.7444C80.5948 32.6052 80.0263 34.2709 81.6172 34.2061V34.3657H79.1236V34.2061C79.4627 34.2061 79.732 34.2061 80.7145 31.7125L82.5448 26.835H82.6845C84.6495 31.5479 85.3676 33.3782 85.3676 33.3782C85.7217 34.236 85.9661 34.1812 86.2553 34.2011L86.2304 34.3657ZM83.3179 32.0167L81.9913 28.6802L80.7444 32.0167H83.3179Z" fill="#101010"/>
<path d="M101.252 26.8394V26.999C99.6955 26.989 99.6955 29.0238 99.6955 29.5225V34.3651H99.2367L94.6235 28.4951V31.662C94.6235 32.1607 94.6235 34.2055 96.0598 34.2055V34.3651H92.8929V34.2055C94.4639 34.2055 94.4639 32.1408 94.4639 31.662V28.3255L94.035 27.777C93.3517 26.9241 93.0375 27.0189 92.7632 26.999V26.8394H95.0624L99.5509 32.4749V29.5225C99.5509 29.0238 99.5509 26.989 98.1145 26.999V26.8394H101.252Z" fill="#101010"/>
<path d="M116.333 26.8394V26.999C114.747 26.999 114.782 29.0288 114.782 29.5225V34.3651H114.324L109.71 28.4951V31.662C109.71 32.1607 109.71 34.2055 111.147 34.2055V34.3651H107.98V34.2055C109.551 34.2055 109.551 32.1408 109.551 31.662V28.3255L109.122 27.777C108.439 26.9241 108.124 27.0189 107.85 26.999V26.8394H110.169L114.658 32.4749V29.5225C114.658 29.0238 114.658 26.989 113.221 26.999V26.8394H116.333Z" fill="#101010"/>
<path d="M126.323 26.8394V26.999C126.205 26.9893 126.087 27.0065 125.977 27.0491C125.867 27.0917 125.767 27.1587 125.687 27.2451C125.606 27.3314 125.546 27.4349 125.511 27.5477C125.476 27.6606 125.467 27.7799 125.485 27.8966V33.1482C125.485 33.8764 125.874 34.2055 126.323 34.2055V34.3651H123.331V34.2055C123.794 34.2055 124.168 33.8764 124.168 33.1482V27.8966C124.168 27.2333 123.804 26.999 123.331 26.999V26.8394H126.323Z" fill="#101010"/>
<path d="M139.014 32.0909V34.3651H133.314V34.2055C133.763 34.2055 133.912 33.7367 133.912 33.0086V28.141C133.912 27.4777 133.788 26.999 133.314 26.999V26.8394H138.875V28.8343H138.715C138.536 27.0289 136.162 27.0189 135.723 27.0189H135.224V30.51H135.758C135.912 30.51 137.289 30.51 137.374 29.4177H137.533V31.7717H137.374C137.289 30.6696 135.877 30.6696 135.758 30.6696H135.224V34.2304H135.663C136.162 34.2304 138.496 34.2554 138.84 32.1159L139.014 32.0909Z" fill="#101010"/>
<path d="M50.3763 71.4157C49.841 71.4538 49.3064 71.3323 48.8402 71.0666V69.9145H48.93C49.0247 70.4581 49.3289 71.3309 50.3763 71.3309C51.1493 71.3309 51.3089 70.3883 50.5907 69.8697L49.6381 69.2612C48.925 68.8024 48.4911 68.2338 48.9699 67.5506C49.1151 67.3827 49.2991 67.2527 49.506 67.1719C49.7128 67.091 49.9362 67.0618 50.1568 67.0868C50.6568 67.0655 51.1545 67.1647 51.6081 67.376V68.3735H51.5183C51.4845 68.0385 51.3255 67.7286 51.0731 67.5057C50.8206 67.2829 50.4934 67.1636 50.1568 67.1715C49.5135 67.1715 49.1594 67.9845 49.9873 68.5281L50.9448 69.1615C51.7428 69.6602 51.9772 70.3434 51.5931 70.917C51.5931 70.917 51.3188 71.4157 50.3763 71.4157Z" fill="#101010"/>
<path d="M59.5182 67.1162V68.2533H59.4284C59.3935 67.2259 58.2514 67.206 58.2115 67.206H57.9771V70.697C57.9771 71.096 58.2016 71.2606 58.4759 71.2606V71.3504H56.7951V71.2606C57.0495 71.2606 57.2689 71.096 57.2689 70.697V67.206H57.0395C56.9448 67.206 55.8625 67.206 55.8276 68.2533H55.7379V67.1162H59.5182Z" fill="#101010"/>
<path d="M63.7229 69.8847V67.7302C63.7229 67.3462 63.5334 67.2066 63.2691 67.2066V67.1168H64.9747V67.2066C64.7154 67.2066 64.476 67.2864 64.476 67.7352V69.9196C64.4596 70.0669 64.4749 70.2159 64.5209 70.3567C64.5669 70.4976 64.6425 70.6269 64.7427 70.7361C64.8429 70.8452 64.9653 70.9317 65.1016 70.9896C65.238 71.0474 65.3852 71.0754 65.5333 71.0717C65.6795 71.0683 65.8235 71.0347 65.9562 70.9731C66.0888 70.9115 66.2073 70.8231 66.3042 70.7135C66.4011 70.604 66.4744 70.4756 66.5194 70.3364C66.5644 70.1972 66.5801 70.0502 66.5657 69.9047V68.199C66.5657 67.9098 66.5657 67.2016 65.8026 67.2016V67.1118H67.4883V67.2016C66.6405 67.2016 66.6554 67.9148 66.6554 68.199V69.9196C66.6779 70.1194 66.6554 70.3217 66.5898 70.5117C66.5241 70.7017 66.417 70.8746 66.276 71.018C66.1351 71.1613 65.9639 71.2714 65.775 71.3402C65.5862 71.409 65.3843 71.4349 65.1842 71.4158C64.9833 71.4269 64.7824 71.3944 64.5953 71.3204C64.4083 71.2464 64.2395 71.1327 64.1006 70.9872C63.9617 70.8416 63.856 70.6677 63.7908 70.4774C63.7256 70.2871 63.7024 70.0849 63.7229 69.8847V69.8847Z" fill="#101010"/>
<path d="M72.764 71.3404H71.3277V71.2506C71.582 71.2506 71.7516 70.9813 71.7516 70.5724V67.8842C71.7516 67.5152 71.592 67.206 71.3277 67.206V67.1162H72.764C73.961 67.1162 75.2128 67.4853 75.2128 69.2408C75.2128 70.9963 73.9809 71.3404 72.764 71.3404ZM72.764 67.206H72.4997V71.2506H72.764C73.3775 71.2506 74.325 71.1708 74.325 69.2557C74.325 67.3406 73.4074 67.206 72.764 67.206V67.206Z" fill="#101010"/>
<path d="M80.9839 67.1162V67.206C80.9184 67.2009 80.8526 67.2105 80.7913 67.2342C80.7301 67.2579 80.6749 67.2951 80.6299 67.3429C80.5849 67.3908 80.5512 67.4482 80.5314 67.5108C80.5115 67.5734 80.5059 67.6397 80.5151 67.7047V70.6521C80.5151 71.0561 80.7295 71.2456 80.9839 71.2456V71.3354H79.3082V71.2456C79.5675 71.2456 79.777 71.0561 79.777 70.6521V67.7047C79.777 67.3356 79.5725 67.206 79.3082 67.206V67.1162H80.9839Z" fill="#101010"/>
<path d="M86.9779 71.4158C85.6612 71.4158 84.983 70.4782 84.983 69.2863C84.983 68.0943 85.6762 67.0869 86.9779 67.0869C88.2795 67.0869 88.9728 68.0843 88.9728 69.2863C88.9728 70.4882 88.2995 71.4158 86.9779 71.4158ZM86.9779 67.1817C86.2647 67.1817 85.8258 67.6405 85.8258 69.2863C85.8258 70.9321 86.2647 71.3311 86.9779 71.3311C87.691 71.3311 88.1199 70.9321 88.1199 69.2863C88.1199 67.6405 87.6861 67.1567 86.9779 67.1567V67.1817Z" fill="#101010"/>
</svg>
