<svg width="88" height="72" viewBox="0 0 88 72" fill="none" xmlns="http://www.w3.org/2000/svg">
<path d="M16.4991 25.235C18.3602 23.9718 20.362 22.9297 22.4642 22.1298C23.5422 21.7275 24.6483 21.3253 25.7625 20.9231C26.8766 20.5209 28.0391 20.2634 29.1814 19.9376C33.7588 18.6384 38.4005 17.7294 42.455 16.0601C47.4787 14.0182 52.7555 12.6652 58.1419 12.0378L60.1812 11.7804C60.865 11.7161 61.5488 11.6758 62.2325 11.6236C63.5974 11.5297 64.9596 11.4506 66.3192 11.3862H70.3777H72.3888L74.3758 11.4787C74.3276 12.5406 73.4024 14.0932 74.2431 14.6684C77.6017 16.4302 77.4086 18.554 77.2719 20.6777C77.1995 21.7396 74.8183 20.553 75.5745 21.6592C74.2791 21.5785 72.9788 21.6528 71.701 21.8804C70.6793 22.1418 70.2771 22.54 71.4717 23.0871C72.244 24.149 75.494 23.2721 76.1859 24.8931C76.8777 26.5141 75.2165 28.0425 75.8882 29.6716C76.6525 29.6716 78.1648 29.8365 78.921 29.9089C79.5726 31.0431 77.8953 33.0221 78.6395 33.0905C79.6933 33.7421 80.9603 33.9432 82.3239 34.1363C83.6874 34.3294 85.1596 34.4058 86.6156 34.6069C86.5271 35.1298 86.6398 35.6889 86.5633 36.1474C86.5364 36.3756 86.4312 36.5874 86.2657 36.7467C86.0442 36.9589 85.7638 37.0991 85.4612 37.149C72.9921 35.709 60.1208 36.7709 47.8689 39.6307C35.6171 42.4906 23.876 47.0679 12.875 52.7072C10.156 53.6645 10.8639 50.8127 11.966 48.3149C11.6 49.1434 10.7915 47.7638 10.4215 48.5964C9.93773 47.6696 9.78313 46.6059 9.98302 45.5797C10.0824 44.9485 10.2892 44.3391 10.5944 43.7777C10.9375 43.1375 11.415 42.579 11.9942 42.1406C11.3023 42.4825 10.6467 42.8888 9.98302 43.2749C9.04985 43.1985 9.17858 41.8872 8.66775 40.9621C9.34752 40.5599 10.0313 40.1577 9.77388 39.7031L8.74415 37.8408L5.95671 39.4497C6.65256 39.0475 7.34842 38.6453 7.08697 38.1747L6.03313 36.3244C7.18753 34.989 9.91062 34.8362 11.1173 33.5893L10.3933 32.1654C8.67176 32.4791 6.66465 34.0639 5.24478 34.9407C5.70734 34.0558 5.4499 33.5893 4.927 32.6641C5.40912 32.2381 5.96353 31.9016 6.56408 31.6706C7.15133 31.4172 7.77077 31.2121 8.35803 30.9748C9.61752 30.5717 10.7108 29.768 11.4713 28.6861C10.6909 29.032 9.93878 29.4302 9.18259 29.8284C9.24752 29.103 9.59581 28.4324 10.1519 27.9621C10.7572 27.4955 11.4372 27.1351 12.1631 26.8962C13.6835 26.3411 15.385 25.9389 16.4991 25.235Z" fill="#C3D8CC"/>
<path d="M2.39304 66.7483C3.12984 66.7194 3.84967 66.9742 4.40419 67.4603C4.66601 67.6889 4.87396 67.9726 5.01305 68.2911C5.15215 68.6097 5.21893 68.955 5.20864 69.3025C5.21817 69.6509 5.15108 69.9973 5.01207 70.317C4.87307 70.6367 4.66554 70.922 4.40419 71.1527C3.85006 71.6398 3.13032 71.8961 2.39304 71.8687H0.591064V66.7483H2.39304ZM1.83796 70.9194H2.39304C2.60055 70.9307 2.80807 70.8973 3.00164 70.8217C3.1952 70.7461 3.37032 70.6299 3.51525 70.481C3.78087 70.1471 3.92548 69.7331 3.92548 69.3065C3.92548 68.8799 3.78087 68.4658 3.51525 68.132C3.36969 67.9839 3.19446 67.8683 3.00105 67.7927C2.80764 67.7171 2.60044 67.6833 2.39304 67.6935H1.83796V70.9194Z" fill="#101010"/>
<path d="M13.7479 66.7324V67.7018H11.8936V68.8039H13.5267V69.7129H11.8936V70.9196H13.7479V71.8689H10.6467V66.7324H13.7479Z" fill="#101010"/>
<path d="M21.2212 67.6578C21.0763 67.6486 20.9332 67.693 20.8189 67.7825C20.7683 67.8267 20.7286 67.882 20.7028 67.9441C20.677 68.0062 20.6658 68.0734 20.6701 68.1405C20.6662 68.2088 20.6763 68.2773 20.6999 68.3416C20.7234 68.4059 20.7598 68.4648 20.8069 68.5145C20.9083 68.6159 21.0324 68.6917 21.1689 68.7358C21.3163 68.7894 21.4813 68.8377 21.6636 68.8806C21.8475 68.9271 22.0288 68.9835 22.2066 69.0495C22.3813 69.11 22.5475 69.1925 22.7014 69.2949C22.8526 69.3968 22.9757 69.5351 23.0593 69.6971C23.1575 69.8957 23.2058 70.1152 23.2001 70.3366C23.2 70.5495 23.1522 70.7597 23.0604 70.9518C22.9685 71.1439 22.8349 71.313 22.6692 71.4468C22.28 71.7706 21.7831 71.9358 21.2775 71.9093C20.7813 71.9378 20.2902 71.7959 19.8858 71.5071C19.7095 71.3665 19.5693 71.1859 19.477 70.9802C19.3846 70.7745 19.3428 70.5497 19.3548 70.3246H20.6822C20.6888 70.4432 20.7279 70.5576 20.7952 70.6555C20.8626 70.7533 20.9555 70.8308 21.0639 70.8794C21.1722 70.928 21.2919 70.9458 21.4097 70.931C21.5276 70.9161 21.6391 70.8691 21.732 70.7952C21.7827 70.7499 21.8227 70.694 21.8491 70.6314C21.8756 70.5688 21.8878 70.501 21.8848 70.4332C21.8879 70.3679 21.8773 70.3027 21.8537 70.2418C21.8302 70.1808 21.7942 70.1255 21.7481 70.0792C21.6456 69.9792 21.5218 69.9036 21.3861 69.858C21.2373 69.8057 21.0723 69.7574 20.8913 69.7091C20.707 69.6625 20.5257 69.6048 20.3483 69.5362C20.1769 69.4729 20.0124 69.392 19.8576 69.2949C19.7042 69.1943 19.5795 69.0557 19.4956 68.8926C19.3979 68.6967 19.3496 68.48 19.3548 68.2611C19.3484 68.0421 19.3934 67.8247 19.4863 67.6263C19.5792 67.4279 19.7174 67.2541 19.8898 67.1188C20.2781 66.8196 20.7596 66.6671 21.2493 66.6884C21.7243 66.6664 22.1938 66.7976 22.5887 67.0625C22.7674 67.2064 22.9089 67.3911 23.0013 67.6011C23.0937 67.8111 23.1343 68.0402 23.1197 68.2692H21.7642C21.756 68.1102 21.6919 67.9592 21.5832 67.8428C21.5387 67.7888 21.4836 67.7446 21.4214 67.7127C21.3591 67.6809 21.2909 67.6622 21.2212 67.6578V67.6578Z" fill="#101010"/>
<path d="M28.8713 71.8694V66.749H30.1182V71.8694H28.8713Z" fill="#101010"/>
<path d="M36.3409 71.1688C35.8531 70.6659 35.5803 69.9929 35.5803 69.2924C35.5803 68.5918 35.8531 67.9188 36.3409 67.416C36.5861 67.1744 36.8772 66.9844 37.1971 66.8573C37.5169 66.7301 37.8591 66.6685 38.2032 66.6759C38.7443 66.6663 39.2751 66.8236 39.7236 67.1264C40.165 67.4281 40.4911 67.8705 40.6487 68.3813H39.1605C39.078 68.2058 38.9454 68.0586 38.7793 67.9583C38.6132 67.8581 38.4211 67.8093 38.2273 67.8182C38.0401 67.8092 37.853 67.8404 37.6789 67.9098C37.5047 67.9792 37.3475 68.0851 37.2177 68.2204C36.978 68.5263 36.8477 68.9037 36.8477 69.2924C36.8477 69.681 36.978 70.0584 37.2177 70.3643C37.343 70.4988 37.496 70.6045 37.6662 70.6739C37.8363 70.7434 38.0196 70.775 38.2032 70.7665C38.4638 70.7766 38.7203 70.6987 38.9312 70.5453C39.119 70.3943 39.2507 70.1847 39.3053 69.95H37.8613V69.0008H40.6327V69.95C40.518 70.4527 40.2512 70.9078 39.8684 71.2533C39.6541 71.459 39.4012 71.6203 39.1243 71.7279C38.8271 71.85 38.5084 71.9116 38.1871 71.9089C37.8457 71.9141 37.5066 71.8514 37.1896 71.7243C36.8727 71.5973 36.5842 71.4084 36.3409 71.1688V71.1688Z" fill="#101010"/>
<path d="M49.4501 66.7324H50.6889V71.8689H49.442L47.3585 68.651V71.8689H46.1116V66.7324H47.3585L49.442 69.9503L49.4501 66.7324Z" fill="#101010"/>
<path d="M66.5366 66.749H67.7835V71.8694H66.5366V69.7456H64.5616V71.8694H63.3147V66.749H64.5616V68.7964H66.5366V66.749Z" fill="#101010"/>
<path d="M73.5222 69.8019V66.749H74.7691V69.8019C74.7523 70.0579 74.8328 70.3107 74.9944 70.5099C75.0809 70.5962 75.1849 70.6631 75.2993 70.7061C75.4138 70.7491 75.5361 70.7672 75.658 70.7592C75.7812 70.767 75.9047 70.7489 76.0204 70.7059C76.1361 70.663 76.2415 70.5962 76.3298 70.5099C76.4976 70.3137 76.5814 70.0594 76.5631 69.8019V66.749H77.81V69.8019C77.8222 70.2149 77.7116 70.6223 77.4922 70.9724C77.3003 71.286 77.0206 71.5363 76.6878 71.6924C76.3576 71.845 75.9976 71.922 75.6339 71.9177C75.0798 71.9325 74.5412 71.7338 74.1296 71.3626C73.9222 71.1614 73.7605 70.9178 73.6557 70.6485C73.5509 70.3792 73.5054 70.0904 73.5222 69.8019Z" fill="#101010"/>
<path d="M83.5428 66.7489H85.7671C86.213 66.7245 86.6533 66.8584 87.01 67.127C87.1557 67.2411 87.2731 67.3871 87.3533 67.5538C87.4335 67.7205 87.4743 67.9034 87.4726 68.0884C87.4726 68.6676 87.1347 69.0617 86.459 69.2629C86.7708 69.3029 87.0571 69.4561 87.2635 69.6932C87.4655 69.9262 87.5743 70.2256 87.5691 70.5339C87.5746 70.7196 87.5372 70.904 87.4598 71.0728C87.3824 71.2417 87.267 71.3904 87.1226 71.5073C86.7599 71.7686 86.318 71.8965 85.8717 71.8693H83.5227L83.5428 66.7489ZM84.7897 67.6942V68.8043H85.5942C85.7508 68.8128 85.9051 68.7642 86.0286 68.6676C86.0837 68.6166 86.1271 68.5542 86.1556 68.4847C86.1841 68.4152 86.197 68.3403 86.1935 68.2653C86.1967 68.1904 86.1837 68.1155 86.1552 68.0461C86.1267 67.9767 86.0835 67.9142 86.0286 67.8631C85.907 67.7622 85.752 67.7105 85.5942 67.7183L84.7897 67.6942ZM84.7897 70.912H85.7309C85.886 70.9165 86.037 70.8618 86.1533 70.7591C86.2075 70.7073 86.2505 70.6448 86.2796 70.5756C86.3086 70.5064 86.3231 70.432 86.3222 70.3569C86.3266 70.2779 86.3146 70.1989 86.2869 70.1248C86.2593 70.0507 86.2165 69.9832 86.1613 69.9265C86.1083 69.8743 86.0455 69.8332 85.9764 69.8055C85.9074 69.7779 85.8334 69.7644 85.7591 69.7656H84.8018L84.7897 70.912Z" fill="#101010"/>
<path d="M53.5403 24.8767C54.3056 24.1115 55.2278 23.5214 56.2432 23.1471C56.5537 22.9947 56.9059 22.9495 57.2448 23.0184C57.7315 23.0385 58.186 23.2276 58.7652 23.3C58.7451 23.7827 58.3429 24.0602 58.0171 24.3096C56.2392 25.9185 54.7711 27.7889 53.1139 29.5386C52.9594 29.6766 52.8474 29.856 52.7911 30.0554C52.7348 30.2549 52.7366 30.4663 52.7961 30.6648C52.9852 31.3285 53.0455 32.1048 53.2346 32.7685C53.311 33.3034 53.4357 33.7459 52.9088 34.136C52.579 34.3894 52.6876 34.7555 52.8324 35.2703C53.0455 34.8922 53.0536 34.6509 53.1622 34.4659C53.6247 34.4095 53.7293 35.3347 53.2989 35.7771C53.2426 35.8737 53.1702 35.8938 53.1903 35.9662C53.1179 35.9903 53.0656 36.0828 52.957 36.2719C53.484 38.1141 54.0551 40.0971 54.5257 42.0318C54.6559 42.5294 54.7473 43.0364 54.7992 43.5482C54.8515 45.1249 55.4187 46.5528 56.0622 47.9727C56.5866 49.0607 57.0407 50.1812 57.4218 51.3273C57.6551 52.1317 57.9608 52.9362 58.19 53.7407C58.3524 54.3603 58.4786 54.9888 58.5681 55.6231L57.7154 55.1485C57.6921 55.2751 57.6457 55.3965 57.5786 55.5064C57.5399 55.6396 57.5499 55.7822 57.6068 55.9087C57.0397 56.15 56.2151 56.0696 56.4685 56.9505C56.2654 57.0659 56.0382 57.1322 55.8049 57.1441C55.5716 57.156 55.3388 57.1131 55.1251 57.0188C54.5921 56.8356 54.0882 56.5769 53.6288 56.2506C52.1727 54.9274 50.949 53.3692 50.0087 51.641C49.9242 51.3474 49.6708 51.0216 50.0529 50.6757C50.1253 50.6515 50.0007 50.2131 49.9363 49.9919C49.6226 49.4556 49.3061 48.9086 48.987 48.3508C47.1448 45.5352 46.0146 42.438 44.8682 39.2644C44.6872 38.9185 44.5102 38.5686 44.3091 38.1503C44.0557 38.3836 43.7822 38.5525 43.6012 38.7496C42.5675 40.1614 41.1396 41.0463 39.7559 42.08C38.6779 42.7839 37.4511 43.5361 36.2806 44.1877C35.1504 44.9922 34.5993 46.4201 34.2695 47.5463C33.646 50.1126 32.5641 52.4897 31.8964 54.9112C31.7351 55.2683 31.4491 55.5544 31.0919 55.7156C29.4347 56.3511 32.0009 57.2079 30.2874 57.1395C26.6875 58.8047 27.6367 55.9851 25.7825 54.529C26.5226 52.6426 27.3351 50.74 28.1717 48.8978C28.6262 47.9727 29.1009 47.12 29.5795 46.2673C30.3196 44.9439 29.4709 46.4563 30.0783 44.9319C29.7927 44.775 29.5272 44.6905 29.2416 44.5296C28.6182 44.3084 28.0711 44.0711 27.4477 43.8499C27.2253 43.7539 27.037 43.5933 26.9071 43.3888C26.7773 43.1844 26.7119 42.9456 26.7196 42.7035C27.1742 42.3375 27.681 42.43 28.2079 42.5949C29.0043 42.7606 29.8104 42.8762 30.6213 42.9408C30.7441 42.9359 30.8642 42.9029 30.9722 42.8443C31.0803 42.7857 31.1735 42.7031 31.2447 42.6029C31.8078 41.4888 32.2704 40.3183 32.8536 39.2041C32.901 38.9669 32.9683 38.7341 33.0547 38.5083C34.4183 35.7329 35.0659 32.68 35.995 29.7879C37.077 26.2926 38.0625 22.7489 39.1405 19.2536C39.6189 17.9551 39.7153 16.5466 39.418 15.1951C39.1043 13.5339 38.9595 11.9048 38.8106 10.2758C38.7662 7.41124 39.0169 4.54971 39.5588 1.73651C39.772 0.803336 39.961 0.662551 40.8499 0.650484C42.0566 0.650484 43.2151 0.533847 44.4057 0.509714C44.8127 0.462627 45.2245 0.538256 45.5882 0.726908C46.3579 1.13295 47.1021 1.58563 47.8165 2.08242C48.1313 2.38823 48.3948 2.7427 48.5969 3.13223C49.3638 4.65028 49.8115 6.30946 49.9122 8.00726C50.2259 10.2276 50.5195 12.3714 50.7609 14.6119C50.8252 14.8331 50.8333 15.1468 50.9177 15.4404C51.3401 17.0589 51.495 18.7355 51.3763 20.4039C51.2717 21.7072 51.5573 22.9822 51.69 24.2935C51.7762 24.8245 51.8999 25.3487 52.0601 25.8622L52.2491 25.9668C52.6996 25.5927 53.1582 25.2227 53.5403 24.8767ZM42.6037 34.4538C42.796 34.317 42.9416 34.1244 43.0208 33.9021C43.0999 33.6798 43.1088 33.4384 43.0461 33.2109C42.7123 32.0324 42.4267 30.7613 42.1652 29.5627C40.4799 21.4497 39.8001 26.3449 38.5452 31.787C35.806 38.7013 38.0907 39.6466 42.6037 34.4538Z" fill="#454545"/>
</svg>
