<svg width="117" height="72" viewBox="0 0 117 72" fill="none" xmlns="http://www.w3.org/2000/svg">
<path d="M88.4851 58.1755C86.0541 58.1755 83.6232 59.619 81.7879 56.7856C81.1762 56.7856 82.3782 51.1081 81.7879 48.2639H79.3355C78.7023 44.0138 79.9097 39.7476 79.2765 35.4922C79.2765 35.3741 79.2336 35.2775 79.2121 35.1702L88.5119 35.0146H79.1585C78.4072 31.4889 76.1372 33.9735 75.5309 31.2581C73.6527 28.4301 76.7383 26.9973 78.595 26.9651C77.9618 24.1263 79.8292 26.9651 79.8185 24.121C79.7917 18.4435 79.7702 12.7659 77.2534 8.51582C76.6202 7.09912 77.2212 2.83828 77.2051 -0.000488281C69.6923 0.0370757 61.5034 0.0531738 54.1301 5.78437C48.0232 10.1364 40.4353 4.14229 34.3982 8.92365C33.486 9.6481 32.2517 8.60168 31.0658 8.2636C30.7953 8.147 30.4955 8.11689 30.2072 8.17742C29.919 8.23795 29.6566 8.38613 29.4559 8.60167C28.9568 9.09537 28.5007 10.0828 28.1948 11.8644L30.1428 11.8268C28.4309 16.1199 26.102 11.8858 23.4564 13.4904C23.6603 16.3238 23.7462 17.7405 23.0217 19.2216C24.7282 19.0713 26.982 17.5688 28.3558 18.964L28.4524 23.2141C27.8084 23.9439 26.9498 23.6112 26.0322 23.2946C25.1146 22.978 24.1164 22.6882 23.3866 23.4609C23.5047 24.8776 23.7462 27.711 23.8642 29.1224C23.9823 30.5337 23.2954 30.5927 22.5924 30.6786C23.3008 30.5874 24.6799 30.4747 25.3453 30.4371C25.4258 31.725 25.5707 34.1935 25.6566 35.6639C24.2629 35.7389 22.8745 35.8912 21.4977 36.12L25.6834 36.0502V36.1039C25.7639 37.526 25.1736 37.5582 24.6101 37.6065C24.8248 40.4399 24.6101 43.3108 25.2112 44.6792C25.6995 44.6363 26.2093 44.6041 26.7352 44.5773C25.7048 45.3393 25.1682 47.5287 25.077 50.0402C25.0314 52.5317 25.1893 55.0228 25.5492 57.4886C25.6029 56.0504 26.0859 60.279 26.1503 58.8462C26.078 59.9756 26.078 61.1084 26.1503 62.2377C26.2093 63.3915 26.3273 64.5453 26.4722 65.597C26.5635 66.1337 26.5796 66.6381 26.6332 67.1103C26.6839 67.5487 26.7811 67.9804 26.923 68.3982C26.9874 68.7524 27.084 69.2515 27.2503 70.1423C27.1001 70.6789 28.5007 70.9472 31.3556 71.1619C34.2104 71.3765 36.7916 71.4463 39.523 71.4141C44.9699 71.3192 50.4064 70.9034 55.8044 70.1691C66.5369 68.8812 77.2695 66.7132 87.8733 65.2536C89.0968 63.853 88.4904 61.0196 88.4851 58.1755Z" fill="#C3D8CC"/>
<path d="M13.5448 34.73C13.7223 34.8619 13.9174 34.9685 14.1243 35.0466C15.5129 35.8429 16.8072 36.7934 17.9827 37.88C19.7561 39.4658 21.0109 41.5489 21.5835 43.858C21.9702 45.7356 21.6247 47.6899 20.6175 49.3209C20.2936 50.0127 19.8824 50.6601 19.394 51.2474C19.1526 51.5791 18.8734 51.8816 18.5622 52.149C17.3889 53.2416 16.0123 54.0931 14.5107 54.655C13.8381 55.0007 13.0769 55.1354 12.3266 55.0414C11.7438 55.0161 11.1651 55.1497 10.6523 55.4278C10.1547 55.6604 9.63976 55.8541 9.11221 56.0073C7.91605 56.3191 6.66879 56.383 5.44703 56.1951C3.71372 55.9376 2.03944 55.4278 0.95008 54.2686C-0.0158523 53.2383 -0.273433 51.8914 0.306127 50.0937C0.776554 48.922 1.4029 47.8191 2.16823 46.8149C2.8999 45.7255 3.76525 44.7321 4.74405 43.858C4.92866 43.6942 5.08147 43.4977 5.19481 43.2785C5.73144 42.3125 5.96756 42.1194 6.93349 42.2482C7.3145 42.1194 7.57208 41.5398 8.08725 41.7115C7.82966 41.8403 7.63648 41.9691 7.25547 42.1623C7.46541 42.2186 7.6787 42.2616 7.89406 42.2911C7.88342 42.593 7.905 42.8953 7.95845 43.1926C7.98362 43.3075 7.97909 43.427 7.94529 43.5396C7.91148 43.6523 7.84953 43.7545 7.76527 43.8366C7.37889 44.3464 7.06229 44.8615 6.61152 45.4465C5.97628 46.1753 5.55309 47.0643 5.388 48.0169C5.2883 48.592 5.22379 49.1726 5.19481 49.7556C5.17204 49.8526 5.16908 49.9532 5.18611 50.0514C5.20314 50.1496 5.23981 50.2433 5.29392 50.327C5.34803 50.4107 5.41848 50.4826 5.50104 50.5384C5.58359 50.5942 5.67656 50.6327 5.77437 50.6518C6.35046 50.8587 6.97237 50.9033 7.57208 50.7806C8.78645 50.6098 9.97456 50.287 11.1085 49.82C12.2676 49.2834 13.4857 48.8541 14.6448 48.2745C15.557 47.8681 16.4021 47.3253 17.1509 46.6646C17.7305 46.2138 17.9237 45.6987 17.7305 45.3123C17.2797 43.8366 16.7001 42.5487 15.482 41.5827C13.3849 39.9661 11.1715 38.5061 8.85999 37.2146C7.47838 36.4032 6.16632 35.4788 4.93723 34.4509C3.5884 33.3702 2.48991 32.0099 1.71746 30.4638C0.24173 28.0221 1.58867 24.6789 3.64932 22.1729C5.51143 19.86 8.01748 18.3145 10.5879 16.9032C11.3607 16.5812 12.1334 16.3665 12.8418 16.066C16.7592 14.6493 20.4243 14.5205 23.9607 14.7781C25.034 14.9069 26.0804 15.1001 27.1805 15.2289C28.2834 15.2865 29.3499 15.6426 30.2661 16.2592C30.4403 16.3569 30.5706 16.5173 30.6304 16.7078C30.6903 16.8983 30.6751 17.1045 30.5881 17.2842C30.5346 17.4281 30.5127 17.5818 30.5237 17.7349C30.4904 18.0624 30.4257 18.3858 30.3305 18.7009C29.8039 19.7228 29.4761 20.8355 29.3646 21.9797C29.2283 22.5549 28.9883 23.1005 28.6562 23.5896C28.3986 24.1262 28.0176 24.4911 27.7601 24.9419C27.5201 25.3752 27.163 25.7322 26.7297 25.9722C26.0897 26.3029 25.4239 26.5811 24.7388 26.804C24.584 26.8994 24.4056 26.95 24.2237 26.95C24.0418 26.95 23.8634 26.8994 23.7085 26.804C22.7364 26.4388 21.7207 26.2025 20.6873 26.101C18.5833 25.7546 16.4552 25.5751 14.3229 25.5644C13.6506 25.6087 12.984 25.7165 12.332 25.8863C11.5592 26.0151 10.8509 26.203 10.1479 26.3317C5.51679 27.4909 8.21603 30.8341 10.5289 32.503C11.5769 33.1857 12.5839 33.9293 13.5448 34.73V34.73Z" fill="#101010"/>
<path d="M36.3677 42.1196C36.3394 42.1004 36.3068 42.0885 36.2728 42.0848C36.2387 42.0811 36.2043 42.0858 36.1726 42.0985C36.1408 42.1112 36.1126 42.1315 36.0905 42.1577C36.0684 42.1838 36.053 42.215 36.0458 42.2484C35.9814 42.2484 35.9814 42.3128 35.9814 42.3772C35.7238 43.0212 35.4018 43.4075 34.8223 43.2787C34.5003 43.6007 34.3715 43.9227 34.1139 44.1749C33.9462 44.2504 33.8 44.3664 33.6885 44.5126C33.577 44.6587 33.5037 44.8304 33.4753 45.0121C33.4753 45.1408 33.4109 45.2052 33.3465 45.334C33.0245 45.7848 32.7026 46.1068 32.445 46.4932C32.1859 47.0551 31.7868 47.5411 31.2859 47.9045C31.0039 48.1659 30.7648 48.4702 30.5775 48.806C30.5592 48.8772 30.5186 48.9406 30.4616 48.987C30.4046 49.0333 30.3343 49.0602 30.2609 49.0636C29.9001 49.1832 29.5702 49.3811 29.295 49.6432C28.6274 50.0464 27.8839 50.3076 27.1109 50.4105C26.424 50.4447 25.7391 50.3122 25.1146 50.0242C24.0897 49.45 23.7033 48.3553 23.5745 46.9439C23.5537 46.6166 23.5974 46.2884 23.7033 45.978C23.8592 43.9579 24.2023 41.9566 24.7283 39.9999C25.0502 38.9267 25.4366 37.9447 25.8015 36.9787C26.6387 35.24 27.347 33.3779 28.1788 31.6446C28.2042 31.4782 28.2645 31.3191 28.3559 31.1778C28.8128 29.685 29.4622 28.2581 30.2877 26.933C30.5251 26.5182 30.7383 26.0899 30.9263 25.6505C31.0803 25.6008 31.2447 25.5925 31.4029 25.6264C31.5612 25.6604 31.7077 25.7353 31.8279 25.8437C32.5362 26.2944 33.2446 26.8042 34.0119 27.255C34.1407 27.3194 34.3339 27.4482 34.3339 27.577C34.8668 28.5142 35.2985 29.5054 35.6218 30.5338C35.7506 31.1778 35.815 31.7573 35.9438 32.3959C36.0909 33.1205 36.0005 33.8732 35.6862 34.5424C35.4286 35.0791 35.2999 35.6157 35.0423 36.1523C34.9779 36.4743 34.8491 36.7963 34.7847 37.1183C34.419 38.432 33.9691 39.7208 33.4377 40.9766C33.4038 41.0099 33.3813 41.0531 33.3734 41.1C33.3734 41.1 33.3734 41.1644 33.2446 41.2932C33.1749 41.808 33.0227 42.3081 32.7938 42.7743C32.9226 42.7099 33.0514 42.7099 33.1158 42.6455C33.7544 41.9372 34.4627 41.1 35.1067 40.3327C36.2658 39.0447 37.2907 37.7622 38.3855 36.4743C38.8262 36.0121 39.2333 35.5189 39.6036 34.9986C40.8267 33.3852 42.1362 31.8392 43.5264 30.3675C43.7225 30.1411 43.9638 29.9583 44.2347 29.8308C44.7374 29.5983 45.2945 29.5091 45.8446 29.5732C46.0522 29.6522 46.2474 29.7607 46.4242 29.8952C46.9608 30.4319 47.3901 30.9685 47.9053 31.4407C48.2402 31.7542 48.4832 32.1531 48.6083 32.5945C48.7531 33.0355 48.8608 33.4878 48.9302 33.9468C49.0691 34.6059 49.047 35.2888 48.8658 35.9377C48.4731 37.3561 48.0019 38.7517 47.4545 40.118C47.3257 40.6976 47.0681 41.2718 46.9179 41.9801C47.083 41.9234 47.236 41.836 47.3686 41.7225C48.6898 40.9469 49.8828 39.9712 50.905 38.8301C51.8928 37.8655 52.9938 37.024 54.1838 36.324C54.3825 36.2384 54.5575 36.1058 54.6936 35.9377C54.7541 35.8691 54.8284 35.8143 54.9116 35.7767C54.9949 35.7391 55.0852 35.7196 55.1766 35.7196C55.2679 35.7196 55.3583 35.7391 55.4415 35.7767C55.5248 35.8143 55.5991 35.8691 55.6596 35.9377C55.9815 36.1952 56.1103 36.646 56.5611 36.8392C56.8831 36.968 57.0977 37.29 57.3338 37.612C57.2689 38.1466 57.2689 38.6872 57.3338 39.2218C57.3125 39.7096 57.2034 40.1895 57.0119 40.6385C56.6255 40.8317 56.8831 41.3415 56.6255 41.6635C56.5611 42.4362 56.4323 43.209 56.3035 43.9173C56.2391 44.6009 56.2391 45.289 56.3035 45.9726C56.3035 46.4234 56.4323 46.6166 56.7543 46.7454C57.7148 46.9386 61.0473 44.5559 61.702 43.7242C62.8524 42.3996 63.8648 40.9611 64.7232 39.4311C64.7717 39.1216 64.9055 38.8317 65.1096 38.594C65.2384 38.7872 65.3028 38.7872 65.2384 38.8516C65.0452 39.8175 65.3672 39.2379 65.2384 40.3327C65.2384 40.0751 64.9164 41.4059 64.7017 41.2932C64.573 41.2932 64.573 41.4864 64.4442 41.6152C64.0476 42.3106 63.6893 43.0272 63.3709 43.7617C63.3396 43.9722 63.2525 44.1705 63.1187 44.3359C62.6026 44.7143 62.1277 45.146 61.702 45.6238C61.702 45.817 61.5088 45.8814 61.38 45.9458C61.058 46.6541 58.3588 48.5806 57.6236 48.5806C57.307 48.5806 55.7615 48.4518 55.4395 48.1943C54.7956 47.6147 53.7706 46.9117 53.3842 46.0102C53.0743 45.1461 53.0517 44.205 53.3199 43.3271C53.6212 41.7301 54.05 40.1599 54.6024 38.6315C54.676 38.426 54.7194 38.2109 54.7312 37.993C54.7956 37.8642 54.7312 37.7998 54.7312 37.6066C54.3502 37.671 54.0926 38.1432 53.7706 38.1861C53.4513 38.2931 53.148 38.4429 52.8691 38.6315C52.8762 39.0812 52.7155 39.5175 52.4183 39.8551C52.1886 40.1445 51.9736 40.4454 51.7744 40.7566C51.4524 40.5634 51.1358 40.7566 50.8138 41.0142C50.2772 41.4596 49.8479 41.846 49.2683 42.2967C49.1395 42.4255 48.9463 42.4899 48.8175 42.7475C48.2115 43.4315 47.5209 44.0356 46.7622 44.5452C46.6979 44.674 46.5691 44.674 46.4403 44.8672C46.0539 45.6399 45.2865 46.0263 44.707 46.6702C44.5129 46.9426 44.2976 47.1992 44.063 47.4376C43.615 47.8229 43.0933 48.113 42.5296 48.2901C41.9659 48.4673 41.372 48.5278 40.7842 48.468C40.2448 48.3673 39.7625 48.0687 39.4319 47.6308C39.1919 47.3698 39.0165 47.0561 38.9196 46.7151C38.8226 46.374 38.807 46.015 38.8738 45.6667C38.8767 44.9639 39.0076 44.2674 39.2602 43.6115C40.2925 40.4924 41.7866 37.5458 43.6927 34.8698C44.1435 34.0326 44.7231 33.2599 45.1738 32.3583C45.3144 32.2464 45.4192 32.0959 45.4754 31.9253C45.5316 31.7547 45.5369 31.5713 45.4904 31.3978C45.3026 31.2046 45.045 31.2046 44.7874 31.4622C44.6261 31.6726 44.4301 31.8541 44.2079 31.9988C43.5639 32.6374 42.92 33.2814 42.2814 33.7965C41.8887 34.2144 41.5629 34.6905 41.3155 35.2078C41.0238 35.9379 40.6101 36.6129 40.0919 37.2041C39.5315 37.7198 39.0359 38.3019 38.6162 38.9374C38.2298 39.4741 37.9723 40.0107 37.6503 40.5473C37.4818 40.9178 37.2881 41.2764 37.0707 41.6206C36.9419 41.8138 36.7487 42.0713 36.62 42.2645C36.5609 42.2484 36.4321 42.1196 36.3677 42.1196Z" fill="#101010"/>
<path d="M64.9699 33.5713L65.0343 33.5069C65.1779 33.3191 65.3611 33.1652 65.5709 33.0561C66.2739 32.9274 67.8838 31.7736 68.5277 32.16C68.7156 32.4122 69.3595 32.7342 69.601 32.9918C69.7401 33.1979 69.8249 33.4359 69.8474 33.6836C69.8699 33.9312 69.8294 34.1806 69.7298 34.4085C69.3434 35.2402 68.8926 36.0183 68.3828 37.0433C68.2541 37.4297 68.1253 37.7517 68.0609 38.0039C67.8033 38.5834 67.5242 39.3562 67.2237 39.9357C66.9661 40.7085 68.1253 38.2614 67.9965 38.9054C67.9751 39.097 67.9089 39.2808 67.8033 39.442C67.2667 40.7299 67.2667 40.4724 67.2237 41.6261C67.2237 42.2701 66.9662 45.5489 67.0305 46.1284C67.1128 46.4937 67.2992 46.8274 67.5672 47.089C67.8735 47.2947 68.1966 47.4742 68.5331 47.6256C68.8497 47.8832 69.1717 47.7544 69.5581 47.69C74.8922 45.7635 72.9657 45.0552 76.0513 41.7871C76.6308 40.9553 77.3392 40.1772 77.6612 39.1523C77.6612 39.0879 77.6612 39.0879 77.8544 38.7659C78.1763 39.4098 77.4734 40.3114 78.391 40.5046C77.044 42.9462 76.0781 46.4826 73.894 47.7652C73.2501 48.6023 68.8766 52.4607 66.0485 51.3659C65.1523 51.6879 64.3152 50.7864 63.3654 50.4C62.6462 50.0759 62.0096 49.5935 61.5033 48.9887C61.1393 48.1763 60.9213 47.3062 60.8593 46.4182C60.7563 46.0409 60.7128 45.6498 60.7305 45.2591C60.9237 44.4863 60.7949 43.0106 61.0525 42.4955C61.1537 42.1599 61.2184 41.8145 61.2457 41.4651C61.3745 41.4007 61.2457 41.0841 61.6965 41.0197C61.7609 41.0197 61.8252 40.7621 61.8896 40.6977C62.2116 40.247 62.276 39.8606 62.598 39.4098C62.598 39.4098 61.2457 40.7621 62.0184 39.4742C62.5551 38.1917 63.6873 36.7911 64.0737 35.8735C64.0924 35.7579 64.1364 35.648 64.2025 35.5515C64.3957 35.1705 64.5889 34.9129 64.4601 34.4782C64.41 34.1641 64.4789 33.8427 64.6533 33.5767C64.7036 33.5976 64.7577 33.6078 64.8121 33.6069C64.8666 33.606 64.9203 33.5939 64.9699 33.5713V33.5713ZM70.8728 26.5629C70.7283 26.733 70.6189 26.9299 70.5508 27.1425C70.5536 27.2023 70.5436 27.2619 70.5213 27.3175C70.4991 27.373 70.4653 27.4231 70.422 27.4645C70.2289 27.6577 70.0357 27.9152 69.7781 28.2372C69.5136 28.5041 69.1785 28.6903 68.8122 28.7739C68.6834 28.7095 68.4955 28.8382 68.3668 28.967C68.2402 29.0668 68.0866 29.1262 67.9259 29.1377C67.7651 29.1492 67.6047 29.1122 67.4652 29.0314C67.3083 28.9239 67.1172 28.8781 66.9286 28.9026C66.6906 28.9132 66.4524 28.8916 66.2202 28.8382C66.2846 28.7739 66.349 28.6451 66.4134 28.5807C66.4568 28.3603 66.5215 28.1446 66.6066 27.9367C66.7316 27.6448 66.8824 27.3646 67.0574 27.0996C67.0574 26.9708 67.2506 26.842 67.2506 26.7776C67.2506 26.3912 67.5725 26.0746 67.7872 25.7043L68.1736 25.1248C68.3024 24.996 68.4311 24.8672 68.5546 24.8672C68.6022 24.8354 68.6583 24.8184 68.7156 24.8184C68.7729 24.8184 68.8289 24.8354 68.8765 24.8672C68.8765 24.996 69.0053 24.996 69.1341 24.9316C69.2629 24.8672 69.3273 24.8028 69.3917 24.8672C69.6609 24.9822 69.9415 25.0686 70.2289 25.1248C70.6714 25.3213 71.0345 25.6617 71.2592 26.0907C71.0767 26.241 71.0123 26.4341 70.8835 26.5629H70.8728Z" fill="#101010"/>
<path d="M95.6277 42.0557C95.3057 42.6996 94.2164 44.111 94.2164 44.8193C94.1013 44.9421 93.9716 45.0503 93.83 45.1413C93.6002 45.3595 93.4176 45.6225 93.2934 45.914C93.1579 46.1592 93.0073 46.3958 92.8426 46.6224C92.0962 48.0927 91.0951 49.419 89.8858 50.5398C89.4994 50.8618 86.0918 54.1406 85.8396 54.4626C83.9721 56.008 81.4661 55.2997 79.604 55.3641C79.1388 55.3914 78.6742 55.3029 78.2517 55.1065C77.6721 54.7845 76.3896 54.2694 76.0032 53.6898C75.4236 52.2785 73.9479 51.3125 73.8191 49.3216C73.7547 48.785 73.4971 48.4845 73.4327 47.9693C73.4971 45.9141 73.8191 43.8588 74.0713 41.7337C74.4577 40.258 74.7797 38.6481 75.0373 37.1724C75.6812 34.4087 75.8744 34.0867 77.0926 31.5807C77.7365 29.9064 78.3161 29.7776 78.96 28.1087C79.3994 27.2228 79.8923 26.3644 80.4357 25.5382C80.8974 24.5548 81.4357 23.6092 82.0456 22.7102C83.1663 20.7274 84.5016 18.8738 86.0274 17.1829C86.9934 16.217 88.0237 15.1867 88.9842 14.3495C89.5022 13.8794 90.0884 13.4904 90.7229 13.1958C90.9032 13.0834 91.0983 12.9967 91.3025 12.9382C91.7265 12.871 92.1602 12.8998 92.5716 13.0224C92.983 13.145 93.3617 13.3583 93.6798 13.6466C94.3237 14.2261 94.5169 15.1223 94.3237 16.3297C94.1949 17.0971 94.1305 17.8698 93.9373 18.5782C93.8283 19.1899 93.6102 19.777 93.2934 20.3115C92.8515 21.4182 92.292 22.4743 91.6245 23.4615C91.1737 24.2986 90.6585 25.1358 90.2078 25.9729C89.435 27.1267 88.7964 28.3502 88.0237 29.4395C86.6714 31.2426 85.5176 33.1959 84.2941 34.9722C82.3032 38.3744 82.4964 38.954 81.7881 42.3616C81.5305 43.7139 81.6593 44.4812 81.5949 45.8336C81.6593 46.2199 81.8524 48.726 81.9168 48.9836C82.078 49.7011 82.338 50.3929 82.6896 51.0389C82.8184 51.2964 83.7145 51.4896 84.0365 51.6184C84.4873 51.9404 87.8949 49.6275 88.3296 49.3055C89.3525 48.6147 90.2815 47.7939 91.0932 46.8639C92.0538 45.9623 92.5045 44.932 93.3417 43.7139C94.5008 42.1684 94.8818 40.8858 96.1053 39.2116C97.0444 39.0989 96.5078 40.4512 95.6277 42.0557ZM85.3459 30.486C86.8851 28.1195 88.3001 25.6745 89.5853 23.161C90.2936 21.8087 90.8732 20.4778 91.5815 19.1094C91.8859 18.1678 92.0997 17.1993 92.2201 16.217C92.3489 15.895 92.3489 15.6804 92.0269 15.8306C91.7722 15.8863 91.5325 15.9961 91.3239 16.1526C90.4151 16.5254 89.6484 17.1775 89.1345 18.0147C88.6891 18.5513 88.3671 19.088 87.852 19.6246C87.3151 20.2864 86.9205 21.0519 86.6928 21.8731C86.3709 22.517 86.0489 23.2844 85.7323 23.9284C85.2348 25.3127 84.6542 26.6656 83.9936 27.9799C83.736 28.6239 83.5428 29.3268 83.2852 29.9708C82.5179 32.1602 82.8398 31.0441 82.1315 33.2496C81.9383 33.7862 82.0671 35.2405 82.8989 34.3229C83.8648 32.9276 84.5088 31.9671 85.3459 30.486Z" fill="#101010"/>
<path d="M98.8419 39.1635C98.8294 39.2345 98.7993 39.3012 98.7543 39.3575C98.7093 39.4137 98.6508 39.4578 98.5843 39.4855C98.5284 39.5194 98.4815 39.5665 98.4479 39.6226C98.4142 39.6787 98.3947 39.7422 98.3911 39.8075C98.3267 40.0651 98.2623 40.1295 98.0692 40.1939C97.876 40.2582 97.9404 40.3226 97.876 40.7305C98.0048 40.7305 98.0692 40.7305 98.1335 40.7949V40.8378H97.6828C97.7343 40.6638 97.7561 40.4824 97.7472 40.3012H97.6184L97.4252 41.6481C97.554 41.7125 97.6184 41.7769 97.6828 41.7769C97.7363 42.204 97.7579 42.6345 97.7472 43.0648C97.7562 43.4626 97.8438 43.8547 98.0048 44.2186C98.1979 44.4761 98.7131 45.8928 98.9063 46.1504C99.8078 47.0466 100.897 48.2057 101.928 48.2701C102.77 48.2263 103.608 48.1187 104.434 47.9481C106.048 47.4399 107.554 46.6336 108.871 45.5709C109.945 44.7337 110.991 43.7732 112.091 42.8877L112.284 42.6945C112.671 42.2438 113.057 41.8574 113.444 41.4066C114.156 40.7204 114.801 39.9675 115.37 39.1582C115.522 38.813 115.798 38.5373 116.143 38.3854C116.033 38.9426 115.852 39.4835 115.606 39.9953C115.541 40.1962 115.431 40.3796 115.284 40.5319C114.909 40.9391 114.586 41.3916 114.324 41.8789C114.13 42.1364 113.873 42.4155 113.68 42.6516C113.586 42.7751 113.5 42.9041 113.422 43.038C113.615 42.9736 113.744 42.9092 113.959 42.8448C113.894 43.2312 113.572 43.2956 113.508 43.6175C113.572 43.6819 113.572 43.7463 113.701 43.8107C113.521 44.0935 113.304 44.3515 113.057 44.5781C112.668 44.9027 112.309 45.262 111.984 45.6514C111.41 46.26 110.785 46.8183 110.116 47.3203C109.832 47.5761 109.531 47.8127 109.215 48.0286C108.963 48.2218 108.705 48.3506 108.448 48.5653C108.048 48.7551 107.661 48.9702 107.288 49.2092C106.659 49.6084 105.963 49.8902 105.233 50.041L104.654 50.2342C103.904 50.477 103.127 50.6283 102.341 50.685C101.439 50.8137 97.6452 50.1108 96.8134 49.7888C94.5596 48.8872 94.1303 47.7925 93.0839 46.8964C92.6764 46.5269 92.3666 46.0623 92.1823 45.544C91.8988 44.6772 91.7469 43.7728 91.7316 42.8609C91.7588 40.8782 92.2204 38.9255 93.0839 37.1404C93.2771 36.7541 93.277 36.7541 93.2127 36.1745C93.0614 36.2405 92.9259 36.3377 92.8149 36.4598C92.7039 36.5819 92.62 36.726 92.5687 36.8829C92.3658 37.4629 92.107 38.0218 91.796 38.5518C91.8388 38.0535 91.9928 37.5712 92.2467 37.1404C92.7451 35.9941 93.3487 34.8965 94.0498 33.8616C94.7324 32.7926 95.5295 31.8011 96.4271 30.9048C97.2797 29.9674 98.2522 29.1464 99.3195 28.4631C99.5404 28.3688 99.7555 28.2613 99.9635 28.1412C100.28 28.0124 100.602 27.948 100.795 28.27C100.988 28.4631 101.246 28.3987 101.375 28.5275C101.504 28.6563 101.632 28.9139 101.761 29.0642C102.405 29.3808 104.847 30.0247 105.426 30.4111C105.627 30.5861 105.781 30.8071 105.877 31.0551C106.126 31.6453 106.473 32.1896 106.902 32.665C107.026 32.8391 107.113 33.0362 107.16 33.2445C107.321 34.0071 107.321 34.7948 107.16 35.5574C107.003 36.4465 106.677 37.2973 106.199 38.0634C105.925 38.4932 105.688 38.9456 105.491 39.4157C105.328 39.8693 105.112 40.3017 104.847 40.7036C104.73 40.9347 104.566 41.1391 104.367 41.3044C104.168 41.4696 103.936 41.5921 103.688 41.6642C103.311 41.8528 102.886 41.9203 102.47 41.8574C102.276 41.793 102.083 41.8574 101.933 41.5998C101.933 41.5827 101.926 41.5664 101.914 41.5543C101.902 41.5422 101.886 41.5354 101.868 41.5354C101.332 41.5998 101.031 41.0256 100.645 40.8324C100.575 40.738 100.531 40.6271 100.516 40.5105C100.645 40.2529 100.516 40.1241 100.452 39.9309C100.194 39.3943 99.942 38.8576 99.62 38.321C99.5556 38.1332 99.3624 38.0634 99.1692 38.2566C99.0995 38.5196 98.8419 38.7772 98.8419 39.1635ZM92.7512 44.9484C92.8156 45.1416 92.8799 45.2704 92.9443 45.485C93.0087 45.6997 93.1375 45.807 93.0087 46.0646C92.9444 46.0002 92.8799 46.0002 92.8799 45.9358C92.5746 45.1974 92.3793 44.4181 92.3004 43.6229C92.236 43.5585 92.3004 43.4941 92.3004 43.4297C92.2579 42.4797 92.3445 41.5284 92.558 40.6017C92.6314 40.4166 92.6748 40.2209 92.6868 40.0221V39.5714C92.5267 39.8575 92.3972 40.1597 92.3004 40.4729C92.236 40.7949 92.1716 41.0525 92.1072 41.3691C91.8496 43.0434 91.914 44.5888 92.6438 45.9358C92.8009 46.1876 92.9806 46.4247 93.1805 46.6441C93.3064 46.7669 93.4616 46.8555 93.6312 46.9017C93.6312 46.9661 93.6956 46.9017 93.8244 46.9017C93.6213 46.6163 93.4418 46.3148 93.2878 46.0002C93.0946 45.6138 93.0946 45.2274 92.9014 44.9269C92.8504 44.9165 92.7973 44.9241 92.7512 44.9484ZM92.7512 40.8378C92.485 41.801 92.4409 42.812 92.6224 43.7946C92.6224 43.859 92.6868 43.859 92.7512 43.9234C92.8156 43.2151 92.8799 42.5711 92.9443 41.9272C93.0543 41.5031 93.0318 41.0555 92.8799 40.6446C92.7995 40.709 92.7512 40.7734 92.7512 40.8378V40.8378ZM100.849 35.6969C100.684 35.9235 100.534 36.1601 100.398 36.4053C100.141 36.856 100.205 37.178 100.527 37.3712C100.746 37.4845 100.943 37.6373 101.106 37.822C101.493 38.2674 102.008 38.203 102.523 38.1439C102.981 37.9397 103.346 37.5724 103.548 37.1136C103.999 36.0403 104.256 35.8257 104.621 34.7363C105.652 32.2893 103.591 32.8689 102.631 33.6631C101.952 34.2649 101.349 34.9459 100.833 35.6915L100.849 35.6969Z" fill="#101010"/>
</svg>
