<svg width="116" height="72" viewBox="0 0 116 72" fill="none" xmlns="http://www.w3.org/2000/svg">
<path d="M23.6825 47.7799L23.9841 48.6887C22.8481 45.7059 22.1607 42.5712 21.9444 39.3867C21.9637 41.1991 22.1374 43.0066 22.4638 44.7895C22.8061 46.6199 23.3424 48.4085 24.0637 50.1253C25.4625 53.5261 27.6697 56.3447 29.8727 57.9739C29.8015 58.3928 30.8527 59.9759 32.1092 61.2868C32.4233 61.6135 32.7374 61.936 33.039 62.2333L33.9059 62.983C34.1855 63.2535 34.4995 63.4858 34.8399 63.6741L36.6827 64.7714L38.58 65.7933C37.7214 65.2991 36.8293 64.8635 36 64.3274C36.8377 64.8635 37.7214 65.2991 38.58 65.7933C40.6392 66.8379 42.7578 67.7609 44.9251 68.5575C47.171 69.3496 49.4652 69.9973 51.7937 70.4967C54.206 70.9834 56.6522 71.2844 59.1105 71.3971C61.6406 71.484 64.1735 71.3438 66.6786 70.9783L69.1915 70.4673C69.698 70.3634 70.1986 70.232 70.6909 70.0736L72.3159 69.5878C72.8813 69.4245 73.4341 69.169 74.0163 68.9596C74.5985 68.7502 75.2016 68.5408 75.7753 68.2434C76.9778 67.704 78.1495 67.0986 79.2851 66.4299C80.4325 65.7722 81.5439 65.0536 82.6147 64.2772C83.1508 63.9086 83.6324 63.4814 84.1266 63.0961C84.6208 62.7108 85.1066 62.3339 85.5296 61.9109C86.3966 61.0732 87.2342 60.3528 87.8918 59.5906C88.2352 59.222 88.5577 58.8744 88.8551 58.5477C89.1524 58.221 89.3953 57.8902 89.6341 57.6054C90.1891 56.9444 90.7079 56.2537 91.1879 55.5364L90.6937 56.2149L90.3209 56.6714L89.4121 57.7855C91.3585 55.0523 92.8832 52.0423 93.9354 48.8562C93.559 49.4027 93.2123 49.9689 92.8967 50.5525L93.571 49.1075C93.6631 48.7515 93.7301 48.2699 93.8684 47.738C94.0066 47.2061 94.1783 46.6365 94.2872 46.0376C94.3961 45.4387 94.5092 44.8356 94.6055 44.2869C94.6893 43.8122 94.7397 43.3322 94.7563 42.8504C94.8065 43.0263 94.8777 42.8127 94.9531 42.4315C94.9908 42.2347 95.0369 41.9918 95.0704 41.7321L95.1374 40.9196L95.0201 41.3384C95.1905 39.2067 95.154 37.0635 94.9112 34.9389C94.7479 33.8792 94.6432 32.8448 94.417 31.8312C94.3193 31.3342 94.223 30.8484 94.128 30.3737L93.7888 29.0084C93.6959 28.6461 93.637 28.2759 93.6129 27.9027C93.2275 26.8054 92.8841 25.6997 92.4276 24.6359C92.5616 24.728 92.3522 24.037 92.1931 23.5135C92.0339 22.9899 91.8915 22.6423 92.2685 23.3836C91.0916 21.0508 90.0236 18.6258 88.5535 16.6113C86.1989 12.7189 83.1779 9.27112 79.6285 6.42562C76.0181 3.51985 71.7926 1.47583 67.2733 0.449063C67.3431 0.486376 67.4102 0.528349 67.4743 0.574704C66.6911 0.415552 65.9205 0.319228 65.1624 0.206147C64.4044 0.0930653 63.6254 0.105628 62.8422 0.0469931L62.2517 0.00930089C62.0506 0.00930089 61.8328 0.00930089 61.6486 0.00930089H60.3921C59.5545 -0.0283929 58.6624 0.0595608 57.7074 0.0763136C57.3682 0.13076 57.0122 0.164261 56.6478 0.235461L55.5422 0.478377C54.8054 0.616559 54.077 0.795531 53.3601 1.01447C52.6732 1.22806 52.0408 1.43329 51.5215 1.63013C51.1175 1.77498 50.7355 1.97513 50.3865 2.22485C49.6577 2.46777 49.0421 2.68555 48.4809 2.89078C47.9196 3.096 47.4505 3.36405 46.9689 3.59021L45.4737 4.3022L43.7356 5.24873C44.1251 5.16916 43.4927 5.53772 42.9441 5.8644C42.3954 6.19108 41.918 6.51357 42.6174 6.2204C44.523 5.61311 44.5021 5.31575 46.1187 4.83829L46.0475 4.79641C49.6243 3.33887 53.4075 2.45135 57.2593 2.16622C61.0642 1.90253 64.8836 2.3965 68.4963 3.61952C71.0104 4.39863 73.3904 5.55825 75.5534 7.05804C77.7816 8.59489 79.8177 10.3933 81.6179 12.4147C83.6062 14.6043 85.3556 16.9995 86.8364 19.5598C88.224 21.9555 89.3958 24.47 90.3377 27.0734C90.5134 27.581 90.6533 28.1002 90.7565 28.6273C90.8487 29.1131 90.8905 29.5905 90.9743 30.0973C91.6231 32.5438 92.0065 35.053 92.1177 37.5816C92.241 40.2181 92.0014 42.859 91.4057 45.4303C91.4308 45.3382 91.4518 45.246 91.4643 45.1874C91.4051 45.5098 91.3182 45.8264 91.2046 46.1339L90.9115 47.0218C90.8068 47.3108 90.7272 47.5998 90.6016 47.8594C90.4759 48.1191 90.3545 48.3997 90.2288 48.6678C89.7765 49.7525 89.1608 50.7619 88.5535 51.9262C88.608 51.9262 88.3902 52.2948 88.3064 52.4748C88.1249 52.6759 87.9661 52.8964 87.8331 53.1324L87.4143 53.8234L86.8112 54.6611C86.5934 54.971 86.3589 55.3019 86.1076 55.6495C85.8563 55.9971 85.5548 56.3322 85.27 56.7007C84.9852 57.0693 84.6711 57.4379 84.3486 57.8106L83.3141 58.887C82.0006 60.2485 80.5697 61.4916 79.0379 62.6019C78.2327 63.1819 77.3936 63.7134 76.525 64.1934C76.2863 64.3442 76.0224 64.4698 75.7628 64.6122C73.2009 65.8646 70.4712 66.7392 67.6586 67.2089C65.0735 67.6679 62.4522 67.8922 59.8267 67.879C58.7754 68.0382 57.5776 68.0214 56.673 68.1219C55.8353 67.9125 55.6343 68.1219 54.5789 67.9586C52.0366 67.0456 50.5247 66.832 51.8063 67.3346C49.7361 66.9273 47.7076 66.3315 45.746 65.5546C44.9083 65.2405 44.0456 64.9599 43.233 64.5871C42.7215 64.4177 42.2568 64.1308 41.8761 63.7495C41.3646 63.5098 40.8693 63.237 40.3935 62.9328C40.1045 62.7192 39.8113 62.4846 38.9527 61.9192C38.6892 61.6972 38.4092 61.4956 38.1151 61.3161C37.6963 61.0271 37.1141 60.7172 36.5906 60.3319C36.067 59.9466 35.5016 59.6115 35.0954 59.2765C34.6891 58.9414 34.375 58.6943 34.2577 58.5854L34.5258 58.7906L33.9101 58.2001L33.4034 57.5761C33.0739 57.2021 32.7649 56.8107 32.4778 56.4034C32.1971 55.9846 31.9165 55.6034 31.615 55.1972C31.3134 54.7909 31.0412 54.3344 30.6978 53.8779C29.7826 52.5449 28.9692 51.1449 28.2644 49.6897C27.8833 48.9693 27.5985 48.1987 27.2676 47.449C27.0038 46.6742 26.6855 45.9161 26.4761 45.1246C25.5738 42.1071 25.1499 38.967 25.2196 35.8184C25.0311 35.7556 25.2741 37.1209 25.0228 37.1963C25.0074 35.4353 25.1476 33.6764 25.4416 31.9401C25.747 30.2068 26.1568 28.4935 26.6687 26.8096C26.8763 26.2799 27.1141 25.7625 27.3807 25.2599C27.8414 24.238 27.5273 24.6108 27.8372 23.8527L28.0341 23.8108C28.3859 22.6633 28.8717 22.2821 29.3324 21.2644C29.3895 20.9781 29.5003 20.7052 29.6591 20.4603C29.8266 20.5315 30.258 19.3965 30.3753 19.5263C30.484 19.3201 30.6086 19.1226 30.748 18.9358L31.1668 18.0981C31.2716 17.8845 31.393 17.6458 31.5145 17.3903C31.6359 17.1348 31.7993 16.8877 31.9333 16.6281C32.4987 15.5685 33.1897 14.5884 33.3028 14.3748L33.4662 14.2282C33.885 13.7424 33.9897 13.4534 33.7049 13.7089L34.2577 13.1309L34.2033 13.2063L34.7561 12.6325C34.8734 12.5404 35.0535 12.4859 34.9446 12.6995C35.2324 12.3288 35.558 11.9891 35.9163 11.686C34.9237 12.4524 33.7175 13.4534 32.7332 14.3581C33.1726 13.8062 33.6483 13.2843 34.1572 12.7959C34.4336 12.5697 34.8608 12.2346 35.3257 11.8703C35.7906 11.5059 36.2764 11.0955 36.7413 10.7772C36.9214 10.6138 36.9214 10.3583 37.4073 10.0568C37.6963 9.98139 37.9015 9.66728 38.3328 9.46625C38.1431 9.65112 37.9402 9.82189 37.7256 9.97721L37.1057 10.4798C37.1937 10.5133 37.4617 10.3248 37.7507 10.0945C38.0397 9.86413 38.3831 9.64215 38.5883 9.53326C39.0734 9.13054 39.581 8.75579 40.1086 8.41082C39.9579 8.69981 40.6029 8.20979 40.9714 8.07158C41.34 7.84123 41.5662 7.65276 41.3902 7.70302C41.3902 7.45591 39.8657 8.5616 40.2762 8.07158C40.7246 7.85142 41.1583 7.6024 41.5745 7.32608C41.5326 7.24232 41.2604 7.42241 41.4782 7.19625C41.8561 6.9379 42.2555 6.71231 42.6718 6.52195C42.5409 6.61471 42.4005 6.69333 42.253 6.75649C42.5504 6.59315 41.8342 7.17531 41.1306 7.7449C40.4269 8.3145 39.8322 8.93435 40.1757 8.67468C40.5659 8.21853 41.0119 7.81328 41.5033 7.46848C41.9524 7.15771 42.3805 6.81772 42.7849 6.45074C42.4038 6.61408 42.965 6.15339 42.5755 6.33767L42.2153 6.67272C41.6876 6.93239 41.3777 6.90726 41.5452 6.74811C41.964 6.51357 41.4447 6.9994 40.9002 7.48104C40.3557 7.96269 39.849 8.50296 40.1715 8.23492L39.8615 8.3815C40.2717 8.00501 40.7416 7.69931 41.252 7.47686C41.2102 7.39309 41.608 7.12923 41.9347 6.90307L42.0645 6.84863C42.3996 6.60571 42.9022 6.33767 42.6174 6.36279C41.5745 6.9659 41.7797 6.56802 42.0394 6.1492C42.2991 5.73038 42.5378 5.31156 41.4782 5.8644C42.454 5.5461 41.2814 6.21202 40.3893 6.76067C39.9507 6.87012 39.5333 7.05125 39.1537 7.29676C38.6093 7.6737 38.8689 7.57318 38.7936 7.68207C38.4627 7.84541 37.8889 8.24329 37.8973 8.10089C37.5622 8.51971 37.1811 8.51971 36.7204 8.93853C36.3435 9.33641 36.7832 8.93854 36.5277 9.25684L35.4095 10.107C35.0451 10.4002 34.7268 10.7143 34.4797 10.9447C34.2284 11.0452 33.5416 11.4473 33.8389 10.9447C34.7603 10.107 33.6756 11.4556 34.5886 10.5259C34.0232 10.7353 35.3802 9.68822 35.4639 9.42437C35.2053 9.56357 34.9635 9.73222 34.7436 9.92695C34.4839 10.1615 34.2075 10.4337 33.9604 10.6892L34.086 10.6138C33.8766 10.8442 33.5332 11.1625 33.2149 11.5101C32.9264 11.8307 32.6127 12.1276 32.2767 12.398C32.327 12.2263 32.0799 12.398 32.3772 12.0504L31.7825 12.6702C31.7281 12.7707 31.6778 12.8754 31.8495 12.6995C31.6494 13.0145 31.4022 13.297 31.1166 13.5372C30.9428 13.7185 30.7871 13.9162 30.6517 14.1277C30.4046 14.4795 30.1198 14.9653 29.8141 15.4428C29.2277 16.3893 28.767 17.3694 28.767 17.2898C28.4723 17.6362 28.2258 18.0208 28.0341 18.4332C28.1914 18.1878 28.3314 17.9317 28.4529 17.6667L29.4287 15.9915C30.1659 14.823 30.8946 13.7508 30.6559 14.0858C29.8904 15.0759 29.2108 16.1296 28.6246 17.2354C28.2058 17.9892 27.8372 18.7724 27.5189 19.3546C27.3651 19.7379 27.1743 20.1054 26.9493 20.4519C26.7441 20.8707 26.5305 21.3649 26.6561 21.2895C26.3085 21.9764 26.5975 21.0089 26.3002 21.478C26.3002 21.478 26.3588 21.4529 26.3002 21.612L25.986 22.0308C25.6133 23.1742 24.8636 24.7783 24.6751 26.0348C24.6657 25.4906 24.7162 24.947 24.8259 24.4139L24.9181 24.2967C24.9181 24.1794 25.14 23.5386 25.0521 23.526C24.8924 23.8624 24.7525 24.2078 24.6333 24.5605C24.5328 24.9123 24.4448 25.2725 24.361 25.6746C24.294 25.8128 24.2186 25.9719 24.16 26.0934C24.16 26.0934 24.1851 26.0934 24.1977 26.0934C24.0637 26.3321 24.0637 26.3028 24.0637 26.2023C24.0611 26.1814 24.0611 26.1603 24.0637 26.1395C23.8626 26.3363 23.7244 27.0944 23.5527 27.9613C23.381 28.8283 23.2805 29.8209 23.1339 30.5119C23.1088 30.9308 23.1716 30.558 23.1339 31.0815C22.9664 31.7852 22.87 32.3924 22.7737 33.0081C22.6774 33.6238 22.6062 34.2646 22.5434 35.0143C22.6313 35.5043 22.6732 35.5378 22.8156 34.9598C22.7779 35.3409 22.7569 35.7221 22.7569 36.1032C22.4554 35.0519 22.4931 38.2559 22.1915 37.1042C22.1334 37.6623 22.1503 38.2258 22.2418 38.7794C22.3298 38.8381 22.4177 38.9344 22.5182 39.7427C22.5601 40.8819 22.5182 40.6139 22.5936 41.5604C22.535 41.7949 22.4386 41.4599 22.3716 41.5101C22.7444 42.9341 22.3716 42.8127 22.6983 44.1696C22.8826 45.0073 23.4354 46.6826 23.5904 46.6533C23.9673 47.8008 23.8584 47.8427 23.6825 47.7799Z" fill="#C3D8CC"/>
<path d="M13.1744 33.4065C13.1744 36.824 10.6824 39.5212 6.89212 39.5212C3.1018 39.5212 0.609823 36.824 0.609823 33.4065C0.555557 32.5497 0.677474 31.691 0.968008 30.8832C1.25854 30.0754 1.71154 29.3357 2.29906 28.7098C2.88658 28.0839 3.59614 27.585 4.38396 27.244C5.17177 26.903 6.02111 26.7271 6.87957 26.7271C7.73802 26.7271 8.58737 26.903 9.37518 27.244C10.163 27.585 10.8726 28.0839 11.4601 28.7098C12.0476 29.3357 12.5006 30.0754 12.7911 30.8832C13.0817 31.691 13.2036 32.5497 13.1493 33.4065H13.1744ZM8.98622 33.4065C8.98622 28.7031 8.91921 27.2791 6.89212 27.2791C4.86503 27.2791 4.76453 28.7031 4.76453 33.4065C4.76453 38.1098 4.84828 39.3663 6.89212 39.3663C8.93596 39.3663 8.99879 38.1308 8.99879 33.4065H8.98622Z" fill="#454545"/>
<path d="M31.8457 39.211V39.3659H28.4282C27.2052 39.3659 26.8283 38.5953 26.4178 35.3997C26.1959 33.6826 24.1353 33.7873 24.1353 33.7873H23.3269V37.4268C23.3269 39.1021 23.3939 39.211 24.1143 39.211V39.3659H18.9796V39.211C19.7209 39.211 19.8758 39.1775 19.8758 37.4268V28.9415C19.8758 27.8777 19.7376 27.4128 18.9796 27.4128V27.2788H23.8588C27.2764 27.2788 30.3505 27.6976 30.3505 30.5582C30.3505 33.1339 27.98 33.6658 26.3299 33.6658C28.3067 33.6658 29.3035 34.0846 30.1453 37.1881C30.4887 38.4906 31.3976 39.1775 31.8457 39.211ZM26.3131 30.5582C26.3131 27.2788 25.8692 27.4338 23.8588 27.4338H23.3269V33.6323H23.8588C26.0911 33.6323 26.3131 33.6658 26.3131 30.5582Z" fill="#454545"/>
<path d="M49.4317 34.8517V35.0067C48.2465 35.0067 48.3344 35.1072 48.3344 38.5415C47.4759 39.1446 45.7755 39.5216 43.9368 39.5216C40.2261 39.5216 37.3404 36.9626 37.3404 33.323C37.3404 29.6835 40.2261 27.1245 43.9368 27.1245C46.2906 27.1245 47.2162 27.38 48.28 28.0836L47.9533 31.4677H47.8193C47.8193 27.4847 45.0551 27.2795 43.9368 27.2795C41.9809 27.2795 41.5663 28.5988 41.5663 33.323C41.5663 38.0473 42.0145 39.3666 43.9368 39.3666C45.2603 39.3666 45.7922 38.7133 45.7922 37.0505C45.7922 35.1784 45.5325 35.0067 44.5902 35.0067V34.8517H49.4317Z" fill="#454545"/>
<path d="M61.2508 27.2788H61.3346C65.6819 37.2383 65.9835 37.8037 65.9835 37.8037C66.6033 39.1775 67.1897 39.1942 67.5289 39.2277V39.3659H61.5063V39.2277C62.88 39.2277 61.8497 37.2216 61.8497 37.2216L61.3011 36.0363H57.9505C57.6071 36.8237 57.9128 39.2277 59.9734 39.2277V39.3659H55.0313V39.2277C55.5423 39.1942 56.4721 39.056 57.7956 36.0363L61.2508 27.2788ZM59.5169 32.0282L57.9882 35.8939H61.2341L59.5169 32.0282Z" fill="#454545"/>
<path d="M82.2378 39.3667L75.7671 30.1527V35.5136C75.7671 36.8873 75.8508 39.2201 78.3595 39.2201V39.3751H72.9149V39.2201C75.2854 39.2201 75.6289 36.8706 75.6289 35.5136V29.9349L74.8205 28.7873C73.7902 27.4304 73.1201 27.4471 72.672 27.4094V27.2754H78.1292L83.9927 35.7104V31.1243C83.9927 29.5286 83.444 27.4136 81.5384 27.4136V27.2796H86.7401V27.422C84.6125 27.422 84.1476 29.537 84.1476 31.1327V39.3751L82.2378 39.3667Z" fill="#454545"/>
<path d="M98.1111 27.2788V27.4212C97.3907 27.4212 96.9928 27.4421 96.9928 28.9499V37.4352C96.9928 39.0644 97.4116 39.2194 98.1111 39.2194V39.3743H92.4444V39.2194C93.1648 39.2194 93.5585 39.0644 93.5585 37.4352V28.9415C93.5585 27.4338 93.1816 27.4128 92.4444 27.4128V27.2788H98.1111Z" fill="#454545"/>
<path d="M114.96 35.2454L115.132 38.7133C114.667 39.0232 112.933 39.5216 111.111 39.5216C107.438 39.5216 104.175 37.2055 104.175 33.323C104.175 29.4406 107.438 27.1245 111.111 27.1245C113.327 27.1245 114.717 27.5894 115.132 27.9119L114.96 31.3839H114.822C114.307 27.8281 112.368 27.2795 111.111 27.2795C109.205 27.2795 108.401 28.6155 108.401 33.323C108.401 38.0306 109.239 39.3666 111.111 39.3666C112.28 39.3666 114.24 38.663 114.822 35.2454H114.96Z" fill="#454545"/>
<path d="M25.8516 42.7252V43.8015H25.7763C25.6255 42.7712 24.323 42.8131 24.101 42.8131H23.8455V44.702H24.101C24.1806 44.702 24.9386 44.702 25.0182 44.1156H25.1062V45.3931H25.0182C24.9428 44.7816 24.1806 44.8025 24.101 44.8025H23.8162V46.059C23.8162 46.6788 24.0298 46.7249 24.2853 46.7249V46.8128H22.7691V46.7249C23.0162 46.7249 23.0916 46.4694 23.0916 46.0715V43.4246C23.0916 43.0644 23.0246 42.8047 22.7691 42.8047V42.7168L25.8516 42.7252Z" fill="#101010"/>
<path d="M31.5604 46.8717C30.3039 46.8717 29.6129 45.9586 29.6129 44.8027C29.6129 43.6467 30.283 42.6709 31.5604 42.6709C32.8378 42.6709 33.5121 43.6509 33.5121 44.8027C33.5121 45.9544 32.842 46.8717 31.5604 46.8717ZM31.5604 42.7588C30.8694 42.7588 30.4422 43.207 30.4422 44.8027C30.4422 46.3984 30.861 46.7837 31.5604 46.7837C32.2598 46.7837 32.6661 46.4026 32.6661 44.8027C32.6661 43.2028 32.2473 42.7588 31.5604 42.7588Z" fill="#101010"/>
<path d="M39.3717 46.8717C38.0901 46.8717 37.42 45.9586 37.42 44.8027C37.42 43.6467 38.0901 42.6709 39.3717 42.6709C40.6533 42.6709 41.3192 43.6509 41.3192 44.8027C41.3192 45.9544 40.6491 46.8717 39.3717 46.8717ZM39.3717 42.7588C38.6765 42.7588 38.2535 43.207 38.2535 44.8027C38.2535 46.3984 38.6723 46.7837 39.3717 46.7837C40.0712 46.7837 40.4774 46.4026 40.4774 44.8027C40.4774 43.2028 40.0544 42.7588 39.3717 42.7588Z" fill="#101010"/>
<path d="M46.6252 46.8212H45.2306V46.7332C45.4819 46.7332 45.6494 46.4694 45.6494 46.0757V43.4706C45.6494 43.1062 45.4944 42.8131 45.2306 42.8131V42.7251H46.6252C47.7854 42.7251 48.9999 43.0769 48.9999 44.7815C48.9999 46.4861 47.7854 46.8212 46.6252 46.8212ZM46.6252 42.8131H46.3697V46.7332H46.6252C47.22 46.7332 48.1372 46.6578 48.1372 44.7815C48.1372 42.9052 47.2325 42.8131 46.6252 42.8131Z" fill="#101010"/>
<path d="M57.0921 46.143C57.0978 46.3272 57.0315 46.5065 56.9071 46.6426C56.7828 46.7787 56.6102 46.8609 56.4261 46.8717C56.4261 46.8717 55.8482 46.9262 55.6178 46.5827L55.2911 46.1053C55.0691 46.767 53.8755 47.2612 53.2934 46.4529C52.7112 45.6446 53.4776 45.0163 53.9341 44.7483L54.2273 44.5724L53.9174 44.1075C53.3688 43.3536 53.7373 42.6249 54.3907 42.516C54.5388 42.4751 54.6952 42.4758 54.843 42.5179C54.9907 42.56 55.124 42.6419 55.2283 42.7547C55.4545 43.0228 55.71 43.7096 54.8095 44.3379L55.5424 45.4226C55.594 45.2705 55.6821 45.1334 55.7989 45.0231C55.9157 44.9129 56.0577 44.8329 56.2125 44.7902C56.2787 44.7726 56.3479 44.7699 56.4152 44.7822C56.4826 44.7946 56.5463 44.8216 56.602 44.8614C56.6368 44.8888 56.6654 44.9232 56.6861 44.9623C56.7068 45.0014 56.7191 45.0444 56.7223 45.0885C56.7255 45.1327 56.7194 45.177 56.7044 45.2186C56.6895 45.2603 56.666 45.2984 56.6355 45.3305C56.5771 45.3983 56.4945 45.4406 56.4053 45.4485C56.3161 45.4563 56.2274 45.429 56.1581 45.3723C56.1257 45.3438 56.0994 45.3091 56.0807 45.2703C56.062 45.2314 56.0513 45.1892 56.0492 45.1462C56.0492 45.0205 55.7351 45.1169 55.5885 45.4938L56.0492 46.1555C56.1034 46.2343 56.175 46.2995 56.2586 46.346C56.3421 46.3925 56.4353 46.4191 56.5308 46.4236C56.7361 46.4236 56.9497 46.3608 56.9874 46.143H57.0921ZM55.2283 46.0173L54.2776 44.652L53.9886 44.8362C53.8864 44.9162 53.8021 45.0166 53.741 45.131C53.6799 45.2455 53.6435 45.3715 53.634 45.5009C53.6246 45.6302 53.6423 45.7602 53.686 45.8823C53.7298 46.0044 53.7986 46.116 53.8881 46.21C53.9757 46.313 54.088 46.3922 54.2145 46.44C54.341 46.4879 54.4775 46.5029 54.6114 46.4837C54.7453 46.4644 54.8721 46.4116 54.9799 46.33C55.0878 46.2484 55.1733 46.1409 55.2283 46.0173V46.0173ZM54.3614 43.6384L54.7802 44.2541C55.5424 43.7557 55.4084 43.1358 55.1529 42.8175C55.0746 42.7345 54.9749 42.6749 54.8647 42.6453C54.7545 42.6158 54.6382 42.6174 54.5289 42.65C54.4452 42.6971 54.373 42.7624 54.3177 42.841C54.2625 42.9196 54.2254 43.0095 54.2094 43.1043C54.1933 43.199 54.1986 43.2961 54.2249 43.3885C54.2512 43.481 54.2978 43.5663 54.3614 43.6384V43.6384Z" fill="#101010"/>
<path d="M62.4483 46.8212H61.0494V46.7332C61.3007 46.7332 61.4682 46.4694 61.4682 46.0757V43.4706C61.4682 43.1062 61.3133 42.8131 61.0494 42.8131V42.7251H62.4483C63.6042 42.7251 64.823 43.0769 64.823 44.7815C64.823 46.4861 63.6042 46.8212 62.4483 46.8212ZM62.4483 42.8131H62.2137V46.7332H62.4692C63.0597 46.7332 63.9811 46.6578 63.9811 44.7815C63.9811 42.9052 63.0514 42.8131 62.4483 42.8131Z" fill="#101010"/>
<path d="M72.4621 46.8212H71.9721C71.0758 46.8212 71.1973 46.8212 70.8245 45.5647C70.778 45.3863 70.6723 45.229 70.5247 45.1187C70.377 45.0083 70.1962 44.9515 70.012 44.9574H69.7523V46.1762C69.7523 46.595 69.9115 46.7458 70.1711 46.7458V46.8337H68.6676V46.7458C68.9189 46.7458 69.0613 46.5824 69.0613 46.1385V43.2947C69.0613 42.9345 68.9272 42.8131 68.6676 42.8131V42.7251H69.924C71.08 42.7251 71.8129 42.8633 71.8129 43.835C71.8129 44.5847 71.3606 44.836 70.7031 44.8946C71.0842 44.8946 71.5155 45.0286 71.8087 46.1929C71.8473 46.3408 71.9317 46.4727 72.0498 46.5698C72.1679 46.6668 72.3137 46.724 72.4663 46.7332L72.4621 46.8212ZM69.9199 42.8131H69.7523V44.8611H69.9324C70.5481 44.8611 71.0255 44.8611 71.0255 43.835C71.0255 42.8089 70.5104 42.8131 69.9199 42.8131Z" fill="#101010"/>
<path d="M77.8146 42.7251V42.8131C77.5633 42.8131 77.3622 42.9387 77.3622 43.2989V46.1552C77.3622 46.5531 77.5717 46.7332 77.8146 46.7332V46.8212H76.1895V46.7332C76.4408 46.7332 76.6461 46.5531 76.6461 46.1552V43.2989C76.6461 42.9387 76.4492 42.8131 76.1895 42.8131V42.7251H77.8146Z" fill="#101010"/>
<path d="M86.1117 42.7252V42.8131C85.2741 42.8131 85.2741 43.9188 85.2741 44.1827V46.8212H85.0228L82.5099 43.6256V45.347C82.5099 45.6108 82.5099 46.7333 83.2889 46.7333V46.8212H81.5675V46.7333C82.4052 46.7333 82.4052 45.6108 82.4052 45.347V43.5335L82.1706 43.2361C81.7979 42.7712 81.6304 42.8173 81.4796 42.8173V42.7294H82.736L85.1652 45.7951V44.1743C85.1652 43.9104 85.1652 42.7964 84.3862 42.8047V42.7168L86.1117 42.7252Z" fill="#101010"/>
<path d="M91.4564 42.7251V42.8131C91.201 42.8131 90.979 42.8759 90.979 43.2989V46.1552C90.979 46.5531 91.1423 46.7332 91.3978 46.7332V46.8212H89.8565V46.7332C90.0995 46.7332 90.246 46.5531 90.246 46.1552V43.2989C90.246 42.9387 90.1036 42.8131 89.8565 42.8131V42.7251H91.4564ZM94.0489 46.8212H93.2825C92.6668 46.8212 92.5328 46.6452 91.9171 45.7657C91.5863 45.2883 91.2973 44.9281 91.2973 44.9281L92.0679 43.9983C92.2354 43.8056 93.0731 42.8424 92.1182 42.8256V42.7377H93.8814V42.8256C93.4626 42.8256 93.1066 42.901 91.8501 44.5009C92.8762 45.8704 93.2574 46.3856 93.2574 46.3856C93.3511 46.5038 93.472 46.5975 93.6099 46.6588C93.7477 46.7201 93.8984 46.747 94.0489 46.7374V46.8212Z" fill="#101010"/>
</svg>
