<svg width="216" height="72" viewBox="0 0 216 72" fill="none" xmlns="http://www.w3.org/2000/svg">
<path d="M130.548 20.2078C139.609 20.5538 148.67 20.7845 157.731 20.9574C158.036 20.9574 158.292 20.8916 158.308 20.7845C158.324 20.6774 158.086 20.6032 157.806 20.6032C148.744 20.422 139.683 20.1831 130.622 19.8372C130.317 19.8372 130.07 19.9031 130.029 20.0019C129.988 20.1008 130.268 20.1914 130.548 20.2078Z" fill="#EFC5CD"/>
<path d="M198.317 30.3068C198.103 30.381 198.111 30.4881 198.317 30.5622C198.562 30.6362 198.822 30.6362 199.067 30.5622C199.248 30.4963 199.24 30.3727 199.067 30.3068C198.822 30.2366 198.562 30.2366 198.317 30.3068Z" fill="#EFC5CD"/>
<path d="M203.951 34.6808C197.411 34.4007 190.821 34.1371 184.231 33.9229L185.615 33.6593L186.991 33.5605C191.225 33.5605 195.467 33.4864 199.726 33.3793C201.315 33.3793 202.633 32.9756 202.716 32.4155C202.798 31.8553 201.562 31.4435 200.03 31.4023C200.277 31.4023 200.525 31.3282 200.772 31.3034C201.019 31.2787 201.2 31.1716 201.134 31.0893C200.937 30.9694 200.704 30.92 200.475 30.9492L197.814 31.3364C189.734 31.1387 181.644 31.1963 173.547 31.3364C182.254 30.7021 191.085 30.2655 199.973 30.0925C199.791 30.1584 199.775 30.2738 199.973 30.3479C200.219 30.4096 200.476 30.4096 200.722 30.3479C200.936 30.2738 200.895 30.1584 200.722 30.0925C205.495 30.0047 210.28 30.0047 215.08 30.0925C215.36 30.0925 215.599 30.0184 215.591 29.9113C215.583 29.8042 215.327 29.7219 215.014 29.7219C199.116 29.4747 183.35 30.1749 167.946 31.4435L165.417 31.4847C165.013 30.9724 164.465 30.5935 163.843 30.3973C169.297 30.2161 174.717 30.0019 180.162 29.7466L193.77 29.8537C194.429 29.8537 194.973 29.6807 194.989 29.4335C195.006 29.1864 194.47 29.0381 193.778 29.0217H190.442C191.356 28.7334 191.958 28.3297 192.024 27.8684C192.089 27.4071 191.62 27.0447 190.846 26.7234C195.788 26.3033 200.623 25.842 205.376 25.2325C205.657 25.2325 205.805 25.1007 205.706 25.0018C205.503 24.8902 205.267 24.8523 205.039 24.8947C198.136 25.1583 191.315 25.5455 184.445 25.8585C179.05 25.3148 173.736 24.73 167.929 24.524C159.771 24.3615 151.609 24.6364 143.48 25.3478C140.614 25.2078 137.755 25.1007 134.922 25.0348C135.325 24.8206 135.564 24.5735 135.564 24.3016C135.557 24.2316 135.535 24.1641 135.498 24.1039L143.052 24.1946C166.702 24.4334 188.902 22.5471 211.522 21.0479C212.963 20.9902 213.993 20.5289 213.836 20.0429C213.68 19.5569 212.337 19.2191 210.887 19.2191C200.047 19.2191 190.047 20.0841 179.074 20.9325C171.257 21.5339 164.395 21.9787 156.545 22.3988C147.36 22.8848 138.81 22.7777 129.798 22.7695C128.914 22.6802 128.026 22.6444 127.137 22.6624L124.427 22.7448C117.376 22.6789 110.465 22.3576 103.578 22.0199C111.816 21.7151 120.053 21.3609 128.126 20.6854C128.711 20.6854 129.098 20.4712 129.032 20.2818C128.966 20.0923 128.406 19.9523 127.821 19.977C116.536 20.3971 105.201 20.5618 93.8829 20.8007C90.8021 19.0873 84.2616 18.0824 78.4295 18.0247C76.3759 17.972 74.3213 18.0794 72.2844 18.346L75.0769 18.5601C72.5599 18.6517 70.0565 18.9715 67.5973 19.5157C67.3914 19.5157 67.1855 19.4663 66.9713 19.458C61.5346 18.5107 55.1918 18.7002 49.3185 18.2883C49.4421 18.5107 49.5903 18.7249 49.7221 18.9391C48.6348 18.7743 48.0005 18.3789 46.8061 18.2636L47.7863 18.7414H47.7204C46.2822 18.381 44.8043 18.2039 43.3217 18.2142C39.1828 17.1554 34.9454 16.5287 30.6772 16.3443C29.8677 16.0317 29.0079 15.8698 28.1401 15.8665C27.7094 15.8093 27.2829 15.724 26.8633 15.6112C23.5378 14.4783 20.1036 13.6943 16.6159 13.2717L18.8812 13.8731C17.7351 13.6743 16.5761 13.5586 15.4133 13.5271C15.5451 13.6506 15.7098 13.7742 15.8416 13.906C11.9948 12.9917 6.72281 13.3129 4.06212 14.6309C1.40143 15.9489 2.33226 17.7447 6.17914 18.659L6.73928 18.799C5.09616 18.8613 3.49534 19.3373 2.08514 20.1829C1.56618 20.603 2.01924 21.122 2.13456 21.608C1.97805 22.3082 3.52669 22.9177 5.58604 22.9672C6.1146 22.9826 6.64353 22.955 7.16762 22.8848C9.54 23.1484 11.97 23.3543 14.2765 23.6674C14.7026 23.7487 15.1436 23.6939 15.5368 23.5108C15.7428 23.3543 15.5368 23.1649 15.0673 23.0907C13.4198 22.7612 11.7723 22.4153 10.1908 22.0611L9.78712 22.1846C9.85539 22.1258 9.9269 22.0708 10.0013 22.0199L9.56472 21.9293L9.90245 21.8304L10.2649 21.8881C10.4934 21.7875 10.7305 21.7075 10.9733 21.6492C13.8482 21.8881 16.7395 22.1599 19.392 22.6212C19.5485 22.6212 19.2849 22.9672 19.5732 23.0825C19.7132 23.1402 19.8615 23.1896 20.018 23.239C19.5402 23.1731 19.0295 23.1155 18.4776 23.0743L15.1003 23.7991H14.9355L14.1118 23.9721L13.9141 24.0216L12.9832 23.9557C12.7019 23.9282 12.4182 23.9736 12.1595 24.0875C12.0287 23.9972 11.891 23.9173 11.7476 23.8486L8.17259 23.5603C8.18298 23.6269 8.2053 23.6911 8.23849 23.7497C7.7823 23.8067 7.32195 23.8233 6.86284 23.7991C6.07033 23.816 5.27761 23.7774 4.49046 23.6838L5.31421 23.9969L4.59755 23.7744L4.78701 24.1369L4.45752 23.7497L4.15273 24.038L2.72766 23.2143L1.69798 23.3873C1.58767 23.4334 1.48271 23.4914 1.38496 23.5603C1.38496 23.6674 1.38496 23.6673 0.800103 24.0298C0.797265 24.1141 0.811264 24.1981 0.841286 24.2769C1.01427 24.4005 1.01428 24.4005 1.0637 24.7217C1.21335 24.8193 1.37365 24.8994 1.54147 24.9606C1.81331 25.0265 1.88744 25.043 2.89241 25.2407L2.64528 25.4137C2.45582 26.0233 2.45583 26.0233 3.71615 27.4401C4.29982 27.7346 4.91647 27.9586 5.55309 28.1073L8.40324 28.3792L9.30936 28.5027C9.59206 28.6535 9.86699 28.8185 10.1331 28.997C9.85489 29.0023 9.57833 29.041 9.30936 29.1123C8.61742 29.31 8.48562 29.6559 9.10342 29.8948C8.34558 30.8257 8.79863 31.6741 9.75417 32.4896C9.62107 32.6124 9.5172 32.7634 9.4502 32.9317C9.3832 33.0999 9.35477 33.281 9.36702 33.4616C8.40575 34.0638 7.66356 34.959 7.25 36.0153L7.10996 36.839C7.43946 37.5062 8.37853 38.1323 9.78712 38.61L10.2072 38.7995L9.8036 39.4585C11.5994 41.1883 15.1497 42.5805 17.3491 44.2362L18.9966 45.1093C20.6581 45.9486 22.4696 46.4497 24.3262 46.5839L26.6821 46.831C27.1763 46.831 27.6623 46.831 28.1648 46.831C25.6936 47.6547 24.285 48.8327 24.738 50.1259C25.5618 52.2018 31.1138 53.6763 37.2013 53.4209C53.4619 53.3468 69.1624 53.2067 85.802 52.3418C98.1087 51.7158 109.262 50.8591 121.33 50.8673C132.862 49.9694 143.975 48.808 155.235 47.4158C164.692 46.2626 171.924 43.9314 180.293 42.1686C180.532 42.1192 180.557 42.0038 180.425 41.9215C180.181 41.847 179.92 41.847 179.676 41.9215C166.405 43.4619 153.036 44.8046 138.81 45.1093C137.162 45.1093 135.581 45.1093 133.991 45.1093C133.801 45.0733 133.608 45.0513 133.414 45.0435C131.973 44.9446 130.523 44.854 129.081 44.7716H130.589C131.586 44.7716 132.442 44.5245 132.516 44.1703C132.516 44.022 132.376 43.8902 132.146 43.7749C135.844 43.4042 139.461 42.9512 143.069 42.4157C144.049 42.3845 145.025 42.266 145.985 42.0615C150.153 42.3251 154.337 42.5063 158.53 42.7452L159.568 42.8441C160.719 42.9618 161.881 42.7743 162.937 42.3004C163.107 42.2141 163.248 42.0793 163.341 41.9132C172.888 41.1883 182.583 40.6447 191.595 39.2855C192.057 39.2196 192.295 39.0713 192.221 38.9066C192.417 38.9479 192.619 38.9479 192.814 38.9066C193.984 38.6335 195.17 38.4354 196.365 38.3135C196.645 38.2558 196.793 38.1652 196.661 38.0746C196.448 37.9652 196.204 37.9304 195.969 37.9757C194.715 38.1148 193.47 38.321 192.238 38.5935C192.147 38.6067 192.065 38.6538 192.007 38.7253C191.662 38.6117 191.296 38.5779 190.936 38.6265C181.62 39.0796 172.6 40.1092 163.193 40.3317C167.789 39.7056 172.501 39.269 177.452 38.7995C183.424 38.2311 188.918 37.4239 194.948 37.0944C195.261 37.0944 195.467 36.9955 195.434 36.9049C195.401 36.8143 195.137 36.7237 194.824 36.7484C182.468 37.2344 171.669 39.5985 158.926 39.5985C158.423 39.5985 157.921 39.5985 157.426 39.5985C161.356 38.7748 165.219 37.951 169.066 37.1273C180.796 36.7813 192.468 36.2541 204.001 35.4798C204.561 35.4798 205.014 35.3151 205.006 35.1174C204.998 34.9197 204.511 34.6725 203.951 34.6808ZM7.74425 25.9738C7.90439 26.0339 8.05878 26.1084 8.20554 26.1962L7.74425 25.9738ZM36.1304 25.5537C33.7992 25.4054 31.4268 25.3066 28.9886 25.2489C28.1032 25.2233 27.2171 25.2564 26.3361 25.3478C25.2879 24.7643 24.1841 24.2869 23.0411 23.9227C25.2241 24.2357 27.7117 24.3511 30.01 24.5652C32.5471 24.7959 35.0431 25.0101 37.539 25.2078L36.6576 25.2737C36.394 25.3066 35.8338 25.2737 36.1304 25.5537ZM41.3364 20.2488L42.6874 20.8254H42.4979L40.7186 20.5783L41.0399 20.7431C38.7499 20.603 36.4599 20.463 34.1864 20.2982C30.7453 19.7701 27.2775 19.4346 23.799 19.2933C24.8369 19.0873 25.8171 18.8485 26.7315 18.5849C31.2786 19.145 35.6444 19.8781 40.4056 20.0923L41.3364 20.2488ZM18.3211 29.763L17.6703 29.3264L18.3211 29.763ZM10.5038 38.3464L10.3885 38.2641L11.7806 36.2788L10.5038 38.3464Z" fill="#C3D8CC"/>
<path d="M36.9135 50.3569C36.8641 50.1592 36.5593 49.8874 36.4522 49.6897C36.6169 49.4261 36.8311 49.2943 36.9217 49.0966C37.0535 48.5035 37.0618 47.8363 37.1936 47.2432C37.1936 46.9796 37.2512 46.7819 37.2759 46.5183C37.697 45.7494 37.8669 44.868 37.7619 43.9977C37.8737 43.7626 37.97 43.5204 38.0502 43.2728C38.1326 43.141 38.2891 42.9433 38.2315 42.8115C38.0585 42.5479 38.2315 42.2184 38.6186 41.7571C38.7966 41.4406 38.9482 41.11 39.0717 40.7686C39.6401 39.3188 40.0025 37.8608 40.5627 36.4769C40.2414 33.948 46.716 25.3481 41.8147 26.592C41.4906 26.786 41.133 26.9173 40.7604 26.9792C35.612 29.1538 36.0568 28.8326 34.1704 33.4538C34.0208 34.1002 33.8366 34.7382 33.6185 35.3648C33.5699 35.6466 33.4926 35.9226 33.3879 36.1886C32.3417 38.3715 31.9546 40.5544 30.3647 42.7785C30.2247 42.8362 30.2165 42.9103 30.1341 43.0421C28.6843 44.6072 28.8902 44.5496 27.218 44.4507C26.9544 44.4507 26.6991 44.3107 26.4849 44.4507C25.7353 44.5743 25.3729 44.1706 25.3564 43.7011C25.362 43.0066 25.4646 42.3162 25.6612 41.65C26.6085 38.6104 27.8358 35.4472 29.1291 32.3417C30.6778 29.3103 27.4816 31.2626 27.5887 28.7337C27.5145 28.3136 27.5399 27.8819 27.6629 27.4734C27.9594 26.6496 28.0418 25.9577 28.3219 25.2328C28.5196 24.6974 28.5607 24.302 28.3795 24.0961C28.9561 23.1817 29.4586 22.325 30.027 21.3365C30.9249 21.7484 31.9793 21.3365 33.322 21.1223C33.8132 20.9411 34.2583 20.6537 34.6257 20.2807C34.993 19.9076 35.2736 19.4581 35.4472 18.9641C36.5132 16.5234 37.7662 14.1687 39.1952 11.9211C40.2002 10.1419 41.5511 8.30493 42.7703 6.45975C42.8795 6.26554 43.0478 6.11126 43.2508 6.01939C43.4538 5.92753 43.6808 5.90288 43.8988 5.94902L45.3486 6.17143C45.9994 6.37737 46.0158 6.77276 45.7522 7.37409C45.2333 8.42024 44.5908 9.34284 44.2201 10.2654C43.6929 11.3198 43.1904 12.2424 42.6714 13.2309C38.0832 19.4007 42.2843 19.063 47.515 17.2919C47.688 16.9624 47.9022 16.8306 48.0011 16.567C48.8248 14.656 49.4838 13.5357 50.5135 11.5587C50.8096 11.0111 51.055 10.4376 51.2466 9.84531C51.3372 9.02157 52.0703 8.26374 52.5152 7.47294C52.8614 6.951 53.1098 6.37042 53.2483 5.75956C53.4108 5.17888 53.6549 4.6242 53.9732 4.11208C54.7969 2.92589 55.6207 1.74794 56.4444 0.49585L59.1875 0.537039C60.4706 0.532746 61.7311 0.874205 62.8366 1.52553C63.31 1.74282 63.6784 2.1381 63.862 2.62549C64.0455 3.11289 64.0293 3.65303 63.8169 4.12855C63.5115 4.94199 63.1106 5.71624 62.6225 6.43502C61.0988 8.85513 59.7579 11.3855 58.6108 14.0052C57.2105 16.9048 60.7361 15.9657 62.5236 15.595C62.8613 15.5291 63.2732 15.4715 63.3474 15.8669C62.0541 16.0481 60.6043 16.3611 59.4346 16.6082C58.8327 16.7203 58.2483 16.9114 57.6965 17.1766C57.339 17.3681 57.0236 17.6293 56.769 17.9448C56.5143 18.2604 56.3255 18.6238 56.2138 19.0136C56.5515 19.0136 57.0375 19.0959 57.4823 19.0959C57.7458 19.097 58.0057 19.0349 58.2402 18.9147C59.04 18.7796 59.8538 18.7464 60.662 18.8159C61.1831 18.8743 61.7106 18.838 62.2188 18.7088C62.7663 18.6558 63.3169 18.642 63.8663 18.6676C63.7014 18.3651 63.5583 18.0513 63.438 17.7285C63.4978 17.2895 63.6373 16.8652 63.8498 16.4764H64.3194L64.4676 16.3529C64.2526 16.0931 64.0571 15.8178 63.8828 15.5291C64.3174 15.6544 64.7093 15.8965 65.0157 16.2292C65.3222 16.5618 65.5315 16.9721 65.6209 17.4155V17.2837C65.547 17.3518 65.4598 17.4038 65.3648 17.4364C65.2698 17.469 65.1691 17.4816 65.069 17.4732C64.4759 18.5276 65.2832 18.5358 66.1563 18.5523C65.1349 19.2689 64.583 18.7912 63.8416 18.8488C64.2782 19.1207 64.5253 19.3183 64.896 19.5902C64.41 19.722 63.8828 19.6396 63.5286 20.3727C63.8581 20.4386 64.2617 20.4469 64.7889 20.521C64.3029 20.6446 63.9652 20.8423 63.6769 20.8999C63.3103 20.9435 62.9758 21.13 62.746 21.4189C63.0259 21.4682 63.3013 21.5398 63.5698 21.6331C61.8748 22.0497 60.203 22.5556 58.5614 23.1488C57.4494 23.4618 56.2055 23.7748 55.0276 24.1537C54.5985 24.2555 54.1999 24.458 53.8647 24.7445C53.5295 25.031 53.2674 25.3932 53.1 25.8012C52.5027 26.9282 52.0515 28.1268 51.7573 29.368C51.4892 30.2464 51.1674 31.1075 50.7935 31.9463C50.1593 33.3961 49.9286 34.8541 49.3685 36.238C48.9483 37.556 48.5447 38.8822 47.9763 40.2002C47.9763 40.332 47.7457 40.4638 47.5892 40.6533C47.5892 40.7851 47.4244 40.9828 47.4821 41.0569C47.7786 41.9877 47.1773 43.108 46.7984 44.0965C46.7984 44.2942 46.6913 44.4919 46.6748 44.6237C46.7737 45.5545 46.1394 46.4112 45.7028 47.2679C45.5957 47.6633 44.945 48.0505 44.4919 48.5118C44.1914 48.5087 43.892 48.5476 43.6023 48.6271C43.419 48.6104 43.2343 48.63 43.0586 48.6847C42.1031 49.4673 41.1146 49.2531 40.159 50.0357C39.7966 50.2251 39.9943 49.6979 39.706 49.8956C39.4177 50.0933 39.3188 50.291 39.2529 50.291C38.9893 50.291 38.8657 50.151 38.6104 50.0769L38.0091 50.6041C37.1688 51.0242 37.1112 50.9583 36.9135 50.3569ZM32.5559 21.8143C31.7322 22.0038 31.4933 22.2673 31.0649 23.124C31.4027 23.124 31.7898 23.2641 32.1934 23.2723C32.5971 23.2805 32.63 23.5442 32.7206 23.8736C32.0946 24.129 31.485 24.1208 30.8755 24.7798C31.595 24.679 32.3076 24.5332 33.009 24.3432C33.5114 23.4206 33.948 22.5639 34.467 21.5095C33.8405 21.6688 33.2008 21.7709 32.5559 21.8143V21.8143ZM40.6697 20.0844C40.2579 20.1421 39.9119 20.2657 39.846 20.6693C40.0519 20.6693 40.1755 20.7352 40.2496 20.6693C41.3782 20.2245 42.3008 19.7714 43.3469 19.3925C43.7951 19.339 44.2469 19.3225 44.6978 19.3431C44.6978 19.2772 44.8544 19.1454 44.8626 19.0795C44.3189 19.1371 43.8247 19.3266 43.3469 19.3925C42.4655 19.6396 41.5676 19.8291 40.6697 20.0844ZM41.3946 21.4189C40.9614 21.4853 40.5399 21.6129 40.1425 21.7978C40.3641 21.8791 40.6061 21.8861 40.8319 21.8177C41.0578 21.7494 41.2553 21.6094 41.3946 21.4189ZM45.777 21.2212C44.9866 21.1924 44.198 21.3154 43.454 21.5836C42.9735 21.7832 42.4586 21.8867 41.9383 21.8884C41.4589 21.8841 40.9919 22.0407 40.6121 22.3332C42.4572 22.2593 44.2886 21.983 46.0735 21.5095L45.777 21.2212ZM45.5875 22.2756C45.3044 22.1453 44.9879 22.1054 44.6813 22.1614C44.3747 22.2174 44.0929 22.3666 43.8741 22.5886C44.6237 22.465 45.0026 22.7369 45.5875 22.2756Z" fill="#454545"/>
<path d="M66.3377 23.9889L66.4119 23.923C66.576 23.7337 66.7744 23.5772 66.9967 23.4617C67.7546 23.3464 69.5586 22.1767 70.1846 22.5885C70.3576 22.8521 71.0084 23.1981 71.2308 23.4617C71.3556 23.6844 71.4212 23.9354 71.4212 24.1907C71.4212 24.446 71.3556 24.697 71.2308 24.9197C70.7283 25.7435 70.1681 26.5672 69.5174 27.6216C69.3362 28.017 69.1632 28.3465 69.0726 28.6101C68.7348 29.2032 68.3724 29.994 67.9688 30.5788C67.6145 31.4026 69.1055 28.8737 68.8996 29.5327C68.849 29.7247 68.7592 29.9042 68.636 30.0599C68.1736 30.7267 67.89 31.501 67.8123 32.3087C67.7381 32.9677 67.0874 36.345 67.0874 36.9381C67.12 37.3085 67.2668 37.6597 67.5075 37.9431C67.8062 38.1526 68.1232 38.3345 68.4548 38.4868C68.7596 38.7586 69.1055 38.635 69.5174 38.5691C75.2836 36.6663 73.3807 35.9084 76.9723 32.5805C77.7295 31.7731 78.37 30.8636 78.8751 29.8786C78.8751 29.8127 78.8751 29.8127 79.1222 29.4832C79.3776 30.1505 78.5374 31.0648 79.4517 31.279C77.763 33.7502 76.3462 37.4077 73.9162 38.6927C73.1501 39.5164 68.15 43.4457 65.3245 42.276C64.3525 42.5972 63.5865 41.6499 62.6227 41.2381C61.9173 40.8967 61.3064 40.3875 60.8434 39.7553C60.5597 38.8982 60.4341 37.9967 60.4727 37.0946C60.4108 36.6989 60.4108 36.2959 60.4727 35.9002C60.7693 35.0765 60.8022 33.5773 61.1317 33.0501C61.2778 32.7117 61.3855 32.358 61.453 31.9957C61.593 31.9298 61.5024 31.6003 61.9719 31.5426C62.046 31.5426 62.1367 31.2708 62.2108 31.2131C62.598 30.7518 62.7133 30.3894 63.1004 29.8951C63.1004 29.8951 61.5353 31.2708 62.4909 29.9528C63.1746 28.6348 64.542 27.1932 65.0527 26.2707C65.0871 26.1526 65.146 26.0431 65.2257 25.9494C65.4728 25.5458 65.7035 25.2904 65.6211 24.8209C65.6055 24.4863 65.7141 24.1578 65.9259 23.8983C65.9804 23.9484 66.0473 23.9831 66.1196 23.999C66.192 24.0149 66.2672 24.0114 66.3377 23.9889ZM73.3148 16.8553C73.1464 17.0276 73.0097 17.2284 72.9112 17.4484C72.91 17.5121 72.8946 17.5747 72.8661 17.6317C72.8376 17.6887 72.7967 17.7387 72.7465 17.7779C72.524 17.9756 72.2934 18.2392 71.9804 18.5604C71.6765 18.8216 71.3106 19.0003 70.9178 19.0794C70.7942 19.0135 70.58 19.137 70.4235 19.2688C70.2907 19.3719 70.1296 19.4319 69.9617 19.4407C69.7939 19.4496 69.6273 19.4068 69.4844 19.3183C69.3398 19.2172 69.1666 19.1652 68.9902 19.17C68.7436 19.1789 68.4969 19.1539 68.2571 19.0959C68.3312 19.03 68.4136 18.8982 68.4877 18.8323C68.5615 18.606 68.6524 18.3857 68.7596 18.1733C68.9273 17.8843 69.1173 17.6089 69.3279 17.3495C69.3279 17.2177 69.5586 17.0859 69.5668 17.02C69.6162 16.6246 69.9869 16.3034 70.234 15.8997L70.7036 15.3149C70.8519 15.1831 71.0001 15.0513 71.1319 15.0595C71.2637 15.0678 71.412 14.9936 71.4697 15.0595C71.5273 15.1254 71.585 15.1996 71.725 15.1337C71.8651 15.0678 71.9474 15.0019 72.0051 15.0678C72.2683 15.1918 72.5446 15.2857 72.8288 15.3478C73.2605 15.5533 73.6009 15.9113 73.7844 16.3528C73.5537 16.5258 73.4631 16.6988 73.3148 16.8553Z" fill="#454545"/>
<path d="M99.353 32.3501C99.2295 33.9976 99.839 33.421 102.36 33.0585C103.631 32.8815 104.817 32.3212 105.762 31.4523C106.429 30.8674 107.088 31.6088 107.409 31.9383C107.081 32.5574 106.677 33.133 106.207 33.6516C104.192 34.7889 101.929 35.414 99.6166 35.4721C97.895 35.851 97.6643 36.7077 96.9065 38.0257L96.577 38.5529C96.2557 39.26 95.843 39.9219 95.3496 40.5217C95.2164 40.6695 95.0672 40.8021 94.9048 40.917L94.147 41.6996C93.8047 42.1983 93.3749 42.6309 92.8784 42.9764L92.3512 43.4954L91.6098 44.0885C91.4148 44.1544 91.2035 44.1544 91.0085 44.0885C90.8182 43.9274 90.6077 43.7917 90.3825 43.6848C90.3536 43.4854 90.3536 43.2829 90.3825 43.0835C90.3166 42.4904 90.1765 41.955 89.5587 41.8808C89.3226 41.7162 89.1188 41.5096 88.9574 41.2713C88.7939 40.9582 88.5418 40.7004 88.2325 40.5299C87.6724 40.1263 87.6641 39.0636 88.2984 38.2069C88.5614 37.717 88.9549 37.3093 89.4352 37.029C89.8768 36.7089 90.3587 36.4485 90.8685 36.2547C91.6678 35.8943 92.4941 35.5968 93.3397 35.365C93.9025 35.0378 94.338 34.5297 94.5753 33.9235C95.334 31.9621 95.9641 29.9534 96.4617 27.9102L96.717 25.6614C96.7505 25.5289 96.7505 25.3902 96.717 25.2577C96.7222 25.1874 96.7041 25.1173 96.6655 25.0583C96.6268 24.9993 96.5699 24.9546 96.5033 24.9312C96.4368 24.9077 96.3644 24.9069 96.2973 24.9287C96.2303 24.9505 96.1722 24.9937 96.1322 25.0518C96.0611 25.0823 95.9973 25.1274 95.9448 25.1842C95.8923 25.2409 95.8523 25.3081 95.8274 25.3813C95.2581 26.0816 94.7484 26.8283 94.3035 27.6136C93.0761 29.5165 91.9064 31.5593 90.6955 33.3798C89.7976 34.7637 88.9903 36.0158 88.2243 37.4985C86.9557 39.8627 84.4021 42.2186 83.2406 44.7886C83.063 45.2539 82.7609 45.6613 82.3675 45.9666C82.0215 46.0984 81.8238 46.6256 81.7826 47.021C81.7293 47.5 81.6072 47.9689 81.4201 48.4131C81.2933 48.6546 81.1324 48.8765 80.9424 49.0721C80.6286 49.4121 80.3524 49.7849 80.1186 50.1841C79.2286 51.7729 78.5816 53.4861 78.1993 55.2666C78.085 56.074 77.9031 56.8703 77.6557 57.6472C77.6139 57.916 77.5064 58.1702 77.3425 58.3873C77.1786 58.6043 76.9636 58.7774 76.7166 58.8911C76.3081 59.1094 75.9836 59.4571 75.794 59.8796C75.7199 59.9373 75.4892 60.2008 75.4233 60.2008C75.2256 60.2008 75.102 60.6621 74.9455 60.8598H74.8796C73.7841 61.0411 73.2322 60.2338 72.9438 58.9652C72.7247 57.6508 72.6749 56.3137 72.7956 54.9866C73.029 51.7974 73.5333 48.6338 74.303 45.53C74.5749 44.2779 74.995 42.9517 75.3327 41.7655C75.8504 39.7203 76.5026 37.7115 77.285 35.7522C78.3833 32.8526 79.5091 30.0162 80.6623 27.2429C80.9424 26.5839 81.2801 25.9908 81.5684 25.1918C82.5981 23.2231 83.5042 21.0731 84.5421 19.0714C84.987 18.0829 85.6542 16.9626 86.2308 15.9741C86.3658 15.8443 86.5459 15.7717 86.7333 15.7717C86.9206 15.7717 87.1007 15.8443 87.2358 15.9741L88.735 16.9874L88.7926 17.0615C89.7301 18.4283 90.1825 20.0698 90.0777 21.7239C90.0834 22.831 89.8909 23.9301 89.5093 24.9694C88.9244 26.551 88.2654 28.2644 87.4747 29.9119C86.9557 30.9663 86.4038 32.2925 85.8272 33.4787C84.3362 37.169 86.5356 36.7736 87.1287 35.6204C87.3923 35.0932 88.5455 33.7834 88.8256 33.1492L91.5439 28.6763C91.9148 27.9068 92.4009 27.1985 92.9855 26.5757C93.5209 26.0485 94.0646 25.3978 94.633 24.8706C95.0635 24.475 95.6088 24.2269 96.1898 24.1621H97.3266C97.9444 24.0468 98.4222 24.5823 98.9082 25.0518C99.0822 25.2128 99.2193 25.4096 99.3103 25.6285C99.4013 25.8474 99.444 26.0834 99.4354 26.3203C99.468 26.8525 99.468 27.3862 99.4354 27.9184L99.493 29.8377L99.353 32.3501ZM90.9261 37.4656C90.6723 37.6121 90.4621 37.8237 90.3173 38.0785C90.1725 38.3334 90.0983 38.6223 90.1024 38.9154C90.1024 39.2449 90.3083 39.5167 90.506 39.5167C90.6543 39.3849 90.852 39.3931 91.0085 39.2613C91.3849 39.0621 91.7115 38.7805 91.964 38.4376C92.7878 37.4573 93.1997 36.403 92.9608 36.7901C92.17 37.1196 91.5769 36.9796 90.9261 37.4326V37.4656Z" fill="#454545"/>
<path d="M106.882 52.4821C106.61 52.4821 106.61 52.4821 105.968 52.861V52.6633C105.836 52.5974 105.836 52.5974 105.786 52.4656C105.638 52.5974 105.432 52.5891 105.341 52.7868C104.998 53.0033 104.619 53.1568 104.221 53.2399C104.081 53.2976 104.081 53.2976 103.76 53.1658C103.842 53.034 103.851 52.9681 103.933 52.8363C103.727 52.8363 103.579 52.9598 103.381 52.9598C103.344 53.0202 103.292 53.0696 103.23 53.1029C103.167 53.1362 103.097 53.1522 103.027 53.1493C102.45 53.4788 102.203 53.3387 101.989 52.8033C101.962 52.4262 101.843 52.0613 101.643 51.7407C101.355 51.1378 101.222 50.4723 101.256 49.8049C101.303 49.4379 101.411 49.0814 101.577 48.7505C101.905 47.8837 102.381 47.0809 102.986 46.3781C104.152 44.9346 105.469 43.62 106.915 42.4571C109.724 40.1753 109.386 39.5081 108.818 37.5147C108.57 36.1676 108.129 34.8636 107.508 33.6431C107.508 33.3795 107.294 33.1735 107.261 32.9099C106.75 32.045 106.025 27.1849 106.165 25.9905C106.313 25.8587 106.256 25.7269 106.421 25.4633C106.429 25.0242 106.596 24.6029 106.89 24.2771C106.981 24.0794 107.228 23.684 107.063 23.3463C107.302 23.0251 107.426 22.5226 107.664 22.2343C107.903 21.9459 107.986 21.7071 108.167 21.3117C108.303 21.0984 108.46 20.8997 108.636 20.7186L109.378 19.5324C109.707 19.0052 110.152 18.618 110.473 18.1567C110.556 18.0249 110.622 18.0249 110.762 17.9673C110.955 17.8618 111.113 17.7012 111.215 17.506C111.445 17.2424 111.594 17.1106 111.717 17.2424C112.147 17.427 112.527 17.709 112.829 18.0661C112.854 18.0689 112.878 18.0769 112.899 18.0897C112.92 18.1025 112.939 18.1197 112.953 18.1403C113.529 18.4121 114.32 20.8833 114.296 21.74C114.269 21.8294 114.262 21.9234 114.275 22.0157C114.288 22.108 114.32 22.1965 114.37 22.2754C114.342 22.6827 114.251 23.0831 114.098 23.4616C113.915 24.0598 113.669 24.6369 113.365 25.1833C113.208 25.4386 113.118 25.6445 112.838 25.7022C112.588 25.8744 112.38 26.0994 112.228 26.3612C112.137 26.5507 111.849 26.7483 111.874 27.0861C111.87 27.1571 111.841 27.2243 111.791 27.2756C111.548 27.6118 111.328 27.9641 111.132 28.3299C110.792 29.077 110.675 29.9066 110.795 30.7188C110.928 31.0448 111.124 31.3415 111.371 31.592C112.154 32.3333 112.607 34.8869 113.266 35.6036C113.571 35.8672 113.488 36.6003 113.727 36.8721C114.164 38.3302 116.511 36.5756 118.299 36.139C119.386 35.4224 120.474 34.714 121.594 33.9314C122.418 33.4124 123.241 32.8276 123.933 32.2839C124.441 31.8845 124.918 31.4466 125.358 30.9741C125.729 30.6529 126.108 30.2575 126.495 29.8703C126.572 30.0857 126.636 30.3058 126.685 30.5293C126.75 30.7302 126.765 30.9439 126.729 31.152C126.693 31.3601 126.607 31.5563 126.479 31.7238C126.396 31.9215 126.248 32.0533 126.223 32.251C126.035 32.7021 125.782 33.1238 125.474 33.503C125.095 33.8984 124.839 34.4256 124.452 34.8128C124.09 35.0764 123.793 35.34 123.497 35.5954L121.948 36.7651L121.652 37.0287C120.85 37.5055 120.074 38.0253 119.329 38.5855C119.068 38.7996 118.793 38.995 118.505 39.1704C117.047 40.1506 115.037 40.1177 114.839 41.9052C114.955 43.2314 114.988 42.9678 114.403 44.5577C114.452 44.7554 114.304 44.8872 114.345 45.0848C114.188 45.2825 114.246 45.3485 114.246 45.3485C113.933 45.7438 113.983 46.4687 113.81 46.8641C113.716 47.0069 113.585 47.1209 113.431 47.1936C113.356 47.2595 113.291 47.2595 113.216 47.3254C112.867 47.7134 112.55 48.1294 112.269 48.5693C111.361 49.6893 110.345 50.7184 109.238 51.6419C109.049 51.8745 108.845 52.0946 108.628 52.3008C108.238 52.6566 107.774 52.9211 107.269 53.0752C107.195 53.1411 107.121 53.1411 107.113 53.207C106.752 53.5849 106.277 53.8338 105.762 53.9154C105.622 53.9813 105.613 54.0472 105.473 54.1131C105.959 53.4623 106.412 53.001 106.882 52.4821ZM104.888 46.9383C104.412 47.1203 104.017 47.4684 103.776 47.9185C103.584 48.248 103.319 48.5296 103.002 48.7423C102.701 48.9709 102.442 49.2495 102.236 49.566C102.169 49.9283 102.061 50.282 101.915 50.6204C101.824 50.7464 101.776 50.8977 101.776 51.0529C101.776 51.208 101.824 51.3593 101.915 51.4853C102.145 51.8231 102.384 52.0867 102.615 52.4244C102.722 52.5127 102.859 52.556 102.997 52.5453C103.136 52.5345 103.264 52.4705 103.356 52.3667C103.645 52.1773 103.867 51.9796 104.238 51.716C104.608 51.4524 104.839 51.1311 105.136 50.8922C105.805 50.4297 106.367 49.8285 106.783 49.1294C106.912 48.992 107.02 48.8366 107.104 48.6681C107.493 48.1318 107.827 47.5578 108.101 46.9548C108.392 46.3345 108.642 45.6962 108.851 45.0437C108.917 45.0437 108.933 44.9119 108.941 44.846C109.18 42.729 106.429 45.7356 105.531 46.4935C105.358 46.6971 105.133 46.8507 104.88 46.9383H104.888Z" fill="#454545"/>
<path d="M146.512 30.7768C146.463 31.1722 146.265 31.1722 146.29 31.5017C146.019 32.3616 145.658 33.1901 145.211 33.9729C144.692 35.0273 144.098 36.0817 143.563 37.1361C142.822 38.3223 142.105 39.3684 141.372 40.4887C141.051 40.95 137.451 44.8792 137.088 45.1346C136.149 45.7194 134.477 47.4246 133.612 47.9353C132.605 48.4007 131.553 48.7649 130.474 49.0227C129.606 49.1167 128.728 49.0806 127.871 48.9156C126.487 48.6932 124.642 46.6091 124.123 45.2746C123.805 44.7048 123.556 44.0992 123.381 43.4706C123.216 42.3944 123.161 41.3042 123.217 40.2168C123.843 34.6484 124.601 33.8658 126.816 28.5197C127.006 28.0584 127.121 27.696 127.302 27.2017C127.452 26.7487 127.636 26.3081 127.854 25.8837C128.143 25.1506 128.423 24.4257 128.678 23.7667C129.181 22.3169 131.207 19.821 129.634 19.4668C129.172 19.3927 128.81 19.4668 128.406 19.1208C128.003 18.7749 127.648 18.6431 127.278 18.3712C127.094 18.2211 126.976 18.0055 126.948 17.7699C127.056 17.7092 127.173 17.6648 127.294 17.6381L130.111 17.0862C130.763 16.9707 131.42 16.8909 132.08 16.8473C132.234 16.8242 132.381 16.7652 132.508 16.6751C132.636 16.5849 132.74 16.4662 132.813 16.3283C133.122 15.8196 133.397 15.2913 133.637 14.7468C134.461 13.5029 135.07 12.1849 135.935 10.9987C136.662 9.98162 137.512 9.05762 138.464 8.24744C138.627 8.06207 138.803 7.88864 138.991 7.72848C139.116 7.62547 139.262 7.54957 139.418 7.50561C139.573 7.46165 139.737 7.45059 139.897 7.47312C140.285 7.61316 140.721 7.42369 141.174 7.47312C141.24 7.47312 141.24 7.47312 141.314 7.40722C142.278 7.22599 142.566 7.62139 142.756 8.35452C143.007 9.03596 143.083 9.76944 142.978 10.488C142.941 10.8412 142.941 11.1974 142.978 11.5506C143.013 11.8623 142.976 12.1777 142.871 12.4732C142.772 12.8027 142.665 13.1405 142.55 13.5359L141.973 15.1174C141.961 15.2996 141.916 15.478 141.841 15.6446C142.039 15.7644 142.27 15.8165 142.5 15.7929L144.972 15.6282L148.456 15.6776C148.875 15.7254 149.29 15.7997 149.7 15.9C149.603 16.0352 149.499 16.1645 149.387 16.2872C149.234 16.4178 149.065 16.5285 148.884 16.6166C148.39 16.8061 147.83 17.0615 147.336 17.2592C147.334 17.2774 147.325 17.2942 147.311 17.3063C147.298 17.3185 147.28 17.3252 147.262 17.3251C146.478 17.4884 145.681 17.5848 144.881 17.6134C144.398 17.6135 143.916 17.6743 143.448 17.7946C143.159 17.8883 142.86 17.9518 142.558 17.9841L140.993 18.1571C140.862 18.1963 140.741 18.2629 140.637 18.3523C140.533 18.4417 140.45 18.552 140.392 18.676C140.317 18.7419 140.309 18.8078 140.235 18.8737C139.181 21.1143 137.871 23.2231 136.751 25.3977C136.596 25.6276 136.455 25.8669 136.331 26.1144C135.929 26.7414 135.585 27.403 135.301 28.0914C135.01 28.6995 134.654 29.274 134.238 29.8048C133.917 30.2661 133.917 30.8591 133.53 31.3204C132.24 34.2372 131.407 37.335 131.059 40.5052C131.024 41.5365 131.132 42.5678 131.38 43.5695C131.509 43.8677 131.681 44.1453 131.891 44.3932C131.965 44.3932 132.022 44.4674 132.154 44.4674C132.99 44.5665 133.837 44.4649 134.625 44.1708C135.062 43.9155 137.253 42.3504 137.69 42.0291C139.344 40.6172 140.849 39.0382 142.179 37.3173C142.912 36.197 143.415 34.7472 144.131 33.6928C144.477 33.0338 145.309 31.5841 145.729 30.8674C146.1 30.8344 146.594 30.5791 146.512 30.7768ZM137.237 20.8177C138.06 19.1703 138.439 17.8523 136.075 19.1703C135.087 21.3449 134.65 22.8606 133.81 24.9364C131.718 30.4226 134.329 26.345 135.54 23.9068C136.041 22.8428 136.607 21.8111 137.237 20.8177V20.8177ZM140.169 13.2311C140.268 12.9675 140.375 12.638 140.474 12.3085C140.606 11.773 140.795 11.2459 140.927 10.7187C141.036 10.1295 141.081 9.53002 141.059 8.93115C141.059 8.65931 140.828 8.59341 140.68 8.72521C140.396 8.8721 140.162 9.09818 140.004 9.37596C139.666 9.91391 139.389 10.4888 139.181 11.0893C139.09 11.287 138.934 11.4847 138.843 11.6824C138.752 11.8801 138.514 12.2096 138.341 12.5062C138.135 13.1652 137.92 13.8901 137.64 14.6232C137.171 16.3366 139.041 16.4354 139.576 15.2492C139.749 14.6067 139.955 13.9477 140.169 13.2228V13.2311Z" fill="#454545"/>
<path d="M152.583 31.0648C152.56 31.139 152.521 31.2072 152.468 31.2642C152.415 31.3212 152.35 31.3657 152.278 31.3943C152.217 31.4287 152.164 31.4759 152.122 31.5328C152.081 31.5897 152.053 31.6549 152.039 31.7238C151.94 31.9874 151.866 32.0533 151.66 32.1192C151.454 32.1851 151.512 32.2427 151.397 32.6464C151.528 32.6464 151.603 32.6464 151.66 32.7123V32.7782H151.191C151.264 32.6115 151.306 32.4328 151.314 32.251H151.182C151.067 32.7123 150.944 33.1736 150.828 33.6349C150.952 33.709 151.009 33.7749 151.075 33.7749C151.085 34.2185 151.057 34.6621 150.993 35.1011C150.96 35.504 151.004 35.9096 151.125 36.2956C151.298 36.5674 151.668 38.0337 151.841 38.2973C152.665 39.2363 153.678 40.4472 154.741 40.5296C155.631 40.5019 156.518 40.4055 157.393 40.2413C159.151 39.7336 160.809 38.9284 162.295 37.8607C163.53 37.0369 164.716 36.0402 165.96 35.1258L166.183 34.9282C166.636 34.4751 167.081 34.1044 167.534 33.6266C168.354 32.9282 169.115 32.1622 169.807 31.3366C170.008 30.9804 170.325 30.704 170.705 30.5541C170.528 31.1295 170.285 31.6824 169.98 32.2016C169.884 32.4013 169.75 32.5804 169.585 32.7288C169.145 33.1398 168.755 33.6016 168.423 34.1044C168.193 34.3598 167.896 34.6234 167.665 34.8869C167.554 35.013 167.45 35.145 167.352 35.2824C167.558 35.2165 167.698 35.1505 167.904 35.0929C167.797 35.4883 167.451 35.546 167.352 35.8754C167.41 35.9413 167.402 36.0155 167.525 36.0814C167.308 36.3861 167.053 36.6628 166.768 36.9051C166.317 37.2423 165.892 37.6141 165.499 38.0172C164.83 38.6319 164.117 39.1963 163.366 39.7058C163.04 39.9655 162.699 40.2048 162.344 40.4225C162.056 40.6202 161.767 40.7438 161.479 40.9415C161.041 41.1291 160.614 41.3437 160.202 41.584C159.505 41.9778 158.748 42.256 157.962 42.4077L157.336 42.5972C156.531 42.8334 155.702 42.9771 154.865 43.0255C152.947 42.9185 151.049 42.5783 149.214 42.0123C146.973 41.0486 146.627 39.9118 145.663 38.9645C145.28 38.5772 145.01 38.0932 144.881 37.5641C144.685 36.6469 144.633 35.705 144.724 34.7716C145.002 32.6912 145.709 30.6911 146.8 28.8984C146.909 28.7589 146.987 28.598 147.03 28.4263C147.072 28.2546 147.078 28.0758 147.047 27.9016C146.712 28.0355 146.443 28.2959 146.298 28.6265C146.012 29.2209 145.679 29.7911 145.301 30.3317C145.407 29.8102 145.62 29.3165 145.927 28.8819C146.588 27.7036 147.346 26.5822 148.192 25.5293C149.034 24.4399 149.977 23.4332 151.009 22.5226C152.007 21.5722 153.113 20.7427 154.304 20.0514C154.584 19.9196 154.799 19.8537 155.013 19.7301C155.359 19.5983 155.705 19.5407 155.837 19.8702C156.01 20.0761 156.29 20.0102 156.405 20.1502C156.52 20.2903 156.627 20.5456 156.751 20.6856C157.385 21.0234 159.856 21.7236 160.408 22.1354C160.597 22.3186 160.734 22.549 160.804 22.8027C160.999 23.3992 161.297 23.9568 161.685 24.4502C161.796 24.6334 161.867 24.8385 161.891 25.0515C161.964 25.858 161.872 26.671 161.619 27.4403C161.342 28.3663 160.904 29.2362 160.326 30.0104C159.99 30.4439 159.69 30.904 159.428 31.386C159.202 31.854 158.926 32.2959 158.604 32.704C158.302 33.185 157.828 33.5326 157.278 33.676C156.876 33.867 156.424 33.9302 155.985 33.8573C155.795 33.7914 155.581 33.8573 155.482 33.5854C155.484 33.5772 155.483 33.5688 155.481 33.5608C155.478 33.5529 155.474 33.5455 155.469 33.5392C155.463 33.533 155.456 33.528 155.449 33.5246C155.441 33.5212 155.433 33.5195 155.425 33.5196C154.881 33.5772 154.601 32.9759 154.23 32.77C154.168 32.6682 154.134 32.5516 154.131 32.4322C154.296 32.1686 154.181 32.0368 154.131 31.8391C153.935 31.2776 153.706 30.7275 153.448 30.1916C153.407 29.9939 153.217 29.9198 152.986 30.1175C152.929 30.4058 152.624 30.7024 152.583 31.0648ZM145.548 36.9381C145.589 37.1358 145.639 37.2676 145.688 37.4653C145.737 37.663 145.853 37.803 145.688 38.0666C145.622 37.9925 145.556 37.9925 145.564 37.9348C145.334 37.1571 145.223 36.3488 145.235 35.5377C145.177 35.4718 145.235 35.4059 145.235 35.34C145.307 34.3459 145.509 33.3656 145.836 32.424C145.935 32.2388 146.002 32.0383 146.034 31.8309L146.092 31.3696C145.891 31.6591 145.72 31.9682 145.581 32.2922C145.482 32.6217 145.383 32.8853 145.276 33.2148C144.751 34.7415 144.751 36.3998 145.276 37.9266C145.4 38.1868 145.552 38.4327 145.729 38.6597C145.845 38.7932 145.996 38.8905 146.166 38.9398C146.166 39.0057 146.232 38.9398 146.372 38.9398C146.199 38.6399 146.053 38.3257 145.935 38.0007C145.779 37.6053 145.828 37.177 145.663 36.8722C145.62 36.8839 145.58 36.9066 145.548 36.9381V36.9381ZM146.026 32.6958C145.639 33.6629 145.476 34.7047 145.548 35.7436C145.548 35.8095 145.606 35.8096 145.663 35.8754C145.812 35.1506 145.96 34.4833 146.1 33.8243C146.26 33.4007 146.289 32.9384 146.182 32.4981C146.108 32.564 146.034 32.6299 146.026 32.6958ZM150.589 34.4257C150.585 34.4695 150.585 34.5136 150.589 34.5575C150.585 34.5136 150.585 34.4695 150.589 34.4257V34.4257ZM155.062 27.5227C154.865 27.7511 154.681 27.9904 154.51 28.2394C154.189 28.7007 154.222 29.0631 154.51 29.2361C154.725 29.3565 154.912 29.519 155.062 29.7139C155.408 30.1834 155.952 30.1175 156.496 30.0681C157 29.8635 157.421 29.4949 157.69 29.0219C158.283 27.9016 158.58 27.7039 159.107 26.5507C160.458 24.0795 158.283 24.6149 157.155 25.3975C156.38 26.0255 155.678 26.7384 155.062 27.5227V27.5227Z" fill="#454545"/>
<path d="M177.872 33.5771C179.028 31.3612 180.302 29.2082 181.686 27.1272C182.17 26.5407 182.622 25.9274 183.037 25.2902C183.498 24.7737 183.919 24.223 184.297 23.6427C184.428 23.4411 184.598 23.2683 184.798 23.1351C184.998 23.0019 185.223 22.9112 185.459 22.8684C185.928 22.8684 186.332 22.8108 186.736 22.819C187.559 22.819 187.947 23.4368 188.251 24.3017V24.5736C188.251 25.3973 188.383 26.3611 188.408 27.2919C188.401 28.1807 188.323 29.0676 188.177 29.9444C188.144 30.5434 188.078 31.1401 187.979 31.7319C188.292 31.9378 188.194 32.2014 188.268 32.1355C188.342 32.0696 188.861 32.2097 189.009 32.0861C189.157 31.9625 189.232 31.8884 189.314 31.7566C189.638 31.5542 189.937 31.3136 190.204 31.04C190.442 30.7105 190.64 30.7105 190.871 31.04C190.864 31.1474 190.832 31.2516 190.776 31.3435C190.72 31.4354 190.642 31.5122 190.55 31.5671C190.452 31.6628 190.371 31.7742 190.311 31.8967C190.268 31.9994 190.206 32.0925 190.126 32.1703C190.047 32.2482 189.953 32.3092 189.849 32.3497L189.627 32.5474C189.553 32.6133 189.413 32.6792 189.405 32.7451C189.396 32.811 189.265 32.811 189.19 32.8769C189.09 32.9803 188.97 33.0615 188.836 33.1155C188.703 33.1694 188.56 33.1947 188.416 33.1899C188.187 33.2272 187.97 33.3175 187.782 33.4535C187.568 33.5771 187.362 33.5771 187.246 33.4535C186.809 33.2413 186.358 33.0596 185.895 32.9098C185.496 32.7598 185.143 32.5059 184.874 32.1744C184.604 31.8429 184.428 31.4456 184.363 31.0235C184.137 29.7628 184.216 28.4663 184.594 27.2425C184.751 26.7004 184.881 26.1505 184.981 25.595C185.096 25.1996 185.203 24.7713 185.319 24.4088C185.462 24.1933 185.516 23.9301 185.467 23.6757C185.401 23.6757 185.269 23.6098 185.261 23.7416C185.146 23.8377 185.043 23.9485 184.956 24.0711C184.627 24.5983 184.231 25.1255 183.828 25.7186C183.573 26.0781 183.391 26.4838 183.292 26.913C183.292 27.1766 183.103 27.3743 183.012 27.572C182.272 28.6537 181.627 29.7975 181.085 30.9905C180.648 31.9131 180.088 32.7039 179.577 33.6265C178.819 35.0021 177.93 36.2542 177.304 37.7452C177.123 38.2065 176.793 38.7337 176.529 39.2609C175.749 40.6222 174.862 41.9195 173.877 43.1407C173.877 43.2725 173.655 43.3384 173.506 43.462C173.178 43.897 172.711 44.2079 172.183 44.3441C171.655 44.4802 171.097 44.4335 170.599 44.2116C170.45 44.3434 170.335 44.2116 170.211 44.0798C169.173 43.7997 168.745 42.7948 168.63 41.4685C168.594 40.3147 168.657 39.16 168.819 38.0171C169.083 36.2954 169.346 34.5738 169.643 32.8522C170.187 30.9329 169.907 31.0647 170.648 29.2854C171.406 26.7071 171.093 27.1025 172.295 24.5242C172.47 24.0935 172.674 23.6751 172.905 23.2721C173.506 22.0941 174.025 21.0397 174.684 19.9771C175.047 19.1534 175.335 18.9886 175.986 19.1534C176.544 19.1939 177.096 19.2933 177.633 19.4499C178.12 19.5313 178.566 19.7717 178.902 20.1336C179.331 20.9474 179.85 21.7101 180.45 22.4071C180.704 22.8883 180.837 23.4241 180.837 23.9681C180.837 24.5122 180.704 25.048 180.45 25.5291C179.964 26.8471 179.948 25.8504 179.454 27.2425C178.268 30.0103 176.414 32.1849 175.393 34.6562C174.042 37.7617 177.477 34.6974 177.872 33.5771Z" fill="#454545"/>
<path d="M51.2304 66.1256C52.0558 66.0996 52.859 66.3949 53.471 66.9493C53.7512 67.2142 53.9744 67.5334 54.1269 67.8875C54.2795 68.2416 54.3582 68.6231 54.3582 69.0087C54.3582 69.3943 54.2795 69.7758 54.1269 70.1299C53.9744 70.484 53.7512 70.8032 53.471 71.0681C52.859 71.6225 52.0558 71.9178 51.2304 71.8918H49.2205V66.1256H51.2304ZM50.6126 70.7715H51.2304C51.4615 70.783 51.6925 70.7456 51.9082 70.6619C52.1239 70.5782 52.3196 70.4499 52.4825 70.2855C52.7764 69.9122 52.9363 69.4509 52.9363 68.9757C52.9363 68.5006 52.7764 68.0393 52.4825 67.666C52.3196 67.5016 52.1239 67.3734 51.9082 67.2896C51.6925 67.2059 51.4615 67.1685 51.2304 67.18H50.6126V70.7715Z" fill="#454545"/>
<path d="M62.3999 66.1255V67.1799H60.3405V68.4072H62.161V69.4616H60.3405V70.7879H62.3999V71.8917H58.9402V66.1255H62.3999Z" fill="#454545"/>
<path d="M69.2619 67.1715C69.1067 67.1634 68.954 67.2133 68.8336 67.3116C68.7782 67.3609 68.7346 67.422 68.7061 67.4905C68.6776 67.5589 68.6649 67.6329 68.6688 67.707C68.6651 67.7839 68.677 67.8609 68.7039 67.9331C68.7308 68.0053 68.7721 68.0713 68.8253 68.1271C68.933 68.2411 69.0697 68.3236 69.2207 68.366C69.3937 68.4236 69.5749 68.4813 69.7809 68.5307C69.9847 68.5826 70.1854 68.6458 70.3822 68.7202C70.5754 68.7907 70.7604 68.8819 70.9341 68.992C71.1053 69.1094 71.2441 69.2681 71.3377 69.4533C71.4424 69.6744 71.4932 69.9172 71.486 70.1617C71.4871 70.3983 71.4352 70.6321 71.334 70.846C71.2327 71.0598 71.0849 71.2482 70.9012 71.3973C70.4645 71.7574 69.9096 71.9424 69.3443 71.9163C68.7901 71.9471 68.2426 71.784 67.7956 71.455C67.5992 71.2982 67.4429 71.0969 67.3397 70.8677C67.2366 70.6385 67.1896 70.388 67.2026 70.137H68.6853C68.6789 70.2298 68.6928 70.323 68.726 70.4099C68.7592 70.4969 68.8108 70.5756 68.8774 70.6406C68.944 70.7056 69.0239 70.7554 69.1116 70.7865C69.1994 70.8176 69.2928 70.8293 69.3855 70.8207C69.5564 70.8315 69.7248 70.7754 69.855 70.6642C69.9111 70.6133 69.9557 70.5509 69.9855 70.4812C70.0154 70.4116 70.0298 70.3363 70.028 70.2605C70.0298 70.1875 70.0169 70.1149 69.99 70.0469C69.9631 69.979 69.9228 69.9172 69.8715 69.8652C69.7576 69.753 69.6195 69.6685 69.4678 69.618C69.2868 69.5537 69.1026 69.4987 68.9159 69.4533C68.7082 69.4024 68.5044 69.3363 68.3064 69.2556C68.1158 69.185 67.9335 69.0939 67.7627 68.9838C67.5879 68.8741 67.4479 68.717 67.3591 68.5307C67.2487 68.3142 67.1949 68.0734 67.2026 67.8305C67.1942 67.5861 67.2435 67.3431 67.3465 67.1212C67.4496 66.8994 67.6034 66.705 67.7956 66.5537C68.2293 66.2218 68.7657 66.0528 69.3113 66.076C69.8412 66.0465 70.3658 66.1943 70.8023 66.4961C70.9993 66.6524 71.1559 66.8536 71.2591 67.0829C71.3623 67.3122 71.4091 67.5629 71.3954 67.814H69.8879C69.875 67.6377 69.8057 67.4702 69.6903 67.3363C69.5749 67.2269 69.4209 67.1676 69.2619 67.1715V67.1715Z" fill="#454545"/>
<path d="M76.3127 71.8917V66.1255H77.6966V71.8917H76.3127Z" fill="#454545"/>
<path d="M83.1587 71.0677C82.6152 70.5068 82.3113 69.7564 82.3113 68.9753C82.3113 68.1943 82.6152 67.4439 83.1587 66.8831C83.432 66.6138 83.7565 66.4022 84.1131 66.2607C84.4697 66.1192 84.851 66.0507 85.2345 66.0593C85.8384 66.0486 86.4308 66.224 86.9315 66.5618C87.4231 66.8987 87.7861 67.3924 87.9611 67.9622H86.3136C86.22 67.7666 86.0709 67.6029 85.8848 67.4916C85.6988 67.3802 85.4841 67.3262 85.2675 67.3361C85.0597 67.325 84.852 67.359 84.6586 67.4358C84.4652 67.5126 84.2908 67.6303 84.1472 67.7809C83.88 68.1217 83.7348 68.5423 83.7348 68.9753C83.7348 69.4084 83.88 69.829 84.1472 70.1698C84.2867 70.3189 84.4569 70.4359 84.6461 70.5127C84.8352 70.5895 85.0388 70.6243 85.2428 70.6146C85.5378 70.6314 85.8294 70.5439 86.0665 70.3675C86.2795 70.2039 86.4282 69.9706 86.4866 69.7085H84.8392V68.6541H87.9364V69.7085C87.8179 70.2651 87.5302 70.7715 87.1127 71.1582C86.8771 71.3885 86.5967 71.568 86.2889 71.6855C85.9579 71.8246 85.6019 71.8947 85.2428 71.8914C84.8579 71.9011 84.475 71.8331 84.1169 71.6916C83.7589 71.5501 83.433 71.3379 83.1587 71.0677Z" fill="#454545"/>
<path d="M96.2973 66.1255H97.6812V71.8917H96.2973L93.9662 68.2919V71.8917H92.5823V66.1255H93.9662L96.2973 69.7252V66.1255Z" fill="#454545"/>
<path d="M110.721 67.1717C110.568 67.1624 110.417 67.2126 110.301 67.3118C110.242 67.359 110.196 67.4196 110.166 67.4884C110.136 67.5572 110.123 67.6322 110.128 67.7072C110.124 67.8622 110.18 68.0126 110.284 68.1273C110.396 68.2398 110.535 68.322 110.688 68.3662C110.869 68.4305 111.053 68.4855 111.24 68.5309C111.446 68.5828 111.65 68.646 111.849 68.7204C112.04 68.7909 112.222 68.8821 112.393 68.9922C112.566 69.1074 112.706 69.2666 112.797 69.4535C112.908 69.6726 112.962 69.9163 112.953 70.1619C112.955 70.3994 112.902 70.634 112.799 70.8481C112.696 71.0622 112.546 71.2501 112.36 71.3975C111.928 71.7592 111.375 71.9445 110.811 71.9165C110.255 71.9425 109.707 71.7799 109.255 71.4552C109.061 71.2967 108.907 71.0949 108.805 70.8659C108.703 70.637 108.657 70.3874 108.67 70.1372H110.177C110.172 70.2297 110.187 70.3222 110.221 70.4085C110.254 70.4949 110.306 70.573 110.372 70.6377C110.439 70.7024 110.518 70.7522 110.605 70.7838C110.692 70.8154 110.785 70.8281 110.877 70.8209C110.962 70.8276 111.047 70.8172 111.128 70.7904C111.209 70.7635 111.283 70.7206 111.347 70.6644C111.403 70.6135 111.448 70.5511 111.477 70.4814C111.507 70.4118 111.522 70.3365 111.52 70.2608C111.524 70.1875 111.512 70.1142 111.485 70.046C111.458 69.9778 111.416 69.9162 111.363 69.8654C111.254 69.7516 111.118 69.6667 110.968 69.6182C110.784 69.554 110.597 69.499 110.408 69.4535C110.203 69.4026 110.002 69.3365 109.807 69.2558C109.613 69.1852 109.428 69.0941 109.255 68.984C109.082 68.872 108.942 68.7155 108.851 68.5309C108.747 68.3124 108.696 68.0725 108.703 67.8307C108.694 67.5863 108.744 67.3433 108.847 67.1214C108.95 66.8996 109.104 66.7052 109.296 66.5539C109.729 66.2214 110.266 66.0523 110.811 66.0762C111.341 66.048 111.865 66.1957 112.302 66.4963C112.499 66.6526 112.656 66.8538 112.759 67.0831C112.862 67.3125 112.909 67.5631 112.896 67.8142H111.38C111.375 67.6361 111.305 67.466 111.182 67.3365C111.121 67.2778 111.049 67.2327 110.969 67.2043C110.89 67.1758 110.805 67.1647 110.721 67.1717V67.1717Z" fill="#454545"/>
<path d="M117.385 67.2128V66.1255H121.891V67.1799H120.326V71.8917H118.934V67.2458L117.385 67.2128Z" fill="#454545"/>
<path d="M126.413 69.5605V66.1255H127.805V69.5275C127.778 69.8251 127.87 70.1213 128.061 70.3513C128.157 70.4462 128.272 70.5195 128.398 70.5664C128.524 70.6133 128.659 70.6326 128.794 70.6231C128.931 70.6329 129.068 70.6137 129.198 70.5669C129.327 70.52 129.445 70.4466 129.543 70.3513C129.639 70.2381 129.712 70.107 129.757 69.9657C129.803 69.8243 129.819 69.6754 129.807 69.5275V66.1255H131.199V69.5275C131.209 69.9865 131.086 70.4384 130.845 70.829C130.631 71.1842 130.319 71.4702 129.947 71.6528C129.577 71.8198 129.175 71.9042 128.769 71.8999C128.162 71.9103 127.573 71.6894 127.122 71.2821C126.886 71.0634 126.701 70.7962 126.579 70.499C126.456 70.2018 126.4 69.8816 126.413 69.5605V69.5605Z" fill="#454545"/>
<path d="M138.11 66.1258C138.938 66.0985 139.744 66.3938 140.359 66.9495C140.636 67.2162 140.856 67.536 141.007 67.8899C141.157 68.2437 141.235 68.6243 141.235 69.0089C141.235 69.3934 141.157 69.774 141.007 70.1278C140.856 70.4817 140.636 70.8015 140.359 71.0682C139.744 71.6239 138.938 71.9192 138.11 71.8919H136.108V66.1258H138.11ZM137.492 70.7717H138.11C138.341 70.7831 138.572 70.7458 138.788 70.662C139.003 70.5783 139.199 70.45 139.362 70.2856C139.66 69.9142 139.823 69.4522 139.823 68.9759C139.823 68.4996 139.66 68.0376 139.362 67.6661C139.201 67.4991 139.006 67.3692 138.789 67.2852C138.573 67.2013 138.341 67.1654 138.11 67.1801H137.492V70.7717Z" fill="#454545"/>
<path d="M145.837 71.8917V66.1255H147.245V71.8917H145.837Z" fill="#454545"/>
<path d="M152.691 71.0676C152.417 70.7926 152.203 70.4642 152.061 70.1029C151.919 69.7415 151.853 69.355 151.867 68.9671C151.852 68.5802 151.917 68.1943 152.059 67.8341C152.2 67.4738 152.416 67.1471 152.691 66.8748C153.251 66.356 153.987 66.0679 154.75 66.0679C155.514 66.0679 156.249 66.356 156.81 66.8748C157.228 67.2829 157.514 67.8068 157.631 68.379C157.749 68.9513 157.692 69.5456 157.469 70.0854C157.246 70.6252 156.866 71.0857 156.378 71.4076C155.891 71.7295 155.318 71.898 154.734 71.8914C154.356 71.8969 153.98 71.8269 153.629 71.6854C153.279 71.544 152.96 71.334 152.691 71.0676V71.0676ZM155.862 70.1615C156.124 69.8184 156.266 69.3987 156.266 68.9671C156.266 68.5354 156.124 68.1158 155.862 67.7726C155.721 67.6242 155.549 67.5077 155.359 67.431C155.168 67.3543 154.964 67.3191 154.759 67.3278C154.555 67.3192 154.352 67.3545 154.163 67.4312C153.974 67.508 153.803 67.6244 153.663 67.7726C153.396 68.1134 153.251 68.534 153.251 68.9671C153.251 69.4001 153.396 69.8207 153.663 70.1615C153.803 70.3097 153.974 70.4262 154.163 70.5029C154.352 70.5796 154.555 70.6149 154.759 70.6063C154.962 70.6182 155.165 70.5869 155.356 70.5145C155.546 70.4421 155.719 70.3302 155.862 70.1862V70.1615Z" fill="#454545"/>
</svg>
