<svg width="118" height="72" viewBox="0 0 118 72" fill="none" xmlns="http://www.w3.org/2000/svg">
<path d="M54.0655 38.9272C54.0655 38.1005 54.7597 36.7066 55.3745 37.1359C54.7597 36.7066 54.7597 36.7119 54.8763 35.546C55.2844 35.8322 55.6766 34.9577 55.9363 34.4277C55.3692 34.6556 54.9558 35.2068 54.1237 36.288C54.3622 37.9203 51.6011 39.1869 51.9508 40.7875C52.6557 40.231 53.7369 39.9501 54.0655 38.9272Z" fill="#C3D8CC"/>
<path d="M59.8312 35.9489L59.6827 35.6362L58.9143 37.7243C58.9461 37.2209 59.5026 35.8217 59.8312 35.9489Z" fill="#C3D8CC"/>
<path d="M62.9269 29.589C63.2766 30.0501 64.1458 29.2975 64.5539 29.589C63.6158 29.022 65.3065 27.9991 65.7305 27.1564L65.2482 26.3721C64.22 26.7961 63.1283 28.9001 62.01 30.5271L62.9269 29.589Z" fill="#C3D8CC"/>
<path d="M64.4267 28.4494L64.3207 27.6279C64.1511 28.1473 63.5576 29.202 64.4267 28.4494Z" fill="#C3D8CC"/>
<path d="M61.215 27.9572C60.3035 29.2291 62.0312 27.3636 61.3264 28.7787C61.4906 28.2593 61.7927 27.7293 61.215 27.9572Z" fill="#C3D8CC"/>
<path d="M66.271 23.4727C65.741 24.4513 65.2269 25.4371 64.7288 26.4299L65.7887 25.5024L66.271 23.4727Z" fill="#C3D8CC"/>
<path d="M67.8395 24.3525C67.5904 24.7023 66.9545 25.0785 67.0658 24.4108C68.2741 23.8225 67.9455 22.6937 69.0426 22.1372L68.661 23.1494C69.3076 23.4462 69.3606 20.9606 70.3357 21.7556C70.4894 20.1074 68.8412 21.9782 69.456 20.1392C68.6599 21.4195 67.6976 22.5886 66.5941 23.6158C66.962 23.4074 67.3067 23.1605 67.6223 22.8792C67.0446 23.743 66.5623 25.1051 65.9475 26.1544C66.9757 26.059 66.8856 24.9196 67.8395 24.3525Z" fill="#C3D8CC"/>
<path d="M71.0676 20.2564C71.8042 19.4243 72.8748 18.1047 72.3554 17.2832C71.0888 17.7708 71.5816 18.4491 71.5551 19.101C71.2212 19.2653 70.4952 20.1027 70.3733 19.4455C70.633 19.4349 70.4846 20.4366 71.0676 20.2564Z" fill="#C3D8CC"/>
<path d="M73.9294 16.9912L73.8234 15.8306L73.5743 16.3394L73.0814 15.9949C73.1344 16.1645 73.7068 17.1714 72.9436 17.9717C73.6856 17.8021 73.3941 17.3039 73.9294 16.9912Z" fill="#C3D8CC"/>
<path d="M70.977 14.0924C71.7879 13.7585 71.9257 13.271 72.3603 12.4336C71.5547 13.4194 70.3941 14.7496 70.3941 15.2796L70.3463 15.1047C70.0926 15.8122 69.9323 16.5498 69.8694 17.2988C70.198 15.9314 72.3603 14.792 70.977 14.0924Z" fill="#C3D8CC"/>
<path d="M69.8645 15.2798L70.0871 14.2622L69.8645 15.2798Z" fill="#C3D8CC"/>
<path d="M76.054 14.3203C75.5982 14.6595 75.1636 15.0252 74.7131 15.3803L75.1795 15.2478C75.471 14.9351 75.7519 14.6171 76.054 14.3203Z" fill="#C3D8CC"/>
<path d="M72.8162 14.1351C73.8496 13.1705 71.8092 14.2676 72.7155 13.2924C72.8798 12.9585 71.417 14.7658 71.6555 15.1155C71.9841 14.9459 72.1908 13.7747 72.8162 14.1351Z" fill="#C3D8CC"/>
<path d="M76.8704 13.5784C77.0453 13.1014 77.2148 12.6085 77.4003 12.1475C77.2148 12.6297 77.0453 13.1014 76.8704 13.5784Z" fill="#C3D8CC"/>
<path d="M79.6316 11.4743L79.5415 10.9443C80.1693 10.5648 80.7571 10.1227 81.2957 9.62464C81.5414 9.3893 81.8315 9.20528 82.149 9.08334C82.4666 8.9614 82.8053 8.90399 83.1453 8.91445C82.6154 8.61237 82.9174 7.65311 81.8787 8.25198C81.9105 8.60177 81.5766 8.85617 81.8416 9.08936C81.3805 9.31195 81.2162 8.93566 80.8505 9.02576C80.4742 9.94262 79.2288 10.5574 78.9956 11.3471C79.1811 11.0397 79.3189 11.0715 79.5256 10.9443C78.9585 12.4865 77.4852 11.3152 77.8986 12.6826C78.0257 12.0625 79.2553 12.0625 79.6316 11.4743Z" fill="#C3D8CC"/>
<path d="M77.5057 9.29645L76.4829 10.0278C76.361 9.32296 77.5428 8.96787 77.3732 8.4379C77.0765 8.2153 76.0377 8.96787 76.2126 8.4379C77.0447 9.56675 75.0096 9.67804 76.5518 10.3564C75.4918 11.5913 75.5819 10.0702 74.4319 11.3422L74.628 12.2007C75.6932 10.6002 76.3875 10.8599 77.5057 9.29645Z" fill="#C3D8CC"/>
<path d="M81.3588 6.42397L82.122 6.4505L81.4754 6.106C81.9947 5.71994 82.5913 5.45058 83.2243 5.31634C83.8071 5.21801 84.399 5.18424 84.9891 5.21564C86.1021 5.21564 87.0773 5.40642 87.692 4.87115C88.0089 4.46906 88.4281 4.1597 88.9057 3.9755C89.3621 3.79497 89.8365 3.66349 90.3207 3.58331C90.8136 3.53561 91.3171 3.50382 91.8047 3.44022C92.0487 3.41294 92.2911 3.37224 92.5307 3.31832C92.7769 3.2862 93.0198 3.23302 93.2568 3.15933C94.0889 2.40147 92.2498 3.02684 92.0644 2.76715C92.0644 1.59591 93.1561 3.09574 93.3893 2.10468C93.3893 1.6966 92.7957 1.61181 92.0855 1.57471C91.4084 1.65324 90.726 1.67626 90.0451 1.64359C89.3032 1.99338 89.4198 2.26898 89.3562 2.76715C89.0117 2.42797 88.2008 2.61875 87.8298 2.29016C87.2854 2.77673 86.6246 3.11445 85.9113 3.27062C85.1925 3.39539 84.5503 3.79443 84.12 4.38358C83.3621 4.13449 85.1217 3.63631 84.6023 3.8536L83.8391 4.33588L83.9716 4.37298C83.7641 4.67981 83.5018 4.94571 83.1978 5.15734C82.8755 5.4064 82.5293 5.62298 82.1644 5.80391C81.5486 6.10761 80.9018 6.34394 80.2353 6.50879C80.85 6.2915 81.4807 6.43989 81.0302 7.03877L80.1293 6.84268C79.9332 7.44155 79.7212 8.0086 79.5569 8.60748C80.0445 7.33023 81.9471 7.60052 81.3588 6.42397Z" fill="#C3D8CC"/>
<path d="M79.2075 6.48779C77.4798 7.38345 80.0237 7.14497 78.2483 8.22083L79.0433 7.48946L79.8753 6.79519L79.2075 6.48779Z" fill="#C3D8CC"/>
<path d="M87.7561 3.15898L88.8161 3.24907C88.6593 3.12697 88.4613 3.07037 88.2636 3.09112C88.066 3.11187 87.8841 3.20838 87.7561 3.36038C87.507 3.58827 87.4593 3.74196 87.7561 3.15898Z" fill="#C3D8CC"/>
<path d="M90.9251 1.94531L90.7502 2.94696L91.4021 2.205L90.9251 1.94531Z" fill="#C3D8CC"/>
<path d="M94.1422 2.22033C94.7093 1.62145 93.8507 1.42536 93.0823 1.69035C93.803 1.58965 94.2429 1.89174 94.1422 2.22033Z" fill="#C3D8CC"/>
<path d="M99.0398 3.43506C98.3402 3.46686 98.6529 3.50925 99.0398 3.64705C99.4267 3.78484 99.7871 4.09223 99.2995 4.47911C99.4426 4.10283 100.163 3.62055 99.0398 3.43506Z" fill="#C3D8CC"/>
<path d="M103.115 5.94676C102.649 6.00506 102.49 5.84075 102.463 5.61816C102.589 5.62093 102.713 5.65187 102.826 5.70872C102.939 5.76557 103.038 5.8469 103.115 5.94676Z" fill="#C3D8CC"/>
<path d="M86.3414 6.33398C86.1996 6.43144 86.0488 6.51488 85.8909 6.58309L86.3414 6.33398Z" fill="#C3D8CC"/>
<path d="M86.6379 6.17432L86.3411 6.3333C86.4361 6.27336 86.5353 6.22024 86.6379 6.17432V6.17432Z" fill="#C3D8CC"/>
<path d="M96.9562 4.85537L96.845 4.78125L96.9562 4.85537Z" fill="#C3D8CC"/>
<path d="M62.5183 32.4722C62.4304 32.6896 62.3203 32.8974 62.1897 33.0922C62.2957 32.8855 62.407 32.6789 62.5077 32.4775L62.5183 32.4722Z" fill="#C3D8CC"/>
<path d="M61.0295 32.4829C61.1991 31.1261 62.8845 32.1013 63.6105 30.1934C63.2819 30.9406 62.9056 31.6985 62.5082 32.4776C61.1355 32.9598 62.5824 31.4706 61.0295 32.4829Z" fill="#C3D8CC"/>
<path d="M69.6946 18.0407C69.6946 18.0142 69.6946 17.9983 69.6946 17.9665C69.7687 17.85 69.7528 17.9295 69.6946 18.0407Z" fill="#C3D8CC"/>
<path d="M23.2477 69.1304L23.2636 69.3795L22.1135 69.1622L23.2477 69.1304Z" fill="#C3D8CC"/>
<path d="M23.4596 69.5596C24.122 69.6391 24.7845 69.6603 25.4576 69.708C21.6111 70.5554 17.6209 70.5028 13.7981 69.5543L14.2539 69.3264C14.2539 69.2681 14.3863 69.2734 14.6354 69.3264C14.8845 69.3794 15.2555 69.3953 15.6954 69.4695C16.1353 69.5437 16.6388 69.6709 17.1952 69.708L18.9336 69.8829C21.3132 70.0048 23.6557 69.7239 23.4596 69.5596Z" fill="#C3D8CC"/>
<path d="M23.9475 69.0932C24.8432 67.8848 25.8289 69.1886 26.9631 68.1074C26.6406 68.4411 26.3009 68.7577 25.9455 69.0561C25.6088 69.3002 25.1929 69.4098 24.7796 69.3635L23.9475 69.0932Z" fill="#C3D8CC"/>
<path d="M27.5559 63.0833C27.6241 63.0451 27.6972 63.0166 27.7732 62.9985C27.7095 63.0679 27.6493 63.1404 27.593 63.2158L27.5559 63.0833Z" fill="#C3D8CC"/>
<path d="M27.5937 63.2163L27.6997 63.5608C27.493 63.5078 27.5036 63.3594 27.5937 63.2163Z" fill="#C3D8CC"/>
<path d="M27.7737 62.9774C27.9407 62.8243 28.082 62.6453 28.1924 62.4474H27.9698C28.2189 62.2778 28.5739 61.7956 28.7753 61.9175C28.2453 62.0871 28.3142 62.3255 28.4785 62.7972L29.3795 62.4792C29.6657 63.6664 28.5898 62.829 27.7737 62.9774Z" fill="#C3D8CC"/>
<path d="M32.0551 61.5947C31.9438 61.8756 31.0429 62.2678 31.7159 62.2678C31.6312 62.4586 31.4509 62.5275 31.2708 62.6176C31.7901 62.1618 30.8627 61.7431 32.0551 61.5947Z" fill="#C3D8CC"/>
<path d="M31.2714 62.6167C31.1958 62.6794 31.1141 62.7344 31.0276 62.781C31.0992 62.7132 31.1816 62.6577 31.2714 62.6167V62.6167Z" fill="#C3D8CC"/>
<path d="M34.1594 61.1651C34.2732 61.1014 34.383 61.0305 34.488 60.9531C34.3979 61.022 34.3184 61.0962 34.2442 61.1598L34.1594 61.1651Z" fill="#C3D8CC"/>
<path d="M1.27466 63.1576C1.76471 63.8933 2.29552 64.601 2.86459 65.2775C3.22249 65.6273 3.60312 65.953 4.00402 66.2526C4.45814 66.6128 4.95044 66.922 5.47206 67.1748C5.93314 66.4593 6.43132 67.5511 7.06199 66.8886C6.53202 66.5653 6.77581 66.7031 7.39588 67.0688C7.54958 67.1589 7.72447 67.2755 7.92586 67.3762L8.60421 67.6836C9.08649 67.8955 9.61647 68.1499 10.1623 68.3619C12.3882 69.1675 14.7413 69.4219 13.8722 69.0191L13.2256 69.2364C13.5012 69.0085 13.7556 68.7806 14.0259 68.5474C14.564 68.8728 15.1215 69.1648 15.6953 69.4219C16.2783 69.6657 16.8454 69.8459 17.2534 69.6074C17.2534 69.6392 17.1474 69.6551 16.8984 69.6551C16.6493 69.6551 16.2942 69.5862 15.8384 69.5173C15.3826 69.4484 14.8844 69.3795 14.3492 69.2364L12.6639 68.7594C12.0915 68.5898 11.5509 68.3301 11.0315 68.134L10.2896 67.8372L9.65889 67.5193C8.88513 67.1218 8.38692 66.8886 8.43992 66.9893C8.37632 66.666 9.1077 66.8462 10.2048 67.2702C10.7347 67.4822 11.4502 67.6465 12.171 67.8956C12.5448 68.0237 12.9274 68.1246 13.3157 68.1976L14.5188 68.4732C15.3349 68.6269 16.1723 68.7117 16.9513 68.823L19.1349 68.8972C20.428 68.8124 21.3184 68.7329 21.3979 68.6057L21.5728 69.1357C22.2873 68.8177 22.9719 68.4363 23.6185 67.9962C24.157 67.5744 24.7336 67.2036 25.3409 66.8886L25.7755 67.4557C24.7579 67.4557 24.583 67.9061 23.6026 68.3725C24.2197 68.2166 24.8529 68.1331 25.4893 68.1234C26.0328 68.1066 26.5698 68.001 27.0792 67.8107C26.8036 67.0052 25.8603 67.6995 27.3654 66.8197C27.6516 66.931 27.588 67.2755 27.6251 67.5299C27.6622 67.7843 27.8212 67.9591 28.5314 67.6094C28.8293 67.5828 29.1159 67.4821 29.3649 67.3164C29.6139 67.1507 29.8175 66.9253 29.957 66.6607C30.1439 66.1443 30.5239 65.7206 31.0169 65.4788L29.9199 65.6113C30.4499 65.3251 31.3508 64.7793 32.0398 64.9171C31.4409 65.1715 30.063 66.2314 30.4128 67.037C30.9798 66.5812 32.5327 66.2897 33.0626 65.9293L32.9937 66.6342C33.8576 66.8091 33.8152 65.8922 34.8222 65.9293C35.3522 65.2139 33.9795 65.4418 34.2445 64.9966C34.4777 65.092 35.9722 64.5355 36.2107 63.9366C35.6807 63.5179 35.3786 63.8253 34.9812 64.1857C34.5837 64.5461 34.1226 64.9754 33.3912 64.6521C33.8478 64.5007 34.2954 64.3238 34.7321 64.1221C34.7904 63.3642 34.3134 63.6663 33.8099 64.0214C33.3064 64.3765 32.7235 64.7051 32.697 64.1698C32.856 63.3695 33.4654 63.396 34.0431 63.3271C34.6208 63.2582 35.2144 63.1734 35.1614 62.2672C34.4459 62.3414 32.75 63.3854 32.7394 62.8343C33.5767 62.8926 33.5449 61.8538 34.2498 61.2443C34.6791 61.1966 35.103 61.1119 35.5376 61.0377C35.7178 60.4335 35.384 60.6614 34.9229 60.6826C35.4163 60.5522 35.8841 60.3389 36.3061 60.0519C36.7619 59.7286 37.2283 59.3417 37.7159 58.9442C38.6692 58.046 39.7387 57.2795 40.8957 56.6654C41.8338 55.51 40.6466 56.1354 40.8162 55.3722C41.8762 55.3245 42.4061 53.9519 42.9361 53.3371C43.1428 53.1887 42.8778 52.3725 42.5015 52.346C42.1676 52.9608 41.8285 53.5703 41.4416 54.1585C41.3669 54.0514 41.2674 53.9639 41.1516 53.9035C41.0358 53.8431 40.9071 53.8115 40.7765 53.8115C40.6458 53.8115 40.5172 53.8431 40.4014 53.9035C40.2856 53.9639 40.186 54.0514 40.1113 54.1585C40.8056 54.4871 40.1537 54.8581 39.4489 55.2503C38.744 55.6425 38.0126 56.1089 38.5055 56.7554L38.0232 56.1831C37.4932 56.8561 37.0057 57.5716 36.4333 58.2076H36.5552C36.481 58.1122 36.1471 58.5415 35.6701 59.082C35.1629 59.6557 34.5491 60.1254 33.8629 60.4653C34.0537 60.036 36.0888 58.9283 34.5095 59.0555C35.0659 58.1493 36.905 57.5239 38.0974 56.0188L37.4827 55.8863C38.4366 54.0685 40.9328 52.876 42.2843 51.0423L42.3532 51.991C43.0845 51.5829 44.1815 51.1377 44.2133 50.1784C43.6145 50.9522 43.6357 50.3162 43.5191 49.9929C44.0491 48.7634 45.5913 47.4967 46.4552 45.8697C46.4552 45.8697 46.5188 46.0287 46.6513 46.0234C46.9215 45.4404 47.1812 44.8257 47.4303 44.2268C48.0504 43.559 48.5592 43.5325 49.2534 43.3258C49.37 42.9919 49.8523 42.3083 49.3382 42.3454C49.2123 42.4461 49.1093 42.5726 49.0362 42.7164C48.9673 41.4815 49.6138 42.2871 49.9159 41.0045C49.9159 42.1493 50.8275 41.2589 51.3044 41.7094C51.8768 40.3527 50.4247 40.9674 50.2816 40.6494C51.5641 39.404 52.1418 39.4994 53.2229 38.0844C52.9421 37.7823 52.3061 38.9959 51.8503 38.874C52.216 38.5136 52.5022 37.9943 52.428 37.8141L51.5747 38.5507C53.003 37.2655 54.1319 35.6825 54.8818 33.9134H54.6221L55.327 32.8535L55.7033 33.6432C55.9153 32.9542 56.8692 32.6733 56.5671 32.0532L56.3869 32.2387L56.6519 31.3749L56.795 32.5249C57.6536 31.7617 57.1872 29.6365 58.2843 28.1632C59.3442 28.3752 56.8851 31.0092 57.855 31.873C58.3532 31.4808 59.0845 30.7283 58.9891 30.2354C58.6552 30.1082 58.422 30.4686 58.1836 30.8343C58.4644 29.1277 60.6691 27.6968 60.3035 26.2288L59.2647 27.0025C59.9325 25.7465 61.5595 25.7412 61.2044 24.9356L61.6602 26.568C61.9199 25.031 63.0487 23.5736 63.4356 22.1957C62.8367 21.7399 62.3386 23.8121 62.2803 23.6478L62.1955 22.8157C63.7854 21.3212 62.9056 22.5719 64.7341 20.7382L64.3419 20.4308C65.4495 20.1764 65.6403 17.463 66.1968 18.9522L65.5396 19.3285L66.0696 19.6359L67.5323 17.0231C67.7019 17.5213 68.4969 16.3182 68.7195 16.986L68.9845 15.7988C69.9596 15.9525 68.5287 17.9982 68.9845 18.4858C69.3131 18.6925 69.5939 18.2685 69.7052 18.0407C69.3979 19.4345 67.8556 19.0529 67.0554 20.0757L67.1083 20.9131L66.5307 20.4467C66.3776 20.9386 66.3982 21.4681 66.589 21.9466C65.0255 22.3971 65.2375 24.2149 63.9974 25.6564C64.5274 24.1036 62.842 26.1016 62.8261 25.7677C62.3279 26.4885 62.2538 29.0006 61.0984 29.1278C60.5261 29.3609 61.2256 27.9459 60.4307 28.8734C60.0809 29.5835 60.118 30.246 60.6903 30.0128C59.9378 31.6027 58.687 33.251 57.696 34.8674L57.5211 34.2208C56.5353 35.0052 56.4982 36.3407 56.6148 37.1516C56.3604 37.1781 56.4346 37.3371 56.2862 37.0244C54.7811 37.8512 56.106 39.2026 54.5956 41.1741C55.2528 41.4444 55.9206 40.5435 56.0636 39.7008L56.5936 40.3049C57.7983 38.5553 58.766 36.6538 59.4714 34.6501L59.535 35.6412C61.2415 34.9363 59.2435 34.1784 61.0242 33.6326C61.3475 32.5726 60.2716 34.0565 60.4094 33.2086C61.003 32.6786 61.4694 34.0989 62.1743 33.0814C60.0226 37.2205 57.1713 41.7041 54.5002 45.8008C54.5691 45.9651 54.7599 45.8008 54.9507 45.5994C54.9136 46.5958 52.3644 49.5425 49.8099 52.2506C47.2554 54.9588 44.7009 57.4073 45.2786 58.2871C44.8917 58.2553 45.2044 57.4391 44.4996 58.2288C44.542 58.3984 44.4995 58.7587 44.8811 58.7587C43.5244 59.3205 42.4273 60.4176 41.219 61.5358C40.0618 62.7437 38.6907 63.7266 37.1753 64.4348C37.435 64.6786 36.958 65.2563 37.0693 65.4576C36.3389 65.506 35.6462 65.7991 35.103 66.2897C34.5784 66.7313 33.9605 67.0484 33.2958 67.2172L33.7834 67.4186L33.0309 67.8107L32.2518 68.1446C31.7218 68.3672 31.1918 68.6004 30.6937 68.8071C30.6513 68.9873 31.0859 68.8071 31.3561 68.7594C31.2789 68.845 31.1809 68.9093 31.0717 68.9462C30.9624 68.983 30.8456 68.9912 30.7323 68.9699C30.6189 68.9487 30.513 68.8986 30.4246 68.8246C30.3361 68.7507 30.2682 68.6552 30.2273 68.5474L29.056 69.8671C26.6976 69.8194 24.3816 70.5772 21.7688 70.98C19.1561 71.3828 16.3048 71.51 13.8192 70.3864C13.3877 70.6043 12.9178 70.7357 12.436 70.7733C12.1768 70.7967 11.916 70.7967 11.6569 70.7733C11.3503 70.7056 11.0477 70.6207 10.7506 70.5189L11.323 70.9747C9.77016 70.9747 11.3707 70.6143 10.1305 70.4447C9.18189 70.5242 9.47869 71.3086 10.7082 71.3881C11.3018 71.881 10.8089 71.9181 10.2525 71.9181C9.72249 71.6849 9.19251 71.4517 8.66253 71.2026C8.13256 70.9535 7.66085 70.609 7.17857 70.3069L6.46842 69.8459C6.24053 69.6869 6.02855 69.4961 5.81126 69.3159C5.38728 68.9555 4.97388 68.5951 4.5764 68.2294C3.84826 67.4806 3.18184 66.6742 2.58369 65.818C2.08156 64.9651 1.64401 64.0758 1.27466 63.1576V63.1576Z" fill="#C3D8CC"/>
<path d="M111.276 12.2269C111.276 11.7711 112.299 12.9742 112.336 11.9407C112.259 11.572 112.133 11.2154 111.96 10.8808C111.747 10.5532 111.514 10.2398 111.26 9.94268C111.133 9.78369 110.995 9.62469 110.852 9.471L110.365 9.06824C110.025 8.80855 109.691 8.53826 109.305 8.27328C107.81 7.29812 106.125 6.61443 104.726 5.62338C104.225 5.13381 103.653 4.72284 103.03 4.40444C102.991 4.52949 102.976 4.66082 102.987 4.79131C102.542 4.69591 101.927 4.68002 101.35 4.60052C100.791 4.57079 100.238 4.47472 99.7014 4.31433C99.4364 4.45213 99.2509 4.9821 99.7385 4.8708C99.1391 5.01707 98.5075 4.9496 97.9525 4.68002C97.4225 4.45213 96.9243 4.20834 96.5533 4.49452C97.2688 4.74891 95.9545 5.10399 96.7812 5.26828C95.3874 5.55977 95.1913 3.59886 93.9299 3.67835C93.8875 3.84265 93.8504 4.00694 94.0995 3.99634C93.6895 3.8895 93.2589 3.8895 92.8488 3.99634C92.4083 4.12218 91.9764 4.27619 91.5557 4.45742C90.7236 4.74891 90.0558 5.04569 89.7325 4.45742L89.4357 5.1835C88.7203 5.02451 88.7097 4.65352 87.7292 4.95031C87.2311 5.44319 87.973 5.38489 87.8511 5.67638C87.6073 5.49618 87.1197 5.67638 86.5527 5.84067C86.0164 6.0967 85.4231 6.20988 84.8302 6.16925C84.5812 5.81947 85.0529 5.86717 85.6093 5.87247C85.8853 5.88588 86.1617 5.8609 86.4308 5.79826C86.5503 5.7769 86.6622 5.72454 86.7552 5.64642C86.8482 5.56831 86.9191 5.46716 86.9608 5.35308C86.9025 5.18879 86.7753 5.19939 86.6163 5.25769C87.0914 5.04547 87.578 4.8597 88.0737 4.70122C88.5561 4.57204 89.0466 4.47465 89.5418 4.40972C90.4673 4.28695 91.4018 4.2444 92.3347 4.28254C93.2198 4.28254 94.0837 4.38853 94.8839 4.31964C95.6939 4.3428 96.5025 4.23726 97.2794 4.00695C98.032 4.56343 98.5195 3.97515 98.8428 3.37097C98.2546 3.14308 96.4368 2.66081 96.5428 3.90095L95.4033 3.29148C95.0217 3.40278 94.8203 2.23152 94.603 2.06193C95.3821 2.06193 96.1453 0.80589 94.9846 0.540902C96.0446 0.318311 95.9545 0.964883 95.8379 1.60085C95.7213 2.23683 95.5941 2.84629 96.4526 2.5707L96.6222 1.68035C96.336 2.14673 97.9101 2.45412 98.4718 2.13083L98.2228 1.97713C100.907 2.04052 103.575 2.4176 106.172 3.10068C108.906 3.84049 111.472 5.10007 113.73 6.81053C113.673 7.05038 113.672 7.30019 113.728 7.54026C113.785 7.78032 113.896 8.00405 114.053 8.19377C114.378 8.51978 114.733 8.81434 115.113 9.07351C115.512 9.32109 115.878 9.61656 116.205 9.95329C116.342 10.1288 116.43 10.337 116.462 10.5573C116.494 10.7777 116.467 11.0024 116.385 11.2093C116.947 11.522 116.523 10.0911 117.376 10.8648C117.441 10.9183 117.49 10.9881 117.519 11.067C117.548 11.146 117.555 11.2312 117.54 11.3139C117.525 11.3966 117.488 11.4737 117.433 11.5373C117.378 11.6009 117.307 11.6487 117.228 11.6757L117.662 12.0043C116.916 12.7064 115.931 13.1002 114.906 13.1067C114.339 13.1144 113.773 13.0412 113.226 12.8894L112.781 12.7516C112.617 12.7145 112.453 12.6668 112.288 12.6191C111.944 12.5081 111.606 12.3772 111.276 12.2269Z" fill="#C3D8CC"/>
<path d="M6.02833 24.7767V27.3947C7.15542 25.5186 8.95557 24.5806 11.4288 24.5806C12.3555 24.5464 13.2787 24.7114 14.1363 25.0643C14.9938 25.4172 15.7657 25.9498 16.4 26.6263C17.6613 27.9901 18.2938 29.8433 18.2973 32.1858V42.5998H12.865V32.9224C12.9208 31.9546 12.5955 31.0035 11.9588 30.2725C11.2626 29.6678 10.3715 29.3347 9.44934 29.3347C8.52719 29.3347 7.63606 29.6678 6.93991 30.2725C6.30131 31.0027 5.97407 31.9539 6.02833 32.9224V42.5998H0.56958V24.7767H6.02833Z" fill="#454545"/>
<path d="M23.6664 40.2675C22.1383 38.4246 21.302 36.1058 21.302 33.7117C21.302 31.3177 22.1383 28.9988 23.6664 27.1559C24.3838 26.3347 25.2709 25.6792 26.2664 25.2344C27.262 24.7897 28.3423 24.5665 29.4325 24.5802C30.4456 24.5299 31.4551 24.7351 32.3682 25.1768C33.2813 25.6186 34.0687 26.2827 34.6581 27.1082V24.7763H40.1222V42.5994H34.6581V40.0131C34.0862 40.8934 33.2995 41.6137 32.3724 42.106C31.4452 42.5983 30.4079 42.8465 29.3583 42.8273C28.2811 42.8364 27.2146 42.6124 26.2321 42.1706C25.2496 41.7287 24.3743 41.0795 23.6664 40.2675V40.2675ZM33.4763 36.9446C33.8867 36.5116 34.2034 35.9988 34.4067 35.438C34.6101 34.8772 34.6956 34.2805 34.6581 33.6852C34.6962 33.093 34.6108 32.4994 34.4074 31.9419C34.2039 31.3845 33.8869 30.8754 33.4763 30.447C33.121 30.087 32.6977 29.8013 32.2309 29.6066C31.7641 29.4119 31.2632 29.312 30.7575 29.3129C30.2511 29.3121 29.7497 29.4136 29.2835 29.6112C28.8172 29.8088 28.3956 30.0985 28.044 30.463C27.6326 30.8951 27.3151 31.4079 27.1117 31.9688C26.9083 32.5298 26.8233 33.1268 26.8621 33.7223C26.8214 34.3147 26.9055 34.9091 27.1091 35.4669C27.3127 36.0247 27.6312 36.5335 28.044 36.9604C28.3979 37.3221 28.8204 37.6095 29.2868 37.8057C29.7532 38.0019 30.2541 38.1029 30.7601 38.1029C31.2661 38.1029 31.767 38.0019 32.2334 37.8057C32.6998 37.6095 33.1224 37.3221 33.4763 36.9604V36.9446Z" fill="#454545"/>
<path d="M52.1631 37.9679H54.1134V42.5999H51.3151C49.3171 42.5999 47.7643 42.16 46.6672 41.275C45.5702 40.3899 45.0243 38.8742 45.0243 36.7225V29.3028H43.3655V24.7662H45.0296V20.4204H50.4937V24.7662H54.071V29.3028H50.4937V36.7225C50.5043 37.5387 51.0554 37.9679 52.1631 37.9679Z" fill="#454545"/>
<path d="M69.6413 24.7769H75.1001V42.6H69.6413V39.9819C68.5072 41.858 66.707 42.7961 64.2408 42.7961C63.3141 42.8309 62.3906 42.6663 61.533 42.3134C60.6753 41.9604 59.9035 41.4274 59.2697 40.7504C58.0012 39.3901 57.3688 37.5369 57.3723 35.1909V24.7769H62.8046V34.4542C62.7489 35.422 63.0742 36.3732 63.7109 37.1041C64.4055 37.712 65.2972 38.0471 66.2203 38.0471C67.1434 38.0471 68.0351 37.712 68.7297 37.1041C69.3683 36.374 69.6956 35.4227 69.6413 34.4542V24.7769Z" fill="#454545"/>
<path d="M85.0375 24.7767V28.0996C86.313 25.7571 88.0178 24.5841 90.1518 24.5806V30.1188H88.8057C87.7838 30.0415 86.7716 30.3625 85.9809 31.0145C85.352 31.6116 85.0375 32.6556 85.0375 34.1466V42.5786H79.5735V24.7767H85.0375Z" fill="#454545"/>
<path d="M93.8558 40.268C92.3278 38.4251 91.4915 36.1062 91.4915 33.7122C91.4915 31.3182 92.3278 28.9993 93.8558 27.1564C94.5732 26.3352 95.4603 25.6796 96.4559 25.2349C97.4514 24.7902 98.5317 24.567 99.622 24.5807C100.635 24.5304 101.645 24.7356 102.558 25.1773C103.471 25.6191 104.258 26.2832 104.848 27.1087V24.7768H110.306V42.5999H104.842V40.0136C104.27 40.8939 103.484 41.6142 102.557 42.1065C101.629 42.5988 100.592 42.847 99.5425 42.8278C98.4661 42.8362 97.4007 42.6118 96.4191 42.1699C95.4376 41.7281 94.5632 41.0793 93.8558 40.268V40.268ZM103.66 36.945C104.073 36.5131 104.391 36.0006 104.595 35.4396C104.799 34.8787 104.885 34.2815 104.848 33.6857C104.888 33.0929 104.803 32.4983 104.598 31.9404C104.394 31.3826 104.074 30.874 103.66 30.4475C103.307 30.086 102.885 29.7988 102.419 29.6026C101.953 29.4065 101.452 29.3055 100.947 29.3055C100.441 29.3055 99.9409 29.4065 99.4749 29.6026C99.0089 29.7988 98.5869 30.086 98.2335 30.4475C97.822 30.8797 97.5046 31.3924 97.3011 31.9534C97.0977 32.5144 97.0128 33.1114 97.0516 33.7069C97.0108 34.2993 97.095 34.8937 97.2986 35.4515C97.5022 36.0093 97.8207 36.5182 98.2335 36.945C98.5869 37.3066 99.0089 37.5938 99.4749 37.7899C99.9409 37.986 100.441 38.0871 100.947 38.0871C101.452 38.0871 101.953 37.986 102.419 37.7899C102.885 37.5938 103.307 37.3066 103.66 36.945Z" fill="#454545"/>
<path d="M6.4574 45.7212V51.0846H5.57765V47.4118L3.94001 51.0846H3.33056L1.68761 47.4118V51.0846H0.807861V45.7212H1.75651L3.63792 49.9292L5.51406 45.7212H6.4574Z" fill="#101010"/>
<path d="M12.5471 51.0846V45.7212H13.4269V51.0846H12.5471Z" fill="#101010"/>
<path d="M23.0518 45.7163H23.9316V51.085H23.0518L20.4019 47.0784V51.085H19.5168V45.7163H20.3966L23.0465 49.7123L23.0518 45.7163Z" fill="#101010"/>
<path d="M32.9884 45.7168V46.4005H30.9002V48.0275H32.7658V48.7112H30.9109V50.3965H32.999V51.0855H30.0364V45.7168H32.9884Z" fill="#101010"/>
<path d="M39.8829 48.9064V51.0846H39.0032V45.7212H40.8528C41.3609 45.6895 41.8624 45.8503 42.2572 46.1717C42.4179 46.3162 42.5452 46.4939 42.6303 46.6925C42.7154 46.8911 42.7563 47.1058 42.7501 47.3218C42.7521 47.6718 42.6384 48.0127 42.4268 48.2916C42.1733 48.5983 41.814 48.7987 41.4199 48.8534L42.8349 51.0846H41.7749L40.4341 48.9064H39.8829ZM39.8829 46.4102V48.2227H40.8528C41.125 48.2431 41.3946 48.1577 41.6053 47.9842C41.7585 47.7954 41.8422 47.5596 41.8422 47.3165C41.8422 47.0733 41.7585 46.8375 41.6053 46.6487C41.3946 46.4753 41.125 46.3898 40.8528 46.4102H39.8829Z" fill="#101010"/>
<path d="M52.4336 51.0855L52.0521 49.9884H49.805L49.4181 51.0855H48.5012L50.4197 45.7168H51.4426L53.3611 51.0855H52.4336ZM50.0434 49.3047H51.8083L50.9338 46.7821L50.0434 49.3047Z" fill="#101010"/>
<path d="M59.1321 45.7212H60.0118V50.4115H61.8244V51.0846H59.1321V45.7212Z" fill="#101010"/>
<path d="M80.7871 45.7221H81.7252L80.1352 51.0855H79.1389L78.01 47.0259L76.8176 51.0855H75.8265L74.3108 45.7168H75.2436L76.3512 50.0838L77.5542 45.7168H78.5453L79.6635 50.0626L80.7871 45.7221Z" fill="#101010"/>
<path d="M91.0103 51.0855L90.6234 49.9884H88.3763L87.9947 51.0855H87.0725L88.9963 45.7168H90.0033L91.9218 51.0855H91.0103ZM88.6148 49.3047H90.3849L89.5051 46.7821L88.6148 49.3047Z" fill="#101010"/>
<path d="M97.4231 46.4102V45.7212H101.165V46.4102H99.7391V51.0846H98.8593V46.4102H97.4231Z" fill="#101010"/>
<path d="M109.957 45.7168V46.4005H107.874V48.0275H109.724V48.7112H107.874V50.3965H109.957V51.0855H106.994V45.7168H109.957Z" fill="#101010"/>
</svg>
