<svg width="101" height="72" viewBox="0 0 101 72" fill="none" xmlns="http://www.w3.org/2000/svg">
<path d="M65.4109 15.1273C65.4356 13.6575 65.1706 12.1974 64.6309 10.8301C64.11 9.52915 63.3565 8.33399 62.4072 7.30319C62.4759 6.91296 62.4591 6.51247 62.3579 6.12938C62.2567 5.74629 62.0735 5.38972 61.821 5.08435C60.8517 3.80905 59.642 2.73598 58.2602 1.92567C57.0432 1.15772 55.5812 0.877436 54.1665 1.14085C53.7718 0.870183 53.3322 0.671696 52.8682 0.554638C52.4992 0.476579 52.118 0.476579 51.749 0.554638C51.3324 0.641842 50.9206 0.743567 50.504 0.845304L49.6223 1.01488H49.4818C48.7793 1.01488 48.0623 1.01488 47.3598 1.01488C47.0013 1.01488 46.6622 1.05364 46.3037 1.10208C45.885 1.16627 45.4707 1.25688 45.0635 1.37338H45.1458C44.9617 1.37338 44.7825 1.40729 44.6032 1.43151C43.7024 1.55173 42.8203 1.78447 41.9774 2.12429C40.1462 3.0593 38.1502 4.22684 37.2636 5.56396C36.7356 6.46021 36.2317 7.21597 35.8103 7.98627C35.791 8.00767 35.7732 8.03034 35.757 8.0541C35.6423 8.15427 35.537 8.26452 35.4421 8.38353V8.38353C35.3257 8.5228 35.2295 8.67774 35.1562 8.84378C35.2444 8.68599 35.3449 8.53535 35.4566 8.39323L35.5486 8.47073C35.4566 8.64514 35.3742 8.82926 35.2919 9.01336C34.6088 9.92899 34.0904 11.2903 33.6641 11.5858C33.9693 12.1575 34.1485 11.2467 34.4295 10.4813C34.3084 10.8834 34.2164 11.3436 34.1049 11.8038C33.9935 12.2641 33.9451 12.7728 33.8676 13.2088C33.8676 13.2621 33.8676 13.3105 33.8676 13.359C33.8433 12.9617 33.7222 12.6613 34.0226 12.2689C33.9208 12.017 33.7949 12.0752 33.6302 12.3416C33.4994 13.2427 33.1699 14.948 33.5236 15.0497C33.4699 15.2183 33.3984 15.3807 33.3104 15.5342L33.6156 15.9847C33.5896 16.0492 33.5685 16.1157 33.5527 16.1834C33.5969 16.128 33.6373 16.0697 33.6738 16.009C33.79 17.1717 33.9305 18.4313 34.4877 19.1822C34.5809 19.2349 34.6781 19.2802 34.7783 19.3178C34.7105 19.6715 34.5555 19.2064 34.3617 19.1386C34.5797 19.9283 34.8462 20.4902 35.1998 20.592C35.0739 20.1657 34.9334 19.749 34.8365 19.3227C34.9235 19.3476 35.0159 19.3476 35.1029 19.3227C35.4275 19.6763 35.7085 19.9476 35.7085 20.0978C35.8345 20.6453 35.9217 21.1394 36.004 21.6142C36.0719 22.0066 36.1348 22.3796 36.2027 22.743H36.1058C35.845 22.2595 35.6089 21.7631 35.3985 21.2557C35.4175 21.6023 35.4613 21.9472 35.5293 22.2876L35.8587 22.4814C35.8838 22.5223 35.8999 22.5681 35.9057 22.6158C35.9116 22.6634 35.9071 22.7118 35.8926 22.7575C35.8926 22.7575 35.8926 22.7575 35.8926 22.7866C35.866 22.8143 35.8349 22.8372 35.8006 22.8544L35.8442 22.9029C35.83 22.9437 35.8203 22.9859 35.8151 23.0288H35.9314L36.222 23.3631C36.256 23.3631 36.2705 23.3631 36.2802 23.3195C36.2586 23.9718 36.466 24.6111 36.8664 25.1265H36.9148C37.147 25.6112 37.4382 26.0652 37.782 26.4782C38.0371 26.6788 38.3358 26.8165 38.654 26.8803L38.7267 26.9433C38.9237 27.0138 39.1353 27.0338 39.342 27.0014C39.4364 27.0198 39.5343 27.0097 39.623 26.9723C39.4479 26.4161 39.1828 25.8924 38.8381 25.4221C38.8769 25.456 38.9157 25.4996 38.9593 25.5335L38.906 25.4463L38.8333 25.4124C38.5392 24.9857 38.2938 24.5275 38.1018 24.0462C38.1373 23.7374 38.1567 23.4269 38.1599 23.116C38.1938 22.5734 38.9205 23.1596 39.1288 23.2565C39.0847 22.669 38.9388 22.0936 38.6976 21.5561C39.148 22.1638 39.6593 22.7238 40.2237 23.2275L40.0202 23.4019C40.5677 23.7846 40.4223 24.177 41.1054 24.5355C41.1539 24.1479 40.8487 23.896 40.621 23.5666C42.2628 24.8985 44.2481 25.7383 46.3473 25.9889L49.6077 26.3668C50.1386 26.4244 50.6728 26.4438 51.2065 26.4249C50.6766 26.7003 50.1131 26.9055 49.5302 27.0353C49.554 27.6475 49.7432 28.2419 50.0777 28.7552C50.4846 29.2978 51.2646 29.758 52.7277 29.7628C53.1735 29.7528 53.617 29.6943 54.0502 29.5884C54.7729 29.6279 55.4977 29.5856 56.2109 29.4625C56.3805 29.3171 56.5743 29.167 56.7826 29.0168C56.9909 28.8666 57.1944 28.6873 57.4172 28.5323C57.8726 28.2126 58.3377 27.8444 58.7931 27.4762C58.9675 27.3405 59.1323 27.2001 59.2776 27.0596L59.5876 26.9723C59.7572 26.7301 60.043 26.4249 60.3143 26.11C60.5953 25.829 60.8569 25.5577 61.0652 25.3203C62.6092 24.0415 63.8 22.3887 64.5243 20.5193C64.6939 20.0688 64.8295 19.6037 64.97 19.1434C65.1105 18.6832 65.1686 18.2084 65.2558 17.7433C65.3431 17.2783 65.3479 16.8035 65.3915 16.3384C65.4351 15.8733 65.4109 15.5633 65.4109 15.1273ZM36.1445 22.9755H36.1881C36.1881 23.0337 36.1881 23.087 36.1881 23.1403C36.1765 23.0846 36.162 23.0296 36.1445 22.9755V22.9755Z" fill="#C3D8CC"/>
<path d="M48.8864 30.2569C48.6344 30.2569 48.242 30.1649 48.368 29.9953L47.9901 30.1649L49.1189 30.3296C48.93 30.1213 48.5812 29.9566 48.6344 29.6804L48.15 29.5884C48.4487 29.7445 48.7022 29.9747 48.8864 30.2569V30.2569Z" fill="#C3D8CC"/>
<path d="M49.0897 29.8014C49.3077 29.6028 49.0025 29.4865 48.6053 29.3896C48.1693 29.5108 49.2254 29.3509 48.8766 29.7045C48.9783 29.7142 49.0607 29.7288 49.0897 29.8014Z" fill="#C3D8CC"/>
<path d="M48.8766 29.7052C48.7898 29.6963 48.7039 29.6801 48.6199 29.6567C48.6194 29.6648 48.6194 29.6729 48.6199 29.681L48.8524 29.7294L48.8766 29.7052Z" fill="#C3D8CC"/>
<path d="M46.1537 29.5298C46.185 29.6209 46.2512 29.6958 46.3378 29.7381C46.3523 29.68 46.2603 29.6073 46.1537 29.5298Z" fill="#C3D8CC"/>
<path d="M45.7802 28.7891C46.0757 28.9586 46.2307 29.0846 46.1241 29.2735L45.8722 29.196C45.8092 29.3026 45.9982 29.4286 46.1532 29.5448C46.1047 29.2832 46.628 29.133 45.7802 28.7891Z" fill="#C3D8CC"/>
<path d="M47.3163 28.5273L47.1371 28.5758L48.2465 29.1523C48.1981 28.6921 47.7088 28.9827 47.3163 28.5273Z" fill="#C3D8CC"/>
<path d="M34.5945 21.8666L34.6381 21.7697L34.517 21.6631C34.5412 21.7164 34.5606 21.7842 34.5945 21.8666Z" fill="#C3D8CC"/>
<path d="M34.202 20.437C34.2265 20.7928 34.2702 21.1469 34.3328 21.498C34.3984 21.548 34.46 21.6031 34.5169 21.6627C34.2941 21.0135 34.6138 21.1249 34.202 20.437Z" fill="#C3D8CC"/>
<path d="M34.6376 21.7695C34.8905 22.0442 35.0719 22.377 35.1656 22.7385C35.2897 23.2038 35.5316 23.6293 35.8681 23.9738C35.5357 23.1537 35.1506 22.3559 34.7151 21.5854L34.6376 21.7695Z" fill="#C3D8CC"/>
<path d="M0.662476 59.1353V36.1621H6.25801V59.1353H0.662476Z" fill="#454545"/>
<path d="M12.0375 56.8153C10.3419 55.11 9.49568 52.8411 9.49891 50.0086C9.50214 47.1761 10.3483 44.9153 12.0375 43.2261C13.7234 41.5337 15.91 40.6891 18.5971 40.6924C20.6109 40.6278 22.5929 41.2065 24.2556 42.3444C25.8323 43.4841 26.9288 45.1695 27.332 47.0728H21.281C21.0713 46.5694 20.7122 46.1425 20.2522 45.8496C19.7922 45.5568 19.2534 45.4122 18.7085 45.4353C18.196 45.4016 17.6834 45.4996 17.2196 45.7201C16.7557 45.9406 16.356 46.2762 16.0585 46.6949C15.489 47.7091 15.1898 48.8527 15.1898 50.0158C15.1898 51.179 15.489 52.3227 16.0585 53.3368C16.339 53.746 16.7196 54.0765 17.1639 54.297C17.6083 54.5174 18.1017 54.6205 18.5971 54.5964C19.1654 54.6278 19.7314 54.5039 20.2346 54.2379C20.6965 53.9182 21.0591 53.475 21.281 52.959H27.332C26.8893 54.8399 25.7876 56.5001 24.2266 57.6389C22.5897 58.8161 20.6126 59.4252 18.5971 59.3732C15.9132 59.3668 13.7266 58.5141 12.0375 56.8153Z" fill="#454545"/>
<path d="M31.605 56.7818C29.7576 55.0571 28.8355 52.7963 28.8388 49.9993C28.842 47.2024 29.7576 44.9415 31.5857 43.2168C33.4741 41.5829 35.8878 40.6836 38.3851 40.6836C40.8823 40.6836 43.296 41.5829 45.1845 43.2168C47.0061 44.9092 47.9169 47.1701 47.9169 49.9993C47.9169 52.8286 47.0109 55.0894 45.199 56.7818C44.2948 57.6385 43.23 58.3077 42.0659 58.7509C40.9019 59.1941 39.6616 59.4025 38.4166 59.364C35.895 59.4313 33.4482 58.5038 31.605 56.7818V56.7818ZM41.1102 53.3905C41.853 52.6057 42.2228 51.4753 42.2196 49.9993C42.2196 48.5169 41.8417 47.3832 41.0763 46.6081C40.728 46.2372 40.3067 45.9425 39.839 45.7424C39.3712 45.5423 38.8672 45.4412 38.3584 45.4454C37.8525 45.4406 37.3511 45.5416 36.8864 45.7418C36.4218 45.942 36.004 46.2371 35.66 46.6081C34.9091 47.3784 34.5312 48.512 34.5312 49.9993C34.5312 51.4866 34.9187 52.6154 35.6939 53.3905C36.0437 53.7644 36.4669 54.062 36.9371 54.2646C37.4073 54.4672 37.9143 54.5704 38.4263 54.5678C38.9301 54.5757 39.4298 54.4765 39.8925 54.2769C40.3552 54.0773 40.7702 53.7818 41.1102 53.4099V53.3905Z" fill="#454545"/>
<path d="M56.7829 40.8762V43.5601C57.9424 41.6417 59.7866 40.6824 62.3155 40.6824C63.2638 40.6467 64.2087 40.8151 65.0863 41.1762C65.9639 41.5373 66.7537 42.0826 67.4023 42.7753C68.6942 44.1705 69.3402 46.068 69.3402 48.4677V59.1259H63.7882V49.2235C63.8197 48.7289 63.7532 48.233 63.5928 47.7642C63.4324 47.2953 63.181 46.8627 62.8532 46.4911C62.1447 45.8645 61.2315 45.5186 60.2856 45.5186C59.3397 45.5186 58.4265 45.8645 57.7179 46.4911C57.389 46.862 57.1369 47.2945 56.9764 47.7635C56.8159 48.2326 56.7502 48.7288 56.7829 49.2235V59.1356H51.1874V40.8762H56.7829Z" fill="#454545"/>
<path d="M78.8642 38.8173C78.2427 39.423 77.4091 39.7621 76.5412 39.7621C75.6733 39.7621 74.8397 39.423 74.2182 38.8173C73.6092 38.1906 73.2684 37.3512 73.2684 36.4773C73.2684 35.6034 73.6092 34.764 74.2182 34.1374C74.8456 33.5561 75.6742 33.2412 76.5294 33.259C77.3845 33.2769 78.1992 33.6261 78.8018 34.2331C79.4044 34.8401 79.7477 35.6574 79.7593 36.5126C79.771 37.3678 79.45 38.1941 78.8642 38.8173V38.8173ZM73.7628 59.1356V40.8762H79.3487V59.1356H73.7628Z" fill="#454545"/>
<path d="M85.163 56.8152C83.4706 55.1099 82.6244 52.841 82.6244 50.0085C82.6244 47.176 83.4706 44.9152 85.163 43.226C86.8554 41.5336 89.0419 40.6891 91.7226 40.6923C93.7378 40.6284 95.7212 41.2069 97.3859 42.3443C98.9596 43.487 100.055 45.171 100.462 47.0727H94.3677C94.1589 46.5697 93.8007 46.1429 93.3415 45.85C92.8823 45.5572 92.3443 45.4124 91.8001 45.4352C91.2874 45.4001 90.7743 45.4975 90.3102 45.7181C89.8461 45.9387 89.4466 46.275 89.1501 46.6948C88.5806 47.709 88.2814 48.8526 88.2814 50.0157C88.2814 51.1789 88.5806 52.3226 89.1501 53.3368C89.4275 53.7479 89.8067 54.08 90.2508 54.3008C90.6949 54.5215 91.1886 54.6234 91.6838 54.5963C92.2521 54.6282 92.8183 54.5043 93.3213 54.2378C93.7832 53.9181 94.1458 53.4749 94.3677 52.9589H100.424C99.9772 54.8395 98.8743 56.499 97.3133 57.6388C95.6774 58.8179 93.6996 59.4272 91.6838 59.3731C89.0096 59.3667 86.836 58.514 85.163 56.8152Z" fill="#454545"/>
<path d="M24.2123 67.2212V71.872H23.0786V69.2462L21.9983 71.872H21.1553L20.0798 69.2462V71.872H18.9462V67.2212H20.2445L21.5816 70.4235L22.9139 67.2212H24.2123Z" fill="#454545"/>
<path d="M31.0529 67.2065V68.0689H29.3718V69.0669H30.8543V69.9292H29.3718V71.0096H31.0529V71.8719H28.2382V67.2065H31.0529Z" fill="#454545"/>
<path d="M38.0873 67.2065H39.221V71.8719H38.0873L36.1931 68.936V71.8719H35.0594V67.2065H36.1931L38.0873 70.1424V67.2065Z" fill="#454545"/>
<path d="M44.826 68.0492C44.6997 68.0393 44.5744 68.0793 44.4772 68.1607C44.4309 68.2005 44.3945 68.2506 44.371 68.3069C44.3474 68.3633 44.3374 68.4243 44.3416 68.4852C44.3377 68.5474 44.3469 68.6097 44.3686 68.6681C44.3903 68.7266 44.424 68.7798 44.4675 68.8244C44.5578 68.9162 44.6693 68.9844 44.7921 69.023C44.9278 69.0715 45.078 69.115 45.2427 69.1586C45.4067 69.2001 45.5684 69.2503 45.7271 69.3088C45.8844 69.3644 46.0341 69.4393 46.1728 69.5317C46.3133 69.6252 46.4268 69.7538 46.5023 69.9047C46.5902 70.0856 46.6335 70.285 46.6282 70.4861C46.628 70.6796 46.5843 70.8706 46.5005 71.045C46.4167 71.2193 46.2948 71.3727 46.1438 71.4938C45.7895 71.7868 45.3386 71.9371 44.8793 71.9152C44.4271 71.9371 43.981 71.8038 43.6149 71.5374C43.4547 71.4104 43.3272 71.2469 43.243 71.0607C43.1587 70.8745 43.1201 70.6708 43.1304 70.4667H44.3319C44.3352 70.5774 44.3698 70.685 44.4317 70.7768C44.4936 70.8687 44.5803 70.9412 44.6817 70.9858C44.7831 71.0304 44.8951 71.0454 45.0047 71.029C45.1143 71.0125 45.2169 70.9654 45.3008 70.893C45.3465 70.8514 45.3826 70.8004 45.4069 70.7436C45.4311 70.6867 45.4429 70.6254 45.4413 70.5636C45.444 70.443 45.3987 70.3262 45.3153 70.239C45.2215 70.1493 45.109 70.0815 44.9859 70.0404C44.8381 69.9876 44.6877 69.9423 44.5354 69.9047C44.3704 69.8646 44.2085 69.8128 44.0509 69.7497C43.8934 69.6912 43.7424 69.6165 43.6003 69.5268C43.4611 69.4354 43.349 69.3082 43.2758 69.1586C43.1867 68.9799 43.1434 68.7818 43.1498 68.5821C43.1437 68.3835 43.1844 68.1861 43.2686 68.0061C43.3527 67.826 43.478 67.6682 43.6343 67.5454C43.9875 67.2741 44.4246 67.1353 44.8696 67.153C45.3015 67.1332 45.7281 67.2539 46.0856 67.4969C46.2462 67.6247 46.3739 67.789 46.4581 67.976C46.5424 68.1631 46.5808 68.3675 46.5701 68.5724H45.3396C45.3324 68.4278 45.274 68.2904 45.1748 68.1849C45.1298 68.1386 45.0754 68.1025 45.0152 68.0791C44.955 68.0557 44.8905 68.0455 44.826 68.0492V68.0492Z" fill="#454545"/>
<path d="M55.7264 67.2212H56.9424L55.6441 71.872H54.3457L53.5318 68.9217L52.7034 71.872H51.4099L50.0873 67.2212H51.3033L52.1075 70.564L52.9359 67.2212H54.2246L55.0191 70.5107L55.7264 67.2212Z" fill="#454545"/>
<path d="M63.362 67.2065V68.0689H61.676V69.0669H63.1633V69.9292H61.676V71.0096H63.362V71.8719H60.5472V67.2065H63.362Z" fill="#454545"/>
<path d="M70.2993 71.8719L70.0377 71.0871H68.3712L68.1144 71.8719H66.9081L68.5213 67.2065H69.9021L71.5105 71.8719H70.2993ZM68.657 70.2247H69.7567L69.2044 68.5727L68.657 70.2247Z" fill="#454545"/>
<path d="M76.2336 70.0598V71.8718H75.1V67.2209H76.9264C77.3826 67.1938 77.8318 67.343 78.1812 67.6375C78.3244 67.7631 78.4388 67.9182 78.5166 68.0921C78.5943 68.2661 78.6336 68.4547 78.6317 68.6452C78.6301 68.925 78.5458 69.198 78.3895 69.4301C78.199 69.7064 77.9122 69.9016 77.5853 69.9775L78.7286 71.8718H77.4109L76.3644 70.0598H76.2336ZM76.2336 68.0833V69.1927H76.9264C77.0007 69.1978 77.0751 69.1868 77.1448 69.1605C77.2144 69.1343 77.2776 69.0933 77.33 69.0404C77.3824 68.9876 77.4228 68.9241 77.4485 68.8542C77.4741 68.7843 77.4844 68.7097 77.4787 68.6355C77.4819 68.5611 77.4702 68.4868 77.4444 68.417C77.4187 68.3471 77.3793 68.2831 77.3285 68.2286C77.2761 68.1759 77.2133 68.1349 77.144 68.1082C77.0747 68.0815 77.0006 68.0697 76.9264 68.0736L76.2336 68.0833Z" fill="#454545"/>
</svg>
