<svg width="180" height="72" viewBox="0 0 180 72" fill="none" xmlns="http://www.w3.org/2000/svg">
<path d="M14.9737 22.6079H19.8309V22.7869C18.8583 22.7869 18.9 23.0435 18.9 24.2608V34.7746C18.9 36.1292 19.0552 36.4514 20.0338 36.4514V36.6304H13.9593V36.4693C14.8962 36.4693 14.9737 36.1471 14.9737 34.7926V23.1449L9.81822 36.8094H9.63324L3.18289 24.8157V31.3496C3.18289 33.9214 3.91684 36.4514 6.23205 36.4514V36.6304H0.0144043V36.4693C2.14463 36.4693 2.99792 33.9811 2.99792 31.3675V24.5352C2.2222 23.1628 1.58373 22.8466 1.02283 22.8048V22.6258H6.70345L11.5248 31.7852L14.9737 22.6079Z" fill="#454545"/>
<path d="M33.1738 22.6079V22.7451C32.3384 22.7451 31.879 22.7451 31.879 24.5352V34.3808C31.879 36.2723 32.3384 36.4513 33.1738 36.4513V36.6304H26.6101V36.4693C27.4455 36.4693 27.899 36.2903 27.899 34.3987V24.5352C27.899 22.7809 27.4634 22.7451 26.6101 22.7451V22.584L33.1738 22.6079Z" fill="#454545"/>
<path d="M52.7098 31.8511L52.9126 35.8728C51.4446 36.5229 49.8517 36.8427 48.2464 36.8097C43.986 36.8097 40.2029 34.1185 40.2029 29.6194C40.2029 25.1203 43.986 22.459 48.2464 22.459C50.8182 22.459 52.4233 22.996 52.9126 23.3719L52.7098 27.3997H52.5487C51.952 23.2764 49.7024 22.626 48.2464 22.626C46.0386 22.626 45.1018 24.1775 45.1018 29.6373C45.1018 35.0971 46.0983 36.6485 48.2464 36.6485C49.6009 36.6485 51.8744 35.8311 52.5487 31.8749L52.7098 31.8511Z" fill="#454545"/>
<path d="M74.6138 36.4693V36.6483H70.6517C69.2375 36.6483 68.796 35.7532 68.3186 32.0477C68.062 30.0547 65.6693 30.1741 65.6693 30.1741H64.7384V34.3987C64.7384 36.3499 64.816 36.4693 65.6513 36.4693V36.6483H59.6843V36.4693C60.5436 36.4693 60.7226 36.4275 60.7226 34.3987V24.5352C60.7226 23.3 60.5615 22.7451 59.6843 22.7451V22.584H65.3411C69.3032 22.584 72.8715 23.0613 72.8715 26.3909C72.8715 29.3745 70.1206 29.9712 68.2112 29.9712C70.5025 29.9712 71.6542 30.4664 72.6328 34.0526C73.0445 35.616 74.0947 36.4096 74.6138 36.4693ZM68.1993 26.4327C68.1993 22.6258 67.6861 22.8048 65.353 22.8048H64.7563V29.9652H65.353C67.9308 29.9771 68.1993 30.0189 68.1993 26.4148V26.4327Z" fill="#454545"/>
<path d="M95.2065 29.7209C95.2065 33.683 92.3184 36.8097 87.9387 36.8097C83.5589 36.8097 80.6648 33.683 80.6648 29.7209C80.637 28.7485 80.8044 27.7805 81.1573 26.874C81.5101 25.9675 82.0413 25.141 82.7192 24.4434C83.3971 23.7458 84.208 23.1912 85.104 22.8126C86 22.4339 86.9629 22.2388 87.9357 22.2388C88.9084 22.2388 89.8713 22.4339 90.7673 22.8126C91.6633 23.1912 92.4742 23.7458 93.1521 24.4434C93.8301 25.141 94.3611 25.9675 94.714 26.874C95.0669 27.7805 95.2343 28.7485 95.2065 29.7209V29.7209ZM90.3672 29.7209C90.3672 24.2611 90.2837 22.6082 87.9387 22.6082C85.5936 22.6082 85.4683 24.2611 85.4683 29.7209C85.4683 35.1807 85.5638 36.6307 87.9387 36.6307C90.3135 36.6307 90.3672 35.1986 90.3672 29.7209Z" fill="#454545"/>
<path d="M122.887 22.6079V22.7451C122.093 22.7451 120.876 23.3418 119.42 26.8683L115.935 36.6065H115.219C113.364 32.2864 112.17 29.4938 111.377 27.656L108.19 36.6065H107.468C102.45 24.8753 102.193 24.3562 102.193 24.3562C101.513 22.763 101.239 22.7809 100.719 22.7451V22.584H106.931V22.7451C105.66 22.7451 106.675 25.0543 106.675 25.0543L109.658 31.8866L111.251 27.4411C110.058 24.6128 109.915 24.3562 109.915 24.3562C109.24 22.763 108.96 22.7809 108.441 22.7451V22.584H114.658V22.7451C113.381 22.7451 114.396 25.0543 114.396 25.0543L117.379 31.9045L119.17 26.8683C119.665 25.4541 119.229 22.7451 117.194 22.7451V22.584L122.887 22.6079Z" fill="#454545"/>
<path d="M134.476 22.6079H134.577C139.614 34.1601 139.948 34.8164 139.948 34.8164C140.664 36.4096 141.338 36.4275 141.738 36.4693V36.6304H134.762V36.4693C136.356 36.4693 135.162 34.1421 135.162 34.1421L134.524 32.7638H130.621C130.221 33.6827 130.579 36.4693 132.972 36.4693V36.6304H127.244V36.4693C127.841 36.4275 128.921 36.2724 130.454 32.7638L134.476 22.6079ZM132.465 28.1155L130.675 32.5967H134.44L132.465 28.1155Z" fill="#454545"/>
<path d="M161.297 22.6079V22.7451C160.444 22.7451 159.167 23.3418 157.615 26.8683L153.689 36.6065H153.092C147.722 24.8753 147.471 24.3562 147.471 24.3562C146.755 22.763 146.457 22.7809 145.902 22.7451V22.584H152.531V22.7451C151.159 22.7451 152.251 25.0543 152.251 25.0543L155.342 31.9224L157.436 26.922C158.033 25.4482 157.675 22.7988 155.282 22.7988V22.6377L161.297 22.6079Z" fill="#454545"/>
<path d="M179.461 32.728V36.6304H167.831V36.4693C168.666 36.4693 168.982 35.2759 168.982 33.9214V25.3587C168.982 24.1235 168.702 22.769 167.831 22.769V22.6079H179.204V26.6893H179.025C179.025 22.8048 173.583 22.7869 173.583 22.7869H172.867V29.458H174.478C174.787 29.4596 175.094 29.3999 175.38 29.2823C175.666 29.1647 175.925 28.9916 176.144 28.773C176.363 28.5544 176.536 28.2946 176.653 28.0086C176.771 27.7227 176.831 27.4162 176.829 27.107H177.008V31.9881H176.829C176.82 31.3674 176.569 30.7748 176.13 30.3359C175.691 29.897 175.099 29.6463 174.478 29.637H172.867V36.4693H173.583C173.583 36.4693 179.282 36.6901 179.282 32.7459L179.461 32.728Z" fill="#454545"/>
<path d="M47.9705 44.2983H49.3191V49.8298H47.9705V47.5384H45.8522V49.8298H44.5037V44.2983H45.8522V46.5121H47.9824L47.9705 44.2983Z" fill="#101010"/>
<path d="M58.6467 49.83L58.3424 48.8992H56.3554L56.0511 49.83H54.613L56.5344 44.2866H58.1754L60.0908 49.83H58.6467ZM56.6955 47.8788H58.0023L57.3459 45.9097L56.6955 47.8788Z" fill="#101010"/>
<path d="M65.3835 49.8298V44.2983H66.7381V49.8298H65.3835Z" fill="#101010"/>
<path d="M73.8981 47.6814V49.8296H72.5496V44.2981H74.7335C75.2777 44.2661 75.8134 44.4433 76.2312 44.7934C76.4007 44.9425 76.5363 45.1261 76.629 45.3319C76.7216 45.5378 76.7691 45.7611 76.7682 45.9868C76.7626 46.3206 76.6611 46.6458 76.4759 46.9236C76.2478 47.2498 75.9081 47.4811 75.5211 47.574L76.8757 49.8236H75.3003L74.0533 47.6755L73.8981 47.6814ZM73.8981 45.3245V46.6551H74.7335C74.8646 46.6531 74.9923 46.6128 75.1009 46.5394C75.2095 46.4659 75.2943 46.3624 75.345 46.2414C75.3957 46.1205 75.4099 45.9874 75.3861 45.8584C75.3623 45.7295 75.3014 45.6103 75.2109 45.5154C75.1491 45.4519 75.0747 45.4021 74.9925 45.3692C74.9102 45.3363 74.822 45.3211 74.7335 45.3245H73.8981Z" fill="#101010"/>
<path d="M91.3095 45.2831C91.1599 45.2756 91.013 45.3246 90.8978 45.4204C90.8428 45.4682 90.7996 45.5281 90.7717 45.5954C90.7437 45.6627 90.7317 45.7355 90.7367 45.8082C90.7335 45.8824 90.745 45.9564 90.7706 46.0261C90.7962 46.0957 90.8354 46.1596 90.8859 46.214C90.9939 46.3225 91.1272 46.4024 91.2737 46.4467L91.8108 46.6078C92.0132 46.6552 92.2124 46.715 92.4075 46.7868C92.5934 46.8549 92.7715 46.943 92.9385 47.0493C93.1055 47.1628 93.2411 47.3168 93.3324 47.4969C93.4351 47.7108 93.4862 47.9458 93.4815 48.1831C93.4775 48.414 93.4219 48.641 93.3186 48.8475C93.2153 49.054 93.0671 49.2348 92.8848 49.3765C92.4626 49.7228 91.9265 49.8994 91.3811 49.8718C90.8438 49.8963 90.314 49.7386 89.8775 49.4242C89.6824 49.2753 89.5262 49.0814 89.4223 48.859C89.3184 48.6367 89.2699 48.3925 89.2808 48.1473H90.7128C90.7017 48.2385 90.7118 48.3311 90.7424 48.4177C90.7729 48.5044 90.8231 48.5829 90.8889 48.647C90.9547 48.7111 91.0345 48.7591 91.1219 48.7873C91.2094 48.8155 91.3022 48.8232 91.3931 48.8096C91.4753 48.8165 91.558 48.8063 91.6361 48.7796C91.7141 48.7529 91.7858 48.7103 91.8466 48.6545C91.9013 48.6061 91.9446 48.5463 91.9735 48.4793C92.0024 48.4122 92.0161 48.3396 92.0136 48.2666C92.0165 48.1952 92.0047 48.124 91.9791 48.0573C91.9534 47.9906 91.9144 47.9299 91.8645 47.8788C91.7539 47.7736 91.6214 47.6942 91.4766 47.646C91.3009 47.582 91.1216 47.5282 90.9396 47.485C90.7427 47.4313 90.5458 47.3716 90.3429 47.3C90.1548 47.2298 89.9748 47.1398 89.8058 47.0315C89.6415 46.9217 89.508 46.7718 89.418 46.5958C89.3137 46.3825 89.2625 46.1471 89.2688 45.9097C89.2637 45.6713 89.3151 45.4351 89.4188 45.2204C89.5225 45.0057 89.6756 44.8186 89.8655 44.6745C90.2876 44.3524 90.8089 44.1878 91.3394 44.209C91.8518 44.1856 92.3582 44.3279 92.7834 44.6148C92.9782 44.7654 93.134 44.9604 93.2379 45.1837C93.3417 45.4069 93.3905 45.6517 93.3801 45.8977H91.9182C91.9073 45.7247 91.8378 45.5606 91.7213 45.4323C91.6663 45.3808 91.6015 45.341 91.5308 45.3154C91.46 45.2897 91.3847 45.2788 91.3095 45.2831V45.2831Z" fill="#101010"/>
<path d="M102.677 49.83L102.373 48.8992H100.386L100.075 49.83H98.6433L100.565 44.2866H102.206L104.121 49.83H102.677ZM100.75 47.8788H102.056L101.4 45.9097L100.75 47.8788Z" fill="#101010"/>
<path d="M109.414 44.2983H110.762V48.8034H112.439V49.8298H109.414V44.2983Z" fill="#101010"/>
<path d="M118.317 49.0841C117.788 48.5397 117.493 47.8109 117.493 47.0524C117.493 46.2938 117.788 45.5651 118.317 45.0206C118.583 44.7598 118.898 44.5547 119.244 44.4174C119.591 44.2801 119.961 44.2133 120.333 44.221C120.705 44.2121 121.075 44.2783 121.42 44.4157C121.766 44.5531 122.08 44.7589 122.344 45.0206C122.871 45.5658 123.166 46.2942 123.166 47.0524C123.166 47.8105 122.871 48.539 122.344 49.0841C122.081 49.3454 121.768 49.5509 121.423 49.6883C121.079 49.8257 120.71 49.8921 120.339 49.8837C119.966 49.8922 119.595 49.8258 119.247 49.6885C118.9 49.5512 118.583 49.3457 118.317 49.0841ZM121.39 48.207C121.649 47.8769 121.79 47.4692 121.79 47.0494C121.79 46.6295 121.649 46.2219 121.39 45.8918C121.106 45.6133 120.725 45.4574 120.327 45.4574C119.93 45.4574 119.549 45.6133 119.265 45.8918C119.006 46.2219 118.865 46.6295 118.865 47.0494C118.865 47.4692 119.006 47.8769 119.265 48.207C119.549 48.4854 119.93 48.6414 120.327 48.6414C120.725 48.6414 121.106 48.4854 121.39 48.207V48.207Z" fill="#101010"/>
<path d="M132.261 44.2866H133.604V49.83H132.261L129.988 46.3393V49.83H128.639V44.2866H129.988L132.244 47.7774L132.261 44.2866Z" fill="#101010"/>
<path d="M76.1361 0.792182C78.4108 -0.169466 80.9602 -0.258721 83.2966 0.541541C84.4644 0.945916 85.5677 1.51669 86.5725 2.23619C87.5152 2.88063 88.3148 3.51313 89.0786 4.0263C89.5381 4.31868 89.9856 4.59315 90.4152 4.83183C90.8448 5.07051 91.2685 5.22565 91.6922 5.42853C92.5805 5.74202 93.5046 5.94249 94.443 6.02524C96.3518 6.18579 98.2704 5.86363 100.022 5.08841C100.106 5.26145 99.9386 5.68513 100.267 5.62546C101.568 5.33307 101.764 5.5837 101.973 5.94173C102.021 6.03123 101.794 6.16845 101.603 6.28779C101.412 6.40713 101.239 6.4668 101.448 6.47276C100.505 7.02173 98.7631 7.63036 99.8789 7.47522C100.255 7.44113 100.622 7.33586 100.959 7.16496C101.296 6.97312 101.671 6.85514 102.057 6.81886C102.534 6.87256 102.009 7.54086 102.492 7.58859C102.966 7.32028 103.422 7.02338 103.859 6.69951C104.306 6.60404 103.859 7.42751 104.211 7.17093C105.583 6.34033 106.721 5.17386 107.517 3.78163C107.6 3.83533 107.732 3.78166 107.803 3.85327C107.875 3.92487 107.905 4.00841 107.672 4.41417C105.956 6.85512 103.55 8.72743 100.762 9.79068C97.9739 10.8539 94.9319 11.0596 92.0263 10.3812C91.0302 10.1464 90.0649 9.79596 89.1502 9.33696C88.2736 8.89739 87.4405 8.37591 86.662 7.77954C85.4839 6.79538 84.2243 5.91307 82.8968 5.14213C81.7846 4.60356 80.5478 4.37476 79.3166 4.4798C78.1042 4.57869 76.9432 5.01251 75.9631 5.73286C74.9667 6.45511 74.18 7.42912 73.6837 8.55525C73.2302 9.56367 73.0572 8.69252 73.2063 7.69603C73.1646 8.01825 72.8841 7.89292 72.8602 8.22707C72.5977 8.13756 72.3113 7.27833 73.0631 6.04913C72.8482 6.33441 72.649 6.63121 72.4664 6.93821C72.2098 7.20672 72.2098 6.80095 72.0368 6.69951C72.2218 6.37133 72.4247 6.06106 72.3471 6.00735L72.0189 5.78658C71.7253 6.22436 71.4679 6.68535 71.2491 7.16496C71.4103 6.80097 71.6072 6.46084 71.5236 6.41311L71.1775 6.21618C71.4878 5.42257 72.4068 4.5514 72.9677 3.9189L72.7588 3.71003C72.0133 4.3823 71.4054 5.1929 70.9687 6.09684C71.094 5.67318 71.0164 5.62544 70.8494 5.50013C71.4759 4.30673 72.5738 3.51312 73.445 2.48082C73.0892 2.75212 72.7504 3.04508 72.4306 3.35799C72.7454 2.71343 73.2604 2.18801 73.8985 1.86027C74.618 1.45135 75.3658 1.09442 76.1361 0.792182V0.792182Z" fill="#C3D8CC"/>
<path d="M76.1361 61.4412C78.4102 60.4768 80.9606 60.3875 83.2966 61.1906C84.4651 61.5906 85.5688 62.1595 86.5725 62.8793C87.5152 63.5237 88.3148 64.1622 89.0786 64.6694C89.5381 64.9618 89.9856 65.2661 90.4152 65.4749C90.8448 65.6838 91.2685 65.8747 91.6922 66.0716C92.5805 66.3851 93.5046 66.5856 94.443 66.6683C96.3518 66.8289 98.2704 66.5067 100.022 65.7315C100.106 65.9105 99.9386 66.3282 100.267 66.2686C101.568 65.9762 101.764 66.2268 101.973 66.5908C102.021 66.6743 101.794 66.8175 101.603 66.9309C101.412 67.0443 101.239 67.1099 101.448 67.1159C100.505 67.6648 98.7631 68.2735 99.8789 68.1243C100.255 68.0848 100.621 67.9777 100.959 67.8081C101.297 67.619 101.671 67.5012 102.057 67.462C102.534 67.5157 102.009 68.184 102.492 68.2377C102.964 67.9652 103.421 67.6664 103.859 67.3426C104.306 67.2471 103.859 68.0706 104.211 67.814C105.583 66.9834 106.721 65.817 107.517 64.4247C107.6 64.4784 107.732 64.4247 107.803 64.4963C107.875 64.5679 107.905 64.6515 107.672 65.0632C105.956 67.5042 103.55 69.3765 100.762 70.4397C97.9739 71.503 94.9319 71.7086 92.0263 71.0302C91.0299 70.7936 90.0647 70.4411 89.1502 69.98C88.2736 69.5405 87.4405 69.019 86.662 68.4226C85.4839 67.4385 84.2243 66.5562 82.8968 65.7852C81.785 65.2459 80.5474 65.019 79.3166 65.1289C78.1039 65.222 76.9419 65.6541 75.9631 66.376C74.9651 67.099 74.1782 68.0754 73.6837 69.2043C73.2302 70.2068 73.0572 69.3356 73.2063 68.3391C73.1646 68.6613 72.8841 68.536 72.8602 68.8702C72.5977 68.7866 72.3113 67.9274 73.0631 66.6922C72.8482 66.9796 72.649 67.2784 72.4664 67.5873C72.2098 67.8498 72.2098 67.4441 72.0368 67.3426C72.2218 67.0144 72.4247 66.7042 72.3471 66.6505L72.0189 66.4297C71.7265 66.8682 71.4692 67.3291 71.2491 67.8081C71.4103 67.4441 71.6072 67.1039 71.5236 67.0562C71.4401 67.0085 71.2611 66.913 71.1775 66.8593C71.4878 66.0657 72.4068 65.1945 72.9677 64.562L72.7588 64.3531C72.0133 65.0254 71.4054 65.836 70.9687 66.7399C71.094 66.3223 71.0164 66.2685 70.8494 66.1432C71.4759 64.9498 72.5738 64.1562 73.445 63.1239C73.0892 63.3952 72.7504 63.6882 72.4306 64.0011C72.7455 63.3551 73.2602 62.8277 73.8985 62.4974C74.6171 62.0901 75.365 61.7371 76.1361 61.4412V61.4412Z" fill="#C3D8CC"/>
</svg>
