<svg width="118" height="72" viewBox="0 0 118 72" fill="none" xmlns="http://www.w3.org/2000/svg">
<path d="M53.6262 38.9272C53.6262 38.1005 54.3205 36.7066 54.9353 37.1359C54.3205 36.7066 54.3205 36.7119 54.4371 35.546C54.8452 35.8322 55.2374 34.9577 55.497 34.4277C54.93 34.6556 54.5166 35.2068 53.6845 36.288C53.923 37.9203 51.1619 39.1869 51.5116 40.7875C52.2165 40.231 53.2977 39.9501 53.6262 38.9272Z" fill="#C3D8CC"/>
<path d="M59.3919 35.9489L59.2435 35.6362L58.4751 37.7243C58.5069 37.2209 59.0634 35.8217 59.3919 35.9489Z" fill="#C3D8CC"/>
<path d="M62.4877 29.589C62.8374 30.0501 63.7066 29.2975 64.1147 29.589C63.1766 29.022 64.8673 27.9991 65.2912 27.1564L64.809 26.3721C63.7808 26.7961 62.6891 28.9001 61.5708 30.5271L62.4877 29.589Z" fill="#C3D8CC"/>
<path d="M63.9875 28.4494L63.8815 27.6279C63.7119 28.1473 63.1184 29.202 63.9875 28.4494Z" fill="#C3D8CC"/>
<path d="M60.7758 27.9572C59.8643 29.2291 61.592 27.3636 60.8871 28.7787C61.0514 28.2593 61.3535 27.7293 60.7758 27.9572Z" fill="#C3D8CC"/>
<path d="M65.8318 23.4727C65.3018 24.4513 64.7877 25.4371 64.2896 26.4299L65.3495 25.5024L65.8318 23.4727Z" fill="#C3D8CC"/>
<path d="M67.4003 24.3525C67.1512 24.7023 66.5152 25.0785 66.6265 24.4108C67.8349 23.8225 67.5063 22.6937 68.6034 22.1372L68.2218 23.1494C68.8684 23.4462 68.9214 20.9606 69.8965 21.7556C70.0502 20.1074 68.402 21.9782 69.0167 20.1392C68.2207 21.4195 67.2584 22.5886 66.1549 23.6158C66.5228 23.4074 66.8674 23.1605 67.183 22.8792C66.6054 23.743 66.1231 25.1051 65.5083 26.1544C66.5365 26.059 66.4464 24.9196 67.4003 24.3525Z" fill="#C3D8CC"/>
<path d="M70.6284 20.2564C71.365 19.4243 72.4356 18.1047 71.9162 17.2832C70.6495 17.7708 71.1424 18.4491 71.1159 19.101C70.782 19.2653 70.056 20.1027 69.9341 19.4455C70.1938 19.4349 70.0454 20.4366 70.6284 20.2564Z" fill="#C3D8CC"/>
<path d="M73.4901 16.9912L73.3841 15.8306L73.1351 16.3394L72.6422 15.9949C72.6952 16.1645 73.2676 17.1714 72.5044 17.9717C73.2464 17.8021 72.9549 17.3039 73.4901 16.9912Z" fill="#C3D8CC"/>
<path d="M70.5378 14.0924C71.3487 13.7585 71.4865 13.271 71.9211 12.4336C71.1155 13.4194 69.9548 14.7496 69.9548 15.2796L69.9071 15.1047C69.6534 15.8122 69.4931 16.5498 69.4302 17.2988C69.7588 15.9314 71.921 14.792 70.5378 14.0924Z" fill="#C3D8CC"/>
<path d="M69.4253 15.2798L69.6479 14.2622L69.4253 15.2798Z" fill="#C3D8CC"/>
<path d="M75.6147 14.3203C75.159 14.6595 74.7244 15.0252 74.2739 15.3803L74.7403 15.2478C75.0318 14.9351 75.3127 14.6171 75.6147 14.3203Z" fill="#C3D8CC"/>
<path d="M72.3769 14.1351C73.4104 13.1705 71.37 14.2676 72.2763 13.2924C72.4405 12.9585 70.9778 14.7658 71.2163 15.1155C71.5449 14.9459 71.7516 13.7747 72.3769 14.1351Z" fill="#C3D8CC"/>
<path d="M76.4312 13.5784C76.606 13.1014 76.7756 12.6085 76.9611 12.1475C76.7756 12.6297 76.606 13.1014 76.4312 13.5784Z" fill="#C3D8CC"/>
<path d="M79.1924 11.4743L79.1023 10.9443C79.7301 10.5648 80.3179 10.1227 80.8565 9.62464C81.1022 9.3893 81.3923 9.20528 81.7098 9.08334C82.0274 8.9614 82.3661 8.90399 82.7061 8.91445C82.1762 8.61237 82.4782 7.65311 81.4395 8.25198C81.4713 8.60177 81.1374 8.85617 81.4024 9.08936C80.9413 9.31195 80.777 8.93566 80.4113 9.02576C80.035 9.94262 78.7896 10.5574 78.5564 11.3471C78.7419 11.0397 78.8797 11.0715 79.0864 10.9443C78.5193 12.4865 77.046 11.3152 77.4593 12.6826C77.5865 12.0625 78.8161 12.0625 79.1924 11.4743Z" fill="#C3D8CC"/>
<path d="M77.0665 9.29645L76.0437 10.0278C75.9218 9.32296 77.1036 8.96787 76.934 8.4379C76.6373 8.2153 75.5985 8.96787 75.7734 8.4379C76.6055 9.56675 74.5704 9.67804 76.1126 10.3564C75.0526 11.5913 75.1427 10.0702 73.9927 11.3422L74.1888 12.2007C75.254 10.6002 75.9483 10.8599 77.0665 9.29645Z" fill="#C3D8CC"/>
<path d="M80.9196 6.42397L81.6828 6.4505L81.0362 6.106C81.5555 5.71994 82.1521 5.45058 82.7851 5.31634C83.3679 5.21801 83.9598 5.18424 84.5499 5.21564C85.6629 5.21564 86.6381 5.40642 87.2528 4.87115C87.5697 4.46906 87.9889 4.1597 88.4665 3.9755C88.9229 3.79497 89.3973 3.66349 89.8815 3.58331C90.3744 3.53561 90.8779 3.50382 91.3655 3.44022C91.6095 3.41294 91.8519 3.37224 92.0915 3.31832C92.3377 3.2862 92.5806 3.23302 92.8176 3.15933C93.6497 2.40147 91.8106 3.02684 91.6251 2.76715C91.6251 1.59591 92.7169 3.09574 92.9501 2.10468C92.9501 1.6966 92.3565 1.61181 91.6463 1.57471C90.9692 1.65324 90.2868 1.67626 89.6059 1.64359C88.864 1.99338 88.9806 2.26898 88.917 2.76715C88.5725 2.42797 87.7616 2.61875 87.3906 2.29016C86.8462 2.77673 86.1854 3.11445 85.4721 3.27062C84.7533 3.39539 84.1111 3.79443 83.6808 4.38358C82.9229 4.13449 84.6824 3.63631 84.1631 3.8536L83.3999 4.33588L83.5324 4.37298C83.3249 4.67981 83.0626 4.94571 82.7586 5.15734C82.4363 5.4064 82.0901 5.62298 81.7252 5.80391C81.1094 6.10761 80.4626 6.34394 79.7961 6.50879C80.4108 6.2915 81.0415 6.43989 80.591 7.03877L79.6901 6.84268C79.494 7.44155 79.282 8.0086 79.1177 8.60748C79.6053 7.33023 81.5079 7.60052 80.9196 6.42397Z" fill="#C3D8CC"/>
<path d="M78.7683 6.48779C77.0406 7.38345 79.5845 7.14497 77.8091 8.22083L78.604 7.48946L79.4361 6.79519L78.7683 6.48779Z" fill="#C3D8CC"/>
<path d="M87.3169 3.15898L88.3769 3.24907C88.2201 3.12697 88.0221 3.07037 87.8244 3.09112C87.6268 3.11187 87.4449 3.20838 87.3169 3.36038C87.0678 3.58827 87.0201 3.74196 87.3169 3.15898Z" fill="#C3D8CC"/>
<path d="M90.4859 1.94531L90.311 2.94696L90.9629 2.205L90.4859 1.94531Z" fill="#C3D8CC"/>
<path d="M93.703 2.22033C94.2701 1.62145 93.4115 1.42536 92.6431 1.69035C93.3638 1.58965 93.8037 1.89174 93.703 2.22033Z" fill="#C3D8CC"/>
<path d="M98.6006 3.43506C97.901 3.46686 98.2137 3.50925 98.6006 3.64705C98.9875 3.78484 99.3479 4.09223 98.8603 4.47911C99.0034 4.10283 99.7241 3.62055 98.6006 3.43506Z" fill="#C3D8CC"/>
<path d="M102.676 5.94676C102.209 6.00506 102.05 5.84075 102.024 5.61816C102.15 5.62093 102.274 5.65187 102.387 5.70872C102.5 5.76557 102.598 5.8469 102.676 5.94676Z" fill="#C3D8CC"/>
<path d="M85.9022 6.33398C85.7604 6.43144 85.6095 6.51488 85.4517 6.58309L85.9022 6.33398Z" fill="#C3D8CC"/>
<path d="M86.1986 6.17432L85.9019 6.3333C85.9969 6.27336 86.0961 6.22024 86.1986 6.17432V6.17432Z" fill="#C3D8CC"/>
<path d="M96.517 4.85537L96.4058 4.78125L96.517 4.85537Z" fill="#C3D8CC"/>
<path d="M62.0791 32.4722C61.9912 32.6896 61.8811 32.8974 61.7505 33.0922C61.8565 32.8855 61.9678 32.6789 62.0685 32.4775L62.0791 32.4722Z" fill="#C3D8CC"/>
<path d="M60.5903 32.4829C60.7599 31.1261 62.4452 32.1013 63.1713 30.1934C62.8427 30.9406 62.4664 31.6985 62.069 32.4776C60.6963 32.9598 62.1432 31.4706 60.5903 32.4829Z" fill="#C3D8CC"/>
<path d="M69.2554 18.0407C69.2554 18.0142 69.2554 17.9983 69.2554 17.9665C69.3295 17.85 69.3136 17.9295 69.2554 18.0407Z" fill="#C3D8CC"/>
<path d="M22.8085 69.1304L22.8244 69.3795L21.6743 69.1622L22.8085 69.1304Z" fill="#C3D8CC"/>
<path d="M23.0204 69.5596C23.6828 69.6391 24.3453 69.6603 25.0184 69.708C21.1719 70.5554 17.1817 70.5028 13.3589 69.5543L13.8147 69.3264C13.8147 69.2681 13.9471 69.2734 14.1962 69.3264C14.4453 69.3794 14.8163 69.3953 15.2562 69.4695C15.6961 69.5437 16.1995 69.6709 16.756 69.708L18.4944 69.8829C20.874 70.0048 23.2164 69.7239 23.0204 69.5596Z" fill="#C3D8CC"/>
<path d="M23.5083 69.0932C24.404 67.8848 25.3897 69.1886 26.5239 68.1074C26.2013 68.4411 25.8617 68.7577 25.5063 69.0561C25.1695 69.3002 24.7537 69.4098 24.3404 69.3635L23.5083 69.0932Z" fill="#C3D8CC"/>
<path d="M27.1167 63.0833C27.1848 63.0451 27.258 63.0166 27.334 62.9985C27.2703 63.0679 27.2101 63.1404 27.1538 63.2158L27.1167 63.0833Z" fill="#C3D8CC"/>
<path d="M27.1545 63.2163L27.2605 63.5608C27.0538 63.5078 27.0644 63.3594 27.1545 63.2163Z" fill="#C3D8CC"/>
<path d="M27.3345 62.9774C27.5015 62.8243 27.6428 62.6453 27.7531 62.4474H27.5306C27.7797 62.2778 28.1347 61.7956 28.3361 61.9175C27.8061 62.0871 27.875 62.3255 28.0393 62.7972L28.9403 62.4792C29.2265 63.6664 28.1506 62.829 27.3345 62.9774Z" fill="#C3D8CC"/>
<path d="M31.6159 61.5947C31.5046 61.8756 30.6037 62.2678 31.2767 62.2678C31.1919 62.4586 31.0117 62.5275 30.8315 62.6176C31.3509 62.1618 30.4235 61.7431 31.6159 61.5947Z" fill="#C3D8CC"/>
<path d="M30.8322 62.6167C30.7566 62.6794 30.6749 62.7344 30.5884 62.781C30.66 62.7132 30.7424 62.6577 30.8322 62.6167V62.6167Z" fill="#C3D8CC"/>
<path d="M33.7202 61.1651C33.834 61.1014 33.9438 61.0305 34.0488 60.9531C33.9587 61.022 33.8792 61.0962 33.805 61.1598L33.7202 61.1651Z" fill="#C3D8CC"/>
<path d="M0.835449 63.1576C1.3255 63.8933 1.85631 64.601 2.42538 65.2775C2.78329 65.6273 3.16391 65.953 3.56481 66.2526C4.01893 66.6128 4.51123 66.922 5.03286 67.1748C5.49394 66.4593 5.99211 67.5511 6.62279 66.8886C6.09281 66.5653 6.3366 66.7031 6.95667 67.0688C7.11037 67.1589 7.28526 67.2755 7.48665 67.3762L8.165 67.6836C8.64728 67.8955 9.17726 68.1499 9.72314 68.3619C11.949 69.1675 14.3021 69.4219 13.433 69.0191L12.7864 69.2364C13.062 69.0085 13.3164 68.7806 13.5867 68.5474C14.1248 68.8728 14.6823 69.1648 15.2561 69.4219C15.8391 69.6657 16.4061 69.8459 16.8142 69.6074C16.8142 69.6392 16.7082 69.6551 16.4592 69.6551C16.2101 69.6551 15.855 69.5862 15.3992 69.5173C14.9434 69.4484 14.4452 69.3795 13.91 69.2364L12.2246 68.7594C11.6523 68.5898 11.1117 68.3301 10.5923 68.134L9.85036 67.8372L9.21968 67.5193C8.44592 67.1218 7.94771 66.8886 8.00071 66.9893C7.93711 66.666 8.66849 66.8462 9.76554 67.2702C10.2955 67.4822 11.011 67.6465 11.7318 67.8956C12.1056 68.0237 12.4882 68.1246 12.8765 68.1976L14.0796 68.4732C14.8957 68.6269 15.7331 68.7117 16.5121 68.823L18.6957 68.8972C19.9888 68.8124 20.8792 68.7329 20.9586 68.6057L21.1335 69.1357C21.8481 68.8177 22.5327 68.4363 23.1793 67.9962C23.7178 67.5744 24.2944 67.2036 24.9017 66.8886L25.3363 67.4557C24.3187 67.4557 24.1438 67.9061 23.1634 68.3725C23.7805 68.2166 24.4136 68.1331 25.0501 68.1234C25.5936 68.1066 26.1306 68.001 26.64 67.8107C26.3644 67.0052 25.4211 67.6995 26.9262 66.8197C27.2124 66.931 27.1488 67.2755 27.1859 67.5299C27.223 67.7843 27.382 67.9591 28.0921 67.6094C28.3901 67.5828 28.6766 67.4821 28.9257 67.3164C29.1747 67.1507 29.3783 66.9253 29.5178 66.6607C29.7047 66.1443 30.0847 65.7206 30.5777 65.4788L29.4807 65.6113C30.0107 65.3251 30.9116 64.7793 31.6006 64.9171C31.0017 65.1715 29.6238 66.2314 29.9736 67.037C30.5406 66.5812 32.0935 66.2897 32.6234 65.9293L32.5545 66.6342C33.4184 66.8091 33.376 65.8922 34.383 65.9293C34.9129 65.2139 33.5403 65.4418 33.8053 64.9966C34.0385 65.092 35.533 64.5355 35.7715 63.9366C35.2415 63.5179 34.9394 63.8253 34.542 64.1857C34.1445 64.5461 33.6834 64.9754 32.952 64.6521C33.4086 64.5007 33.8562 64.3238 34.2929 64.1221C34.3512 63.3642 33.8742 63.6663 33.3707 64.0214C32.8672 64.3765 32.2843 64.7051 32.2578 64.1698C32.4167 63.3695 33.0262 63.396 33.6039 63.3271C34.1816 63.2582 34.7752 63.1734 34.7222 62.2672C34.0067 62.3414 32.3108 63.3854 32.3002 62.8343C33.1375 62.8926 33.1057 61.8538 33.8106 61.2443C34.2399 61.1966 34.6638 61.1119 35.0984 61.0377C35.2786 60.4335 34.9447 60.6614 34.4837 60.6826C34.9771 60.5522 35.4449 60.3389 35.8669 60.0519C36.3227 59.7286 36.7891 59.3417 37.2766 58.9442C38.23 58.046 39.2995 57.2795 40.4565 56.6654C41.3946 55.51 40.2074 56.1354 40.377 55.3722C41.437 55.3245 41.9669 53.9519 42.4969 53.3371C42.7036 53.1887 42.4386 52.3725 42.0623 52.346C41.7284 52.9608 41.3893 53.5703 41.0024 54.1585C40.9277 54.0514 40.8282 53.9639 40.7124 53.9035C40.5966 53.8431 40.4679 53.8115 40.3372 53.8115C40.2066 53.8115 40.078 53.8431 39.9621 53.9035C39.8463 53.9639 39.7468 54.0514 39.6721 54.1585C40.3664 54.4871 39.7145 54.8581 39.0097 55.2503C38.3048 55.6425 37.5734 56.1089 38.0663 56.7554L37.584 56.1831C37.054 56.8561 36.5665 57.5716 35.9941 58.2076H36.116C36.0418 58.1122 35.7079 58.5415 35.2309 59.082C34.7236 59.6557 34.1099 60.1254 33.4237 60.4653C33.6145 60.036 35.6496 58.9283 34.0703 59.0555C34.6267 58.1493 36.4658 57.5239 37.6582 56.0188L37.0435 55.8863C37.9974 54.0685 40.4936 52.876 41.845 51.0423L41.9139 51.991C42.6453 51.5829 43.7423 51.1377 43.7741 50.1784C43.1753 50.9522 43.1965 50.3162 43.0799 49.9929C43.6098 48.7634 45.1521 47.4967 46.016 45.8697C46.016 45.8697 46.0796 46.0287 46.212 46.0234C46.4823 45.4404 46.742 44.8257 46.9911 44.2268C47.6112 43.559 48.12 43.5325 48.8142 43.3258C48.9308 42.9919 49.4131 42.3083 48.899 42.3454C48.7731 42.4461 48.6701 42.5726 48.5969 42.7164C48.528 41.4815 49.1746 42.2871 49.4767 41.0045C49.4767 42.1493 50.3882 41.2589 50.8652 41.7094C51.4376 40.3527 49.9855 40.9674 49.8424 40.6494C51.1249 39.404 51.7026 39.4994 52.7837 38.0844C52.5029 37.7823 51.8669 38.9959 51.4111 38.874C51.7768 38.5136 52.063 37.9943 51.9888 37.8141L51.1355 38.5507C52.5638 37.2655 53.6927 35.6825 54.4426 33.9134H54.1829L54.8878 32.8535L55.2641 33.6432C55.476 32.9542 56.43 32.6733 56.1279 32.0532L55.9477 32.2387L56.2127 31.3749L56.3558 32.5249C57.2144 31.7617 56.748 29.6365 57.845 28.1632C58.905 28.3752 56.4459 31.0092 57.4158 31.873C57.9139 31.4808 58.6453 30.7283 58.5499 30.2354C58.216 30.1082 57.9828 30.4686 57.7443 30.8343C58.0252 29.1277 60.2299 27.6968 59.8643 26.2288L58.8255 27.0025C59.4933 25.7465 61.1203 25.7412 60.7652 24.9356L61.221 26.568C61.4807 25.031 62.6095 23.5736 62.9964 22.1957C62.3975 21.7399 61.8994 23.8121 61.8411 23.6478L61.7563 22.8157C63.3462 21.3212 62.4664 22.5719 64.2949 20.7382L63.9027 20.4308C65.0103 20.1764 65.2011 17.463 65.7576 18.9522L65.1004 19.3285L65.6304 19.6359L67.0931 17.0231C67.2627 17.5213 68.0577 16.3182 68.2803 16.986L68.5453 15.7988C69.5204 15.9525 68.0895 17.9982 68.5453 18.4858C68.8739 18.6925 69.1547 18.2685 69.266 18.0407C68.9586 19.4345 67.4164 19.0529 66.6162 20.0757L66.6691 20.9131L66.0915 20.4467C65.9384 20.9386 65.959 21.4681 66.1498 21.9466C64.5863 22.3971 64.7983 24.2149 63.5582 25.6564C64.0882 24.1036 62.4028 26.1016 62.3869 25.7677C61.8887 26.4885 61.8146 29.0006 60.6592 29.1278C60.0868 29.3609 60.7864 27.9459 59.9914 28.8734C59.6417 29.5835 59.6788 30.246 60.2511 30.0128C59.4986 31.6027 58.2478 33.251 57.2567 34.8674L57.0819 34.2208C56.0961 35.0052 56.059 36.3407 56.1756 37.1516C55.9212 37.1781 55.9954 37.3371 55.847 37.0244C54.3419 37.8512 55.6668 39.2026 54.1564 41.1741C54.8136 41.4444 55.4813 40.5435 55.6244 39.7008L56.1544 40.3049C57.3591 38.5553 58.3268 36.6538 59.0322 34.6501L59.0958 35.6412C60.8023 34.9363 58.8043 34.1784 60.585 33.6326C60.9083 32.5726 59.8324 34.0565 59.9702 33.2086C60.5638 32.6786 61.0302 34.0989 61.7351 33.0814C59.5833 37.2205 56.7321 41.7041 54.061 45.8008C54.1299 45.9651 54.3207 45.8008 54.5115 45.5994C54.4744 46.5958 51.9252 49.5425 49.3707 52.2506C46.8162 54.9588 44.2617 57.4073 44.8394 58.2871C44.4525 58.2553 44.7652 57.4391 44.0603 58.2288C44.1027 58.3984 44.0603 58.7587 44.4419 58.7587C43.0852 59.3205 41.9881 60.4176 40.7798 61.5358C39.6226 62.7437 38.2515 63.7266 36.7361 64.4348C36.9958 64.6786 36.5188 65.2563 36.6301 65.4576C35.8997 65.506 35.207 65.7991 34.6638 66.2897C34.1392 66.7313 33.5213 67.0484 32.8566 67.2172L33.3442 67.4186L32.5916 67.8107L31.8126 68.1446C31.2826 68.3672 30.7526 68.6004 30.2545 68.8071C30.2121 68.9873 30.6466 68.8071 30.9169 68.7594C30.8397 68.845 30.7417 68.9093 30.6325 68.9462C30.5232 68.983 30.4064 68.9912 30.293 68.9699C30.1797 68.9487 30.0738 68.8986 29.9854 68.8246C29.8969 68.7507 29.829 68.6552 29.7881 68.5474L28.6168 69.8671C26.2584 69.8194 23.9424 70.5772 21.3296 70.98C18.7169 71.3828 15.8656 71.51 13.38 70.3864C12.9485 70.6043 12.4786 70.7357 11.9968 70.7733C11.7376 70.7967 11.4768 70.7967 11.2177 70.7733C10.911 70.7056 10.6085 70.6207 10.3114 70.5189L10.8838 70.9747C9.33095 70.9747 10.9315 70.6143 9.69134 70.4447C8.74268 70.5242 9.03948 71.3086 10.269 71.3881C10.8626 71.881 10.3697 71.9181 9.81326 71.9181C9.28328 71.6849 8.7533 71.4517 8.22333 71.2026C7.69335 70.9535 7.22164 70.609 6.73936 70.3069L6.02921 69.8459C5.80132 69.6869 5.58934 69.4961 5.37205 69.3159C4.94807 68.9555 4.53468 68.5951 4.13719 68.2294C3.40905 67.4806 2.74264 66.6742 2.14448 65.818C1.64235 64.9651 1.2048 64.0758 0.835449 63.1576V63.1576Z" fill="#C3D8CC"/>
<path d="M110.837 12.2269C110.837 11.7711 111.86 12.9742 111.897 11.9407C111.82 11.572 111.693 11.2154 111.521 10.8808C111.308 10.5532 111.074 10.2398 110.821 9.94268C110.694 9.78369 110.556 9.62469 110.413 9.471L109.925 9.06824C109.586 8.80855 109.252 8.53826 108.865 8.27328C107.371 7.29812 105.686 6.61443 104.286 5.62338C103.786 5.13381 103.214 4.72284 102.59 4.40444C102.552 4.52949 102.537 4.66082 102.548 4.79131C102.103 4.69591 101.488 4.68002 100.91 4.60052C100.352 4.57079 99.7983 4.47472 99.2622 4.31433C98.9972 4.45213 98.8117 4.9821 99.2993 4.8708C98.6999 5.01707 98.0682 4.9496 97.5133 4.68002C96.9833 4.45213 96.4851 4.20834 96.1141 4.49452C96.8296 4.74891 95.5152 5.10399 96.342 5.26828C94.9482 5.55977 94.7521 3.59886 93.4907 3.67835C93.4483 3.84265 93.4112 4.00694 93.6603 3.99634C93.2503 3.8895 92.8197 3.8895 92.4096 3.99634C91.9691 4.12218 91.5372 4.27619 91.1164 4.45742C90.2844 4.74891 89.6166 5.04569 89.2933 4.45742L88.9965 5.1835C88.2811 5.02451 88.2705 4.65352 87.29 4.95031C86.7919 5.44319 87.5338 5.38489 87.4119 5.67638C87.1681 5.49618 86.6805 5.67638 86.1135 5.84067C85.5772 6.0967 84.9839 6.20988 84.391 6.16925C84.142 5.81947 84.6136 5.86717 85.1701 5.87247C85.4461 5.88588 85.7225 5.8609 85.9916 5.79826C86.1111 5.7769 86.223 5.72454 86.316 5.64642C86.409 5.56831 86.4799 5.46716 86.5216 5.35308C86.4633 5.18879 86.3361 5.19939 86.1771 5.25769C86.6522 5.04547 87.1388 4.8597 87.6345 4.70122C88.1169 4.57204 88.6073 4.47465 89.1025 4.40972C90.0281 4.28695 90.9626 4.2444 91.8955 4.28254C92.7806 4.28254 93.6445 4.38853 94.4447 4.31964C95.2547 4.3428 96.0633 4.23726 96.8402 4.00695C97.5928 4.56343 98.0803 3.97515 98.4036 3.37097C97.8154 3.14308 95.9975 2.66081 96.1035 3.90095L94.9641 3.29148C94.5825 3.40278 94.3811 2.23152 94.1638 2.06193C94.9429 2.06193 95.7061 0.80589 94.5454 0.540902C95.6054 0.318311 95.5153 0.964883 95.3987 1.60085C95.2821 2.23683 95.1549 2.84629 96.0134 2.5707L96.183 1.68035C95.8968 2.14673 97.4709 2.45412 98.0326 2.13083L97.7836 1.97713C100.468 2.04052 103.136 2.4176 105.733 3.10068C108.467 3.84049 111.033 5.10007 113.291 6.81053C113.234 7.05038 113.233 7.30019 113.289 7.54026C113.345 7.78032 113.457 8.00405 113.614 8.19377C113.939 8.51978 114.294 8.81434 114.674 9.07351C115.072 9.32109 115.439 9.61656 115.766 9.95329C115.903 10.1288 115.991 10.337 116.023 10.5573C116.054 10.7777 116.028 11.0024 115.946 11.2093C116.508 11.522 116.084 10.0911 116.937 10.8648C117.002 10.9183 117.051 10.9881 117.08 11.067C117.109 11.146 117.116 11.2312 117.101 11.3139C117.086 11.3966 117.049 11.4737 116.994 11.5373C116.939 11.6009 116.868 11.6487 116.789 11.6757L117.223 12.0043C116.477 12.7064 115.492 13.1002 114.467 13.1067C113.9 13.1144 113.334 13.0412 112.787 12.8894L112.342 12.7516C112.178 12.7145 112.013 12.6668 111.849 12.6191C111.504 12.5081 111.166 12.3772 110.837 12.2269Z" fill="#C3D8CC"/>
<path d="M5.58912 24.7767V27.3947C6.71621 25.5186 8.51636 24.5806 10.9896 24.5806C11.9163 24.5464 12.8395 24.7114 13.6971 25.0643C14.5546 25.4172 15.3265 25.9498 15.9608 26.6263C17.2221 27.9901 17.8546 29.8433 17.8581 32.1858V42.5998H12.4258V32.9224C12.4816 31.9546 12.1563 31.0035 11.5196 30.2725C10.8234 29.6678 9.93229 29.3347 9.01013 29.3347C8.08798 29.3347 7.19685 29.6678 6.5007 30.2725C5.8621 31.0027 5.53486 31.9539 5.58912 32.9224V42.5998H0.130371V24.7767H5.58912Z" fill="#454545"/>
<path d="M23.2272 40.2675C21.6991 38.4246 20.8628 36.1058 20.8628 33.7117C20.8628 31.3177 21.6991 28.9988 23.2272 27.1559C23.9445 26.3347 24.8317 25.6792 25.8272 25.2344C26.8228 24.7897 27.903 24.5665 28.9933 24.5802C30.0064 24.5299 31.0159 24.7351 31.929 25.1768C32.8421 25.6186 33.6295 26.2827 34.2189 27.1082V24.7763H39.683V42.5994H34.2189V40.0131C33.6469 40.8934 32.8603 41.6137 31.9331 42.106C31.006 42.5983 29.9687 42.8465 28.9191 42.8273C27.8419 42.8364 26.7754 42.6124 25.7929 42.1706C24.8104 41.7287 23.9351 41.0795 23.2272 40.2675V40.2675ZM33.0371 36.9446C33.4474 36.5116 33.7642 35.9988 33.9675 35.438C34.1709 34.8772 34.2564 34.2805 34.2189 33.6852C34.257 33.093 34.1716 32.4994 33.9682 31.9419C33.7647 31.3845 33.4477 30.8754 33.0371 30.447C32.6818 30.087 32.2585 29.8013 31.7917 29.6066C31.3249 29.4119 30.824 29.312 30.3183 29.3129C29.8119 29.3121 29.3105 29.4136 28.8442 29.6112C28.378 29.8088 27.9564 30.0985 27.6048 30.463C27.1933 30.8951 26.8759 31.4079 26.6725 31.9688C26.4691 32.5298 26.3841 33.1268 26.4229 33.7223C26.3822 34.3147 26.4663 34.9091 26.6699 35.4669C26.8735 36.0247 27.192 36.5335 27.6048 36.9604C27.9587 37.3221 28.3812 37.6095 28.8476 37.8057C29.314 38.0019 29.8149 38.1029 30.3209 38.1029C30.8269 38.1029 31.3278 38.0019 31.7942 37.8057C32.2606 37.6095 32.6832 37.3221 33.0371 36.9604V36.9446Z" fill="#454545"/>
<path d="M51.7239 37.9679H53.6742V42.5999H50.8759C48.8779 42.5999 47.3251 42.16 46.228 41.275C45.131 40.3899 44.5851 38.8742 44.5851 36.7225V29.3028H42.9263V24.7662H44.5904V20.4204H50.0545V24.7662H53.6318V29.3028H50.0545V36.7225C50.0651 37.5387 50.6162 37.9679 51.7239 37.9679Z" fill="#454545"/>
<path d="M69.2021 24.7769H74.6608V42.6H69.2021V39.9819C68.0679 41.858 66.2678 42.7961 63.8016 42.7961C62.8749 42.8309 61.9514 42.6663 61.0937 42.3134C60.2361 41.9604 59.4643 41.4274 58.8304 40.7504C57.562 39.3901 56.9296 37.5369 56.9331 35.1909V24.7769H62.3654V34.4542C62.3097 35.422 62.635 36.3732 63.2717 37.1041C63.9663 37.712 64.858 38.0471 65.7811 38.0471C66.7042 38.0471 67.5959 37.712 68.2905 37.1041C68.9291 36.374 69.2564 35.4227 69.2021 34.4542V24.7769Z" fill="#454545"/>
<path d="M84.5983 24.7767V28.0996C85.8738 25.7571 87.5786 24.5841 89.7126 24.5806V30.1188H88.3665C87.3446 30.0415 86.3323 30.3625 85.5417 31.0145C84.9128 31.6116 84.5983 32.6556 84.5983 34.1466V42.5786H79.1343V24.7767H84.5983Z" fill="#454545"/>
<path d="M93.4166 40.268C91.8885 38.4251 91.0522 36.1062 91.0522 33.7122C91.0522 31.3182 91.8885 28.9993 93.4166 27.1564C94.134 26.3352 95.0211 25.6796 96.0167 25.2349C97.0122 24.7902 98.0925 24.567 99.1828 24.5807C100.196 24.5304 101.205 24.7356 102.118 25.1773C103.032 25.6191 103.819 26.2832 104.408 27.1087V24.7768H109.867V42.5999H104.403V40.0136C103.831 40.8939 103.045 41.6142 102.117 42.1065C101.19 42.5988 100.153 42.847 99.1033 42.8278C98.0269 42.8362 96.9615 42.6118 95.9799 42.1699C94.9984 41.7281 94.124 41.0793 93.4166 40.268V40.268ZM103.221 36.945C103.633 36.5131 103.952 36.0006 104.156 35.4396C104.36 34.8787 104.446 34.2815 104.408 33.6857C104.448 33.0929 104.363 32.4983 104.159 31.9404C103.954 31.3826 103.635 30.874 103.221 30.4475C102.868 30.086 102.446 29.7988 101.98 29.6026C101.514 29.4065 101.013 29.3055 100.508 29.3055C100.002 29.3055 99.5017 29.4065 99.0357 29.6026C98.5697 29.7988 98.1477 30.086 97.7942 30.4475C97.3828 30.8797 97.0653 31.3924 96.8619 31.9534C96.6585 32.5144 96.5735 33.1114 96.6124 33.7069C96.5716 34.2993 96.6558 34.8937 96.8594 35.4515C97.063 36.0093 97.3815 36.5182 97.7942 36.945C98.1477 37.3066 98.5697 37.5938 99.0357 37.7899C99.5017 37.986 100.002 38.0871 100.508 38.0871C101.013 38.0871 101.514 37.986 101.98 37.7899C102.446 37.5938 102.868 37.3066 103.221 36.945Z" fill="#454545"/>
<path d="M6.01819 45.7212V51.0846H5.13844V47.4118L3.5008 51.0846H2.89135L1.2484 47.4118V51.0846H0.368652V45.7212H1.3173L3.19871 49.9292L5.07485 45.7212H6.01819Z" fill="#101010"/>
<path d="M12.1079 51.0846V45.7212H12.9877V51.0846H12.1079Z" fill="#101010"/>
<path d="M22.6126 45.7163H23.4924V51.085H22.6126L19.9627 47.0784V51.085H19.0776V45.7163H19.9574L22.6073 49.7123L22.6126 45.7163Z" fill="#101010"/>
<path d="M32.5491 45.7168V46.4005H30.461V48.0275H32.3266V48.7112H30.4716V50.3965H32.5598V51.0855H29.5972V45.7168H32.5491Z" fill="#101010"/>
<path d="M39.4437 48.9064V51.0846H38.564V45.7212H40.4136C40.9217 45.6895 41.4231 45.8503 41.818 46.1717C41.9787 46.3162 42.106 46.4939 42.1911 46.6925C42.2762 46.8911 42.3171 47.1058 42.3109 47.3218C42.3129 47.6718 42.1992 48.0127 41.9876 48.2916C41.7341 48.5983 41.3748 48.7987 40.9807 48.8534L42.3957 51.0846H41.3357L39.9949 48.9064H39.4437ZM39.4437 46.4102V48.2227H40.4136C40.6858 48.2431 40.9553 48.1577 41.1661 47.9842C41.3193 47.7954 41.403 47.5596 41.403 47.3165C41.403 47.0733 41.3193 46.8375 41.1661 46.6487C40.9553 46.4753 40.6858 46.3898 40.4136 46.4102H39.4437Z" fill="#101010"/>
<path d="M51.9944 51.0855L51.6129 49.9884H49.3658L48.9789 51.0855H48.062L49.9805 45.7168H51.0034L52.9219 51.0855H51.9944ZM49.6042 49.3047H51.3691L50.4946 46.7821L49.6042 49.3047Z" fill="#101010"/>
<path d="M58.6929 45.7212H59.5726V50.4115H61.3852V51.0846H58.6929V45.7212Z" fill="#101010"/>
<path d="M80.3479 45.7221H81.286L79.696 51.0855H78.6997L77.5708 47.0259L76.3784 51.0855H75.3873L73.8716 45.7168H74.8043L75.912 50.0838L77.115 45.7168H78.1061L79.2243 50.0626L80.3479 45.7221Z" fill="#101010"/>
<path d="M90.5711 51.0855L90.1842 49.9884H87.9371L87.5555 51.0855H86.6333L88.5571 45.7168H89.5641L91.4826 51.0855H90.5711ZM88.1756 49.3047H89.9457L89.0659 46.7821L88.1756 49.3047Z" fill="#101010"/>
<path d="M96.9839 46.4102V45.7212H100.726V46.4102H99.2999V51.0846H98.4201V46.4102H96.9839Z" fill="#101010"/>
<path d="M109.518 45.7168V46.4005H107.435V48.0275H109.285V48.7112H107.435V50.3965H109.518V51.0855H106.555V45.7168H109.518Z" fill="#101010"/>
</svg>
