<svg width="147" height="72" viewBox="0 0 147 72" fill="none" xmlns="http://www.w3.org/2000/svg">
<path d="M95.1244 35.4312C97.4887 20.8657 87.5977 7.14138 73.0322 4.77707C58.4667 2.41275 44.7423 12.3037 42.378 26.8693C40.0137 41.4348 49.9047 55.1591 64.4702 57.5234C79.0357 59.8877 92.7601 49.9967 95.1244 35.4312Z" fill="#C3D8CC"/>
<path d="M10.5333 36.7644C10.6684 36.8446 10.8136 36.9063 10.965 36.9479C11.9902 37.3928 12.9549 37.9658 13.836 38.6532C15.1745 39.6678 16.1265 41.1091 16.5343 42.7384C16.8127 44.1699 16.5574 45.6538 15.8165 46.91C15.5749 47.4639 15.2688 47.9874 14.9045 48.4696C14.7234 48.7432 14.5155 48.9981 14.2839 49.2305C13.4177 50.1599 12.397 50.9322 11.2672 51.5132C10.7883 51.8404 10.2276 52.0273 9.64825 52.0529C9.20019 52.096 8.77083 52.254 8.40165 52.5116C8.03278 52.7344 7.64868 52.931 7.25218 53.0998C6.38655 53.4583 5.45845 53.6418 4.52152 53.6395C3.23174 53.6395 1.98516 53.4182 1.17028 52.6681C0.452536 52.0043 0.258252 51.0221 0.689977 49.619C1.04724 48.6888 1.51469 47.8046 2.0823 46.9855C2.62735 46.0932 3.26988 45.2642 3.99807 44.5139C4.13349 44.3738 4.24636 44.2137 4.33265 44.039C4.71581 43.2673 4.9047 43.0946 5.62244 43.0946C5.91385 42.9597 6.10272 42.501 6.48588 42.5927C6.297 42.7114 6.15128 42.8302 5.86526 43.0136C6.10271 43.0136 6.24842 43.0514 6.34556 43.0136C6.33826 43.2358 6.35272 43.4581 6.38874 43.6774C6.43731 43.8177 6.38874 43.9634 6.24843 44.1793C5.96241 44.6002 5.70878 45.0158 5.38499 45.4961C4.91671 46.09 4.60332 46.7909 4.47297 47.536C4.40259 47.9702 4.35575 48.408 4.33265 48.8473C4.31223 48.9166 4.30769 48.9896 4.31938 49.0609C4.33108 49.1322 4.35872 49.1999 4.40021 49.259C4.4417 49.3181 4.49599 49.3671 4.55904 49.4024C4.62209 49.4376 4.69227 49.4582 4.76437 49.4625C5.2106 49.5532 5.67302 49.5215 6.10271 49.3708C7.01954 49.1147 7.90335 48.7524 8.73623 48.2915C9.59968 47.7896 10.5117 47.3255 11.3752 46.775C12.0605 46.376 12.6887 45.8858 13.2424 45.318C13.6741 44.924 13.8144 44.5193 13.6741 44.2387C13.4391 43.2154 12.8433 42.3111 11.9958 41.6915C10.4264 40.6972 8.77649 39.8361 7.06331 39.1173C6.03886 38.6595 5.0596 38.1067 4.13839 37.466C3.13354 36.7999 2.31163 35.8926 1.74771 34.8271C0.64142 33.1595 1.65056 30.5098 3.18318 28.4483C4.5701 26.5326 6.42113 25.1241 8.3531 23.8019C8.93053 23.4835 9.50256 23.2622 10.0314 22.9492C12.6104 21.6916 15.4214 20.9805 18.2882 20.8608C19.103 20.8608 19.8693 20.8608 20.6842 20.8608C21.4773 20.7818 22.2761 20.9356 22.9832 21.3033C23.048 21.3348 23.1058 21.379 23.1532 21.4332C23.2007 21.4874 23.2367 21.5506 23.2594 21.619C23.282 21.6874 23.2907 21.7597 23.285 21.8315C23.2793 21.9033 23.2592 21.9733 23.226 22.0372C23.1865 22.1478 23.17 22.2654 23.1774 22.3826C23.1518 22.6313 23.103 22.877 23.0317 23.1165C22.6454 23.9171 22.4025 24.7792 22.314 25.6637C22.2053 26.1133 22.0229 26.5418 21.7743 26.9319C21.5855 27.342 21.2994 27.6712 21.1052 28.0112C20.9254 28.3597 20.6621 28.6582 20.3388 28.8801C19.8656 29.1937 19.3695 29.4715 18.8548 29.7111C18.7495 29.7982 18.6222 29.8543 18.4869 29.8734C18.3516 29.8924 18.2137 29.8736 18.0885 29.8191C17.3515 29.6462 16.5945 29.5736 15.8381 29.6032C14.2522 29.5698 12.666 29.6619 11.0945 29.8784C10.5874 29.9829 10.0907 30.1328 9.61047 30.3263C9.03844 30.499 8.53116 30.7149 7.99151 30.866C4.5431 32.2043 6.55604 34.4169 8.28294 35.4207C9.06154 35.8191 9.81325 36.268 10.5333 36.7644Z" fill="#101010"/>
<path d="M38.4556 36.3381C38.3056 36.9718 38.0463 37.5744 37.6893 38.119C37.549 38.1892 37.5004 38.3403 37.4032 38.3996C37.2357 38.641 37.0555 38.8734 36.8636 39.0958C36.7463 39.2014 36.6494 39.3276 36.5776 39.4682C36.4492 39.7365 36.2494 39.9643 36.0001 40.1265C35.9003 40.1764 35.8163 40.253 35.7573 40.3478C35.4713 40.7256 35.0881 41.0655 34.8021 41.3947C34.5408 41.6542 34.2309 41.8596 33.8901 41.9991C33.4829 42.1096 33.0828 42.2448 32.692 42.4039C32.3413 42.5586 31.9807 42.6902 31.6127 42.7978L31.181 42.8572C30.6178 42.8157 30.0681 42.6654 29.562 42.4147C29.487 42.3654 29.4052 42.3272 29.3192 42.3013C28.8811 42.1992 28.4819 41.9724 28.1697 41.6484C27.8092 41.8659 27.4728 42.1209 27.166 42.4093C26.9745 42.53 26.7939 42.6673 26.6263 42.8194C26.5887 42.8291 26.5549 42.8497 26.5292 42.8788C26.2466 43.2188 25.8718 43.4699 25.4499 43.6019C25.1472 43.7522 24.8178 43.841 24.4806 43.8632C24.1435 43.8854 23.8053 43.8407 23.4855 43.7314C23.2543 43.6298 23.014 43.5503 22.7678 43.494C22.1291 43.3484 21.5568 42.995 21.1407 42.489C20.7246 41.9831 20.4883 41.3533 20.4688 40.6986C20.3815 39.9413 20.5146 39.1749 20.852 38.4914C21.1636 37.8074 21.5491 37.1596 22.0015 36.5594C22.0015 36.5108 22.05 36.4569 22.0986 36.4029C22.7468 35.3594 23.4493 34.3506 24.2033 33.3808C24.7342 32.7257 25.3472 32.1417 26.0273 31.6431C26.1571 31.5622 26.3023 31.5089 26.4536 31.4866C26.751 31.3877 27.056 31.3137 27.3656 31.2654H27.5114C27.8427 31.326 28.1783 31.3603 28.5151 31.3679C28.6055 31.406 28.703 31.4244 28.8011 31.4219C29.044 31.4219 29.2328 31.4219 29.3408 31.5892C29.3682 31.6114 29.4027 31.6229 29.4379 31.6216C29.6754 31.5892 29.8697 31.7996 30.1071 31.7673C30.149 31.7615 30.1917 31.7642 30.2325 31.7753C30.2733 31.7865 30.3114 31.8057 30.3446 31.832C30.6541 32.0374 30.9292 32.2906 31.1594 32.5821C31.208 32.7171 31.2566 32.8088 31.3051 32.9437C31.3638 33.1366 31.3527 33.344 31.2738 33.5295C31.1949 33.715 31.0531 33.8668 30.8734 33.9583C30.4449 34.2301 30.0437 34.5428 29.6754 34.8919V34.9404C29.1013 35.5156 28.5726 36.1345 28.0942 36.7915C27.9053 37.0559 27.711 37.2718 27.5221 37.493C27.0904 38.0327 26.7558 38.6047 26.3727 39.1821C26.227 39.4412 26.0381 39.7218 25.8924 39.9215C25.8113 40.0137 25.7473 40.1197 25.7035 40.2345C25.4295 40.7567 25.2349 41.3169 25.1261 41.8966C25.0775 41.9506 25.1261 41.9937 25.1261 42.0909C25.1986 42.0428 25.2641 41.9846 25.3204 41.9182C25.8105 41.3454 26.3369 40.8047 26.8961 40.2992C27.1853 40.0346 27.4295 39.7247 27.6193 39.3818C27.7315 39.2099 27.8598 39.0491 28.0024 38.9015C28.2985 38.5299 28.5689 38.1387 28.8119 37.7305C29.1519 37.1584 29.4865 36.5864 29.8211 35.9658C29.9959 35.8916 30.1885 35.8699 30.3754 35.9035C30.5623 35.937 30.7353 36.0243 30.8734 36.1547C30.9705 36.2356 31.0677 36.3166 31.1594 36.4029C31.4425 36.7874 31.5939 37.253 31.5912 37.7305C31.5796 37.8216 31.5463 37.9086 31.494 37.9841C31.3051 38.4428 31.0677 38.9555 30.8248 39.4196C30.6875 39.7427 30.6391 40.0967 30.6845 40.4449C30.7818 40.8381 30.9249 41.2184 31.1109 41.5782C31.1575 41.6471 31.223 41.7011 31.2996 41.7337C31.3762 41.7663 31.4606 41.776 31.5426 41.7617C31.8928 41.6765 32.2316 41.5497 32.5517 41.3839C32.865 41.1975 33.1676 40.994 33.4584 40.7741C33.7929 40.5367 34.1329 40.2992 34.5377 40.0078C34.7751 39.7326 35.0773 39.5005 35.304 39.2307C35.9246 38.5184 36.8798 36.8077 37.5058 36.1007C37.5543 36.0413 37.6029 36.0359 37.6461 35.982C37.9513 35.9937 38.2407 36.121 38.4556 36.3381V36.3381Z" fill="#101010"/>
<path d="M50.9596 34.3141C50.9596 34.6001 50.8139 34.6217 50.8625 34.8538C50.7358 35.4888 50.5441 36.1091 50.2904 36.7048C50.0044 37.5143 49.6644 38.3238 49.3784 39.1333C48.9467 40.0561 48.515 40.8817 48.0832 41.756C47.8944 42.1176 45.644 45.3015 45.385 45.5336C44.759 46.0732 43.7066 47.444 43.1292 47.9027C42.4471 48.3433 41.7243 48.7174 40.9706 49.0198C40.3627 49.1854 39.7329 49.2564 39.1034 49.2302C38.0942 49.2302 36.6101 47.9458 36.1353 47.0716C35.8617 46.7017 35.6351 46.2993 35.4607 45.8736C35.2558 45.124 35.1274 44.3555 35.0775 43.58C35.0775 39.5542 35.5578 38.912 36.6965 34.8754C36.7936 34.5246 36.8422 34.2332 36.9339 33.8824C37.0035 33.5422 37.1009 33.2082 37.2254 32.884C37.3657 32.3444 37.5114 31.8047 37.6571 31.2651C37.8945 30.1858 39.1411 28.1836 37.9917 28.1027C37.6571 28.1027 37.3657 28.189 37.0797 27.9894C36.7936 27.7897 36.5076 27.7357 36.2162 27.5846C36.0736 27.4976 35.9709 27.3581 35.9302 27.1961C36.0039 27.1421 36.0835 27.0968 36.1676 27.0612C36.8422 26.8291 37.4628 26.5971 38.132 26.3596C38.5885 26.2057 39.0533 26.0778 39.5243 25.9764C39.6317 25.9417 39.7301 25.8835 39.8122 25.806C39.8944 25.7285 39.9582 25.6337 39.9992 25.5285C40.1875 25.1337 40.348 24.7261 40.4795 24.3089C40.9598 23.3321 41.2944 22.3284 41.8232 21.3948C42.2572 20.5884 42.7882 19.8381 43.4044 19.1606C43.5022 19.0082 43.6142 18.8655 43.739 18.7343C43.8178 18.6476 43.9135 18.578 44.0203 18.5297C44.127 18.4815 44.2425 18.4556 44.3596 18.4536C44.6456 18.513 44.937 18.3295 45.2716 18.281C45.3202 18.281 45.3202 18.281 45.3688 18.2216C46.0379 17.9841 46.2754 18.2216 46.4481 18.7343C46.6848 19.1941 46.7999 19.7068 46.7827 20.2237C46.7886 20.4762 46.8193 20.7274 46.8744 20.9738C46.9233 21.196 46.9233 21.4262 46.8744 21.6484C46.8312 21.8913 46.7827 22.1395 46.7341 22.4309C46.637 22.8303 46.5398 23.2242 46.4481 23.6235C46.4557 23.7549 46.4393 23.8866 46.3995 24.0121C46.5505 24.0727 46.7167 24.084 46.8744 24.0445L48.6499 23.6505L51.1377 23.3051C51.4414 23.2866 51.746 23.2866 52.0497 23.3051C51.9526 23.467 51.904 23.5642 51.8608 23.6235C51.7585 23.7313 51.6445 23.8272 51.5209 23.9096C51.1863 24.0984 50.8031 24.3413 50.4415 24.5356C50.4415 24.5787 50.393 24.5841 50.393 24.5841C49.8502 24.791 49.2905 24.9499 48.72 25.059C48.3724 25.109 48.033 25.2052 47.7109 25.345C47.5114 25.4395 47.3037 25.5154 47.0903 25.5717C46.7071 25.6742 46.3725 25.7714 46.011 25.8685C45.9203 25.9109 45.8395 25.9716 45.7735 26.0469C45.7076 26.1221 45.658 26.2102 45.6278 26.3056C45.5792 26.3596 45.5792 26.4082 45.5306 26.4621C44.9532 28.1728 44.1869 29.8134 43.5663 31.4755C43.477 31.6508 43.3977 31.831 43.3289 32.0152C43.089 32.5013 42.8957 33.0091 42.7514 33.5316C42.5923 33.9966 42.3842 34.4435 42.1308 34.8646C41.9365 35.2261 41.9851 35.6525 41.7477 36.0194C41.0524 38.221 40.6975 40.5158 40.6954 42.8245C40.7503 43.563 40.9102 44.2898 41.1703 44.9831C41.286 45.1759 41.4317 45.3489 41.602 45.4958C41.6505 45.4958 41.6991 45.5336 41.7962 45.4958C42.3991 45.4727 42.9883 45.3102 43.5177 45.0209C43.8038 44.7888 45.2446 43.4397 45.5306 43.1591C46.5969 41.9741 47.5441 40.6871 48.3585 39.3167C48.7848 38.4425 49.0276 37.3578 49.4378 36.5321C49.6267 36.0248 50.107 34.9131 50.3444 34.3411C50.6736 34.4005 51.0082 34.163 50.9596 34.3141ZM43.5555 28.2538C44.0358 26.991 44.1815 26.0142 42.6003 27.2392C42.0607 28.8906 41.8826 30.0239 41.4509 31.5565C40.3985 35.6795 41.9311 32.4955 42.6003 30.6283C42.8714 29.8186 43.1904 29.0257 43.5555 28.2538V28.2538ZM45.0396 22.5388C45.0881 22.3446 45.1367 22.0963 45.1853 21.8481C45.2339 21.4595 45.331 21.0656 45.3796 20.6716C45.4121 20.243 45.3958 19.8121 45.331 19.3872C45.2824 19.2038 45.1367 19.1768 45.0396 19.2847C44.8495 19.4209 44.7017 19.6079 44.6133 19.8244C44.4048 20.2422 44.2436 20.6821 44.133 21.1357C44.0844 21.2868 43.9873 21.4433 43.9387 21.5944C43.8901 21.7455 43.7498 21.9992 43.6527 22.2528C43.5555 22.7493 43.4638 23.289 43.3181 23.834C43.1238 25.1076 44.4675 24.9673 44.7535 24.0661C44.8291 23.5588 44.9263 23.0785 45.018 22.5388H45.0396Z" fill="#101010"/>
<path d="M54.6505 39.0204C53.8356 39.5601 52.7779 39.668 52.2544 39.8839C51.6267 39.933 50.9952 39.8746 50.3872 39.7112C49.1892 39.1715 49.1406 38.8315 48.9031 37.2827C48.787 36.5922 48.8693 35.8829 49.1406 35.2374C49.378 34.1041 51.9684 29.7707 52.3785 28.7022C52.6181 28.0977 52.905 27.513 53.2366 26.9537C53.3682 26.672 53.5879 26.4409 53.8626 26.2953C54.1972 26.101 54.5318 26.0579 54.7692 25.7826C55.487 25.3023 54.9635 25.0379 55.4438 24.9246C55.637 24.8817 55.8384 24.8944 56.0246 24.9612C56.2109 25.0281 56.3743 25.1464 56.4961 25.3023C56.685 25.3023 56.685 25.5668 56.8793 25.7287C57.0196 25.8042 56.9764 26.0039 56.9764 26.1928C56.685 27.434 55.6327 29.8301 55.3574 31.0497C55.1146 31.4167 55.0229 32.7712 54.9257 33.068C54.8444 33.5683 54.6993 34.0562 54.494 34.5197C54.3969 34.919 54.1594 35.6691 54.3969 35.8256C54.6343 35.9821 54.6883 36.8402 54.9743 36.7053C56.1237 35.9228 57.6726 35.6637 58.277 34.8111C58.6602 34.2283 58.903 34.4333 59.2862 33.9045C59.5184 33.6168 59.7108 33.2991 59.8582 32.9601C60.1442 32.2963 60.1928 32.4852 60.4356 31.9239C60.74 31.2677 61.1011 30.6393 61.5149 30.0459C61.6566 29.6194 61.8661 29.2185 62.1355 28.8587C62.6158 28.6482 62.5673 28.7022 62.7561 28.7238C63.4793 28.5781 62.8533 28.7238 63.2958 28.8911C63.3929 29.0691 63.2958 29.2742 63.4415 29.3498C63.1069 30.305 63.0584 31.2709 62.6266 32.3826C62.4809 32.7388 62.578 32.3826 62.292 32.8629C62.2755 33.2659 62.1606 33.6586 61.9574 34.007C61.7631 34.4657 61.8117 34.9892 61.5257 35.4101C61.1426 37.0938 60.9483 37.9789 60.9483 38.1731C60.808 38.8153 62.4809 39.015 64.1862 38.2541C65.2655 37.6227 67.2515 35.4803 68.1581 33.8721C68.4981 33.2515 68.7841 32.6363 69.3075 31.7944C69.7878 30.8662 70.171 32.2477 69.9821 32.6093C69.865 32.8035 69.7691 33.0098 69.6961 33.2245C69.3076 33.5645 68.8812 35.1565 68.5412 35.4911C68.4495 35.6044 68.4981 35.7393 68.2552 35.8688C67.4133 37.0538 66.4688 38.1626 65.4328 39.1823C65.11 39.3284 64.8042 39.5093 64.5208 39.722C64.2757 40.0158 63.984 40.2673 63.6574 40.4667C63.4467 40.5572 63.2614 40.6981 63.1177 40.8768C63.0026 40.8567 62.8843 40.867 62.7745 40.9068C62.6647 40.9465 62.5672 41.0143 62.4917 41.1035C61.5851 41.7565 57.7049 42.4904 57.4135 40.8984C57.1761 39.4467 56.9386 38.6696 57.3703 36.9805V36.7862C56.5247 37.6022 55.6152 38.3493 54.6505 39.0204V39.0204Z" fill="#101010"/>
<path d="M74.24 32.7599C74.4343 32.0152 76.1073 28.3779 76.4418 27.7573C76.7429 27.2905 77.0151 26.8057 77.2567 26.3056C77.5444 25.89 77.8006 25.4535 78.023 24.9996C78.1796 24.6814 78.4547 24.4373 78.7893 24.3197C79.1239 24.2711 79.4153 24.1847 79.7014 24.147C80.2734 24.066 80.608 24.4492 80.8994 25.032V25.2209C80.9912 25.8307 81.1369 26.4837 81.234 27.1421C81.2989 27.7767 81.3151 28.4153 81.2825 29.0524C81.3068 29.482 81.3068 29.9126 81.2825 30.3422C81.52 30.4556 81.4714 30.6498 81.52 30.5959C81.5686 30.5419 81.9517 30.5959 82.0597 30.4771C82.1676 30.3584 82.2 30.3152 82.2486 30.2127C82.4634 30.0319 82.6571 29.8273 82.826 29.6029C82.9663 29.3439 83.112 29.3277 83.3009 29.5381C83.3032 29.6164 83.2873 29.6942 83.2546 29.7654C83.2218 29.8365 83.173 29.8991 83.112 29.9483C83.0531 30.0284 83.0042 30.1154 82.9663 30.2073C82.9465 30.2856 82.9108 30.3589 82.8617 30.423C82.8125 30.487 82.7508 30.5403 82.6803 30.5797L82.5346 30.747C82.4914 30.8009 82.3942 30.8603 82.3942 30.9089C82.3942 30.9574 82.2971 30.9682 82.2486 31.0276C82.1846 31.1132 82.1036 31.1847 82.0108 31.2377C81.9179 31.2906 81.8152 31.3238 81.7089 31.3352C81.5477 31.3861 81.4002 31.4729 81.2772 31.5888C81.1315 31.7076 80.9858 31.7237 80.894 31.6428C80.5635 31.539 80.2264 31.4578 79.8849 31.3999C79.5894 31.3397 79.3167 31.1981 79.0974 30.9912C78.8781 30.7843 78.721 30.5203 78.6437 30.2289C78.3767 29.3546 78.3267 28.4285 78.4979 27.5306C78.5672 27.1286 78.6159 26.7234 78.6437 26.3164C78.6868 26.0196 78.7354 25.7228 78.784 25.4313C78.8277 25.3492 78.8545 25.2591 78.8629 25.1664C78.8712 25.0737 78.8609 24.9803 78.8325 24.8917C78.784 24.8917 78.6868 24.8647 78.6868 24.9619C78.6142 25.0427 78.5509 25.1314 78.4979 25.2263C78.3037 25.6364 78.0662 26.052 77.8288 26.5161C77.6766 26.7958 77.5778 27.1014 77.5373 27.4173C77.5859 27.6062 77.4456 27.7681 77.397 27.9192C76.9626 28.7682 76.6015 29.6529 76.3177 30.5635C76.0749 31.265 75.7403 31.8856 75.4543 32.598C75.0225 33.6773 74.4937 34.6487 74.1591 35.7496C74.0674 36.0949 73.8731 36.5051 73.7274 36.9098C73.2828 37.9642 72.756 38.9819 72.1516 39.9535C72.1516 40.0506 72.0059 40.1154 71.9087 40.2287C71.7123 40.5711 71.4092 40.8398 71.0457 40.9938C70.6823 41.1477 70.2784 41.1785 69.8958 41.0814C69.8041 41.1893 69.707 41.0814 69.6098 41.0274C68.8435 40.9411 68.4603 40.2719 68.2714 39.3437C68.1497 38.5257 68.101 37.6986 68.1258 36.8721C68.1743 35.6201 68.2229 34.3681 68.3146 33.0945C68.5575 31.6698 68.3632 31.7939 68.7463 30.4448C69.0809 28.5344 68.8921 28.8258 69.5612 26.883C69.6551 26.5587 69.7668 26.2398 69.8958 25.9278C70.2304 25.0212 70.5218 24.2117 70.905 23.3915C71.0939 22.7439 71.2881 22.6197 71.763 22.6521C72.1614 22.6124 72.5627 22.6124 72.9611 22.6521C73.3117 22.6573 73.6502 22.781 73.9217 23.0029C74.2954 23.534 74.73 24.0194 75.2168 24.4492C75.4337 24.7717 75.5687 25.1423 75.6101 25.5288C75.6515 25.9153 75.598 26.306 75.4543 26.6672C75.2168 27.6601 75.1197 26.9532 74.8768 27.9947C74.2562 30.094 73.1068 31.8317 72.5779 33.7259C71.844 36.1543 74.0512 33.5963 74.24 32.7599Z" fill="#101010"/>
<path d="M101.735 38.3778C101.857 38.2596 101.969 38.1314 102.07 37.9947C102.642 37.1474 101.924 37.9677 102.453 37.0773C102.633 36.6837 102.84 36.3032 103.074 35.9386C103.554 35.1561 103.505 34.5409 104.369 32.7438C105.518 31.0007 106.285 29.2199 107.24 27.4552C107.817 26.3759 107.623 25.6797 108.535 26.2248C109.112 26.5756 108.346 26.4407 108.346 27.3041C108.681 27.2555 107.769 28.2485 107.866 28.1352C108.152 28.4806 107.963 28.7936 107.769 29.0634C107.337 29.4088 107.866 30.4341 107.099 30.3046C106.473 31.3461 105.853 31.6753 105.421 32.6899C105.232 33.4832 104.801 32.8734 105.421 33.413L104.989 33.9958C104.131 35.264 104.223 35.3504 104.083 36.0897C103.986 36.1509 103.937 36.2048 103.937 36.2516C103.7 36.6186 103.505 36.9316 103.268 37.2554C103.126 37.4167 103.027 37.6118 102.982 37.822C102.833 38.2667 102.64 38.6952 102.404 39.101C102.216 39.414 102.021 39.727 101.827 39.9914C101.557 40.3814 101.236 40.7335 100.872 41.0383C100.568 41.3712 100.232 41.673 99.8681 41.9396C99.2906 42.3065 98.8589 42.7059 98.2869 43.0189C98.2277 43.1266 98.1629 43.2311 98.0926 43.3319C97.6633 43.4029 97.2238 43.3827 96.8028 43.2725C95.8422 43.0243 95.7937 43.2186 94.9788 42.3767C94.3111 41.9316 93.7567 41.3365 93.3598 40.639C93.0542 40.1482 92.8266 39.613 92.6852 39.0524C92.6367 38.9661 92.6367 38.8689 92.545 38.8366C92.4656 38.7504 92.4068 38.6474 92.3731 38.5352C92.3395 38.423 92.3318 38.3046 92.3507 38.189C92.3323 37.8228 92.2689 37.4603 92.1618 37.1097C92.0526 36.6801 91.9715 36.2438 91.9189 35.8037C91.8567 35.5551 91.8402 35.2973 91.8704 35.0428C91.8272 34.951 91.7301 34.9186 91.7301 34.8215L91.444 35.1507C91.2093 35.4724 91.0456 35.8403 90.9637 36.23C90.8942 36.6426 90.7218 37.031 90.4624 37.3592C90.203 37.6875 89.865 37.945 89.4797 38.108C89.2442 38.206 89.0312 38.3511 88.8537 38.5343C88.6924 38.6962 88.4979 38.8211 88.2836 38.9003C88.0693 38.9795 87.8403 39.0112 87.6125 38.9931C86.9867 38.9458 86.3717 38.8039 85.7885 38.5721C85.3838 38.4276 85.0134 38.201 84.7005 37.9067C84.3875 37.6123 84.1388 37.2564 83.9698 36.8614C83.6765 36.3749 83.5425 35.8088 83.5867 35.2424C83.5804 35.0588 83.5477 34.8771 83.4895 34.7028C83.4636 34.5238 83.4636 34.3421 83.4895 34.1631C83.4642 33.53 83.5132 32.8961 83.6352 32.2743C83.8459 31.0799 84.2086 29.9174 84.7146 28.8151C85.3225 27.6135 86.0608 26.4824 86.9163 25.4423C87.8499 24.3129 89.0295 23.4121 90.3647 22.8088C90.6337 22.6594 90.9254 22.5555 91.2282 22.5012C91.3572 22.4896 91.4871 22.5024 91.6113 22.5389C91.8974 22.5983 92.1888 22.7008 92.4262 22.7656C94.1477 24.8703 93.8132 21.1466 94.5309 19.695C94.628 19.4899 94.6766 19.2416 94.7737 19.0366C94.9102 18.7108 95.0221 18.3753 95.1083 18.0328C95.2972 17.5741 95.4915 17.1154 95.648 16.6675C95.7691 16.4075 95.8649 16.1364 95.934 15.858C96.3171 15.1349 96.7003 14.3631 97.0133 13.5968C97.3213 13.0244 97.6826 12.4823 98.0926 11.9779C98.5297 11.575 98.9458 11.1499 99.3392 10.7043C99.5203 10.5229 99.7112 10.3518 99.9112 10.1916C100.329 9.9042 100.729 9.59246 101.109 9.25801C101.36 9.03542 101.671 8.89205 102.004 8.84596C102.336 8.79987 102.674 8.85311 102.976 8.99897C103.408 9.17706 103.694 9.53862 104.175 9.74369C104.268 9.84414 104.335 9.96666 104.369 10.0999C104.455 10.6206 104.472 11.1506 104.417 11.6757C104.369 12.0156 104.32 12.3556 104.272 12.755C104.305 13.179 104.223 13.6043 104.034 13.9854C103.986 14.0879 104.034 14.1743 103.986 14.2768C103.938 14.5774 103.84 14.8677 103.694 15.1349C103.452 15.5281 103.244 15.9416 103.074 16.3707C102.935 16.7836 102.775 17.1889 102.593 17.5849C102.495 17.8616 102.416 18.1447 102.356 18.4322C102.221 18.8822 102.027 19.3122 101.778 19.7111C101.422 20.1143 101.161 20.5918 101.012 21.1089C100.868 21.4904 100.62 21.8235 100.294 22.0694C100.051 22.325 99.8421 22.6117 99.6738 22.9221C99.4302 23.6228 99.0648 24.275 98.5945 24.8487C98.2113 25.3883 98.4488 25.4909 98.2114 26.0035C98.0531 26.1535 97.952 26.3538 97.9253 26.5702C97.8221 26.9756 97.741 27.3863 97.6825 27.8006C97.6261 28.2065 97.5303 28.6059 97.3965 28.9932C97.403 29.2998 97.3868 29.6065 97.3479 29.9106C97.3655 29.9715 97.3657 30.0362 97.3486 30.0972C97.3314 30.1582 97.2975 30.2132 97.2507 30.256C97.2265 30.4947 97.2265 30.7351 97.2507 30.9738C97.3229 31.2899 97.3229 31.6182 97.2507 31.9344V33.1756C97.2507 33.2727 97.2508 33.3213 97.2993 33.3644C97.445 33.6289 97.3479 33.9041 97.3965 34.2117C97.4629 34.846 97.608 35.4696 97.8282 36.0681C97.9048 36.1158 97.97 36.1796 98.0194 36.2551C98.0688 36.3306 98.1011 36.416 98.1142 36.5052C98.2113 36.6402 98.3085 36.8182 98.2599 36.9208C98.2398 37.0312 98.2514 37.1451 98.2935 37.2493C98.3355 37.3534 98.4062 37.4434 98.4974 37.509C98.8353 38.0679 99.2946 38.5437 99.8411 38.9013C99.6954 38.9715 99.5497 38.9445 99.458 39.101C99.4094 39.0092 99.4579 38.8581 99.3122 38.7826C99.3122 38.734 99.2637 38.6962 99.118 38.8096C99.2531 38.8779 99.3698 38.9779 99.458 39.101C99.6733 39.2469 99.9185 39.3428 100.176 39.3816C100.188 39.2907 100.221 39.204 100.273 39.128H100.224C100.771 38.9753 101.283 38.7208 101.735 38.3778V38.3778ZM89.28 32.1934C89.1829 32.3499 89.1397 32.501 89.0426 32.6575C88.7997 33.1216 88.6109 33.5803 88.3734 34.0876C88.0972 34.9663 88.1647 35.9172 88.5623 36.7481C88.5623 36.8398 88.6594 36.8776 88.708 36.9208C89.0437 36.7157 89.3353 36.4461 89.5661 36.1275C89.9492 35.5878 90.4295 35.0482 90.8612 34.5085C91.1498 34.1841 91.3914 33.8208 91.579 33.4292C91.579 33.3321 91.6275 33.2295 91.6275 33.1324C91.6761 32.7924 91.6761 32.5064 91.7247 32.161C91.6761 31.8282 91.6761 31.4901 91.7247 31.1572C92.5396 28.3618 91.865 27.3797 90.3809 30.0779C89.9346 30.7388 89.5652 31.4486 89.28 32.1934V32.1934ZM94.7413 41.3028C94.6928 41.2596 94.7413 41.1571 94.7413 41.1085L94.5957 40.9844L94.5039 41.0491C94.5039 41.0977 94.5471 41.1355 94.6442 41.1733C94.6498 41.2068 94.667 41.2374 94.6928 41.2596C94.7899 41.3891 94.7899 41.4863 94.8871 41.6158C95.3626 42.1847 96.024 42.567 96.7543 42.6951C96.8028 42.7329 96.9431 42.6951 97.1374 42.6951C97.0371 42.5857 96.9249 42.488 96.8028 42.4037C96.2254 42.0529 95.6048 41.659 95.0274 41.3244C95.6837 41.131 96.3582 41.0062 97.0403 40.952L94.7413 41.3028ZM96.3603 41.891L96.4089 41.9288C96.3603 41.891 96.4089 41.8856 96.4089 41.8856V41.837C96.4016 41.8389 96.3948 41.8422 96.3889 41.8468C96.383 41.8514 96.3781 41.8572 96.3745 41.8638C96.371 41.8704 96.3688 41.8777 96.3682 41.8851C96.3677 41.8926 96.3686 41.9001 96.3711 41.9072L96.3603 41.891ZM96.9 37.5738H96.8082C96.9485 37.6007 96.9485 37.6007 96.9485 37.6493V37.6007L96.9 37.5738ZM97.0457 37.9353V37.8868L96.9971 37.9461L97.0457 37.9353ZM97.2345 38.1998L97.1914 38.2537C97.2346 38.2969 97.2345 38.2969 97.2345 38.3401H97.3317C97.3263 38.3185 97.2292 38.2861 97.2292 38.2375L97.2345 38.1998ZM98.0494 36.937H98.1466C98.098 36.8992 98.098 36.8506 98.0494 36.8074C97.9625 36.5107 97.8505 36.2219 97.7148 35.944C97.5745 35.6796 97.5745 35.4043 97.2345 35.1507C97.3827 35.6988 97.6276 36.216 97.9577 36.6779C97.9577 36.7265 97.9577 36.8236 98.0494 36.8074C98.1412 36.7913 98.0926 36.9208 98.0602 36.9747L98.0494 36.937ZM98.9614 39.0632C98.8474 38.937 98.7188 38.8247 98.5783 38.7286C98.4212 38.3576 98.1746 38.0313 97.8606 37.7788C97.812 37.7357 97.812 37.6385 97.6177 37.7788C98.0009 38.2052 98.2923 38.6423 98.697 39.02C98.697 39.1657 98.8374 39.1927 98.9831 39.2683L98.9614 39.0632ZM100.494 20.3102C100.915 19.723 101.299 19.1102 101.644 18.4753C101.978 17.6119 102.361 16.7916 102.793 15.9228C102.89 15.6885 102.94 15.4371 102.939 15.1834C102.925 14.9671 102.956 14.7502 103.03 14.5466C103.438 13.3653 103.634 12.1211 103.608 10.8716C103.6 10.5869 103.567 10.3034 103.511 10.0243C103.322 9.61958 103.128 9.59799 102.793 9.83544C102.696 9.94337 102.556 10.0135 102.507 10.1646C102.319 10.5943 102.078 10.9986 101.789 11.3681C101.719 11.5095 101.67 11.6604 101.644 11.816C101.662 12.1563 101.561 12.4924 101.358 12.7658C101.215 13.1357 101.002 13.4746 100.732 13.7641C100.631 13.8218 100.546 13.905 100.488 14.0054C100.429 14.1058 100.398 14.2199 100.397 14.3362C100.435 14.6147 100.404 14.8985 100.305 15.1618C100.149 15.5065 100.034 15.8689 99.9652 16.2412C99.6792 17.4338 99.1072 18.3998 98.9614 19.5924C98.6269 21.2114 97.526 24.4871 99.5335 22.1018C99.8681 21.4866 100.106 20.9308 100.489 20.3479L100.494 20.3102Z" fill="#101010"/>
<path d="M125.108 24.3089C124.959 24.943 124.7 25.5459 124.341 26.0897C124.201 26.1599 124.153 26.3056 124.055 26.3704C123.867 26.6348 123.721 26.8453 123.516 27.0665C123.394 27.1693 123.295 27.2961 123.224 27.4389C123.098 27.7057 122.9 27.9318 122.652 28.0919C122.552 28.1437 122.468 28.2221 122.409 28.3185C122.123 28.6963 121.74 29.0363 121.454 29.3601C121.192 29.6193 120.882 29.8263 120.542 29.9699C120.134 30.0754 119.733 30.2107 119.344 30.3746C118.994 30.5298 118.633 30.6597 118.265 30.7632L117.833 30.8279C117.269 30.7872 116.719 30.6349 116.214 30.38C116.139 30.3328 116.057 30.2964 115.971 30.2721C115.534 30.1676 115.135 29.9412 114.822 29.6191C114.461 29.8366 114.125 30.0917 113.818 30.38C113.627 30.4988 113.446 30.6343 113.278 30.7847C113.241 30.7977 113.208 30.82 113.181 30.8495C112.906 31.184 112.541 31.433 112.129 31.5672C111.827 31.719 111.497 31.8086 111.16 31.8308C110.823 31.8531 110.484 31.8075 110.165 31.6968C109.933 31.5968 109.693 31.5191 109.447 31.4647C108.809 31.3183 108.237 30.9646 107.821 30.4589C107.405 29.9531 107.168 29.3238 107.148 28.6693C107.06 27.912 107.193 27.1454 107.531 26.4621C107.843 25.7782 108.228 25.1303 108.681 24.5301C108.695 24.4673 108.729 24.4107 108.778 24.3682C109.428 23.3264 110.131 22.3178 110.882 21.3462C111.415 20.6924 112.028 20.1085 112.706 19.6085C112.84 19.5313 112.986 19.4783 113.138 19.452C113.434 19.3549 113.737 19.2809 114.045 19.2307H114.19C114.522 19.2921 114.857 19.3246 115.194 19.3279C115.284 19.3687 115.382 19.3872 115.48 19.3818C115.723 19.3818 115.912 19.3818 116.02 19.5491C116.033 19.5615 116.048 19.5713 116.065 19.5778C116.081 19.5842 116.099 19.5873 116.117 19.5869C116.355 19.5545 116.549 19.765 116.786 19.7326C116.828 19.726 116.87 19.7279 116.911 19.7381C116.952 19.7483 116.99 19.7666 117.024 19.792C117.332 19.9989 117.607 20.2519 117.839 20.5421C117.887 20.6824 117.936 20.7687 117.984 20.909C118.043 21.1019 118.032 21.3093 117.953 21.4948C117.874 21.6804 117.732 21.8322 117.553 21.9236C117.124 22.1954 116.723 22.5081 116.355 22.8572V22.9058C115.782 23.4803 115.253 24.0973 114.773 24.7514C114.596 24.9958 114.405 25.2301 114.201 25.4529C113.77 25.9926 113.435 26.57 113.052 27.1475C112.906 27.4065 112.717 27.6871 112.572 27.8868C112.49 27.979 112.426 28.085 112.383 28.1998C112.108 28.7217 111.913 29.282 111.805 29.8619C111.757 29.9159 111.805 29.9537 111.805 30.0508C111.88 30.006 111.946 29.9474 111.999 29.8781C112.491 29.3066 113.017 28.7659 113.575 28.2592C113.865 27.9976 114.11 27.6894 114.298 27.3471C114.412 27.1745 114.54 27.012 114.682 26.8614C114.978 26.4918 115.248 26.1023 115.491 25.6958C115.831 25.1238 116.166 24.5517 116.5 23.9257C116.679 23.8485 116.876 23.8253 117.068 23.8589C117.26 23.8924 117.438 23.9813 117.58 24.1146L117.866 24.3628C118.148 24.7497 118.299 25.2168 118.297 25.6958C118.297 25.7875 118.249 25.8415 118.2 25.944C118.011 26.4027 117.774 26.9154 117.531 27.3795C117.394 27.7028 117.345 28.0567 117.391 28.4049C117.486 28.801 117.631 29.1836 117.822 29.5435C117.869 29.6111 117.934 29.6638 118.009 29.6953C118.085 29.7269 118.168 29.7361 118.249 29.7216C118.6 29.6397 118.939 29.5128 119.258 29.3439C119.571 29.1594 119.874 28.9576 120.164 28.7395C120.504 28.502 120.839 28.2646 121.244 27.9677C121.481 27.6979 121.783 27.4659 122.01 27.196C122.631 26.4837 123.591 24.773 124.212 24.0606C124.26 24.0067 124.309 24.0013 124.358 23.9473C124.643 23.9728 124.91 24.1013 125.108 24.3089V24.3089Z" fill="#101010"/>
<path d="M144.47 22.0532C144.805 21.5729 145.096 21.1034 145.431 20.526C145.537 20.3521 145.633 20.1719 145.717 19.9863L145.765 19.9323V20.1266C145.62 20.7688 146.435 20.5098 146.003 21.2437C145.644 21.7074 145.325 22.2002 145.048 22.717C144.999 23.057 144.233 23.7963 143.968 24.1093C143.769 24.3967 143.608 24.7087 143.488 25.0375C143.197 25.4584 142.948 25.8254 142.625 26.2571C142.372 26.5711 142.148 26.907 141.955 27.2609C141.79 27.6463 141.562 28.0019 141.281 28.3132C140.612 29.2198 140.563 29.3925 139.845 30.2829C139.511 30.6661 138.842 32.1448 138.459 32.4901C138.229 32.7277 138.035 32.9966 137.881 33.2888C137.547 33.6666 133.958 35.7497 133.666 35.9871C133.526 36.149 133.477 36.2515 133.38 36.3109C132.96 36.5932 132.668 37.0293 132.565 37.5251C132.153 38.5486 131.673 39.5437 131.13 40.504C130.779 41.058 130.458 41.6309 130.169 42.2201C129.943 42.8311 129.583 43.3841 129.117 43.8391C128.734 44.3788 128.162 44.7835 127.779 45.4149C126.998 46.2473 126.11 46.9731 125.14 47.5735C124.422 48.0538 123.224 48.1779 122.442 48.2805C119.668 49.2896 115.928 47.4602 115.356 44.8591C115.357 44.5927 115.434 44.3321 115.578 44.1083C115.723 43.8844 115.928 43.7067 116.171 43.5963C116.71 43.3804 117.25 43.2023 117.752 43.0566C119.6 42.5598 121.372 41.8136 123.019 40.8386C124.201 40.2778 125.352 39.6545 126.467 38.9714C126.956 38.6247 127.364 38.1776 127.665 37.66C128 36.8937 129.004 34.5516 129.387 33.8231C132.884 26.732 131.686 29.7703 127.568 31.6645C126.64 31.4961 125.778 31.0697 125.08 30.4341C124.746 29.8944 122.442 27.1098 122.684 26.3596C122.922 25.4638 123.019 25.8793 122.97 24.6435C123.116 23.2296 123.548 22.5497 123.834 20.8659C123.931 20.418 124.454 19.3441 124.454 18.7667C124.838 17.995 125.221 16.2681 125.701 15.6259C125.96 15.0485 126.265 14.4927 126.613 13.9637C126.764 13.7257 126.946 13.508 127.153 13.3162C127.298 13.3917 127.487 13.5104 127.633 13.586C127.87 13.9853 128.88 14.4171 129.403 14.6653C129.56 14.7915 129.705 14.9324 129.835 15.0862C129.932 15.2158 129.981 15.3507 130.029 15.3938C130.325 15.5889 130.571 15.8516 130.745 16.1603C130.92 16.4691 131.018 16.8149 131.033 17.1693C131.153 17.6891 131.104 18.2337 130.893 18.7235C130.65 19.0905 130.509 19.587 130.169 20.1158C129.932 20.7202 129.549 21.4488 129.214 22.118C128.871 22.8147 128.488 23.4905 128.065 24.1417C127.87 24.4115 127.73 24.7623 127.444 25.1886C121.74 34.6488 134.147 22.4363 135.248 20.5583C135.965 19.3603 135.49 20.0187 136.111 18.7613C136.53 18.2476 136.914 17.7068 137.26 17.1423C137.354 16.8585 137.519 16.6037 137.741 16.403C137.978 16.0846 138.075 16.0684 138.313 16.1332C138.696 16.2681 139.273 17.4337 139.031 18.1407C139.027 18.2572 138.999 18.3717 138.95 18.4774C138.901 18.583 138.831 18.6778 138.745 18.7559C138.494 19.2361 138.271 19.7297 138.075 20.2345C138.023 20.6714 137.894 21.0954 137.692 21.4866C137.099 22.7625 136.603 24.0811 136.208 25.4314C136.014 26.2247 134.384 30.7093 134.292 31.3946C134.244 33.7961 140.471 26.9479 141.848 25.3613C142.851 24.2388 143.645 23.1703 144.47 22.0532ZM124.357 44.5299C126.225 42.4036 127.563 40.639 122.738 43.1268C121.659 43.5693 120.537 43.9146 119.43 44.26C119.087 44.3429 118.752 44.453 118.426 44.5892C116.441 46.764 121.95 48.3128 124.347 44.5299H124.357Z" fill="#101010"/>
<path d="M58.1799 71.3128C57.7817 70.902 57.559 70.3524 57.559 69.7802C57.559 69.208 57.7817 68.6584 58.1799 68.2476C58.38 68.0498 58.6179 67.8943 58.8793 67.7904C59.1408 67.6866 59.4205 67.6365 59.7018 67.6432C60.1433 67.6356 60.5765 67.7637 60.943 68.0101C61.3011 68.2591 61.5668 68.6196 61.6985 69.0355H60.4843C60.4162 68.8918 60.3071 68.7716 60.1707 68.69C60.0343 68.6083 59.8767 68.5689 59.718 68.5768C59.5649 68.5699 59.412 68.5957 59.2697 68.6524C59.1273 68.7092 58.9987 68.7956 58.8923 68.906C58.6997 69.1567 58.5954 69.464 58.5954 69.7802C58.5954 70.0964 58.6997 70.4037 58.8923 70.6544C58.9987 70.7648 59.1273 70.8512 59.2697 70.908C59.412 70.9647 59.5649 70.9905 59.718 70.9836C59.8767 70.9915 60.0343 70.9521 60.1707 70.8705C60.3071 70.7888 60.4162 70.6686 60.4843 70.5249H61.6985C61.5668 70.9408 61.3011 71.3013 60.943 71.5503C60.5765 71.7967 60.1433 71.9247 59.7018 71.9172C59.4205 71.9239 59.1408 71.8738 58.8793 71.77C58.6179 71.6661 58.38 71.5106 58.1799 71.3128V71.3128Z" fill="#454545"/>
<path d="M67.7374 71.885L67.5053 71.1781H66.0051L65.773 71.885H64.6937L66.1454 67.6919H67.3812L68.8329 71.885H67.7374ZM66.2587 70.4064H67.2463L66.7552 68.9169L66.2587 70.4064Z" fill="#454545"/>
<path d="M72.0541 71.885V67.7026H74.7524V68.4744H73.0471V69.3756H74.326V70.1473H73.0471V71.885H72.0541Z" fill="#454545"/>
<path d="M80.7374 67.6919V68.4636H79.221V69.3648H80.5593V70.1365H79.221V71.1079H80.7374V71.885H78.2064V67.6919H80.7374Z" fill="#454545"/>
</svg>
