<svg width="180" height="72" viewBox="0 0 180 72" fill="none" xmlns="http://www.w3.org/2000/svg">
<path d="M15.2384 22.6079H20.0955V22.7869C19.1229 22.7869 19.1647 23.0435 19.1647 24.2608V34.7746C19.1647 36.1292 19.3198 36.4514 20.2984 36.4514V36.6304H14.224V36.4693C15.1608 36.4693 15.2384 36.1471 15.2384 34.7926V23.1449L10.0829 36.8094H9.89789L3.44754 24.8157V31.3496C3.44754 33.9214 4.18149 36.4514 6.4967 36.4514V36.6304H0.279053V36.4693C2.40928 36.4693 3.26256 33.9811 3.26256 31.3675V24.5352C2.48685 23.1628 1.84838 22.8466 1.28748 22.8048V22.6258H6.9681L11.7894 31.7852L15.2384 22.6079Z" fill="#454545"/>
<path d="M33.4385 22.6079V22.7451C32.6031 22.7451 32.1436 22.7451 32.1436 24.5352V34.3808C32.1436 36.2723 32.6031 36.4513 33.4385 36.4513V36.6304H26.8748V36.4693C27.7101 36.4693 28.1636 36.2903 28.1636 34.3987V24.5352C28.1636 22.7809 27.728 22.7451 26.8748 22.7451V22.584L33.4385 22.6079Z" fill="#454545"/>
<path d="M52.9744 31.8511L53.1773 35.8728C51.7092 36.5229 50.1163 36.8427 48.5111 36.8097C44.2506 36.8097 40.4675 34.1185 40.4675 29.6194C40.4675 25.1203 44.2506 22.459 48.5111 22.459C51.0829 22.459 52.688 22.996 53.1773 23.3719L52.9744 27.3997H52.8133C52.2166 23.2764 49.967 22.626 48.5111 22.626C46.3033 22.626 45.3664 24.1775 45.3664 29.6373C45.3664 35.0971 46.363 36.6485 48.5111 36.6485C49.8656 36.6485 52.139 35.8311 52.8133 31.8749L52.9744 31.8511Z" fill="#454545"/>
<path d="M74.8785 36.4693V36.6483H70.9164C69.5022 36.6483 69.0606 35.7532 68.5833 32.0477C68.3267 30.0547 65.9339 30.1741 65.9339 30.1741H65.0031V34.3987C65.0031 36.3499 65.0806 36.4693 65.916 36.4693V36.6483H59.949V36.4693C60.8082 36.4693 60.9872 36.4275 60.9872 34.3987V24.5352C60.9872 23.3 60.8261 22.7451 59.949 22.7451V22.584H65.6057C69.5678 22.584 73.1361 23.0613 73.1361 26.3909C73.1361 29.3745 70.3853 29.9712 68.4758 29.9712C70.7672 29.9712 71.9188 30.4664 72.8974 34.0526C73.3091 35.616 74.3593 36.4096 74.8785 36.4693ZM68.4639 26.4327C68.4639 22.6258 67.9508 22.8048 65.6176 22.8048H65.0209V29.9652H65.6176C68.1954 29.9771 68.4639 30.0189 68.4639 26.4148V26.4327Z" fill="#454545"/>
<path d="M95.4711 29.7209C95.4711 33.683 92.5831 36.8097 88.2033 36.8097C83.8235 36.8097 80.9295 33.683 80.9295 29.7209C80.9016 28.7485 81.0691 27.7805 81.4219 26.874C81.7748 25.9675 82.3059 25.141 82.9838 24.4434C83.6617 23.7458 84.4727 23.1912 85.3687 22.8126C86.2647 22.4339 87.2276 22.2388 88.2003 22.2388C89.1731 22.2388 90.1359 22.4339 91.0319 22.8126C91.9279 23.1912 92.7389 23.7458 93.4168 24.4434C94.0947 25.141 94.6258 25.9675 94.9787 26.874C95.3315 27.7805 95.499 28.7485 95.4711 29.7209V29.7209ZM90.6318 29.7209C90.6318 24.2611 90.5483 22.6082 88.2033 22.6082C85.8583 22.6082 85.7329 24.2611 85.7329 29.7209C85.7329 35.1807 85.8284 36.6307 88.2033 36.6307C90.5782 36.6307 90.6318 35.1986 90.6318 29.7209Z" fill="#454545"/>
<path d="M123.152 22.6079V22.7451C122.358 22.7451 121.141 23.3418 119.685 26.8683L116.2 36.6065H115.484C113.628 32.2864 112.435 29.4938 111.641 27.656L108.455 36.6065H107.733C102.715 24.8753 102.458 24.3562 102.458 24.3562C101.778 22.763 101.503 22.7809 100.984 22.7451V22.584H107.196V22.7451C105.925 22.7451 106.939 25.0543 106.939 25.0543L109.923 31.8866L111.516 27.4411C110.322 24.6128 110.179 24.3562 110.179 24.3562C109.505 22.763 109.225 22.7809 108.705 22.7451V22.584H114.923V22.7451C113.646 22.7451 114.661 25.0543 114.661 25.0543L117.644 31.9045L119.434 26.8683C119.929 25.4541 119.494 22.7451 117.459 22.7451V22.584L123.152 22.6079Z" fill="#454545"/>
<path d="M134.741 22.6079H134.842C139.878 34.1601 140.212 34.8164 140.212 34.8164C140.928 36.4096 141.603 36.4275 142.002 36.4693V36.6304H135.027V36.4693C136.62 36.4693 135.427 34.1421 135.427 34.1421L134.788 32.7638H130.886C130.486 33.6827 130.844 36.4693 133.237 36.4693V36.6304H127.509V36.4693C128.105 36.4275 129.185 36.2724 130.719 32.7638L134.741 22.6079ZM132.73 28.1155L130.94 32.5967H134.705L132.73 28.1155Z" fill="#454545"/>
<path d="M161.562 22.6079V22.7451C160.708 22.7451 159.431 23.3418 157.88 26.8683L153.954 36.6065H153.357C147.987 24.8753 147.736 24.3562 147.736 24.3562C147.02 22.763 146.722 22.7809 146.167 22.7451V22.584H152.796V22.7451C151.424 22.7451 152.516 25.0543 152.516 25.0543L155.607 31.9224L157.701 26.922C158.298 25.4482 157.94 22.7988 155.547 22.7988V22.6377L161.562 22.6079Z" fill="#454545"/>
<path d="M179.725 32.728V36.6304H168.095V36.4693C168.931 36.4693 169.247 35.2759 169.247 33.9214V25.3587C169.247 24.1235 168.967 22.769 168.095 22.769V22.6079H179.469V26.6893H179.29C179.29 22.8048 173.848 22.7869 173.848 22.7869H173.132V29.458H174.743C175.052 29.4596 175.358 29.3999 175.644 29.2823C175.93 29.1647 176.19 28.9916 176.409 28.773C176.627 28.5544 176.8 28.2946 176.918 28.0086C177.036 27.7227 177.095 27.4162 177.094 27.107H177.273V31.9881H177.094C177.084 31.3674 176.834 30.7748 176.395 30.3359C175.956 29.897 175.363 29.6463 174.743 29.637H173.132V36.4693H173.848C173.848 36.4693 179.546 36.6901 179.546 32.7459L179.725 32.728Z" fill="#454545"/>
<path d="M48.2351 44.2983H49.5837V49.8298H48.2351V47.5384H46.1169V49.8298H44.7683V44.2983H46.1169V46.5121H48.2471L48.2351 44.2983Z" fill="#101010"/>
<path d="M58.9114 49.83L58.6071 48.8992H56.6201L56.3157 49.83H54.8777L56.7991 44.2866H58.44L60.3554 49.83H58.9114ZM56.9602 47.8788H58.2669L57.6106 45.9097L56.9602 47.8788Z" fill="#101010"/>
<path d="M65.6482 49.8298V44.2983H67.0027V49.8298H65.6482Z" fill="#101010"/>
<path d="M74.1628 47.6814V49.8296H72.8142V44.2981H74.9982C75.5423 44.2661 76.0781 44.4433 76.4959 44.7934C76.6654 44.9425 76.801 45.1261 76.8936 45.3319C76.9863 45.5378 77.0338 45.7611 77.0329 45.9868C77.0272 46.3206 76.9257 46.6458 76.7405 46.9236C76.5124 47.2498 76.1728 47.4811 75.7858 47.574L77.1403 49.8236H75.565L74.3179 47.6755L74.1628 47.6814ZM74.1628 45.3245V46.6551H74.9982C75.1293 46.6531 75.2569 46.6128 75.3655 46.5394C75.4741 46.4659 75.559 46.3624 75.6096 46.2414C75.6603 46.1205 75.6746 45.9874 75.6508 45.8584C75.6269 45.7295 75.566 45.6103 75.4755 45.5154C75.4137 45.4519 75.3393 45.4021 75.2571 45.3692C75.1749 45.3363 75.0867 45.3211 74.9982 45.3245H74.1628Z" fill="#101010"/>
<path d="M91.5742 45.2831C91.4246 45.2756 91.2776 45.3246 91.1625 45.4204C91.1075 45.4682 91.0643 45.5281 91.0363 45.5954C91.0084 45.6627 90.9964 45.7355 91.0013 45.8082C90.9981 45.8824 91.0097 45.9564 91.0353 46.0261C91.0609 46.0957 91.1 46.1596 91.1505 46.214C91.2585 46.3225 91.3918 46.4024 91.5384 46.4467L92.0754 46.6078C92.2778 46.6552 92.4771 46.715 92.6721 46.7868C92.8581 46.8549 93.0361 46.943 93.2032 47.0493C93.3702 47.1628 93.5057 47.3168 93.597 47.4969C93.6998 47.7108 93.7509 47.9458 93.7462 48.1831C93.7422 48.414 93.6865 48.641 93.5832 48.8475C93.48 49.054 93.3318 49.2348 93.1495 49.3765C92.7273 49.7228 92.1912 49.8994 91.6458 49.8718C91.1085 49.8963 90.5786 49.7386 90.1421 49.4242C89.9471 49.2753 89.7909 49.0814 89.687 48.859C89.5831 48.6367 89.5345 48.3925 89.5454 48.1473H90.9775C90.9664 48.2385 90.9765 48.3311 91.007 48.4177C91.0376 48.5044 91.0877 48.5829 91.1535 48.647C91.2194 48.7111 91.2991 48.7591 91.3866 48.7873C91.474 48.8155 91.5668 48.8232 91.6577 48.8096C91.7399 48.8165 91.8227 48.8063 91.9007 48.7796C91.9788 48.7529 92.0505 48.7103 92.1112 48.6545C92.1659 48.6061 92.2093 48.5463 92.2382 48.4793C92.267 48.4122 92.2808 48.3396 92.2783 48.2666C92.2811 48.1952 92.2694 48.124 92.2437 48.0573C92.2181 47.9906 92.1791 47.9299 92.1291 47.8788C92.0185 47.7736 91.8861 47.6942 91.7413 47.646C91.5655 47.582 91.3862 47.5282 91.2042 47.485C91.0073 47.4313 90.8104 47.3716 90.6075 47.3C90.4195 47.2298 90.2394 47.1398 90.0705 47.0315C89.9061 46.9217 89.7726 46.7718 89.6827 46.5958C89.5784 46.3825 89.5272 46.1471 89.5335 45.9097C89.5283 45.6713 89.5797 45.4351 89.6834 45.2204C89.7871 45.0057 89.9402 44.8186 90.1302 44.6745C90.5523 44.3524 91.0735 44.1878 91.604 44.209C92.1165 44.1856 92.6228 44.3279 93.0481 44.6148C93.2429 44.7654 93.3987 44.9604 93.5025 45.1837C93.6063 45.4069 93.6551 45.6517 93.6448 45.8977H92.1828C92.1719 45.7247 92.1025 45.5606 91.9859 45.4323C91.931 45.3808 91.8662 45.341 91.7954 45.3154C91.7246 45.2897 91.6493 45.2788 91.5742 45.2831V45.2831Z" fill="#101010"/>
<path d="M102.942 49.83L102.637 48.8992H100.65L100.34 49.83H98.908L100.829 44.2866H102.47L104.386 49.83H102.942ZM101.014 47.8788H102.321L101.665 45.9097L101.014 47.8788Z" fill="#101010"/>
<path d="M109.678 44.2983H111.027V48.8034H112.704V49.8298H109.678V44.2983Z" fill="#101010"/>
<path d="M118.581 49.0841C118.053 48.5397 117.758 47.8109 117.758 47.0524C117.758 46.2938 118.053 45.5651 118.581 45.0206C118.847 44.7598 119.163 44.5547 119.509 44.4174C119.855 44.2801 120.226 44.2133 120.598 44.221C120.97 44.2121 121.34 44.2783 121.685 44.4157C122.031 44.5531 122.345 44.7589 122.609 45.0206C123.136 45.5658 123.43 46.2942 123.43 47.0524C123.43 47.8105 123.136 48.539 122.609 49.0841C122.346 49.3454 122.032 49.5509 121.688 49.6883C121.343 49.8257 120.975 49.8921 120.604 49.8837C120.231 49.8922 119.859 49.8258 119.512 49.6885C119.164 49.5512 118.848 49.3457 118.581 49.0841ZM121.654 48.207C121.914 47.8769 122.055 47.4692 122.055 47.0494C122.055 46.6295 121.914 46.2219 121.654 45.8918C121.371 45.6133 120.989 45.4574 120.592 45.4574C120.195 45.4574 119.813 45.6133 119.53 45.8918C119.271 46.2219 119.13 46.6295 119.13 47.0494C119.13 47.4692 119.271 47.8769 119.53 48.207C119.813 48.4854 120.195 48.6414 120.592 48.6414C120.989 48.6414 121.371 48.4854 121.654 48.207V48.207Z" fill="#101010"/>
<path d="M132.526 44.2866H133.869V49.83H132.526L130.253 46.3393V49.83H128.904V44.2866H130.253L132.508 47.7774L132.526 44.2866Z" fill="#101010"/>
<path d="M76.4008 0.792182C78.6755 -0.169466 81.2249 -0.258721 83.5612 0.541541C84.729 0.945916 85.8323 1.51669 86.8371 2.23619C87.7799 2.88063 88.5795 3.51313 89.3433 4.0263C89.8027 4.31868 90.2502 4.59315 90.6799 4.83183C91.1095 5.07051 91.5332 5.22565 91.9568 5.42853C92.8451 5.74202 93.7693 5.94249 94.7076 6.02524C96.6165 6.18579 98.5351 5.86363 100.287 5.08841C100.37 5.26145 100.203 5.68513 100.531 5.62546C101.832 5.33307 102.029 5.5837 102.238 5.94173C102.286 6.03123 102.059 6.16845 101.868 6.28779C101.677 6.40713 101.504 6.4668 101.713 6.47276C100.77 7.02173 99.0277 7.63036 100.144 7.47522C100.52 7.44113 100.886 7.33586 101.224 7.16496C101.561 6.97312 101.935 6.85514 102.322 6.81886C102.799 6.87256 102.274 7.54086 102.757 7.58859C103.23 7.32028 103.687 7.02338 104.124 6.69951C104.571 6.60404 104.124 7.42751 104.476 7.17093C105.848 6.34033 106.985 5.17386 107.781 3.78163C107.865 3.83533 107.996 3.78166 108.068 3.85327C108.139 3.92487 108.169 4.00841 107.936 4.41417C106.221 6.85512 103.814 8.72743 101.026 9.79068C98.2386 10.8539 95.1965 11.0596 92.291 10.3812C91.2948 10.1464 90.3296 9.79596 89.4149 9.33696C88.5382 8.89739 87.7051 8.37591 86.9266 7.77954C85.7485 6.79538 84.4889 5.91307 83.1614 5.14213C82.0493 4.60356 80.8125 4.37476 79.5812 4.4798C78.3689 4.57869 77.2079 5.01251 76.2278 5.73286C75.2313 6.45511 74.4447 7.42912 73.9483 8.55525C73.4949 9.56367 73.3218 8.69252 73.471 7.69603C73.4292 8.01825 73.1488 7.89292 73.1249 8.22707C72.8623 8.13756 72.5759 7.27833 73.3278 6.04913C73.1128 6.33441 72.9136 6.63121 72.7311 6.93821C72.4745 7.20672 72.4745 6.80095 72.3014 6.69951C72.4864 6.37133 72.6893 6.06106 72.6117 6.00735L72.2835 5.78658C71.9899 6.22436 71.7325 6.68535 71.5138 7.16496C71.6749 6.80097 71.8718 6.46084 71.7883 6.41311L71.4422 6.21618C71.7525 5.42257 72.6714 4.5514 73.2323 3.9189L73.0235 3.71003C72.2779 4.3823 71.67 5.1929 71.2334 6.09684C71.3587 5.67318 71.2811 5.62544 71.114 5.50013C71.7406 4.30673 72.8385 3.51312 73.7097 2.48082C73.3539 2.75212 73.0151 3.04508 72.6953 3.35799C73.0101 2.71343 73.525 2.18801 74.1632 1.86027C74.8826 1.45135 75.6304 1.09442 76.4008 0.792182V0.792182Z" fill="#C3D8CC"/>
<path d="M76.4008 61.4412C78.6749 60.4768 81.2253 60.3875 83.5612 61.1906C84.7298 61.5906 85.8334 62.1595 86.8371 62.8793C87.7799 63.5237 88.5795 64.1622 89.3433 64.6694C89.8027 64.9618 90.2502 65.2661 90.6799 65.4749C91.1095 65.6838 91.5332 65.8747 91.9568 66.0716C92.8451 66.3851 93.7693 66.5856 94.7076 66.6683C96.6165 66.8289 98.5351 66.5067 100.287 65.7315C100.37 65.9105 100.203 66.3282 100.531 66.2686C101.832 65.9762 102.029 66.2268 102.238 66.5908C102.286 66.6743 102.059 66.8175 101.868 66.9309C101.677 67.0443 101.504 67.1099 101.713 67.1159C100.77 67.6648 99.0277 68.2735 100.144 68.1243C100.52 68.0848 100.886 67.9777 101.224 67.8081C101.562 67.619 101.936 67.5012 102.322 67.462C102.799 67.5157 102.274 68.184 102.757 68.2377C103.229 67.9652 103.685 67.6664 104.124 67.3426C104.571 67.2471 104.124 68.0706 104.476 67.814C105.848 66.9834 106.985 65.817 107.781 64.4247C107.865 64.4784 107.996 64.4247 108.068 64.4963C108.139 64.5679 108.169 64.6515 107.936 65.0632C106.221 67.5042 103.814 69.3765 101.026 70.4397C98.2386 71.503 95.1965 71.7086 92.291 71.0302C91.2946 70.7936 90.3293 70.4411 89.4149 69.98C88.5382 69.5405 87.7051 69.019 86.9266 68.4226C85.7485 67.4385 84.4889 66.5562 83.1614 65.7852C82.0496 65.2459 80.8121 65.019 79.5812 65.1289C78.3686 65.222 77.2066 65.6541 76.2278 66.376C75.2297 67.099 74.4428 68.0754 73.9483 69.2043C73.4949 70.2068 73.3218 69.3356 73.471 68.3391C73.4292 68.6613 73.1488 68.536 73.1249 68.8702C72.8623 68.7866 72.5759 67.9274 73.3278 66.6922C73.1128 66.9796 72.9136 67.2784 72.7311 67.5873C72.4745 67.8498 72.4745 67.4441 72.3014 67.3426C72.4864 67.0144 72.6893 66.7042 72.6117 66.6505L72.2835 66.4297C71.9912 66.8682 71.7338 67.3291 71.5138 67.8081C71.6749 67.4441 71.8718 67.1039 71.7883 67.0562C71.7048 67.0085 71.5257 66.913 71.4422 66.8593C71.7525 66.0657 72.6714 65.1945 73.2323 64.562L73.0235 64.3531C72.2779 65.0254 71.67 65.836 71.2334 66.7399C71.3587 66.3223 71.2811 66.2685 71.114 66.1432C71.7406 64.9498 72.8385 64.1562 73.7097 63.1239C73.3539 63.3952 73.0151 63.6882 72.6953 64.0011C73.0101 63.3551 73.5249 62.8277 74.1632 62.4974C74.8817 62.0901 75.6297 61.7371 76.4008 61.4412V61.4412Z" fill="#C3D8CC"/>
</svg>
