<svg width="100" height="100" viewBox="0 0 100 100" fill="none" xmlns="http://www.w3.org/2000/svg">
<g clip-path="url(#clip0_1489_899)">
<path opacity="0.8" d="M50 0C22.4283 0 0 22.4305 0 50C0 77.5695 22.4283 100 50 100C77.5717 100 100 77.5695 100 50C100 22.4305 77.5717 0 50 0Z" fill="white"/>
<path d="M69.8771 48.2481L40.7105 29.4981C40.0717 29.0811 39.2457 29.0586 38.5865 29.4207C37.915 29.7869 37.5 30.4869 37.5 31.2498V68.7498C37.5 69.5127 37.915 70.2127 38.5865 70.5789C38.8957 70.7479 39.2416 70.8332 39.5834 70.8332C39.974 70.8332 40.3688 70.7232 40.7105 70.5016L69.8771 51.7516C70.4713 51.3691 70.8334 50.7078 70.8334 49.9998C70.8334 49.2918 70.4713 48.6307 69.8771 48.2481ZM41.6666 64.933V35.0666L64.8967 49.9998L41.6666 64.933Z" fill="#101010"/>
</g>
<defs>
<clipPath id="clip0_1489_899">
<rect width="100" height="100" fill="white"/>
</clipPath>
</defs>
</svg>
